%TF.GenerationSoftware,KiCad,Pcbnew,(6.0.4)*%
%TF.CreationDate,2022-05-01T17:36:18-07:00*%
%TF.ProjectId,Eight LEDBar,45696768-7420-44c4-9544-4261722e6b69,rev?*%
%TF.SameCoordinates,Original*%
%TF.FileFunction,Copper,L2,Bot*%
%TF.FilePolarity,Positive*%
%FSLAX46Y46*%
G04 Gerber Fmt 4.6, Leading zero omitted, Abs format (unit mm)*
G04 Created by KiCad (PCBNEW (6.0.4)) date 2022-05-01 17:36:18*
%MOMM*%
%LPD*%
G01*
G04 APERTURE LIST*
%TA.AperFunction,ComponentPad*%
%ADD10C,1.600000*%
%TD*%
%TA.AperFunction,ComponentPad*%
%ADD11R,1.800000X1.800000*%
%TD*%
%TA.AperFunction,ComponentPad*%
%ADD12C,1.800000*%
%TD*%
%TA.AperFunction,ComponentPad*%
%ADD13C,2.400000*%
%TD*%
%TA.AperFunction,ComponentPad*%
%ADD14O,2.400000X2.400000*%
%TD*%
%TA.AperFunction,ComponentPad*%
%ADD15R,1.600000X1.600000*%
%TD*%
%TA.AperFunction,ComponentPad*%
%ADD16O,1.600000X1.600000*%
%TD*%
%TA.AperFunction,ComponentPad*%
%ADD17R,1.700000X1.700000*%
%TD*%
%TA.AperFunction,ComponentPad*%
%ADD18O,1.700000X1.700000*%
%TD*%
%TA.AperFunction,Conductor*%
%ADD19C,0.250000*%
%TD*%
G04 APERTURE END LIST*
D10*
%TO.P,C1,1*%
%TO.N,Net-(C1-Pad1)*%
X121285000Y-102255000D03*
%TO.P,C1,2*%
%TO.N,GND*%
X121285000Y-104755000D03*
%TD*%
D11*
%TO.P,BLUE2,1,K*%
%TO.N,GND*%
X119610000Y-69200000D03*
D12*
%TO.P,BLUE2,2,A*%
%TO.N,Net-(BLUE2-Pad2)*%
X119610000Y-71740000D03*
%TD*%
D13*
%TO.P,R6,1*%
%TO.N,Net-(R6-Pad1)*%
X145669000Y-92075000D03*
D14*
%TO.P,R6,2*%
%TO.N,Net-(R6-Pad2)*%
X145669000Y-79375000D03*
%TD*%
D11*
%TO.P,GREEN2,1,K*%
%TO.N,GND*%
X132620000Y-69200000D03*
D12*
%TO.P,GREEN2,2,A*%
%TO.N,Net-(GREEN2-Pad2)*%
X132620000Y-71740000D03*
%TD*%
D13*
%TO.P,R5,1*%
%TO.N,Net-(R5-Pad1)*%
X139192000Y-92075000D03*
D14*
%TO.P,R5,2*%
%TO.N,Net-(R5-Pad2)*%
X139192000Y-79375000D03*
%TD*%
D13*
%TO.P,R3,1*%
%TO.N,Net-(R3-Pad1)*%
X126238000Y-92075000D03*
D14*
%TO.P,R3,2*%
%TO.N,Net-(GREEN1-Pad2)*%
X126238000Y-79375000D03*
%TD*%
D13*
%TO.P,R1,1*%
%TO.N,Net-(R1-Pad1)*%
X113030000Y-92075000D03*
D14*
%TO.P,R1,2*%
%TO.N,Net-(BLUE1-Pad2)*%
X113030000Y-79375000D03*
%TD*%
D13*
%TO.P,R7,1*%
%TO.N,Net-(R7-Pad1)*%
X152146000Y-92075000D03*
D14*
%TO.P,R7,2*%
%TO.N,Net-(R7-Pad2)*%
X152146000Y-79375000D03*
%TD*%
D15*
%TO.P,U1,1,QB*%
%TO.N,Net-(R7-Pad1)*%
X144765000Y-99070000D03*
D16*
%TO.P,U1,2,QC*%
%TO.N,Net-(R6-Pad1)*%
X142225000Y-99070000D03*
%TO.P,U1,3,QD*%
%TO.N,Net-(R5-Pad1)*%
X139685000Y-99070000D03*
%TO.P,U1,4,QE*%
%TO.N,Net-(R4-Pad1)*%
X137145000Y-99070000D03*
%TO.P,U1,5,QF*%
%TO.N,Net-(R3-Pad1)*%
X134605000Y-99070000D03*
%TO.P,U1,6,QG*%
%TO.N,Net-(R2-Pad1)*%
X132065000Y-99070000D03*
%TO.P,U1,7,QH*%
%TO.N,Net-(R1-Pad1)*%
X129525000Y-99070000D03*
%TO.P,U1,8,GND*%
%TO.N,GND*%
X126985000Y-99070000D03*
%TO.P,U1,9,QH'*%
%TO.N,unconnected-(U1-Pad9)*%
X126985000Y-106690000D03*
%TO.P,U1,10,~{SRCLR}*%
%TO.N,Net-(C1-Pad1)*%
X129525000Y-106690000D03*
%TO.P,U1,11,SRCLK*%
%TO.N,Net-(J1-Pad1)*%
X132065000Y-106690000D03*
%TO.P,U1,12,RCLK*%
%TO.N,Net-(J1-Pad2)*%
X134605000Y-106690000D03*
%TO.P,U1,13,~{OE}*%
%TO.N,GND*%
X137145000Y-106690000D03*
%TO.P,U1,14,SER*%
%TO.N,Net-(J1-Pad3)*%
X139685000Y-106690000D03*
%TO.P,U1,15,QA*%
%TO.N,Net-(R8-Pad1)*%
X142225000Y-106690000D03*
%TO.P,U1,16,VCC*%
%TO.N,Net-(C1-Pad1)*%
X144765000Y-106690000D03*
%TD*%
D11*
%TO.P,YELOW2,1,K*%
%TO.N,GND*%
X145620000Y-69200000D03*
D12*
%TO.P,YELOW2,2,A*%
%TO.N,Net-(R6-Pad2)*%
X145620000Y-71740000D03*
%TD*%
D13*
%TO.P,R4,1*%
%TO.N,Net-(R4-Pad1)*%
X132588000Y-92075000D03*
D14*
%TO.P,R4,2*%
%TO.N,Net-(GREEN2-Pad2)*%
X132588000Y-79375000D03*
%TD*%
D11*
%TO.P,RED2,1,K*%
%TO.N,GND*%
X158630000Y-69210000D03*
D12*
%TO.P,RED2,2,A*%
%TO.N,Net-(R8-Pad2)*%
X158630000Y-71750000D03*
%TD*%
D11*
%TO.P,GREEN1,1,K*%
%TO.N,GND*%
X126115000Y-69195000D03*
D12*
%TO.P,GREEN1,2,A*%
%TO.N,Net-(GREEN1-Pad2)*%
X126115000Y-71735000D03*
%TD*%
D13*
%TO.P,R8,1*%
%TO.N,Net-(R8-Pad1)*%
X158623000Y-92075000D03*
D14*
%TO.P,R8,2*%
%TO.N,Net-(R8-Pad2)*%
X158623000Y-79375000D03*
%TD*%
D13*
%TO.P,R2,1*%
%TO.N,Net-(R2-Pad1)*%
X119634000Y-92075000D03*
D14*
%TO.P,R2,2*%
%TO.N,Net-(BLUE2-Pad2)*%
X119634000Y-79375000D03*
%TD*%
D11*
%TO.P,YELOW1,1,K*%
%TO.N,GND*%
X139120000Y-69200000D03*
D12*
%TO.P,YELOW1,2,A*%
%TO.N,Net-(R5-Pad2)*%
X139120000Y-71740000D03*
%TD*%
D11*
%TO.P,RED1,1,K*%
%TO.N,GND*%
X152130000Y-69200000D03*
D12*
%TO.P,RED1,2,A*%
%TO.N,Net-(R7-Pad2)*%
X152130000Y-71740000D03*
%TD*%
D17*
%TO.P,J1,1,Pin_1*%
%TO.N,Net-(J1-Pad1)*%
X130815000Y-116840000D03*
D18*
%TO.P,J1,2,Pin_2*%
%TO.N,Net-(J1-Pad2)*%
X133355000Y-116840000D03*
%TO.P,J1,3,Pin_3*%
%TO.N,Net-(J1-Pad3)*%
X135895000Y-116840000D03*
%TO.P,J1,4,Pin_4*%
%TO.N,Net-(C1-Pad1)*%
X138435000Y-116840000D03*
%TO.P,J1,5,Pin_5*%
%TO.N,GND*%
X140975000Y-116840000D03*
%TD*%
D11*
%TO.P,BLUE1,1,K*%
%TO.N,GND*%
X113100000Y-69200000D03*
D12*
%TO.P,BLUE1,2,A*%
%TO.N,Net-(BLUE1-Pad2)*%
X113100000Y-71740000D03*
%TD*%
D19*
%TO.N,Net-(J1-Pad2)*%
X133355000Y-116840000D02*
X133985000Y-116210000D01*
X133985000Y-116210000D02*
X133985000Y-107310000D01*
X133985000Y-107310000D02*
X134605000Y-106690000D01*
%TO.N,Net-(J1-Pad3)*%
X135895000Y-116840000D02*
X135895000Y-113660000D01*
X135895000Y-113660000D02*
X139685000Y-109870000D01*
X139685000Y-109870000D02*
X139685000Y-106690000D01*
%TO.N,Net-(R1-Pad1)*%
X128425000Y-97155000D02*
X129540000Y-98270000D01*
X129540000Y-98270000D02*
X129540000Y-99568000D01*
X113030000Y-92075000D02*
X118110000Y-97155000D01*
X118110000Y-97155000D02*
X128425000Y-97155000D01*
%TO.N,Net-(R2-Pad1)*%
X121920000Y-95885000D02*
X130135000Y-95885000D01*
X130135000Y-95885000D02*
X132080000Y-97830000D01*
X132080000Y-97830000D02*
X132080000Y-99568000D01*
X119634000Y-93599000D02*
X121920000Y-95885000D01*
X119634000Y-92075000D02*
X119634000Y-93599000D01*
%TO.N,Net-(R5-Pad1)*%
X139192000Y-92075000D02*
X139490000Y-92373000D01*
X139490000Y-92373000D02*
X139490000Y-98875000D01*
X139490000Y-98875000D02*
X139685000Y-99070000D01*
%TO.N,Net-(R6-Pad1)*%
X145669000Y-94361000D02*
X145669000Y-92075000D01*
X142240000Y-97790000D02*
X145669000Y-94361000D01*
X142240000Y-99568000D02*
X142240000Y-97790000D01*
%TO.N,Net-(BLUE1-Pad2)*%
X113100000Y-71740000D02*
X113100000Y-79305000D01*
X113100000Y-79305000D02*
X113030000Y-79375000D01*
%TO.N,Net-(BLUE2-Pad2)*%
X119610000Y-71740000D02*
X119610000Y-79351000D01*
X119610000Y-79351000D02*
X119634000Y-79375000D01*
%TO.N,Net-(GREEN1-Pad2)*%
X126115000Y-79252000D02*
X126238000Y-79375000D01*
X126115000Y-71735000D02*
X126115000Y-79252000D01*
%TO.N,Net-(GREEN2-Pad2)*%
X132620000Y-79343000D02*
X132588000Y-79375000D01*
X132620000Y-71740000D02*
X132620000Y-79343000D01*
%TO.N,Net-(R3-Pad1)*%
X131185000Y-94615000D02*
X134605000Y-98035000D01*
X134605000Y-98035000D02*
X134605000Y-99070000D01*
X126238000Y-93853000D02*
X127000000Y-94615000D01*
X126238000Y-92075000D02*
X126238000Y-93853000D01*
X127000000Y-94615000D02*
X131185000Y-94615000D01*
%TO.N,Net-(R4-Pad1)*%
X132588000Y-93548000D02*
X132588000Y-92075000D01*
X137160000Y-98425000D02*
X137160000Y-98120000D01*
X137160000Y-98120000D02*
X132588000Y-93548000D01*
%TO.N,Net-(R5-Pad2)*%
X139120000Y-79303000D02*
X139192000Y-79375000D01*
X139120000Y-71740000D02*
X139120000Y-79303000D01*
%TO.N,Net-(R6-Pad2)*%
X145620000Y-71740000D02*
X145620000Y-79326000D01*
X145620000Y-79326000D02*
X145669000Y-79375000D01*
%TO.N,Net-(R7-Pad1)*%
X146812000Y-99568000D02*
X152146000Y-94234000D01*
X152146000Y-94234000D02*
X152146000Y-92075000D01*
X144780000Y-99568000D02*
X146812000Y-99568000D01*
%TO.N,Net-(R7-Pad2)*%
X152130000Y-79359000D02*
X152146000Y-79375000D01*
X152130000Y-71740000D02*
X152130000Y-79359000D01*
%TO.N,Net-(R8-Pad1)*%
X158623000Y-92075000D02*
X158623000Y-94107000D01*
X142225000Y-104790000D02*
X142225000Y-106690000D01*
X149225000Y-103505000D02*
X143510000Y-103505000D01*
X143510000Y-103505000D02*
X142225000Y-104790000D01*
X158623000Y-94107000D02*
X149225000Y-103505000D01*
%TO.N,Net-(R8-Pad2)*%
X158630000Y-71750000D02*
X158630000Y-79368000D01*
X158630000Y-79368000D02*
X158623000Y-79375000D01*
%TD*%
%TA.AperFunction,Conductor*%
%TO.N,GND*%
G36*
X163748621Y-64028502D02*
G01*
X163795114Y-64082158D01*
X163806500Y-64134500D01*
X163806500Y-121865500D01*
X163786498Y-121933621D01*
X163732842Y-121980114D01*
X163680500Y-121991500D01*
X107949500Y-121991500D01*
X107881379Y-121971498D01*
X107834886Y-121917842D01*
X107823500Y-121865500D01*
X107823500Y-106690000D01*
X125671502Y-106690000D01*
X125691457Y-106918087D01*
X125750716Y-107139243D01*
X125753039Y-107144224D01*
X125753039Y-107144225D01*
X125845151Y-107341762D01*
X125845154Y-107341767D01*
X125847477Y-107346749D01*
X125913985Y-107441732D01*
X125956839Y-107502933D01*
X125978802Y-107534300D01*
X126140700Y-107696198D01*
X126145208Y-107699355D01*
X126145211Y-107699357D01*
X126223389Y-107754098D01*
X126328251Y-107827523D01*
X126333233Y-107829846D01*
X126333238Y-107829849D01*
X126503825Y-107909394D01*
X126535757Y-107924284D01*
X126541065Y-107925706D01*
X126541067Y-107925707D01*
X126751598Y-107982119D01*
X126751600Y-107982119D01*
X126756913Y-107983543D01*
X126985000Y-108003498D01*
X127213087Y-107983543D01*
X127218400Y-107982119D01*
X127218402Y-107982119D01*
X127428933Y-107925707D01*
X127428935Y-107925706D01*
X127434243Y-107924284D01*
X127466175Y-107909394D01*
X127636762Y-107829849D01*
X127636767Y-107829846D01*
X127641749Y-107827523D01*
X127746611Y-107754098D01*
X127824789Y-107699357D01*
X127824792Y-107699355D01*
X127829300Y-107696198D01*
X127991198Y-107534300D01*
X128013162Y-107502933D01*
X128056015Y-107441732D01*
X128122523Y-107346749D01*
X128124846Y-107341767D01*
X128124849Y-107341762D01*
X128140805Y-107307543D01*
X128187722Y-107254258D01*
X128255999Y-107234797D01*
X128323959Y-107255339D01*
X128369195Y-107307543D01*
X128385151Y-107341762D01*
X128385154Y-107341767D01*
X128387477Y-107346749D01*
X128453985Y-107441732D01*
X128496839Y-107502933D01*
X128518802Y-107534300D01*
X128680700Y-107696198D01*
X128685208Y-107699355D01*
X128685211Y-107699357D01*
X128763389Y-107754098D01*
X128868251Y-107827523D01*
X128873233Y-107829846D01*
X128873238Y-107829849D01*
X129043825Y-107909394D01*
X129075757Y-107924284D01*
X129081065Y-107925706D01*
X129081067Y-107925707D01*
X129291598Y-107982119D01*
X129291600Y-107982119D01*
X129296913Y-107983543D01*
X129525000Y-108003498D01*
X129753087Y-107983543D01*
X129758400Y-107982119D01*
X129758402Y-107982119D01*
X129968933Y-107925707D01*
X129968935Y-107925706D01*
X129974243Y-107924284D01*
X130006175Y-107909394D01*
X130176762Y-107829849D01*
X130176767Y-107829846D01*
X130181749Y-107827523D01*
X130286611Y-107754098D01*
X130364789Y-107699357D01*
X130364792Y-107699355D01*
X130369300Y-107696198D01*
X130531198Y-107534300D01*
X130553162Y-107502933D01*
X130596015Y-107441732D01*
X130662523Y-107346749D01*
X130664846Y-107341767D01*
X130664849Y-107341762D01*
X130680805Y-107307543D01*
X130727722Y-107254258D01*
X130795999Y-107234797D01*
X130863959Y-107255339D01*
X130909195Y-107307543D01*
X130925151Y-107341762D01*
X130925154Y-107341767D01*
X130927477Y-107346749D01*
X130993985Y-107441732D01*
X131036839Y-107502933D01*
X131058802Y-107534300D01*
X131220700Y-107696198D01*
X131225208Y-107699355D01*
X131225211Y-107699357D01*
X131303389Y-107754098D01*
X131408251Y-107827523D01*
X131413233Y-107829846D01*
X131413238Y-107829849D01*
X131583825Y-107909394D01*
X131615757Y-107924284D01*
X131621065Y-107925706D01*
X131621067Y-107925707D01*
X131831598Y-107982119D01*
X131831600Y-107982119D01*
X131836913Y-107983543D01*
X132065000Y-108003498D01*
X132293087Y-107983543D01*
X132298400Y-107982119D01*
X132298402Y-107982119D01*
X132508933Y-107925707D01*
X132508935Y-107925706D01*
X132514243Y-107924284D01*
X132546175Y-107909394D01*
X132716762Y-107829849D01*
X132716767Y-107829846D01*
X132721749Y-107827523D01*
X132826611Y-107754098D01*
X132904789Y-107699357D01*
X132904792Y-107699355D01*
X132909300Y-107696198D01*
X133071198Y-107534300D01*
X133093162Y-107502933D01*
X133122287Y-107461338D01*
X133177745Y-107417010D01*
X133248364Y-107409701D01*
X133311724Y-107441732D01*
X133347709Y-107502933D01*
X133351500Y-107533609D01*
X133351500Y-115357964D01*
X133331498Y-115426085D01*
X133277842Y-115472578D01*
X133244559Y-115482514D01*
X133207042Y-115488255D01*
X133039091Y-115513955D01*
X132826756Y-115583357D01*
X132753757Y-115621358D01*
X132652975Y-115673822D01*
X132628607Y-115686507D01*
X132624474Y-115689610D01*
X132624471Y-115689612D01*
X132454100Y-115817530D01*
X132449965Y-115820635D01*
X132393537Y-115879684D01*
X132369283Y-115905064D01*
X132307759Y-115940494D01*
X132236846Y-115937037D01*
X132179060Y-115895791D01*
X132160207Y-115862243D01*
X132118767Y-115751703D01*
X132115615Y-115743295D01*
X132028261Y-115626739D01*
X131911705Y-115539385D01*
X131775316Y-115488255D01*
X131713134Y-115481500D01*
X129916866Y-115481500D01*
X129854684Y-115488255D01*
X129718295Y-115539385D01*
X129601739Y-115626739D01*
X129514385Y-115743295D01*
X129463255Y-115879684D01*
X129456500Y-115941866D01*
X129456500Y-117738134D01*
X129463255Y-117800316D01*
X129514385Y-117936705D01*
X129601739Y-118053261D01*
X129718295Y-118140615D01*
X129854684Y-118191745D01*
X129916866Y-118198500D01*
X131713134Y-118198500D01*
X131775316Y-118191745D01*
X131911705Y-118140615D01*
X132028261Y-118053261D01*
X132115615Y-117936705D01*
X132137799Y-117877529D01*
X132159598Y-117819382D01*
X132202240Y-117762618D01*
X132268802Y-117737918D01*
X132338150Y-117753126D01*
X132372817Y-117781114D01*
X132401250Y-117813938D01*
X132573126Y-117956632D01*
X132766000Y-118069338D01*
X132974692Y-118149030D01*
X132979760Y-118150061D01*
X132979763Y-118150062D01*
X133074862Y-118169410D01*
X133193597Y-118193567D01*
X133198772Y-118193757D01*
X133198774Y-118193757D01*
X133411673Y-118201564D01*
X133411677Y-118201564D01*
X133416837Y-118201753D01*
X133421957Y-118201097D01*
X133421959Y-118201097D01*
X133633288Y-118174025D01*
X133633289Y-118174025D01*
X133638416Y-118173368D01*
X133643366Y-118171883D01*
X133847429Y-118110661D01*
X133847434Y-118110659D01*
X133852384Y-118109174D01*
X134052994Y-118010896D01*
X134234860Y-117881173D01*
X134393096Y-117723489D01*
X134523453Y-117542077D01*
X134524776Y-117543028D01*
X134571645Y-117499857D01*
X134641580Y-117487625D01*
X134707026Y-117515144D01*
X134734875Y-117546994D01*
X134794987Y-117645088D01*
X134941250Y-117813938D01*
X135113126Y-117956632D01*
X135306000Y-118069338D01*
X135514692Y-118149030D01*
X135519760Y-118150061D01*
X135519763Y-118150062D01*
X135614862Y-118169410D01*
X135733597Y-118193567D01*
X135738772Y-118193757D01*
X135738774Y-118193757D01*
X135951673Y-118201564D01*
X135951677Y-118201564D01*
X135956837Y-118201753D01*
X135961957Y-118201097D01*
X135961959Y-118201097D01*
X136173288Y-118174025D01*
X136173289Y-118174025D01*
X136178416Y-118173368D01*
X136183366Y-118171883D01*
X136387429Y-118110661D01*
X136387434Y-118110659D01*
X136392384Y-118109174D01*
X136592994Y-118010896D01*
X136774860Y-117881173D01*
X136933096Y-117723489D01*
X137063453Y-117542077D01*
X137064776Y-117543028D01*
X137111645Y-117499857D01*
X137181580Y-117487625D01*
X137247026Y-117515144D01*
X137274875Y-117546994D01*
X137334987Y-117645088D01*
X137481250Y-117813938D01*
X137653126Y-117956632D01*
X137846000Y-118069338D01*
X138054692Y-118149030D01*
X138059760Y-118150061D01*
X138059763Y-118150062D01*
X138154862Y-118169410D01*
X138273597Y-118193567D01*
X138278772Y-118193757D01*
X138278774Y-118193757D01*
X138491673Y-118201564D01*
X138491677Y-118201564D01*
X138496837Y-118201753D01*
X138501957Y-118201097D01*
X138501959Y-118201097D01*
X138713288Y-118174025D01*
X138713289Y-118174025D01*
X138718416Y-118173368D01*
X138723366Y-118171883D01*
X138927429Y-118110661D01*
X138927434Y-118110659D01*
X138932384Y-118109174D01*
X139132994Y-118010896D01*
X139314860Y-117881173D01*
X139473096Y-117723489D01*
X139603453Y-117542077D01*
X139604640Y-117542930D01*
X139651960Y-117499362D01*
X139721897Y-117487145D01*
X139787338Y-117514678D01*
X139815166Y-117546511D01*
X139872694Y-117640388D01*
X139878777Y-117648699D01*
X140018213Y-117809667D01*
X140025580Y-117816883D01*
X140189434Y-117952916D01*
X140197881Y-117958831D01*
X140381756Y-118066279D01*
X140391042Y-118070729D01*
X140590001Y-118146703D01*
X140599899Y-118149579D01*
X140703250Y-118170606D01*
X140717299Y-118169410D01*
X140721000Y-118159065D01*
X140721000Y-118158517D01*
X141229000Y-118158517D01*
X141233064Y-118172359D01*
X141246478Y-118174393D01*
X141253184Y-118173534D01*
X141263262Y-118171392D01*
X141467255Y-118110191D01*
X141476842Y-118106433D01*
X141668095Y-118012739D01*
X141676945Y-118007464D01*
X141850328Y-117883792D01*
X141858200Y-117877139D01*
X142009052Y-117726812D01*
X142015730Y-117718965D01*
X142140003Y-117546020D01*
X142145313Y-117537183D01*
X142239670Y-117346267D01*
X142243469Y-117336672D01*
X142305377Y-117132910D01*
X142307555Y-117122837D01*
X142308986Y-117111962D01*
X142306775Y-117097778D01*
X142293617Y-117094000D01*
X141247115Y-117094000D01*
X141231876Y-117098475D01*
X141230671Y-117099865D01*
X141229000Y-117107548D01*
X141229000Y-118158517D01*
X140721000Y-118158517D01*
X140721000Y-116567885D01*
X141229000Y-116567885D01*
X141233475Y-116583124D01*
X141234865Y-116584329D01*
X141242548Y-116586000D01*
X142293344Y-116586000D01*
X142306875Y-116582027D01*
X142308180Y-116572947D01*
X142266214Y-116405875D01*
X142262894Y-116396124D01*
X142177972Y-116200814D01*
X142173105Y-116191739D01*
X142057426Y-116012926D01*
X142051136Y-116004757D01*
X141907806Y-115847240D01*
X141900273Y-115840215D01*
X141733139Y-115708222D01*
X141724552Y-115702517D01*
X141538117Y-115599599D01*
X141528705Y-115595369D01*
X141327959Y-115524280D01*
X141317988Y-115521646D01*
X141246837Y-115508972D01*
X141233540Y-115510432D01*
X141229000Y-115524989D01*
X141229000Y-116567885D01*
X140721000Y-116567885D01*
X140721000Y-115523102D01*
X140717082Y-115509758D01*
X140702806Y-115507771D01*
X140664324Y-115513660D01*
X140654288Y-115516051D01*
X140451868Y-115582212D01*
X140442359Y-115586209D01*
X140253463Y-115684542D01*
X140244738Y-115690036D01*
X140074433Y-115817905D01*
X140066726Y-115824748D01*
X139919590Y-115978717D01*
X139913109Y-115986722D01*
X139808498Y-116140074D01*
X139753587Y-116185076D01*
X139683062Y-116193247D01*
X139619315Y-116161993D01*
X139598618Y-116137509D01*
X139517822Y-116012617D01*
X139517820Y-116012614D01*
X139515014Y-116008277D01*
X139364670Y-115843051D01*
X139360619Y-115839852D01*
X139360615Y-115839848D01*
X139193414Y-115707800D01*
X139193410Y-115707798D01*
X139189359Y-115704598D01*
X139184831Y-115702098D01*
X139068988Y-115638150D01*
X138993789Y-115596638D01*
X138988920Y-115594914D01*
X138988916Y-115594912D01*
X138788087Y-115523795D01*
X138788083Y-115523794D01*
X138783212Y-115522069D01*
X138778119Y-115521162D01*
X138778116Y-115521161D01*
X138568373Y-115483800D01*
X138568367Y-115483799D01*
X138563284Y-115482894D01*
X138489452Y-115481992D01*
X138345081Y-115480228D01*
X138345079Y-115480228D01*
X138339911Y-115480165D01*
X138119091Y-115513955D01*
X137906756Y-115583357D01*
X137833757Y-115621358D01*
X137732975Y-115673822D01*
X137708607Y-115686507D01*
X137704474Y-115689610D01*
X137704471Y-115689612D01*
X137534100Y-115817530D01*
X137529965Y-115820635D01*
X137526393Y-115824373D01*
X137418729Y-115937037D01*
X137375629Y-115982138D01*
X137268201Y-116139621D01*
X137213293Y-116184621D01*
X137142768Y-116192792D01*
X137079021Y-116161538D01*
X137058324Y-116137054D01*
X136977822Y-116012617D01*
X136977820Y-116012614D01*
X136975014Y-116008277D01*
X136824670Y-115843051D01*
X136820619Y-115839852D01*
X136820615Y-115839848D01*
X136653414Y-115707800D01*
X136653410Y-115707798D01*
X136649359Y-115704598D01*
X136644835Y-115702101D01*
X136644831Y-115702098D01*
X136593608Y-115673822D01*
X136543636Y-115623390D01*
X136528500Y-115563513D01*
X136528500Y-113974594D01*
X136548502Y-113906473D01*
X136565405Y-113885499D01*
X140077247Y-110373657D01*
X140085537Y-110366113D01*
X140092018Y-110362000D01*
X140138659Y-110312332D01*
X140141413Y-110309491D01*
X140161134Y-110289770D01*
X140163612Y-110286575D01*
X140171318Y-110277553D01*
X140196158Y-110251101D01*
X140201586Y-110245321D01*
X140211346Y-110227568D01*
X140222199Y-110211045D01*
X140229753Y-110201306D01*
X140234613Y-110195041D01*
X140252176Y-110154457D01*
X140257383Y-110143827D01*
X140278695Y-110105060D01*
X140280666Y-110097383D01*
X140280668Y-110097378D01*
X140283732Y-110085442D01*
X140290138Y-110066730D01*
X140295034Y-110055417D01*
X140298181Y-110048145D01*
X140305097Y-110004481D01*
X140307504Y-109992860D01*
X140316528Y-109957711D01*
X140316528Y-109957710D01*
X140318500Y-109950030D01*
X140318500Y-109929769D01*
X140320051Y-109910058D01*
X140321979Y-109897885D01*
X140323219Y-109890057D01*
X140319059Y-109846046D01*
X140318500Y-109834189D01*
X140318500Y-107909394D01*
X140338502Y-107841273D01*
X140372229Y-107806181D01*
X140524789Y-107699357D01*
X140524792Y-107699355D01*
X140529300Y-107696198D01*
X140691198Y-107534300D01*
X140713162Y-107502933D01*
X140756015Y-107441732D01*
X140822523Y-107346749D01*
X140824846Y-107341767D01*
X140824849Y-107341762D01*
X140840805Y-107307543D01*
X140887722Y-107254258D01*
X140955999Y-107234797D01*
X141023959Y-107255339D01*
X141069195Y-107307543D01*
X141085151Y-107341762D01*
X141085154Y-107341767D01*
X141087477Y-107346749D01*
X141153985Y-107441732D01*
X141196839Y-107502933D01*
X141218802Y-107534300D01*
X141380700Y-107696198D01*
X141385208Y-107699355D01*
X141385211Y-107699357D01*
X141463389Y-107754098D01*
X141568251Y-107827523D01*
X141573233Y-107829846D01*
X141573238Y-107829849D01*
X141743825Y-107909394D01*
X141775757Y-107924284D01*
X141781065Y-107925706D01*
X141781067Y-107925707D01*
X141991598Y-107982119D01*
X141991600Y-107982119D01*
X141996913Y-107983543D01*
X142225000Y-108003498D01*
X142453087Y-107983543D01*
X142458400Y-107982119D01*
X142458402Y-107982119D01*
X142668933Y-107925707D01*
X142668935Y-107925706D01*
X142674243Y-107924284D01*
X142706175Y-107909394D01*
X142876762Y-107829849D01*
X142876767Y-107829846D01*
X142881749Y-107827523D01*
X142986611Y-107754098D01*
X143064789Y-107699357D01*
X143064792Y-107699355D01*
X143069300Y-107696198D01*
X143231198Y-107534300D01*
X143253162Y-107502933D01*
X143296015Y-107441732D01*
X143362523Y-107346749D01*
X143364846Y-107341767D01*
X143364849Y-107341762D01*
X143380805Y-107307543D01*
X143427722Y-107254258D01*
X143495999Y-107234797D01*
X143563959Y-107255339D01*
X143609195Y-107307543D01*
X143625151Y-107341762D01*
X143625154Y-107341767D01*
X143627477Y-107346749D01*
X143693985Y-107441732D01*
X143736839Y-107502933D01*
X143758802Y-107534300D01*
X143920700Y-107696198D01*
X143925208Y-107699355D01*
X143925211Y-107699357D01*
X144003389Y-107754098D01*
X144108251Y-107827523D01*
X144113233Y-107829846D01*
X144113238Y-107829849D01*
X144283825Y-107909394D01*
X144315757Y-107924284D01*
X144321065Y-107925706D01*
X144321067Y-107925707D01*
X144531598Y-107982119D01*
X144531600Y-107982119D01*
X144536913Y-107983543D01*
X144765000Y-108003498D01*
X144993087Y-107983543D01*
X144998400Y-107982119D01*
X144998402Y-107982119D01*
X145208933Y-107925707D01*
X145208935Y-107925706D01*
X145214243Y-107924284D01*
X145246175Y-107909394D01*
X145416762Y-107829849D01*
X145416767Y-107829846D01*
X145421749Y-107827523D01*
X145526611Y-107754098D01*
X145604789Y-107699357D01*
X145604792Y-107699355D01*
X145609300Y-107696198D01*
X145771198Y-107534300D01*
X145793162Y-107502933D01*
X145836015Y-107441732D01*
X145902523Y-107346749D01*
X145904846Y-107341767D01*
X145904849Y-107341762D01*
X145996961Y-107144225D01*
X145996961Y-107144224D01*
X145999284Y-107139243D01*
X146058543Y-106918087D01*
X146078498Y-106690000D01*
X146058543Y-106461913D01*
X145999284Y-106240757D01*
X145920805Y-106072457D01*
X145904849Y-106038238D01*
X145904846Y-106038233D01*
X145902523Y-106033251D01*
X145801469Y-105888931D01*
X145774357Y-105850211D01*
X145774355Y-105850208D01*
X145771198Y-105845700D01*
X145609300Y-105683802D01*
X145604792Y-105680645D01*
X145604789Y-105680643D01*
X145452228Y-105573819D01*
X145421749Y-105552477D01*
X145416767Y-105550154D01*
X145416762Y-105550151D01*
X145219225Y-105458039D01*
X145219224Y-105458039D01*
X145214243Y-105455716D01*
X145208935Y-105454294D01*
X145208933Y-105454293D01*
X144998402Y-105397881D01*
X144998400Y-105397881D01*
X144993087Y-105396457D01*
X144765000Y-105376502D01*
X144536913Y-105396457D01*
X144531600Y-105397881D01*
X144531598Y-105397881D01*
X144321067Y-105454293D01*
X144321065Y-105454294D01*
X144315757Y-105455716D01*
X144310776Y-105458039D01*
X144310775Y-105458039D01*
X144113238Y-105550151D01*
X144113233Y-105550154D01*
X144108251Y-105552477D01*
X144077772Y-105573819D01*
X143925211Y-105680643D01*
X143925208Y-105680645D01*
X143920700Y-105683802D01*
X143758802Y-105845700D01*
X143755645Y-105850208D01*
X143755643Y-105850211D01*
X143728531Y-105888931D01*
X143627477Y-106033251D01*
X143625154Y-106038233D01*
X143625151Y-106038238D01*
X143609195Y-106072457D01*
X143562278Y-106125742D01*
X143494001Y-106145203D01*
X143426041Y-106124661D01*
X143380805Y-106072457D01*
X143364849Y-106038238D01*
X143364846Y-106038233D01*
X143362523Y-106033251D01*
X143261469Y-105888931D01*
X143234357Y-105850211D01*
X143234355Y-105850208D01*
X143231198Y-105845700D01*
X143069300Y-105683802D01*
X143064792Y-105680645D01*
X143064789Y-105680643D01*
X142912229Y-105573819D01*
X142867901Y-105518362D01*
X142858500Y-105470606D01*
X142858500Y-105104594D01*
X142878502Y-105036473D01*
X142895405Y-105015499D01*
X143735499Y-104175405D01*
X143797811Y-104141379D01*
X143824594Y-104138500D01*
X149146233Y-104138500D01*
X149157416Y-104139027D01*
X149164909Y-104140702D01*
X149172835Y-104140453D01*
X149172836Y-104140453D01*
X149232986Y-104138562D01*
X149236945Y-104138500D01*
X149264856Y-104138500D01*
X149268791Y-104138003D01*
X149268856Y-104137995D01*
X149280693Y-104137062D01*
X149312951Y-104136048D01*
X149316970Y-104135922D01*
X149324889Y-104135673D01*
X149344343Y-104130021D01*
X149363700Y-104126013D01*
X149375930Y-104124468D01*
X149375931Y-104124468D01*
X149383797Y-104123474D01*
X149391168Y-104120555D01*
X149391170Y-104120555D01*
X149424912Y-104107196D01*
X149436142Y-104103351D01*
X149470983Y-104093229D01*
X149470984Y-104093229D01*
X149478593Y-104091018D01*
X149485412Y-104086985D01*
X149485417Y-104086983D01*
X149496028Y-104080707D01*
X149513776Y-104072012D01*
X149532617Y-104064552D01*
X149568387Y-104038564D01*
X149578307Y-104032048D01*
X149609535Y-104013580D01*
X149609538Y-104013578D01*
X149616362Y-104009542D01*
X149630683Y-103995221D01*
X149645717Y-103982380D01*
X149655694Y-103975131D01*
X149662107Y-103970472D01*
X149690298Y-103936395D01*
X149698288Y-103927616D01*
X159015253Y-94610652D01*
X159023539Y-94603112D01*
X159030018Y-94599000D01*
X159045158Y-94582878D01*
X159076643Y-94549349D01*
X159079398Y-94546507D01*
X159099135Y-94526770D01*
X159101615Y-94523573D01*
X159109320Y-94514551D01*
X159110761Y-94513017D01*
X159139586Y-94482321D01*
X159143405Y-94475375D01*
X159143407Y-94475372D01*
X159149348Y-94464566D01*
X159160199Y-94448047D01*
X159160559Y-94447583D01*
X159172614Y-94432041D01*
X159175759Y-94424772D01*
X159175762Y-94424768D01*
X159190174Y-94391463D01*
X159195391Y-94380813D01*
X159216695Y-94342060D01*
X159221733Y-94322437D01*
X159228137Y-94303734D01*
X159233033Y-94292420D01*
X159233033Y-94292419D01*
X159236181Y-94285145D01*
X159237420Y-94277322D01*
X159237423Y-94277312D01*
X159243099Y-94241476D01*
X159245505Y-94229856D01*
X159254528Y-94194711D01*
X159254528Y-94194710D01*
X159256500Y-94187030D01*
X159256500Y-94166776D01*
X159258051Y-94147065D01*
X159259980Y-94134886D01*
X159261220Y-94127057D01*
X159257059Y-94083038D01*
X159256500Y-94071181D01*
X159256500Y-93745425D01*
X159276502Y-93677304D01*
X159332763Y-93629657D01*
X159386691Y-93606488D01*
X159414110Y-93594708D01*
X159418090Y-93592245D01*
X159418094Y-93592243D01*
X159626064Y-93463547D01*
X159626068Y-93463544D01*
X159630047Y-93461082D01*
X159728428Y-93377797D01*
X159820289Y-93300031D01*
X159820291Y-93300029D01*
X159823862Y-93297006D01*
X159991295Y-93106084D01*
X160128669Y-92892512D01*
X160232967Y-92660980D01*
X160301896Y-92416575D01*
X160333943Y-92164667D01*
X160336291Y-92075000D01*
X160317472Y-91821759D01*
X160261428Y-91574082D01*
X160169391Y-91337409D01*
X160148866Y-91301498D01*
X160045702Y-91120997D01*
X160045700Y-91120995D01*
X160043383Y-91116940D01*
X159886171Y-90917517D01*
X159701209Y-90743523D01*
X159657483Y-90713189D01*
X159496393Y-90601437D01*
X159496390Y-90601435D01*
X159492561Y-90598779D01*
X159488384Y-90596719D01*
X159488377Y-90596715D01*
X159268996Y-90488528D01*
X159268992Y-90488527D01*
X159264810Y-90486464D01*
X159022960Y-90409047D01*
X159018355Y-90408297D01*
X158776935Y-90368980D01*
X158776934Y-90368980D01*
X158772323Y-90368229D01*
X158645365Y-90366567D01*
X158523083Y-90364966D01*
X158523080Y-90364966D01*
X158518406Y-90364905D01*
X158266787Y-90399149D01*
X158022993Y-90470208D01*
X157792380Y-90576522D01*
X157788471Y-90579085D01*
X157583928Y-90713189D01*
X157583923Y-90713193D01*
X157580015Y-90715755D01*
X157390562Y-90884848D01*
X157228183Y-91080087D01*
X157096447Y-91297182D01*
X156998246Y-91531365D01*
X156935738Y-91777490D01*
X156910296Y-92030151D01*
X156922480Y-92283798D01*
X156972021Y-92532857D01*
X156973600Y-92537255D01*
X156973602Y-92537262D01*
X157018022Y-92660980D01*
X157057831Y-92771858D01*
X157178025Y-92995551D01*
X157180820Y-92999294D01*
X157180822Y-92999297D01*
X157327171Y-93195282D01*
X157327176Y-93195288D01*
X157329963Y-93199020D01*
X157333272Y-93202300D01*
X157333277Y-93202306D01*
X157431859Y-93300031D01*
X157510307Y-93377797D01*
X157514069Y-93380555D01*
X157514072Y-93380558D01*
X157697932Y-93515369D01*
X157715094Y-93527953D01*
X157719231Y-93530129D01*
X157719238Y-93530134D01*
X157922167Y-93636900D01*
X157973140Y-93686319D01*
X157989500Y-93748408D01*
X157989500Y-93792406D01*
X157969498Y-93860527D01*
X157952595Y-93881501D01*
X148999500Y-102834595D01*
X148937188Y-102868621D01*
X148910405Y-102871500D01*
X143588763Y-102871500D01*
X143577579Y-102870973D01*
X143570091Y-102869299D01*
X143562168Y-102869548D01*
X143502033Y-102871438D01*
X143498075Y-102871500D01*
X143470144Y-102871500D01*
X143466229Y-102871995D01*
X143466225Y-102871995D01*
X143466167Y-102872003D01*
X143466138Y-102872006D01*
X143454296Y-102872939D01*
X143410110Y-102874327D01*
X143392744Y-102879372D01*
X143390658Y-102879978D01*
X143371306Y-102883986D01*
X143359068Y-102885532D01*
X143359066Y-102885533D01*
X143351203Y-102886526D01*
X143310086Y-102902806D01*
X143298885Y-102906641D01*
X143256406Y-102918982D01*
X143249587Y-102923015D01*
X143249582Y-102923017D01*
X143238971Y-102929293D01*
X143221221Y-102937990D01*
X143202383Y-102945448D01*
X143195967Y-102950109D01*
X143195966Y-102950110D01*
X143166625Y-102971428D01*
X143156701Y-102977947D01*
X143125460Y-102996422D01*
X143125455Y-102996426D01*
X143118637Y-103000458D01*
X143104313Y-103014782D01*
X143089281Y-103027621D01*
X143072893Y-103039528D01*
X143044712Y-103073593D01*
X143036722Y-103082373D01*
X141832747Y-104286348D01*
X141824461Y-104293888D01*
X141817982Y-104298000D01*
X141812557Y-104303777D01*
X141771357Y-104347651D01*
X141768602Y-104350493D01*
X141748865Y-104370230D01*
X141746385Y-104373427D01*
X141738682Y-104382447D01*
X141708414Y-104414679D01*
X141704595Y-104421625D01*
X141704593Y-104421628D01*
X141698652Y-104432434D01*
X141687801Y-104448953D01*
X141675386Y-104464959D01*
X141672241Y-104472228D01*
X141672238Y-104472232D01*
X141657826Y-104505537D01*
X141652609Y-104516187D01*
X141631305Y-104554940D01*
X141629334Y-104562615D01*
X141629334Y-104562616D01*
X141626267Y-104574562D01*
X141619863Y-104593266D01*
X141611819Y-104611855D01*
X141610580Y-104619678D01*
X141610577Y-104619688D01*
X141604901Y-104655524D01*
X141602495Y-104667144D01*
X141591500Y-104709970D01*
X141591500Y-104730224D01*
X141589949Y-104749934D01*
X141586780Y-104769943D01*
X141587526Y-104777835D01*
X141590941Y-104813961D01*
X141591500Y-104825819D01*
X141591500Y-105470606D01*
X141571498Y-105538727D01*
X141537771Y-105573819D01*
X141385211Y-105680643D01*
X141385208Y-105680645D01*
X141380700Y-105683802D01*
X141218802Y-105845700D01*
X141215645Y-105850208D01*
X141215643Y-105850211D01*
X141188531Y-105888931D01*
X141087477Y-106033251D01*
X141085154Y-106038233D01*
X141085151Y-106038238D01*
X141069195Y-106072457D01*
X141022278Y-106125742D01*
X140954001Y-106145203D01*
X140886041Y-106124661D01*
X140840805Y-106072457D01*
X140824849Y-106038238D01*
X140824846Y-106038233D01*
X140822523Y-106033251D01*
X140721469Y-105888931D01*
X140694357Y-105850211D01*
X140694355Y-105850208D01*
X140691198Y-105845700D01*
X140529300Y-105683802D01*
X140524792Y-105680645D01*
X140524789Y-105680643D01*
X140372228Y-105573819D01*
X140341749Y-105552477D01*
X140336767Y-105550154D01*
X140336762Y-105550151D01*
X140139225Y-105458039D01*
X140139224Y-105458039D01*
X140134243Y-105455716D01*
X140128935Y-105454294D01*
X140128933Y-105454293D01*
X139918402Y-105397881D01*
X139918400Y-105397881D01*
X139913087Y-105396457D01*
X139685000Y-105376502D01*
X139456913Y-105396457D01*
X139451600Y-105397881D01*
X139451598Y-105397881D01*
X139241067Y-105454293D01*
X139241065Y-105454294D01*
X139235757Y-105455716D01*
X139230776Y-105458039D01*
X139230775Y-105458039D01*
X139033238Y-105550151D01*
X139033233Y-105550154D01*
X139028251Y-105552477D01*
X138997772Y-105573819D01*
X138845211Y-105680643D01*
X138845208Y-105680645D01*
X138840700Y-105683802D01*
X138678802Y-105845700D01*
X138675645Y-105850208D01*
X138675643Y-105850211D01*
X138648531Y-105888931D01*
X138547477Y-106033251D01*
X138545154Y-106038233D01*
X138545151Y-106038238D01*
X138528919Y-106073049D01*
X138482002Y-106126334D01*
X138413725Y-106145795D01*
X138345765Y-106125253D01*
X138300529Y-106073049D01*
X138284414Y-106038489D01*
X138278931Y-106028993D01*
X138153972Y-105850533D01*
X138146916Y-105842125D01*
X137992875Y-105688084D01*
X137984467Y-105681028D01*
X137806007Y-105556069D01*
X137796511Y-105550586D01*
X137599053Y-105458510D01*
X137588761Y-105454764D01*
X137416497Y-105408606D01*
X137402401Y-105408942D01*
X137399000Y-105416884D01*
X137399000Y-107957967D01*
X137402973Y-107971498D01*
X137411522Y-107972727D01*
X137588761Y-107925236D01*
X137599053Y-107921490D01*
X137796511Y-107829414D01*
X137806007Y-107823931D01*
X137984467Y-107698972D01*
X137992875Y-107691916D01*
X138146916Y-107537875D01*
X138153972Y-107529467D01*
X138278931Y-107351007D01*
X138284414Y-107341511D01*
X138300529Y-107306951D01*
X138347446Y-107253666D01*
X138415723Y-107234205D01*
X138483683Y-107254747D01*
X138528919Y-107306951D01*
X138545151Y-107341762D01*
X138545154Y-107341767D01*
X138547477Y-107346749D01*
X138613985Y-107441732D01*
X138656839Y-107502933D01*
X138678802Y-107534300D01*
X138840700Y-107696198D01*
X138845208Y-107699355D01*
X138845211Y-107699357D01*
X138997771Y-107806181D01*
X139042099Y-107861638D01*
X139051500Y-107909394D01*
X139051500Y-109555405D01*
X139031498Y-109623526D01*
X139014595Y-109644500D01*
X135502747Y-113156348D01*
X135494461Y-113163888D01*
X135487982Y-113168000D01*
X135482557Y-113173777D01*
X135441357Y-113217651D01*
X135438602Y-113220493D01*
X135418865Y-113240230D01*
X135416385Y-113243427D01*
X135408682Y-113252447D01*
X135378414Y-113284679D01*
X135374595Y-113291625D01*
X135374593Y-113291628D01*
X135368652Y-113302434D01*
X135357801Y-113318953D01*
X135345386Y-113334959D01*
X135342241Y-113342228D01*
X135342238Y-113342232D01*
X135327826Y-113375537D01*
X135322609Y-113386187D01*
X135301305Y-113424940D01*
X135299334Y-113432615D01*
X135299334Y-113432616D01*
X135296267Y-113444562D01*
X135289863Y-113463266D01*
X135281819Y-113481855D01*
X135280580Y-113489678D01*
X135280577Y-113489688D01*
X135274901Y-113525524D01*
X135272495Y-113537144D01*
X135261500Y-113579970D01*
X135261500Y-113600224D01*
X135259949Y-113619934D01*
X135256780Y-113639943D01*
X135257526Y-113647835D01*
X135260941Y-113683961D01*
X135261500Y-113695819D01*
X135261500Y-115561692D01*
X135241498Y-115629813D01*
X135193683Y-115673453D01*
X135168607Y-115686507D01*
X135164474Y-115689610D01*
X135164471Y-115689612D01*
X134994100Y-115817530D01*
X134989965Y-115820635D01*
X134835629Y-115982138D01*
X134833840Y-115980428D01*
X134783705Y-116014875D01*
X134712742Y-116017062D01*
X134651862Y-115980536D01*
X134620394Y-115916895D01*
X134618500Y-115895130D01*
X134618500Y-108117775D01*
X134638502Y-108049654D01*
X134692158Y-108003161D01*
X134733518Y-107992254D01*
X134750456Y-107990772D01*
X134827606Y-107984023D01*
X134827611Y-107984022D01*
X134833087Y-107983543D01*
X134838400Y-107982119D01*
X134838402Y-107982119D01*
X135048933Y-107925707D01*
X135048935Y-107925706D01*
X135054243Y-107924284D01*
X135086175Y-107909394D01*
X135256762Y-107829849D01*
X135256767Y-107829846D01*
X135261749Y-107827523D01*
X135366611Y-107754098D01*
X135444789Y-107699357D01*
X135444792Y-107699355D01*
X135449300Y-107696198D01*
X135611198Y-107534300D01*
X135633162Y-107502933D01*
X135676015Y-107441732D01*
X135742523Y-107346749D01*
X135744846Y-107341767D01*
X135744849Y-107341762D01*
X135761081Y-107306951D01*
X135807998Y-107253666D01*
X135876275Y-107234205D01*
X135944235Y-107254747D01*
X135989471Y-107306951D01*
X136005586Y-107341511D01*
X136011069Y-107351007D01*
X136136028Y-107529467D01*
X136143084Y-107537875D01*
X136297125Y-107691916D01*
X136305533Y-107698972D01*
X136483993Y-107823931D01*
X136493489Y-107829414D01*
X136690947Y-107921490D01*
X136701239Y-107925236D01*
X136873503Y-107971394D01*
X136887599Y-107971058D01*
X136891000Y-107963116D01*
X136891000Y-105422033D01*
X136887027Y-105408502D01*
X136878478Y-105407273D01*
X136701239Y-105454764D01*
X136690947Y-105458510D01*
X136493489Y-105550586D01*
X136483993Y-105556069D01*
X136305533Y-105681028D01*
X136297125Y-105688084D01*
X136143084Y-105842125D01*
X136136028Y-105850533D01*
X136011069Y-106028993D01*
X136005586Y-106038489D01*
X135989471Y-106073049D01*
X135942554Y-106126334D01*
X135874277Y-106145795D01*
X135806317Y-106125253D01*
X135761081Y-106073049D01*
X135744849Y-106038238D01*
X135744846Y-106038233D01*
X135742523Y-106033251D01*
X135641469Y-105888931D01*
X135614357Y-105850211D01*
X135614355Y-105850208D01*
X135611198Y-105845700D01*
X135449300Y-105683802D01*
X135444792Y-105680645D01*
X135444789Y-105680643D01*
X135292228Y-105573819D01*
X135261749Y-105552477D01*
X135256767Y-105550154D01*
X135256762Y-105550151D01*
X135059225Y-105458039D01*
X135059224Y-105458039D01*
X135054243Y-105455716D01*
X135048935Y-105454294D01*
X135048933Y-105454293D01*
X134838402Y-105397881D01*
X134838400Y-105397881D01*
X134833087Y-105396457D01*
X134605000Y-105376502D01*
X134376913Y-105396457D01*
X134371600Y-105397881D01*
X134371598Y-105397881D01*
X134161067Y-105454293D01*
X134161065Y-105454294D01*
X134155757Y-105455716D01*
X134150776Y-105458039D01*
X134150775Y-105458039D01*
X133953238Y-105550151D01*
X133953233Y-105550154D01*
X133948251Y-105552477D01*
X133917772Y-105573819D01*
X133765211Y-105680643D01*
X133765208Y-105680645D01*
X133760700Y-105683802D01*
X133598802Y-105845700D01*
X133595645Y-105850208D01*
X133595643Y-105850211D01*
X133568531Y-105888931D01*
X133467477Y-106033251D01*
X133465154Y-106038233D01*
X133465151Y-106038238D01*
X133449195Y-106072457D01*
X133402278Y-106125742D01*
X133334001Y-106145203D01*
X133266041Y-106124661D01*
X133220805Y-106072457D01*
X133204849Y-106038238D01*
X133204846Y-106038233D01*
X133202523Y-106033251D01*
X133101469Y-105888931D01*
X133074357Y-105850211D01*
X133074355Y-105850208D01*
X133071198Y-105845700D01*
X132909300Y-105683802D01*
X132904792Y-105680645D01*
X132904789Y-105680643D01*
X132752228Y-105573819D01*
X132721749Y-105552477D01*
X132716767Y-105550154D01*
X132716762Y-105550151D01*
X132519225Y-105458039D01*
X132519224Y-105458039D01*
X132514243Y-105455716D01*
X132508935Y-105454294D01*
X132508933Y-105454293D01*
X132298402Y-105397881D01*
X132298400Y-105397881D01*
X132293087Y-105396457D01*
X132065000Y-105376502D01*
X131836913Y-105396457D01*
X131831600Y-105397881D01*
X131831598Y-105397881D01*
X131621067Y-105454293D01*
X131621065Y-105454294D01*
X131615757Y-105455716D01*
X131610776Y-105458039D01*
X131610775Y-105458039D01*
X131413238Y-105550151D01*
X131413233Y-105550154D01*
X131408251Y-105552477D01*
X131377772Y-105573819D01*
X131225211Y-105680643D01*
X131225208Y-105680645D01*
X131220700Y-105683802D01*
X131058802Y-105845700D01*
X131055645Y-105850208D01*
X131055643Y-105850211D01*
X131028531Y-105888931D01*
X130927477Y-106033251D01*
X130925154Y-106038233D01*
X130925151Y-106038238D01*
X130909195Y-106072457D01*
X130862278Y-106125742D01*
X130794001Y-106145203D01*
X130726041Y-106124661D01*
X130680805Y-106072457D01*
X130664849Y-106038238D01*
X130664846Y-106038233D01*
X130662523Y-106033251D01*
X130561469Y-105888931D01*
X130534357Y-105850211D01*
X130534355Y-105850208D01*
X130531198Y-105845700D01*
X130369300Y-105683802D01*
X130364792Y-105680645D01*
X130364789Y-105680643D01*
X130212228Y-105573819D01*
X130181749Y-105552477D01*
X130176767Y-105550154D01*
X130176762Y-105550151D01*
X129979225Y-105458039D01*
X129979224Y-105458039D01*
X129974243Y-105455716D01*
X129968935Y-105454294D01*
X129968933Y-105454293D01*
X129758402Y-105397881D01*
X129758400Y-105397881D01*
X129753087Y-105396457D01*
X129525000Y-105376502D01*
X129296913Y-105396457D01*
X129291600Y-105397881D01*
X129291598Y-105397881D01*
X129081067Y-105454293D01*
X129081065Y-105454294D01*
X129075757Y-105455716D01*
X129070776Y-105458039D01*
X129070775Y-105458039D01*
X128873238Y-105550151D01*
X128873233Y-105550154D01*
X128868251Y-105552477D01*
X128837772Y-105573819D01*
X128685211Y-105680643D01*
X128685208Y-105680645D01*
X128680700Y-105683802D01*
X128518802Y-105845700D01*
X128515645Y-105850208D01*
X128515643Y-105850211D01*
X128488531Y-105888931D01*
X128387477Y-106033251D01*
X128385154Y-106038233D01*
X128385151Y-106038238D01*
X128369195Y-106072457D01*
X128322278Y-106125742D01*
X128254001Y-106145203D01*
X128186041Y-106124661D01*
X128140805Y-106072457D01*
X128124849Y-106038238D01*
X128124846Y-106038233D01*
X128122523Y-106033251D01*
X128021469Y-105888931D01*
X127994357Y-105850211D01*
X127994355Y-105850208D01*
X127991198Y-105845700D01*
X127829300Y-105683802D01*
X127824792Y-105680645D01*
X127824789Y-105680643D01*
X127672228Y-105573819D01*
X127641749Y-105552477D01*
X127636767Y-105550154D01*
X127636762Y-105550151D01*
X127439225Y-105458039D01*
X127439224Y-105458039D01*
X127434243Y-105455716D01*
X127428935Y-105454294D01*
X127428933Y-105454293D01*
X127218402Y-105397881D01*
X127218400Y-105397881D01*
X127213087Y-105396457D01*
X126985000Y-105376502D01*
X126756913Y-105396457D01*
X126751600Y-105397881D01*
X126751598Y-105397881D01*
X126541067Y-105454293D01*
X126541065Y-105454294D01*
X126535757Y-105455716D01*
X126530776Y-105458039D01*
X126530775Y-105458039D01*
X126333238Y-105550151D01*
X126333233Y-105550154D01*
X126328251Y-105552477D01*
X126297772Y-105573819D01*
X126145211Y-105680643D01*
X126145208Y-105680645D01*
X126140700Y-105683802D01*
X125978802Y-105845700D01*
X125975645Y-105850208D01*
X125975643Y-105850211D01*
X125948531Y-105888931D01*
X125847477Y-106033251D01*
X125845154Y-106038233D01*
X125845151Y-106038238D01*
X125829195Y-106072457D01*
X125750716Y-106240757D01*
X125691457Y-106461913D01*
X125671502Y-106690000D01*
X107823500Y-106690000D01*
X107823500Y-105841062D01*
X120563493Y-105841062D01*
X120572789Y-105853077D01*
X120623994Y-105888931D01*
X120633489Y-105894414D01*
X120830947Y-105986490D01*
X120841239Y-105990236D01*
X121051688Y-106046625D01*
X121062481Y-106048528D01*
X121279525Y-106067517D01*
X121290475Y-106067517D01*
X121507519Y-106048528D01*
X121518312Y-106046625D01*
X121728761Y-105990236D01*
X121739053Y-105986490D01*
X121936511Y-105894414D01*
X121946006Y-105888931D01*
X121998048Y-105852491D01*
X122006424Y-105842012D01*
X121999356Y-105828566D01*
X121297812Y-105127022D01*
X121283868Y-105119408D01*
X121282035Y-105119539D01*
X121275420Y-105123790D01*
X120569923Y-105829287D01*
X120563493Y-105841062D01*
X107823500Y-105841062D01*
X107823500Y-104760475D01*
X119972483Y-104760475D01*
X119991472Y-104977519D01*
X119993375Y-104988312D01*
X120049764Y-105198761D01*
X120053510Y-105209053D01*
X120145586Y-105406511D01*
X120151069Y-105416006D01*
X120187509Y-105468048D01*
X120197988Y-105476424D01*
X120211434Y-105469356D01*
X120912978Y-104767812D01*
X120919356Y-104756132D01*
X121649408Y-104756132D01*
X121649539Y-104757965D01*
X121653790Y-104764580D01*
X122359287Y-105470077D01*
X122371062Y-105476507D01*
X122383077Y-105467211D01*
X122418931Y-105416006D01*
X122424414Y-105406511D01*
X122516490Y-105209053D01*
X122520236Y-105198761D01*
X122576625Y-104988312D01*
X122578528Y-104977519D01*
X122597517Y-104760475D01*
X122597517Y-104749525D01*
X122578528Y-104532481D01*
X122576625Y-104521688D01*
X122520236Y-104311239D01*
X122516490Y-104300947D01*
X122424414Y-104103489D01*
X122418931Y-104093994D01*
X122382491Y-104041952D01*
X122372012Y-104033576D01*
X122358566Y-104040644D01*
X121657022Y-104742188D01*
X121649408Y-104756132D01*
X120919356Y-104756132D01*
X120920592Y-104753868D01*
X120920461Y-104752035D01*
X120916210Y-104745420D01*
X120210713Y-104039923D01*
X120198938Y-104033493D01*
X120186923Y-104042789D01*
X120151069Y-104093994D01*
X120145586Y-104103489D01*
X120053510Y-104300947D01*
X120049764Y-104311239D01*
X119993375Y-104521688D01*
X119991472Y-104532481D01*
X119972483Y-104749525D01*
X119972483Y-104760475D01*
X107823500Y-104760475D01*
X107823500Y-102255000D01*
X119971502Y-102255000D01*
X119991457Y-102483087D01*
X120050716Y-102704243D01*
X120053039Y-102709224D01*
X120053039Y-102709225D01*
X120145151Y-102906762D01*
X120145154Y-102906767D01*
X120147477Y-102911749D01*
X120206766Y-102996422D01*
X120266950Y-103082373D01*
X120278802Y-103099300D01*
X120440700Y-103261198D01*
X120445208Y-103264355D01*
X120445211Y-103264357D01*
X120548876Y-103336944D01*
X120628251Y-103392523D01*
X120633235Y-103394847D01*
X120635528Y-103396171D01*
X120684521Y-103447553D01*
X120697957Y-103517267D01*
X120671571Y-103583178D01*
X120635528Y-103614409D01*
X120623998Y-103621066D01*
X120571952Y-103657509D01*
X120563576Y-103667988D01*
X120570644Y-103681434D01*
X121272188Y-104382978D01*
X121286132Y-104390592D01*
X121287965Y-104390461D01*
X121294580Y-104386210D01*
X122000077Y-103680713D01*
X122006507Y-103668938D01*
X121997211Y-103656923D01*
X121946002Y-103621066D01*
X121934472Y-103614409D01*
X121885479Y-103563027D01*
X121872042Y-103493313D01*
X121898429Y-103427402D01*
X121934472Y-103396171D01*
X121936765Y-103394847D01*
X121941749Y-103392523D01*
X122021124Y-103336944D01*
X122124789Y-103264357D01*
X122124792Y-103264355D01*
X122129300Y-103261198D01*
X122291198Y-103099300D01*
X122303051Y-103082373D01*
X122363234Y-102996422D01*
X122422523Y-102911749D01*
X122424846Y-102906767D01*
X122424849Y-102906762D01*
X122516961Y-102709225D01*
X122516961Y-102709224D01*
X122519284Y-102704243D01*
X122578543Y-102483087D01*
X122598498Y-102255000D01*
X122578543Y-102026913D01*
X122519284Y-101805757D01*
X122516961Y-101800775D01*
X122424849Y-101603238D01*
X122424846Y-101603233D01*
X122422523Y-101598251D01*
X122291198Y-101410700D01*
X122129300Y-101248802D01*
X122124792Y-101245645D01*
X122124789Y-101245643D01*
X122046611Y-101190902D01*
X121941749Y-101117477D01*
X121936767Y-101115154D01*
X121936762Y-101115151D01*
X121739225Y-101023039D01*
X121739224Y-101023039D01*
X121734243Y-101020716D01*
X121728935Y-101019294D01*
X121728933Y-101019293D01*
X121518402Y-100962881D01*
X121518400Y-100962881D01*
X121513087Y-100961457D01*
X121285000Y-100941502D01*
X121056913Y-100961457D01*
X121051600Y-100962881D01*
X121051598Y-100962881D01*
X120841067Y-101019293D01*
X120841065Y-101019294D01*
X120835757Y-101020716D01*
X120830776Y-101023039D01*
X120830775Y-101023039D01*
X120633238Y-101115151D01*
X120633233Y-101115154D01*
X120628251Y-101117477D01*
X120523389Y-101190902D01*
X120445211Y-101245643D01*
X120445208Y-101245645D01*
X120440700Y-101248802D01*
X120278802Y-101410700D01*
X120147477Y-101598251D01*
X120145154Y-101603233D01*
X120145151Y-101603238D01*
X120053039Y-101800775D01*
X120050716Y-101805757D01*
X119991457Y-102026913D01*
X119971502Y-102255000D01*
X107823500Y-102255000D01*
X107823500Y-99336522D01*
X125702273Y-99336522D01*
X125749764Y-99513761D01*
X125753510Y-99524053D01*
X125845586Y-99721511D01*
X125851069Y-99731007D01*
X125976028Y-99909467D01*
X125983084Y-99917875D01*
X126137125Y-100071916D01*
X126145533Y-100078972D01*
X126323993Y-100203931D01*
X126333489Y-100209414D01*
X126530947Y-100301490D01*
X126541239Y-100305236D01*
X126713503Y-100351394D01*
X126727599Y-100351058D01*
X126731000Y-100343116D01*
X126731000Y-99342115D01*
X126726525Y-99326876D01*
X126725135Y-99325671D01*
X126717452Y-99324000D01*
X125717033Y-99324000D01*
X125703502Y-99327973D01*
X125702273Y-99336522D01*
X107823500Y-99336522D01*
X107823500Y-92030151D01*
X111317296Y-92030151D01*
X111329480Y-92283798D01*
X111379021Y-92532857D01*
X111380600Y-92537255D01*
X111380602Y-92537262D01*
X111425022Y-92660980D01*
X111464831Y-92771858D01*
X111585025Y-92995551D01*
X111587820Y-92999294D01*
X111587822Y-92999297D01*
X111734171Y-93195282D01*
X111734176Y-93195288D01*
X111736963Y-93199020D01*
X111740272Y-93202300D01*
X111740277Y-93202306D01*
X111838859Y-93300031D01*
X111917307Y-93377797D01*
X111921069Y-93380555D01*
X111921072Y-93380558D01*
X112104932Y-93515369D01*
X112122094Y-93527953D01*
X112126229Y-93530129D01*
X112126233Y-93530131D01*
X112201360Y-93569657D01*
X112346827Y-93646191D01*
X112415524Y-93670181D01*
X112580695Y-93727861D01*
X112586568Y-93729912D01*
X112836050Y-93777278D01*
X112956532Y-93782011D01*
X113085125Y-93787064D01*
X113085130Y-93787064D01*
X113089793Y-93787247D01*
X113188774Y-93776407D01*
X113337569Y-93760112D01*
X113337575Y-93760111D01*
X113342222Y-93759602D01*
X113384740Y-93748408D01*
X113583273Y-93696138D01*
X113587793Y-93694948D01*
X113592092Y-93693101D01*
X113592095Y-93693100D01*
X113625630Y-93678693D01*
X113696114Y-93670181D01*
X113764461Y-93705366D01*
X117606348Y-97547253D01*
X117613888Y-97555539D01*
X117618000Y-97562018D01*
X117623777Y-97567443D01*
X117667651Y-97608643D01*
X117670493Y-97611398D01*
X117690230Y-97631135D01*
X117693427Y-97633615D01*
X117702447Y-97641318D01*
X117734679Y-97671586D01*
X117741625Y-97675405D01*
X117741628Y-97675407D01*
X117752434Y-97681348D01*
X117768953Y-97692199D01*
X117784959Y-97704614D01*
X117792228Y-97707759D01*
X117792232Y-97707762D01*
X117825537Y-97722174D01*
X117836187Y-97727391D01*
X117874940Y-97748695D01*
X117882615Y-97750666D01*
X117882616Y-97750666D01*
X117894562Y-97753733D01*
X117913266Y-97760137D01*
X117917269Y-97761869D01*
X117931855Y-97768181D01*
X117939678Y-97769420D01*
X117939688Y-97769423D01*
X117975524Y-97775099D01*
X117987144Y-97777505D01*
X118020782Y-97786141D01*
X118029970Y-97788500D01*
X118050224Y-97788500D01*
X118069934Y-97790051D01*
X118089943Y-97793220D01*
X118097835Y-97792474D01*
X118133961Y-97789059D01*
X118145819Y-97788500D01*
X126135123Y-97788500D01*
X126203244Y-97808502D01*
X126249737Y-97862158D01*
X126259841Y-97932432D01*
X126230347Y-97997012D01*
X126207393Y-98017713D01*
X126145538Y-98061024D01*
X126137125Y-98068084D01*
X125983084Y-98222125D01*
X125976028Y-98230533D01*
X125851069Y-98408993D01*
X125845586Y-98418489D01*
X125753510Y-98615947D01*
X125749764Y-98626239D01*
X125703606Y-98798503D01*
X125703942Y-98812599D01*
X125711884Y-98816000D01*
X127113000Y-98816000D01*
X127181121Y-98836002D01*
X127227614Y-98889658D01*
X127239000Y-98942000D01*
X127239000Y-100337967D01*
X127242973Y-100351498D01*
X127251522Y-100352727D01*
X127428761Y-100305236D01*
X127439053Y-100301490D01*
X127636511Y-100209414D01*
X127646007Y-100203931D01*
X127824467Y-100078972D01*
X127832875Y-100071916D01*
X127986916Y-99917875D01*
X127993972Y-99909467D01*
X128118931Y-99731007D01*
X128124414Y-99721511D01*
X128140529Y-99686951D01*
X128187446Y-99633666D01*
X128255723Y-99614205D01*
X128323683Y-99634747D01*
X128368919Y-99686951D01*
X128385151Y-99721762D01*
X128385154Y-99721767D01*
X128387477Y-99726749D01*
X128518802Y-99914300D01*
X128680700Y-100076198D01*
X128685208Y-100079355D01*
X128685211Y-100079357D01*
X128716926Y-100101564D01*
X128868251Y-100207523D01*
X128873233Y-100209846D01*
X128873238Y-100209849D01*
X129069765Y-100301490D01*
X129075757Y-100304284D01*
X129081065Y-100305706D01*
X129081067Y-100305707D01*
X129291598Y-100362119D01*
X129291600Y-100362119D01*
X129296913Y-100363543D01*
X129525000Y-100383498D01*
X129753087Y-100363543D01*
X129758400Y-100362119D01*
X129758402Y-100362119D01*
X129968933Y-100305707D01*
X129968935Y-100305706D01*
X129974243Y-100304284D01*
X129980235Y-100301490D01*
X130176762Y-100209849D01*
X130176767Y-100209846D01*
X130181749Y-100207523D01*
X130333074Y-100101564D01*
X130364789Y-100079357D01*
X130364792Y-100079355D01*
X130369300Y-100076198D01*
X130531198Y-99914300D01*
X130662523Y-99726749D01*
X130664846Y-99721767D01*
X130664849Y-99721762D01*
X130680805Y-99687543D01*
X130727722Y-99634258D01*
X130795999Y-99614797D01*
X130863959Y-99635339D01*
X130909195Y-99687543D01*
X130925151Y-99721762D01*
X130925154Y-99721767D01*
X130927477Y-99726749D01*
X131058802Y-99914300D01*
X131220700Y-100076198D01*
X131225208Y-100079355D01*
X131225211Y-100079357D01*
X131256926Y-100101564D01*
X131408251Y-100207523D01*
X131413233Y-100209846D01*
X131413238Y-100209849D01*
X131609765Y-100301490D01*
X131615757Y-100304284D01*
X131621065Y-100305706D01*
X131621067Y-100305707D01*
X131831598Y-100362119D01*
X131831600Y-100362119D01*
X131836913Y-100363543D01*
X132065000Y-100383498D01*
X132293087Y-100363543D01*
X132298400Y-100362119D01*
X132298402Y-100362119D01*
X132508933Y-100305707D01*
X132508935Y-100305706D01*
X132514243Y-100304284D01*
X132520235Y-100301490D01*
X132716762Y-100209849D01*
X132716767Y-100209846D01*
X132721749Y-100207523D01*
X132873074Y-100101564D01*
X132904789Y-100079357D01*
X132904792Y-100079355D01*
X132909300Y-100076198D01*
X133071198Y-99914300D01*
X133202523Y-99726749D01*
X133204846Y-99721767D01*
X133204849Y-99721762D01*
X133220805Y-99687543D01*
X133267722Y-99634258D01*
X133335999Y-99614797D01*
X133403959Y-99635339D01*
X133449195Y-99687543D01*
X133465151Y-99721762D01*
X133465154Y-99721767D01*
X133467477Y-99726749D01*
X133598802Y-99914300D01*
X133760700Y-100076198D01*
X133765208Y-100079355D01*
X133765211Y-100079357D01*
X133796926Y-100101564D01*
X133948251Y-100207523D01*
X133953233Y-100209846D01*
X133953238Y-100209849D01*
X134149765Y-100301490D01*
X134155757Y-100304284D01*
X134161065Y-100305706D01*
X134161067Y-100305707D01*
X134371598Y-100362119D01*
X134371600Y-100362119D01*
X134376913Y-100363543D01*
X134605000Y-100383498D01*
X134833087Y-100363543D01*
X134838400Y-100362119D01*
X134838402Y-100362119D01*
X135048933Y-100305707D01*
X135048935Y-100305706D01*
X135054243Y-100304284D01*
X135060235Y-100301490D01*
X135256762Y-100209849D01*
X135256767Y-100209846D01*
X135261749Y-100207523D01*
X135413074Y-100101564D01*
X135444789Y-100079357D01*
X135444792Y-100079355D01*
X135449300Y-100076198D01*
X135611198Y-99914300D01*
X135742523Y-99726749D01*
X135744846Y-99721767D01*
X135744849Y-99721762D01*
X135760805Y-99687543D01*
X135807722Y-99634258D01*
X135875999Y-99614797D01*
X135943959Y-99635339D01*
X135989195Y-99687543D01*
X136005151Y-99721762D01*
X136005154Y-99721767D01*
X136007477Y-99726749D01*
X136138802Y-99914300D01*
X136300700Y-100076198D01*
X136305208Y-100079355D01*
X136305211Y-100079357D01*
X136336926Y-100101564D01*
X136488251Y-100207523D01*
X136493233Y-100209846D01*
X136493238Y-100209849D01*
X136689765Y-100301490D01*
X136695757Y-100304284D01*
X136701065Y-100305706D01*
X136701067Y-100305707D01*
X136911598Y-100362119D01*
X136911600Y-100362119D01*
X136916913Y-100363543D01*
X137145000Y-100383498D01*
X137373087Y-100363543D01*
X137378400Y-100362119D01*
X137378402Y-100362119D01*
X137588933Y-100305707D01*
X137588935Y-100305706D01*
X137594243Y-100304284D01*
X137600235Y-100301490D01*
X137796762Y-100209849D01*
X137796767Y-100209846D01*
X137801749Y-100207523D01*
X137953074Y-100101564D01*
X137984789Y-100079357D01*
X137984792Y-100079355D01*
X137989300Y-100076198D01*
X138151198Y-99914300D01*
X138282523Y-99726749D01*
X138284846Y-99721767D01*
X138284849Y-99721762D01*
X138300805Y-99687543D01*
X138347722Y-99634258D01*
X138415999Y-99614797D01*
X138483959Y-99635339D01*
X138529195Y-99687543D01*
X138545151Y-99721762D01*
X138545154Y-99721767D01*
X138547477Y-99726749D01*
X138678802Y-99914300D01*
X138840700Y-100076198D01*
X138845208Y-100079355D01*
X138845211Y-100079357D01*
X138876926Y-100101564D01*
X139028251Y-100207523D01*
X139033233Y-100209846D01*
X139033238Y-100209849D01*
X139229765Y-100301490D01*
X139235757Y-100304284D01*
X139241065Y-100305706D01*
X139241067Y-100305707D01*
X139451598Y-100362119D01*
X139451600Y-100362119D01*
X139456913Y-100363543D01*
X139685000Y-100383498D01*
X139913087Y-100363543D01*
X139918400Y-100362119D01*
X139918402Y-100362119D01*
X140128933Y-100305707D01*
X140128935Y-100305706D01*
X140134243Y-100304284D01*
X140140235Y-100301490D01*
X140336762Y-100209849D01*
X140336767Y-100209846D01*
X140341749Y-100207523D01*
X140493074Y-100101564D01*
X140524789Y-100079357D01*
X140524792Y-100079355D01*
X140529300Y-100076198D01*
X140691198Y-99914300D01*
X140822523Y-99726749D01*
X140824846Y-99721767D01*
X140824849Y-99721762D01*
X140840805Y-99687543D01*
X140887722Y-99634258D01*
X140955999Y-99614797D01*
X141023959Y-99635339D01*
X141069195Y-99687543D01*
X141085151Y-99721762D01*
X141085154Y-99721767D01*
X141087477Y-99726749D01*
X141218802Y-99914300D01*
X141380700Y-100076198D01*
X141385208Y-100079355D01*
X141385211Y-100079357D01*
X141416926Y-100101564D01*
X141568251Y-100207523D01*
X141573233Y-100209846D01*
X141573238Y-100209849D01*
X141769765Y-100301490D01*
X141775757Y-100304284D01*
X141781065Y-100305706D01*
X141781067Y-100305707D01*
X141991598Y-100362119D01*
X141991600Y-100362119D01*
X141996913Y-100363543D01*
X142225000Y-100383498D01*
X142453087Y-100363543D01*
X142458400Y-100362119D01*
X142458402Y-100362119D01*
X142668933Y-100305707D01*
X142668935Y-100305706D01*
X142674243Y-100304284D01*
X142680235Y-100301490D01*
X142876762Y-100209849D01*
X142876767Y-100209846D01*
X142881749Y-100207523D01*
X143033074Y-100101564D01*
X143064789Y-100079357D01*
X143064792Y-100079355D01*
X143069300Y-100076198D01*
X143231198Y-99914300D01*
X143234357Y-99909789D01*
X143237892Y-99905576D01*
X143239026Y-99906527D01*
X143289071Y-99866529D01*
X143359690Y-99859224D01*
X143423049Y-99891258D01*
X143459030Y-99952462D01*
X143462082Y-99969517D01*
X143463255Y-99980316D01*
X143514385Y-100116705D01*
X143601739Y-100233261D01*
X143718295Y-100320615D01*
X143854684Y-100371745D01*
X143916866Y-100378500D01*
X145613134Y-100378500D01*
X145675316Y-100371745D01*
X145811705Y-100320615D01*
X145928261Y-100233261D01*
X145928980Y-100234221D01*
X145983630Y-100204379D01*
X146010413Y-100201500D01*
X146733233Y-100201500D01*
X146744416Y-100202027D01*
X146751909Y-100203702D01*
X146759835Y-100203453D01*
X146759836Y-100203453D01*
X146819986Y-100201562D01*
X146823945Y-100201500D01*
X146851856Y-100201500D01*
X146855791Y-100201003D01*
X146855856Y-100200995D01*
X146867693Y-100200062D01*
X146899951Y-100199048D01*
X146903970Y-100198922D01*
X146911889Y-100198673D01*
X146931343Y-100193021D01*
X146950700Y-100189013D01*
X146962930Y-100187468D01*
X146962931Y-100187468D01*
X146970797Y-100186474D01*
X146978168Y-100183555D01*
X146978170Y-100183555D01*
X147011912Y-100170196D01*
X147023142Y-100166351D01*
X147057983Y-100156229D01*
X147057984Y-100156229D01*
X147065593Y-100154018D01*
X147072412Y-100149985D01*
X147072417Y-100149983D01*
X147083028Y-100143707D01*
X147100776Y-100135012D01*
X147119617Y-100127552D01*
X147155387Y-100101564D01*
X147165307Y-100095048D01*
X147196535Y-100076580D01*
X147196538Y-100076578D01*
X147203362Y-100072542D01*
X147217683Y-100058221D01*
X147232717Y-100045380D01*
X147242694Y-100038131D01*
X147249107Y-100033472D01*
X147277298Y-99999395D01*
X147285288Y-99990616D01*
X152538247Y-94737657D01*
X152546537Y-94730113D01*
X152553018Y-94726000D01*
X152599659Y-94676332D01*
X152602413Y-94673491D01*
X152622134Y-94653770D01*
X152624612Y-94650575D01*
X152632318Y-94641553D01*
X152657158Y-94615101D01*
X152662586Y-94609321D01*
X152672346Y-94591568D01*
X152683199Y-94575045D01*
X152690753Y-94565306D01*
X152695613Y-94559041D01*
X152713176Y-94518457D01*
X152718383Y-94507827D01*
X152739695Y-94469060D01*
X152741666Y-94461383D01*
X152741668Y-94461378D01*
X152744732Y-94449442D01*
X152751138Y-94430730D01*
X152756033Y-94419419D01*
X152759181Y-94412145D01*
X152760421Y-94404317D01*
X152760423Y-94404310D01*
X152766099Y-94368476D01*
X152768505Y-94356856D01*
X152777528Y-94321711D01*
X152777528Y-94321710D01*
X152779500Y-94314030D01*
X152779500Y-94293776D01*
X152781051Y-94274065D01*
X152782980Y-94261886D01*
X152784220Y-94254057D01*
X152780059Y-94210038D01*
X152779500Y-94198181D01*
X152779500Y-93745425D01*
X152799502Y-93677304D01*
X152855763Y-93629657D01*
X152909691Y-93606488D01*
X152937110Y-93594708D01*
X152941090Y-93592245D01*
X152941094Y-93592243D01*
X153149064Y-93463547D01*
X153149068Y-93463544D01*
X153153047Y-93461082D01*
X153251428Y-93377797D01*
X153343289Y-93300031D01*
X153343291Y-93300029D01*
X153346862Y-93297006D01*
X153514295Y-93106084D01*
X153651669Y-92892512D01*
X153755967Y-92660980D01*
X153824896Y-92416575D01*
X153856943Y-92164667D01*
X153859291Y-92075000D01*
X153840472Y-91821759D01*
X153784428Y-91574082D01*
X153692391Y-91337409D01*
X153671866Y-91301498D01*
X153568702Y-91120997D01*
X153568700Y-91120995D01*
X153566383Y-91116940D01*
X153409171Y-90917517D01*
X153224209Y-90743523D01*
X153180483Y-90713189D01*
X153019393Y-90601437D01*
X153019390Y-90601435D01*
X153015561Y-90598779D01*
X153011384Y-90596719D01*
X153011377Y-90596715D01*
X152791996Y-90488528D01*
X152791992Y-90488527D01*
X152787810Y-90486464D01*
X152545960Y-90409047D01*
X152541355Y-90408297D01*
X152299935Y-90368980D01*
X152299934Y-90368980D01*
X152295323Y-90368229D01*
X152168365Y-90366567D01*
X152046083Y-90364966D01*
X152046080Y-90364966D01*
X152041406Y-90364905D01*
X151789787Y-90399149D01*
X151545993Y-90470208D01*
X151315380Y-90576522D01*
X151311471Y-90579085D01*
X151106928Y-90713189D01*
X151106923Y-90713193D01*
X151103015Y-90715755D01*
X150913562Y-90884848D01*
X150751183Y-91080087D01*
X150619447Y-91297182D01*
X150521246Y-91531365D01*
X150458738Y-91777490D01*
X150433296Y-92030151D01*
X150445480Y-92283798D01*
X150495021Y-92532857D01*
X150496600Y-92537255D01*
X150496602Y-92537262D01*
X150541022Y-92660980D01*
X150580831Y-92771858D01*
X150701025Y-92995551D01*
X150703820Y-92999294D01*
X150703822Y-92999297D01*
X150850171Y-93195282D01*
X150850176Y-93195288D01*
X150852963Y-93199020D01*
X150856272Y-93202300D01*
X150856277Y-93202306D01*
X150954859Y-93300031D01*
X151033307Y-93377797D01*
X151037069Y-93380555D01*
X151037072Y-93380558D01*
X151220932Y-93515369D01*
X151238094Y-93527953D01*
X151242231Y-93530129D01*
X151242238Y-93530134D01*
X151445167Y-93636900D01*
X151496140Y-93686319D01*
X151512500Y-93748408D01*
X151512500Y-93919406D01*
X151492498Y-93987527D01*
X151475595Y-94008501D01*
X146586500Y-98897595D01*
X146524188Y-98931621D01*
X146497405Y-98934500D01*
X146199500Y-98934500D01*
X146131379Y-98914498D01*
X146084886Y-98860842D01*
X146073500Y-98808500D01*
X146073500Y-98221866D01*
X146066745Y-98159684D01*
X146015615Y-98023295D01*
X145928261Y-97906739D01*
X145811705Y-97819385D01*
X145675316Y-97768255D01*
X145613134Y-97761500D01*
X143916866Y-97761500D01*
X143854684Y-97768255D01*
X143718295Y-97819385D01*
X143601739Y-97906739D01*
X143514385Y-98023295D01*
X143463255Y-98159684D01*
X143462083Y-98170474D01*
X143461197Y-98172606D01*
X143460575Y-98175222D01*
X143460152Y-98175121D01*
X143434845Y-98236035D01*
X143376483Y-98276463D01*
X143305529Y-98278922D01*
X143244510Y-98242629D01*
X143237511Y-98233969D01*
X143234354Y-98230207D01*
X143231198Y-98225700D01*
X143069300Y-98063802D01*
X143064803Y-98060653D01*
X143061626Y-98057987D01*
X143022303Y-97998875D01*
X143021181Y-97927888D01*
X143053528Y-97872376D01*
X146061247Y-94864657D01*
X146069537Y-94857113D01*
X146076018Y-94853000D01*
X146122659Y-94803332D01*
X146125413Y-94800491D01*
X146145134Y-94780770D01*
X146147612Y-94777575D01*
X146155318Y-94768553D01*
X146180158Y-94742101D01*
X146185586Y-94736321D01*
X146195346Y-94718568D01*
X146206199Y-94702045D01*
X146213753Y-94692306D01*
X146218613Y-94686041D01*
X146236176Y-94645457D01*
X146241383Y-94634827D01*
X146262695Y-94596060D01*
X146264666Y-94588383D01*
X146264668Y-94588378D01*
X146267732Y-94576442D01*
X146274138Y-94557730D01*
X146276720Y-94551765D01*
X146282181Y-94539145D01*
X146283421Y-94531317D01*
X146283423Y-94531310D01*
X146289099Y-94495476D01*
X146291505Y-94483856D01*
X146300528Y-94448711D01*
X146300528Y-94448710D01*
X146302500Y-94441030D01*
X146302500Y-94420776D01*
X146304051Y-94401065D01*
X146305980Y-94388886D01*
X146307220Y-94381057D01*
X146303059Y-94337038D01*
X146302500Y-94325181D01*
X146302500Y-93745425D01*
X146322502Y-93677304D01*
X146378763Y-93629657D01*
X146432691Y-93606488D01*
X146460110Y-93594708D01*
X146464090Y-93592245D01*
X146464094Y-93592243D01*
X146672064Y-93463547D01*
X146672068Y-93463544D01*
X146676047Y-93461082D01*
X146774428Y-93377797D01*
X146866289Y-93300031D01*
X146866291Y-93300029D01*
X146869862Y-93297006D01*
X147037295Y-93106084D01*
X147174669Y-92892512D01*
X147278967Y-92660980D01*
X147347896Y-92416575D01*
X147379943Y-92164667D01*
X147382291Y-92075000D01*
X147363472Y-91821759D01*
X147307428Y-91574082D01*
X147215391Y-91337409D01*
X147194866Y-91301498D01*
X147091702Y-91120997D01*
X147091700Y-91120995D01*
X147089383Y-91116940D01*
X146932171Y-90917517D01*
X146747209Y-90743523D01*
X146703483Y-90713189D01*
X146542393Y-90601437D01*
X146542390Y-90601435D01*
X146538561Y-90598779D01*
X146534384Y-90596719D01*
X146534377Y-90596715D01*
X146314996Y-90488528D01*
X146314992Y-90488527D01*
X146310810Y-90486464D01*
X146068960Y-90409047D01*
X146064355Y-90408297D01*
X145822935Y-90368980D01*
X145822934Y-90368980D01*
X145818323Y-90368229D01*
X145691365Y-90366567D01*
X145569083Y-90364966D01*
X145569080Y-90364966D01*
X145564406Y-90364905D01*
X145312787Y-90399149D01*
X145068993Y-90470208D01*
X144838380Y-90576522D01*
X144834471Y-90579085D01*
X144629928Y-90713189D01*
X144629923Y-90713193D01*
X144626015Y-90715755D01*
X144436562Y-90884848D01*
X144274183Y-91080087D01*
X144142447Y-91297182D01*
X144044246Y-91531365D01*
X143981738Y-91777490D01*
X143956296Y-92030151D01*
X143968480Y-92283798D01*
X144018021Y-92532857D01*
X144019600Y-92537255D01*
X144019602Y-92537262D01*
X144064022Y-92660980D01*
X144103831Y-92771858D01*
X144224025Y-92995551D01*
X144226820Y-92999294D01*
X144226822Y-92999297D01*
X144373171Y-93195282D01*
X144373176Y-93195288D01*
X144375963Y-93199020D01*
X144379272Y-93202300D01*
X144379277Y-93202306D01*
X144477859Y-93300031D01*
X144556307Y-93377797D01*
X144560069Y-93380555D01*
X144560072Y-93380558D01*
X144743932Y-93515369D01*
X144761094Y-93527953D01*
X144765231Y-93530129D01*
X144765238Y-93530134D01*
X144968167Y-93636900D01*
X145019140Y-93686319D01*
X145035500Y-93748408D01*
X145035500Y-94046405D01*
X145015498Y-94114526D01*
X144998595Y-94135500D01*
X141847747Y-97286348D01*
X141839461Y-97293888D01*
X141832982Y-97298000D01*
X141827557Y-97303777D01*
X141786357Y-97347651D01*
X141783602Y-97350493D01*
X141763865Y-97370230D01*
X141761385Y-97373427D01*
X141753682Y-97382447D01*
X141723414Y-97414679D01*
X141719595Y-97421625D01*
X141719593Y-97421628D01*
X141713652Y-97432434D01*
X141702801Y-97448953D01*
X141690386Y-97464959D01*
X141687241Y-97472228D01*
X141687238Y-97472232D01*
X141672826Y-97505537D01*
X141667609Y-97516187D01*
X141646305Y-97554940D01*
X141644334Y-97562615D01*
X141644334Y-97562616D01*
X141641267Y-97574562D01*
X141634863Y-97593266D01*
X141626819Y-97611855D01*
X141625580Y-97619678D01*
X141625577Y-97619688D01*
X141619901Y-97655524D01*
X141617495Y-97667144D01*
X141609245Y-97699278D01*
X141606500Y-97709970D01*
X141606500Y-97730224D01*
X141604949Y-97749934D01*
X141601780Y-97769943D01*
X141604709Y-97800923D01*
X141605941Y-97813961D01*
X141606500Y-97825819D01*
X141606500Y-97840103D01*
X141586498Y-97908224D01*
X141552771Y-97943316D01*
X141385211Y-98060643D01*
X141385208Y-98060645D01*
X141380700Y-98063802D01*
X141218802Y-98225700D01*
X141087477Y-98413251D01*
X141085154Y-98418233D01*
X141085151Y-98418238D01*
X141069195Y-98452457D01*
X141022278Y-98505742D01*
X140954001Y-98525203D01*
X140886041Y-98504661D01*
X140840805Y-98452457D01*
X140824849Y-98418238D01*
X140824846Y-98418233D01*
X140822523Y-98413251D01*
X140691198Y-98225700D01*
X140529300Y-98063802D01*
X140524792Y-98060645D01*
X140524789Y-98060643D01*
X140413316Y-97982589D01*
X140341749Y-97932477D01*
X140336767Y-97930154D01*
X140336762Y-97930151D01*
X140196250Y-97864630D01*
X140142965Y-97817713D01*
X140123500Y-97750435D01*
X140123500Y-93578034D01*
X140143502Y-93509913D01*
X140183196Y-93470891D01*
X140199047Y-93461082D01*
X140297428Y-93377797D01*
X140389289Y-93300031D01*
X140389291Y-93300029D01*
X140392862Y-93297006D01*
X140560295Y-93106084D01*
X140697669Y-92892512D01*
X140801967Y-92660980D01*
X140870896Y-92416575D01*
X140902943Y-92164667D01*
X140905291Y-92075000D01*
X140886472Y-91821759D01*
X140830428Y-91574082D01*
X140738391Y-91337409D01*
X140717866Y-91301498D01*
X140614702Y-91120997D01*
X140614700Y-91120995D01*
X140612383Y-91116940D01*
X140455171Y-90917517D01*
X140270209Y-90743523D01*
X140226483Y-90713189D01*
X140065393Y-90601437D01*
X140065390Y-90601435D01*
X140061561Y-90598779D01*
X140057384Y-90596719D01*
X140057377Y-90596715D01*
X139837996Y-90488528D01*
X139837992Y-90488527D01*
X139833810Y-90486464D01*
X139591960Y-90409047D01*
X139587355Y-90408297D01*
X139345935Y-90368980D01*
X139345934Y-90368980D01*
X139341323Y-90368229D01*
X139214365Y-90366567D01*
X139092083Y-90364966D01*
X139092080Y-90364966D01*
X139087406Y-90364905D01*
X138835787Y-90399149D01*
X138591993Y-90470208D01*
X138361380Y-90576522D01*
X138357471Y-90579085D01*
X138152928Y-90713189D01*
X138152923Y-90713193D01*
X138149015Y-90715755D01*
X137959562Y-90884848D01*
X137797183Y-91080087D01*
X137665447Y-91297182D01*
X137567246Y-91531365D01*
X137504738Y-91777490D01*
X137479296Y-92030151D01*
X137491480Y-92283798D01*
X137541021Y-92532857D01*
X137542600Y-92537255D01*
X137542602Y-92537262D01*
X137587022Y-92660980D01*
X137626831Y-92771858D01*
X137747025Y-92995551D01*
X137749820Y-92999294D01*
X137749822Y-92999297D01*
X137896171Y-93195282D01*
X137896176Y-93195288D01*
X137898963Y-93199020D01*
X137902272Y-93202300D01*
X137902277Y-93202306D01*
X138000859Y-93300031D01*
X138079307Y-93377797D01*
X138083069Y-93380555D01*
X138083072Y-93380558D01*
X138266932Y-93515369D01*
X138284094Y-93527953D01*
X138288229Y-93530129D01*
X138288233Y-93530131D01*
X138363360Y-93569657D01*
X138508827Y-93646191D01*
X138748568Y-93729912D01*
X138753152Y-93730782D01*
X138753162Y-93730785D01*
X138754005Y-93730945D01*
X138754275Y-93731083D01*
X138757681Y-93731996D01*
X138757485Y-93732727D01*
X138817199Y-93763303D01*
X138852866Y-93824690D01*
X138856500Y-93854733D01*
X138856500Y-97995812D01*
X138836498Y-98063933D01*
X138819595Y-98084907D01*
X138678802Y-98225700D01*
X138547477Y-98413251D01*
X138545154Y-98418233D01*
X138545151Y-98418238D01*
X138529195Y-98452457D01*
X138482278Y-98505742D01*
X138414001Y-98525203D01*
X138346041Y-98504661D01*
X138300805Y-98452457D01*
X138284849Y-98418238D01*
X138284846Y-98418233D01*
X138282523Y-98413251D01*
X138151198Y-98225700D01*
X137989300Y-98063802D01*
X137984792Y-98060645D01*
X137984789Y-98060643D01*
X137873316Y-97982589D01*
X137801749Y-97932477D01*
X137799816Y-97931575D01*
X137751541Y-97880947D01*
X137748181Y-97873850D01*
X137746018Y-97866406D01*
X137741980Y-97859578D01*
X137735707Y-97848971D01*
X137727010Y-97831221D01*
X137719552Y-97812383D01*
X137713972Y-97804702D01*
X137694451Y-97777835D01*
X137693571Y-97776623D01*
X137687053Y-97766701D01*
X137668578Y-97735460D01*
X137668574Y-97735455D01*
X137664542Y-97728637D01*
X137650218Y-97714313D01*
X137637376Y-97699278D01*
X137631584Y-97691306D01*
X137625472Y-97682893D01*
X137591406Y-97654711D01*
X137582627Y-97646722D01*
X133584401Y-93648496D01*
X133550375Y-93586184D01*
X133555440Y-93515369D01*
X133595911Y-93462103D01*
X133595047Y-93461082D01*
X133785289Y-93300031D01*
X133785291Y-93300029D01*
X133788862Y-93297006D01*
X133956295Y-93106084D01*
X134093669Y-92892512D01*
X134197967Y-92660980D01*
X134266896Y-92416575D01*
X134298943Y-92164667D01*
X134301291Y-92075000D01*
X134282472Y-91821759D01*
X134226428Y-91574082D01*
X134134391Y-91337409D01*
X134113866Y-91301498D01*
X134010702Y-91120997D01*
X134010700Y-91120995D01*
X134008383Y-91116940D01*
X133851171Y-90917517D01*
X133666209Y-90743523D01*
X133622483Y-90713189D01*
X133461393Y-90601437D01*
X133461390Y-90601435D01*
X133457561Y-90598779D01*
X133453384Y-90596719D01*
X133453377Y-90596715D01*
X133233996Y-90488528D01*
X133233992Y-90488527D01*
X133229810Y-90486464D01*
X132987960Y-90409047D01*
X132983355Y-90408297D01*
X132741935Y-90368980D01*
X132741934Y-90368980D01*
X132737323Y-90368229D01*
X132610365Y-90366567D01*
X132488083Y-90364966D01*
X132488080Y-90364966D01*
X132483406Y-90364905D01*
X132231787Y-90399149D01*
X131987993Y-90470208D01*
X131757380Y-90576522D01*
X131753471Y-90579085D01*
X131548928Y-90713189D01*
X131548923Y-90713193D01*
X131545015Y-90715755D01*
X131355562Y-90884848D01*
X131193183Y-91080087D01*
X131061447Y-91297182D01*
X130963246Y-91531365D01*
X130900738Y-91777490D01*
X130875296Y-92030151D01*
X130887480Y-92283798D01*
X130937021Y-92532857D01*
X130938600Y-92537255D01*
X130938602Y-92537262D01*
X130983022Y-92660980D01*
X131022831Y-92771858D01*
X131143025Y-92995551D01*
X131145820Y-92999294D01*
X131145822Y-92999297D01*
X131292171Y-93195282D01*
X131292176Y-93195288D01*
X131294963Y-93199020D01*
X131298272Y-93202300D01*
X131298277Y-93202306D01*
X131396859Y-93300031D01*
X131475307Y-93377797D01*
X131479069Y-93380555D01*
X131479072Y-93380558D01*
X131662932Y-93515369D01*
X131680094Y-93527953D01*
X131684229Y-93530129D01*
X131684233Y-93530131D01*
X131759360Y-93569657D01*
X131904827Y-93646191D01*
X131906631Y-93646821D01*
X131960566Y-93691862D01*
X131972979Y-93715519D01*
X131985804Y-93747911D01*
X131989649Y-93759142D01*
X132001982Y-93801593D01*
X132006015Y-93808412D01*
X132006017Y-93808417D01*
X132012293Y-93819028D01*
X132020988Y-93836776D01*
X132028448Y-93855617D01*
X132033110Y-93862033D01*
X132033110Y-93862034D01*
X132054436Y-93891387D01*
X132060952Y-93901307D01*
X132083458Y-93939362D01*
X132097779Y-93953683D01*
X132110619Y-93968716D01*
X132122528Y-93985107D01*
X132152453Y-94009863D01*
X132156605Y-94013298D01*
X132165384Y-94021288D01*
X136165204Y-98021108D01*
X136199230Y-98083420D01*
X136194165Y-98154235D01*
X136165204Y-98199298D01*
X136138802Y-98225700D01*
X136007477Y-98413251D01*
X136005154Y-98418233D01*
X136005151Y-98418238D01*
X135989195Y-98452457D01*
X135942278Y-98505742D01*
X135874001Y-98525203D01*
X135806041Y-98504661D01*
X135760805Y-98452457D01*
X135744849Y-98418238D01*
X135744846Y-98418233D01*
X135742523Y-98413251D01*
X135611198Y-98225700D01*
X135449300Y-98063802D01*
X135444792Y-98060645D01*
X135444789Y-98060643D01*
X135269628Y-97937994D01*
X135225300Y-97882537D01*
X135223642Y-97877534D01*
X135223474Y-97876203D01*
X135207194Y-97835086D01*
X135203359Y-97823885D01*
X135191018Y-97781406D01*
X135186985Y-97774587D01*
X135186983Y-97774582D01*
X135180707Y-97763971D01*
X135172010Y-97746221D01*
X135164552Y-97727383D01*
X135157662Y-97717899D01*
X135138572Y-97691625D01*
X135132053Y-97681701D01*
X135113578Y-97650460D01*
X135113574Y-97650455D01*
X135109542Y-97643637D01*
X135095218Y-97629313D01*
X135082376Y-97614278D01*
X135080284Y-97611398D01*
X135070472Y-97597893D01*
X135036406Y-97569711D01*
X135027627Y-97561722D01*
X131688652Y-94222747D01*
X131681112Y-94214461D01*
X131677000Y-94207982D01*
X131664653Y-94196387D01*
X131627349Y-94161357D01*
X131624507Y-94158602D01*
X131604770Y-94138865D01*
X131601573Y-94136385D01*
X131592551Y-94128680D01*
X131587597Y-94124028D01*
X131560321Y-94098414D01*
X131553375Y-94094595D01*
X131553372Y-94094593D01*
X131542566Y-94088652D01*
X131526047Y-94077801D01*
X131517512Y-94071181D01*
X131510041Y-94065386D01*
X131502772Y-94062241D01*
X131502768Y-94062238D01*
X131469463Y-94047826D01*
X131458813Y-94042609D01*
X131420060Y-94021305D01*
X131400437Y-94016267D01*
X131381734Y-94009863D01*
X131370420Y-94004967D01*
X131370419Y-94004967D01*
X131363145Y-94001819D01*
X131355322Y-94000580D01*
X131355312Y-94000577D01*
X131319476Y-93994901D01*
X131307856Y-93992495D01*
X131272711Y-93983472D01*
X131272710Y-93983472D01*
X131265030Y-93981500D01*
X131244776Y-93981500D01*
X131225065Y-93979949D01*
X131217142Y-93978694D01*
X131205057Y-93976780D01*
X131197165Y-93977526D01*
X131161039Y-93980941D01*
X131149181Y-93981500D01*
X127314594Y-93981500D01*
X127246473Y-93961498D01*
X127225499Y-93944595D01*
X127046800Y-93765896D01*
X127012774Y-93703584D01*
X127017839Y-93632769D01*
X127060386Y-93575933D01*
X127069592Y-93569657D01*
X127241064Y-93463547D01*
X127241068Y-93463544D01*
X127245047Y-93461082D01*
X127343428Y-93377797D01*
X127435289Y-93300031D01*
X127435291Y-93300029D01*
X127438862Y-93297006D01*
X127606295Y-93106084D01*
X127743669Y-92892512D01*
X127847967Y-92660980D01*
X127916896Y-92416575D01*
X127948943Y-92164667D01*
X127951291Y-92075000D01*
X127932472Y-91821759D01*
X127876428Y-91574082D01*
X127784391Y-91337409D01*
X127763866Y-91301498D01*
X127660702Y-91120997D01*
X127660700Y-91120995D01*
X127658383Y-91116940D01*
X127501171Y-90917517D01*
X127316209Y-90743523D01*
X127272483Y-90713189D01*
X127111393Y-90601437D01*
X127111390Y-90601435D01*
X127107561Y-90598779D01*
X127103384Y-90596719D01*
X127103377Y-90596715D01*
X126883996Y-90488528D01*
X126883992Y-90488527D01*
X126879810Y-90486464D01*
X126637960Y-90409047D01*
X126633355Y-90408297D01*
X126391935Y-90368980D01*
X126391934Y-90368980D01*
X126387323Y-90368229D01*
X126260365Y-90366567D01*
X126138083Y-90364966D01*
X126138080Y-90364966D01*
X126133406Y-90364905D01*
X125881787Y-90399149D01*
X125637993Y-90470208D01*
X125407380Y-90576522D01*
X125403471Y-90579085D01*
X125198928Y-90713189D01*
X125198923Y-90713193D01*
X125195015Y-90715755D01*
X125005562Y-90884848D01*
X124843183Y-91080087D01*
X124711447Y-91297182D01*
X124613246Y-91531365D01*
X124550738Y-91777490D01*
X124525296Y-92030151D01*
X124537480Y-92283798D01*
X124587021Y-92532857D01*
X124588600Y-92537255D01*
X124588602Y-92537262D01*
X124633022Y-92660980D01*
X124672831Y-92771858D01*
X124793025Y-92995551D01*
X124795820Y-92999294D01*
X124795822Y-92999297D01*
X124942171Y-93195282D01*
X124942176Y-93195288D01*
X124944963Y-93199020D01*
X124948272Y-93202300D01*
X124948277Y-93202306D01*
X125046859Y-93300031D01*
X125125307Y-93377797D01*
X125129069Y-93380555D01*
X125129072Y-93380558D01*
X125312932Y-93515369D01*
X125330094Y-93527953D01*
X125334231Y-93530129D01*
X125334238Y-93530134D01*
X125537167Y-93636900D01*
X125588140Y-93686319D01*
X125604500Y-93748408D01*
X125604500Y-93774233D01*
X125603973Y-93785416D01*
X125602298Y-93792909D01*
X125602547Y-93800835D01*
X125602547Y-93800836D01*
X125604438Y-93860986D01*
X125604500Y-93864945D01*
X125604500Y-93892856D01*
X125604997Y-93896790D01*
X125604997Y-93896791D01*
X125605005Y-93896856D01*
X125605938Y-93908693D01*
X125607327Y-93952889D01*
X125612762Y-93971596D01*
X125612978Y-93972339D01*
X125616987Y-93991700D01*
X125618109Y-94000577D01*
X125619526Y-94011797D01*
X125622445Y-94019168D01*
X125622445Y-94019170D01*
X125635804Y-94052912D01*
X125639649Y-94064142D01*
X125640792Y-94068077D01*
X125651982Y-94106593D01*
X125656015Y-94113412D01*
X125656017Y-94113417D01*
X125662293Y-94124028D01*
X125670988Y-94141776D01*
X125678448Y-94160617D01*
X125683110Y-94167033D01*
X125683110Y-94167034D01*
X125704436Y-94196387D01*
X125710952Y-94206307D01*
X125728283Y-94235611D01*
X125733458Y-94244362D01*
X125747779Y-94258683D01*
X125760619Y-94273716D01*
X125772528Y-94290107D01*
X125800000Y-94312834D01*
X125806593Y-94318288D01*
X125815374Y-94326278D01*
X126496353Y-95007258D01*
X126503887Y-95015537D01*
X126508000Y-95022018D01*
X126513779Y-95027445D01*
X126513780Y-95027446D01*
X126520386Y-95033649D01*
X126556352Y-95094862D01*
X126553515Y-95165802D01*
X126512775Y-95223946D01*
X126447067Y-95250835D01*
X126434134Y-95251500D01*
X122234595Y-95251500D01*
X122166474Y-95231498D01*
X122145500Y-95214595D01*
X120599705Y-93668800D01*
X120565679Y-93606488D01*
X120570744Y-93535673D01*
X120613291Y-93478837D01*
X120622480Y-93472572D01*
X120641047Y-93461082D01*
X120739428Y-93377797D01*
X120831289Y-93300031D01*
X120831291Y-93300029D01*
X120834862Y-93297006D01*
X121002295Y-93106084D01*
X121139669Y-92892512D01*
X121243967Y-92660980D01*
X121312896Y-92416575D01*
X121344943Y-92164667D01*
X121347291Y-92075000D01*
X121328472Y-91821759D01*
X121272428Y-91574082D01*
X121180391Y-91337409D01*
X121159866Y-91301498D01*
X121056702Y-91120997D01*
X121056700Y-91120995D01*
X121054383Y-91116940D01*
X120897171Y-90917517D01*
X120712209Y-90743523D01*
X120668483Y-90713189D01*
X120507393Y-90601437D01*
X120507390Y-90601435D01*
X120503561Y-90598779D01*
X120499384Y-90596719D01*
X120499377Y-90596715D01*
X120279996Y-90488528D01*
X120279992Y-90488527D01*
X120275810Y-90486464D01*
X120033960Y-90409047D01*
X120029355Y-90408297D01*
X119787935Y-90368980D01*
X119787934Y-90368980D01*
X119783323Y-90368229D01*
X119656365Y-90366567D01*
X119534083Y-90364966D01*
X119534080Y-90364966D01*
X119529406Y-90364905D01*
X119277787Y-90399149D01*
X119033993Y-90470208D01*
X118803380Y-90576522D01*
X118799471Y-90579085D01*
X118594928Y-90713189D01*
X118594923Y-90713193D01*
X118591015Y-90715755D01*
X118401562Y-90884848D01*
X118239183Y-91080087D01*
X118107447Y-91297182D01*
X118009246Y-91531365D01*
X117946738Y-91777490D01*
X117921296Y-92030151D01*
X117933480Y-92283798D01*
X117983021Y-92532857D01*
X117984600Y-92537255D01*
X117984602Y-92537262D01*
X118029022Y-92660980D01*
X118068831Y-92771858D01*
X118189025Y-92995551D01*
X118191820Y-92999294D01*
X118191822Y-92999297D01*
X118338171Y-93195282D01*
X118338176Y-93195288D01*
X118340963Y-93199020D01*
X118344272Y-93202300D01*
X118344277Y-93202306D01*
X118442859Y-93300031D01*
X118521307Y-93377797D01*
X118525069Y-93380555D01*
X118525072Y-93380558D01*
X118708932Y-93515369D01*
X118726094Y-93527953D01*
X118730229Y-93530129D01*
X118730233Y-93530131D01*
X118946921Y-93644136D01*
X118997893Y-93693555D01*
X119013258Y-93739848D01*
X119015526Y-93757797D01*
X119018445Y-93765168D01*
X119018445Y-93765170D01*
X119031804Y-93798912D01*
X119035649Y-93810142D01*
X119040710Y-93827563D01*
X119047982Y-93852593D01*
X119052015Y-93859412D01*
X119052017Y-93859417D01*
X119058293Y-93870028D01*
X119066988Y-93887776D01*
X119074448Y-93906617D01*
X119079110Y-93913033D01*
X119079110Y-93913034D01*
X119100436Y-93942387D01*
X119106952Y-93952307D01*
X119123300Y-93979949D01*
X119129458Y-93990362D01*
X119143779Y-94004683D01*
X119156619Y-94019716D01*
X119168528Y-94036107D01*
X119180976Y-94046405D01*
X119202605Y-94064298D01*
X119211384Y-94072288D01*
X121416343Y-96277247D01*
X121423887Y-96285537D01*
X121428000Y-96292018D01*
X121433777Y-96297443D01*
X121440386Y-96303649D01*
X121476352Y-96364862D01*
X121473515Y-96435802D01*
X121432775Y-96493946D01*
X121367067Y-96520835D01*
X121354134Y-96521500D01*
X118424594Y-96521500D01*
X118356473Y-96501498D01*
X118335499Y-96484595D01*
X116490921Y-94640017D01*
X114661708Y-92810803D01*
X114627683Y-92748493D01*
X114632748Y-92677678D01*
X114635923Y-92669957D01*
X114638044Y-92665248D01*
X114639967Y-92660980D01*
X114708896Y-92416575D01*
X114740943Y-92164667D01*
X114743291Y-92075000D01*
X114724472Y-91821759D01*
X114668428Y-91574082D01*
X114576391Y-91337409D01*
X114555866Y-91301498D01*
X114452702Y-91120997D01*
X114452700Y-91120995D01*
X114450383Y-91116940D01*
X114293171Y-90917517D01*
X114108209Y-90743523D01*
X114064483Y-90713189D01*
X113903393Y-90601437D01*
X113903390Y-90601435D01*
X113899561Y-90598779D01*
X113895384Y-90596719D01*
X113895377Y-90596715D01*
X113675996Y-90488528D01*
X113675992Y-90488527D01*
X113671810Y-90486464D01*
X113429960Y-90409047D01*
X113425355Y-90408297D01*
X113183935Y-90368980D01*
X113183934Y-90368980D01*
X113179323Y-90368229D01*
X113052365Y-90366567D01*
X112930083Y-90364966D01*
X112930080Y-90364966D01*
X112925406Y-90364905D01*
X112673787Y-90399149D01*
X112429993Y-90470208D01*
X112199380Y-90576522D01*
X112195471Y-90579085D01*
X111990928Y-90713189D01*
X111990923Y-90713193D01*
X111987015Y-90715755D01*
X111797562Y-90884848D01*
X111635183Y-91080087D01*
X111503447Y-91297182D01*
X111405246Y-91531365D01*
X111342738Y-91777490D01*
X111317296Y-92030151D01*
X107823500Y-92030151D01*
X107823500Y-79330151D01*
X111317296Y-79330151D01*
X111329480Y-79583798D01*
X111379021Y-79832857D01*
X111380600Y-79837255D01*
X111380602Y-79837262D01*
X111425022Y-79960980D01*
X111464831Y-80071858D01*
X111585025Y-80295551D01*
X111587820Y-80299294D01*
X111587822Y-80299297D01*
X111734171Y-80495282D01*
X111734176Y-80495288D01*
X111736963Y-80499020D01*
X111740272Y-80502300D01*
X111740277Y-80502306D01*
X111838859Y-80600031D01*
X111917307Y-80677797D01*
X111921069Y-80680555D01*
X111921072Y-80680558D01*
X112026764Y-80758054D01*
X112122094Y-80827953D01*
X112126229Y-80830129D01*
X112126233Y-80830131D01*
X112244289Y-80892243D01*
X112346827Y-80946191D01*
X112586568Y-81029912D01*
X112836050Y-81077278D01*
X112956532Y-81082011D01*
X113085125Y-81087064D01*
X113085130Y-81087064D01*
X113089793Y-81087247D01*
X113188774Y-81076407D01*
X113337569Y-81060112D01*
X113337575Y-81060111D01*
X113342222Y-81059602D01*
X113451680Y-81030784D01*
X113583273Y-80996138D01*
X113587793Y-80994948D01*
X113706353Y-80944011D01*
X113816807Y-80896557D01*
X113816810Y-80896555D01*
X113821110Y-80894708D01*
X113825090Y-80892245D01*
X113825094Y-80892243D01*
X114033064Y-80763547D01*
X114033066Y-80763545D01*
X114037047Y-80761082D01*
X114135428Y-80677797D01*
X114227289Y-80600031D01*
X114227291Y-80600029D01*
X114230862Y-80597006D01*
X114398295Y-80406084D01*
X114535669Y-80192512D01*
X114639967Y-79960980D01*
X114708896Y-79716575D01*
X114740943Y-79464667D01*
X114743291Y-79375000D01*
X114739958Y-79330151D01*
X117921296Y-79330151D01*
X117933480Y-79583798D01*
X117983021Y-79832857D01*
X117984600Y-79837255D01*
X117984602Y-79837262D01*
X118029022Y-79960980D01*
X118068831Y-80071858D01*
X118189025Y-80295551D01*
X118191820Y-80299294D01*
X118191822Y-80299297D01*
X118338171Y-80495282D01*
X118338176Y-80495288D01*
X118340963Y-80499020D01*
X118344272Y-80502300D01*
X118344277Y-80502306D01*
X118442859Y-80600031D01*
X118521307Y-80677797D01*
X118525069Y-80680555D01*
X118525072Y-80680558D01*
X118630764Y-80758054D01*
X118726094Y-80827953D01*
X118730229Y-80830129D01*
X118730233Y-80830131D01*
X118848289Y-80892243D01*
X118950827Y-80946191D01*
X119190568Y-81029912D01*
X119440050Y-81077278D01*
X119560532Y-81082011D01*
X119689125Y-81087064D01*
X119689130Y-81087064D01*
X119693793Y-81087247D01*
X119792774Y-81076407D01*
X119941569Y-81060112D01*
X119941575Y-81060111D01*
X119946222Y-81059602D01*
X120055680Y-81030784D01*
X120187273Y-80996138D01*
X120191793Y-80994948D01*
X120310353Y-80944011D01*
X120420807Y-80896557D01*
X120420810Y-80896555D01*
X120425110Y-80894708D01*
X120429090Y-80892245D01*
X120429094Y-80892243D01*
X120637064Y-80763547D01*
X120637066Y-80763545D01*
X120641047Y-80761082D01*
X120739428Y-80677797D01*
X120831289Y-80600031D01*
X120831291Y-80600029D01*
X120834862Y-80597006D01*
X121002295Y-80406084D01*
X121139669Y-80192512D01*
X121243967Y-79960980D01*
X121312896Y-79716575D01*
X121344943Y-79464667D01*
X121347291Y-79375000D01*
X121343958Y-79330151D01*
X124525296Y-79330151D01*
X124537480Y-79583798D01*
X124587021Y-79832857D01*
X124588600Y-79837255D01*
X124588602Y-79837262D01*
X124633022Y-79960980D01*
X124672831Y-80071858D01*
X124793025Y-80295551D01*
X124795820Y-80299294D01*
X124795822Y-80299297D01*
X124942171Y-80495282D01*
X124942176Y-80495288D01*
X124944963Y-80499020D01*
X124948272Y-80502300D01*
X124948277Y-80502306D01*
X125046859Y-80600031D01*
X125125307Y-80677797D01*
X125129069Y-80680555D01*
X125129072Y-80680558D01*
X125234764Y-80758054D01*
X125330094Y-80827953D01*
X125334229Y-80830129D01*
X125334233Y-80830131D01*
X125452289Y-80892243D01*
X125554827Y-80946191D01*
X125794568Y-81029912D01*
X126044050Y-81077278D01*
X126164532Y-81082011D01*
X126293125Y-81087064D01*
X126293130Y-81087064D01*
X126297793Y-81087247D01*
X126396774Y-81076407D01*
X126545569Y-81060112D01*
X126545575Y-81060111D01*
X126550222Y-81059602D01*
X126659680Y-81030784D01*
X126791273Y-80996138D01*
X126795793Y-80994948D01*
X126914353Y-80944011D01*
X127024807Y-80896557D01*
X127024810Y-80896555D01*
X127029110Y-80894708D01*
X127033090Y-80892245D01*
X127033094Y-80892243D01*
X127241064Y-80763547D01*
X127241066Y-80763545D01*
X127245047Y-80761082D01*
X127343428Y-80677797D01*
X127435289Y-80600031D01*
X127435291Y-80600029D01*
X127438862Y-80597006D01*
X127606295Y-80406084D01*
X127743669Y-80192512D01*
X127847967Y-79960980D01*
X127916896Y-79716575D01*
X127948943Y-79464667D01*
X127951291Y-79375000D01*
X127947958Y-79330151D01*
X130875296Y-79330151D01*
X130887480Y-79583798D01*
X130937021Y-79832857D01*
X130938600Y-79837255D01*
X130938602Y-79837262D01*
X130983022Y-79960980D01*
X131022831Y-80071858D01*
X131143025Y-80295551D01*
X131145820Y-80299294D01*
X131145822Y-80299297D01*
X131292171Y-80495282D01*
X131292176Y-80495288D01*
X131294963Y-80499020D01*
X131298272Y-80502300D01*
X131298277Y-80502306D01*
X131396859Y-80600031D01*
X131475307Y-80677797D01*
X131479069Y-80680555D01*
X131479072Y-80680558D01*
X131584764Y-80758054D01*
X131680094Y-80827953D01*
X131684229Y-80830129D01*
X131684233Y-80830131D01*
X131802289Y-80892243D01*
X131904827Y-80946191D01*
X132144568Y-81029912D01*
X132394050Y-81077278D01*
X132514532Y-81082011D01*
X132643125Y-81087064D01*
X132643130Y-81087064D01*
X132647793Y-81087247D01*
X132746774Y-81076407D01*
X132895569Y-81060112D01*
X132895575Y-81060111D01*
X132900222Y-81059602D01*
X133009680Y-81030784D01*
X133141273Y-80996138D01*
X133145793Y-80994948D01*
X133264353Y-80944011D01*
X133374807Y-80896557D01*
X133374810Y-80896555D01*
X133379110Y-80894708D01*
X133383090Y-80892245D01*
X133383094Y-80892243D01*
X133591064Y-80763547D01*
X133591066Y-80763545D01*
X133595047Y-80761082D01*
X133693428Y-80677797D01*
X133785289Y-80600031D01*
X133785291Y-80600029D01*
X133788862Y-80597006D01*
X133956295Y-80406084D01*
X134093669Y-80192512D01*
X134197967Y-79960980D01*
X134266896Y-79716575D01*
X134298943Y-79464667D01*
X134301291Y-79375000D01*
X134297958Y-79330151D01*
X137479296Y-79330151D01*
X137491480Y-79583798D01*
X137541021Y-79832857D01*
X137542600Y-79837255D01*
X137542602Y-79837262D01*
X137587022Y-79960980D01*
X137626831Y-80071858D01*
X137747025Y-80295551D01*
X137749820Y-80299294D01*
X137749822Y-80299297D01*
X137896171Y-80495282D01*
X137896176Y-80495288D01*
X137898963Y-80499020D01*
X137902272Y-80502300D01*
X137902277Y-80502306D01*
X138000859Y-80600031D01*
X138079307Y-80677797D01*
X138083069Y-80680555D01*
X138083072Y-80680558D01*
X138188764Y-80758054D01*
X138284094Y-80827953D01*
X138288229Y-80830129D01*
X138288233Y-80830131D01*
X138406289Y-80892243D01*
X138508827Y-80946191D01*
X138748568Y-81029912D01*
X138998050Y-81077278D01*
X139118532Y-81082011D01*
X139247125Y-81087064D01*
X139247130Y-81087064D01*
X139251793Y-81087247D01*
X139350774Y-81076407D01*
X139499569Y-81060112D01*
X139499575Y-81060111D01*
X139504222Y-81059602D01*
X139613680Y-81030784D01*
X139745273Y-80996138D01*
X139749793Y-80994948D01*
X139868353Y-80944011D01*
X139978807Y-80896557D01*
X139978810Y-80896555D01*
X139983110Y-80894708D01*
X139987090Y-80892245D01*
X139987094Y-80892243D01*
X140195064Y-80763547D01*
X140195066Y-80763545D01*
X140199047Y-80761082D01*
X140297428Y-80677797D01*
X140389289Y-80600031D01*
X140389291Y-80600029D01*
X140392862Y-80597006D01*
X140560295Y-80406084D01*
X140697669Y-80192512D01*
X140801967Y-79960980D01*
X140870896Y-79716575D01*
X140902943Y-79464667D01*
X140905291Y-79375000D01*
X140901958Y-79330151D01*
X143956296Y-79330151D01*
X143968480Y-79583798D01*
X144018021Y-79832857D01*
X144019600Y-79837255D01*
X144019602Y-79837262D01*
X144064022Y-79960980D01*
X144103831Y-80071858D01*
X144224025Y-80295551D01*
X144226820Y-80299294D01*
X144226822Y-80299297D01*
X144373171Y-80495282D01*
X144373176Y-80495288D01*
X144375963Y-80499020D01*
X144379272Y-80502300D01*
X144379277Y-80502306D01*
X144477859Y-80600031D01*
X144556307Y-80677797D01*
X144560069Y-80680555D01*
X144560072Y-80680558D01*
X144665764Y-80758054D01*
X144761094Y-80827953D01*
X144765229Y-80830129D01*
X144765233Y-80830131D01*
X144883289Y-80892243D01*
X144985827Y-80946191D01*
X145225568Y-81029912D01*
X145475050Y-81077278D01*
X145595532Y-81082011D01*
X145724125Y-81087064D01*
X145724130Y-81087064D01*
X145728793Y-81087247D01*
X145827774Y-81076407D01*
X145976569Y-81060112D01*
X145976575Y-81060111D01*
X145981222Y-81059602D01*
X146090680Y-81030784D01*
X146222273Y-80996138D01*
X146226793Y-80994948D01*
X146345353Y-80944011D01*
X146455807Y-80896557D01*
X146455810Y-80896555D01*
X146460110Y-80894708D01*
X146464090Y-80892245D01*
X146464094Y-80892243D01*
X146672064Y-80763547D01*
X146672066Y-80763545D01*
X146676047Y-80761082D01*
X146774428Y-80677797D01*
X146866289Y-80600031D01*
X146866291Y-80600029D01*
X146869862Y-80597006D01*
X147037295Y-80406084D01*
X147174669Y-80192512D01*
X147278967Y-79960980D01*
X147347896Y-79716575D01*
X147379943Y-79464667D01*
X147382291Y-79375000D01*
X147378958Y-79330151D01*
X150433296Y-79330151D01*
X150445480Y-79583798D01*
X150495021Y-79832857D01*
X150496600Y-79837255D01*
X150496602Y-79837262D01*
X150541022Y-79960980D01*
X150580831Y-80071858D01*
X150701025Y-80295551D01*
X150703820Y-80299294D01*
X150703822Y-80299297D01*
X150850171Y-80495282D01*
X150850176Y-80495288D01*
X150852963Y-80499020D01*
X150856272Y-80502300D01*
X150856277Y-80502306D01*
X150954859Y-80600031D01*
X151033307Y-80677797D01*
X151037069Y-80680555D01*
X151037072Y-80680558D01*
X151142764Y-80758054D01*
X151238094Y-80827953D01*
X151242229Y-80830129D01*
X151242233Y-80830131D01*
X151360289Y-80892243D01*
X151462827Y-80946191D01*
X151702568Y-81029912D01*
X151952050Y-81077278D01*
X152072532Y-81082011D01*
X152201125Y-81087064D01*
X152201130Y-81087064D01*
X152205793Y-81087247D01*
X152304774Y-81076407D01*
X152453569Y-81060112D01*
X152453575Y-81060111D01*
X152458222Y-81059602D01*
X152567680Y-81030784D01*
X152699273Y-80996138D01*
X152703793Y-80994948D01*
X152822353Y-80944011D01*
X152932807Y-80896557D01*
X152932810Y-80896555D01*
X152937110Y-80894708D01*
X152941090Y-80892245D01*
X152941094Y-80892243D01*
X153149064Y-80763547D01*
X153149066Y-80763545D01*
X153153047Y-80761082D01*
X153251428Y-80677797D01*
X153343289Y-80600031D01*
X153343291Y-80600029D01*
X153346862Y-80597006D01*
X153514295Y-80406084D01*
X153651669Y-80192512D01*
X153755967Y-79960980D01*
X153824896Y-79716575D01*
X153856943Y-79464667D01*
X153859291Y-79375000D01*
X153855958Y-79330151D01*
X156910296Y-79330151D01*
X156922480Y-79583798D01*
X156972021Y-79832857D01*
X156973600Y-79837255D01*
X156973602Y-79837262D01*
X157018022Y-79960980D01*
X157057831Y-80071858D01*
X157178025Y-80295551D01*
X157180820Y-80299294D01*
X157180822Y-80299297D01*
X157327171Y-80495282D01*
X157327176Y-80495288D01*
X157329963Y-80499020D01*
X157333272Y-80502300D01*
X157333277Y-80502306D01*
X157431859Y-80600031D01*
X157510307Y-80677797D01*
X157514069Y-80680555D01*
X157514072Y-80680558D01*
X157619764Y-80758054D01*
X157715094Y-80827953D01*
X157719229Y-80830129D01*
X157719233Y-80830131D01*
X157837289Y-80892243D01*
X157939827Y-80946191D01*
X158179568Y-81029912D01*
X158429050Y-81077278D01*
X158549532Y-81082011D01*
X158678125Y-81087064D01*
X158678130Y-81087064D01*
X158682793Y-81087247D01*
X158781774Y-81076407D01*
X158930569Y-81060112D01*
X158930575Y-81060111D01*
X158935222Y-81059602D01*
X159044680Y-81030784D01*
X159176273Y-80996138D01*
X159180793Y-80994948D01*
X159299353Y-80944011D01*
X159409807Y-80896557D01*
X159409810Y-80896555D01*
X159414110Y-80894708D01*
X159418090Y-80892245D01*
X159418094Y-80892243D01*
X159626064Y-80763547D01*
X159626066Y-80763545D01*
X159630047Y-80761082D01*
X159728428Y-80677797D01*
X159820289Y-80600031D01*
X159820291Y-80600029D01*
X159823862Y-80597006D01*
X159991295Y-80406084D01*
X160128669Y-80192512D01*
X160232967Y-79960980D01*
X160301896Y-79716575D01*
X160333943Y-79464667D01*
X160336291Y-79375000D01*
X160317472Y-79121759D01*
X160261428Y-78874082D01*
X160169391Y-78637409D01*
X160148866Y-78601498D01*
X160045702Y-78420997D01*
X160045700Y-78420995D01*
X160043383Y-78416940D01*
X159886171Y-78217517D01*
X159701209Y-78043523D01*
X159496397Y-77901440D01*
X159496393Y-77901437D01*
X159496390Y-77901435D01*
X159492561Y-77898779D01*
X159488384Y-77896719D01*
X159488377Y-77896715D01*
X159333771Y-77820472D01*
X159281523Y-77772403D01*
X159263500Y-77707466D01*
X159263500Y-73086752D01*
X159283502Y-73018631D01*
X159334068Y-72973601D01*
X159341316Y-72970050D01*
X159349043Y-72966265D01*
X159349047Y-72966263D01*
X159353684Y-72963991D01*
X159357888Y-72960993D01*
X159357892Y-72960990D01*
X159449930Y-72895340D01*
X159542243Y-72829494D01*
X159706303Y-72666005D01*
X159710868Y-72659653D01*
X159769094Y-72578622D01*
X159841458Y-72477917D01*
X159846401Y-72467917D01*
X159941784Y-72274922D01*
X159941785Y-72274920D01*
X159944078Y-72270280D01*
X160011408Y-72048671D01*
X160041640Y-71819041D01*
X160041884Y-71809041D01*
X160043245Y-71753365D01*
X160043245Y-71753361D01*
X160043327Y-71750000D01*
X160037032Y-71673434D01*
X160024773Y-71524318D01*
X160024772Y-71524312D01*
X160024349Y-71519167D01*
X159967925Y-71294533D01*
X159959344Y-71274797D01*
X159877630Y-71086868D01*
X159877628Y-71086865D01*
X159875570Y-71082131D01*
X159749764Y-70887665D01*
X159744618Y-70882009D01*
X159659486Y-70788451D01*
X159628434Y-70724605D01*
X159636829Y-70654106D01*
X159682005Y-70599338D01*
X159708449Y-70585669D01*
X159768054Y-70563324D01*
X159783649Y-70554786D01*
X159885724Y-70478285D01*
X159898285Y-70465724D01*
X159974786Y-70363649D01*
X159983324Y-70348054D01*
X160028478Y-70227606D01*
X160032105Y-70212351D01*
X160037631Y-70161486D01*
X160038000Y-70154672D01*
X160038000Y-69482115D01*
X160033525Y-69466876D01*
X160032135Y-69465671D01*
X160024452Y-69464000D01*
X157240116Y-69464000D01*
X157224877Y-69468475D01*
X157223672Y-69469865D01*
X157222001Y-69477548D01*
X157222001Y-70154669D01*
X157222371Y-70161490D01*
X157227895Y-70212352D01*
X157231521Y-70227604D01*
X157276676Y-70348054D01*
X157285214Y-70363649D01*
X157361715Y-70465724D01*
X157374276Y-70478285D01*
X157476351Y-70554786D01*
X157491946Y-70563324D01*
X157551540Y-70585665D01*
X157608304Y-70628307D01*
X157633004Y-70694868D01*
X157617796Y-70764217D01*
X157598404Y-70790698D01*
X157531639Y-70860564D01*
X157528725Y-70864836D01*
X157528724Y-70864837D01*
X157513152Y-70887665D01*
X157401119Y-71051899D01*
X157303602Y-71261981D01*
X157241707Y-71485169D01*
X157217095Y-71715469D01*
X157217392Y-71720622D01*
X157217392Y-71720625D01*
X157223067Y-71819041D01*
X157230427Y-71946697D01*
X157231564Y-71951743D01*
X157231565Y-71951749D01*
X157263741Y-72094523D01*
X157281346Y-72172642D01*
X157283288Y-72177424D01*
X157283289Y-72177428D01*
X157366540Y-72382450D01*
X157368484Y-72387237D01*
X157489501Y-72584719D01*
X157641147Y-72759784D01*
X157819349Y-72907730D01*
X157932073Y-72973600D01*
X157934070Y-72974767D01*
X157982794Y-73026405D01*
X157996500Y-73083555D01*
X157996500Y-77701763D01*
X157976498Y-77769884D01*
X157923252Y-77816189D01*
X157792380Y-77876522D01*
X157788471Y-77879085D01*
X157583928Y-78013189D01*
X157583923Y-78013193D01*
X157580015Y-78015755D01*
X157390562Y-78184848D01*
X157228183Y-78380087D01*
X157096447Y-78597182D01*
X156998246Y-78831365D01*
X156935738Y-79077490D01*
X156910296Y-79330151D01*
X153855958Y-79330151D01*
X153840472Y-79121759D01*
X153784428Y-78874082D01*
X153692391Y-78637409D01*
X153671866Y-78601498D01*
X153568702Y-78420997D01*
X153568700Y-78420995D01*
X153566383Y-78416940D01*
X153409171Y-78217517D01*
X153224209Y-78043523D01*
X153019397Y-77901440D01*
X153019393Y-77901437D01*
X153019390Y-77901435D01*
X153015561Y-77898779D01*
X153011376Y-77896715D01*
X153011371Y-77896712D01*
X152833772Y-77809130D01*
X152781523Y-77761062D01*
X152763500Y-77696124D01*
X152763500Y-73076752D01*
X152783502Y-73008631D01*
X152834068Y-72963601D01*
X152844276Y-72958600D01*
X152849043Y-72956265D01*
X152849047Y-72956263D01*
X152853684Y-72953991D01*
X152857888Y-72950993D01*
X152857892Y-72950990D01*
X153028223Y-72829494D01*
X153042243Y-72819494D01*
X153206303Y-72656005D01*
X153341458Y-72467917D01*
X153381333Y-72387237D01*
X153441784Y-72264922D01*
X153441785Y-72264920D01*
X153444078Y-72260280D01*
X153511408Y-72038671D01*
X153541640Y-71809041D01*
X153541844Y-71800691D01*
X153543245Y-71743365D01*
X153543245Y-71743361D01*
X153543327Y-71740000D01*
X153525595Y-71524318D01*
X153524773Y-71514318D01*
X153524772Y-71514312D01*
X153524349Y-71509167D01*
X153496137Y-71396850D01*
X153469184Y-71289544D01*
X153469183Y-71289540D01*
X153467925Y-71284533D01*
X153463692Y-71274797D01*
X153377630Y-71076868D01*
X153377628Y-71076865D01*
X153375570Y-71072131D01*
X153249764Y-70877665D01*
X153245215Y-70872665D01*
X153170630Y-70790698D01*
X153159486Y-70778450D01*
X153128434Y-70714605D01*
X153136829Y-70644106D01*
X153182005Y-70589338D01*
X153208449Y-70575669D01*
X153268054Y-70553324D01*
X153283649Y-70544786D01*
X153385724Y-70468285D01*
X153398285Y-70455724D01*
X153474786Y-70353649D01*
X153483324Y-70338054D01*
X153528478Y-70217606D01*
X153532105Y-70202351D01*
X153537631Y-70151486D01*
X153538000Y-70144672D01*
X153538000Y-69472115D01*
X153533525Y-69456876D01*
X153532135Y-69455671D01*
X153524452Y-69454000D01*
X150740116Y-69454000D01*
X150724877Y-69458475D01*
X150723672Y-69459865D01*
X150722001Y-69467548D01*
X150722001Y-70144669D01*
X150722371Y-70151490D01*
X150727895Y-70202352D01*
X150731521Y-70217604D01*
X150776676Y-70338054D01*
X150785214Y-70353649D01*
X150861715Y-70455724D01*
X150874276Y-70468285D01*
X150976351Y-70544786D01*
X150991946Y-70553324D01*
X151051540Y-70575665D01*
X151108304Y-70618307D01*
X151133004Y-70684868D01*
X151117796Y-70754217D01*
X151098404Y-70780698D01*
X151088848Y-70790698D01*
X151031639Y-70850564D01*
X151028725Y-70854836D01*
X151028724Y-70854837D01*
X151013599Y-70877009D01*
X150901119Y-71041899D01*
X150803602Y-71251981D01*
X150741707Y-71475169D01*
X150717095Y-71705469D01*
X150717392Y-71710622D01*
X150717392Y-71710625D01*
X150729841Y-71926529D01*
X150730427Y-71936697D01*
X150731564Y-71941743D01*
X150731565Y-71941749D01*
X150755661Y-72048671D01*
X150781346Y-72162642D01*
X150783288Y-72167424D01*
X150783289Y-72167428D01*
X150823043Y-72265329D01*
X150868484Y-72377237D01*
X150989501Y-72574719D01*
X151141147Y-72749784D01*
X151293785Y-72876507D01*
X151309346Y-72889425D01*
X151319349Y-72897730D01*
X151423516Y-72958600D01*
X151434070Y-72964767D01*
X151482794Y-73016405D01*
X151496500Y-73073555D01*
X151496500Y-77712367D01*
X151476498Y-77780488D01*
X151423251Y-77826793D01*
X151315380Y-77876522D01*
X151311471Y-77879085D01*
X151106928Y-78013189D01*
X151106923Y-78013193D01*
X151103015Y-78015755D01*
X150913562Y-78184848D01*
X150751183Y-78380087D01*
X150619447Y-78597182D01*
X150521246Y-78831365D01*
X150458738Y-79077490D01*
X150433296Y-79330151D01*
X147378958Y-79330151D01*
X147363472Y-79121759D01*
X147307428Y-78874082D01*
X147215391Y-78637409D01*
X147194866Y-78601498D01*
X147091702Y-78420997D01*
X147091700Y-78420995D01*
X147089383Y-78416940D01*
X146932171Y-78217517D01*
X146747209Y-78043523D01*
X146542397Y-77901440D01*
X146542393Y-77901437D01*
X146542390Y-77901435D01*
X146538561Y-77898779D01*
X146534376Y-77896715D01*
X146534371Y-77896712D01*
X146323772Y-77792856D01*
X146271523Y-77744788D01*
X146253500Y-77679850D01*
X146253500Y-73076752D01*
X146273502Y-73008631D01*
X146324068Y-72963601D01*
X146334276Y-72958600D01*
X146339043Y-72956265D01*
X146339047Y-72956263D01*
X146343684Y-72953991D01*
X146347888Y-72950993D01*
X146347892Y-72950990D01*
X146518223Y-72829494D01*
X146532243Y-72819494D01*
X146696303Y-72656005D01*
X146831458Y-72467917D01*
X146871333Y-72387237D01*
X146931784Y-72264922D01*
X146931785Y-72264920D01*
X146934078Y-72260280D01*
X147001408Y-72038671D01*
X147031640Y-71809041D01*
X147031844Y-71800691D01*
X147033245Y-71743365D01*
X147033245Y-71743361D01*
X147033327Y-71740000D01*
X147015595Y-71524318D01*
X147014773Y-71514318D01*
X147014772Y-71514312D01*
X147014349Y-71509167D01*
X146986137Y-71396850D01*
X146959184Y-71289544D01*
X146959183Y-71289540D01*
X146957925Y-71284533D01*
X146953692Y-71274797D01*
X146867630Y-71076868D01*
X146867628Y-71076865D01*
X146865570Y-71072131D01*
X146739764Y-70877665D01*
X146735215Y-70872665D01*
X146660630Y-70790698D01*
X146649486Y-70778450D01*
X146618434Y-70714605D01*
X146626829Y-70644106D01*
X146672005Y-70589338D01*
X146698449Y-70575669D01*
X146758054Y-70553324D01*
X146773649Y-70544786D01*
X146875724Y-70468285D01*
X146888285Y-70455724D01*
X146964786Y-70353649D01*
X146973324Y-70338054D01*
X147018478Y-70217606D01*
X147022105Y-70202351D01*
X147027631Y-70151486D01*
X147028000Y-70144672D01*
X147028000Y-69472115D01*
X147023525Y-69456876D01*
X147022135Y-69455671D01*
X147014452Y-69454000D01*
X144230116Y-69454000D01*
X144214877Y-69458475D01*
X144213672Y-69459865D01*
X144212001Y-69467548D01*
X144212001Y-70144669D01*
X144212371Y-70151490D01*
X144217895Y-70202352D01*
X144221521Y-70217604D01*
X144266676Y-70338054D01*
X144275214Y-70353649D01*
X144351715Y-70455724D01*
X144364276Y-70468285D01*
X144466351Y-70544786D01*
X144481946Y-70553324D01*
X144541540Y-70575665D01*
X144598304Y-70618307D01*
X144623004Y-70684868D01*
X144607796Y-70754217D01*
X144588404Y-70780698D01*
X144578848Y-70790698D01*
X144521639Y-70850564D01*
X144518725Y-70854836D01*
X144518724Y-70854837D01*
X144503599Y-70877009D01*
X144391119Y-71041899D01*
X144293602Y-71251981D01*
X144231707Y-71475169D01*
X144207095Y-71705469D01*
X144207392Y-71710622D01*
X144207392Y-71710625D01*
X144219841Y-71926529D01*
X144220427Y-71936697D01*
X144221564Y-71941743D01*
X144221565Y-71941749D01*
X144245661Y-72048671D01*
X144271346Y-72162642D01*
X144273288Y-72167424D01*
X144273289Y-72167428D01*
X144313043Y-72265329D01*
X144358484Y-72377237D01*
X144479501Y-72574719D01*
X144631147Y-72749784D01*
X144783785Y-72876507D01*
X144799346Y-72889425D01*
X144809349Y-72897730D01*
X144913516Y-72958600D01*
X144924070Y-72964767D01*
X144972794Y-73016405D01*
X144986500Y-73073555D01*
X144986500Y-77727580D01*
X144966498Y-77795701D01*
X144913251Y-77842006D01*
X144897187Y-77849412D01*
X144838380Y-77876522D01*
X144834471Y-77879085D01*
X144629928Y-78013189D01*
X144629923Y-78013193D01*
X144626015Y-78015755D01*
X144436562Y-78184848D01*
X144274183Y-78380087D01*
X144142447Y-78597182D01*
X144044246Y-78831365D01*
X143981738Y-79077490D01*
X143956296Y-79330151D01*
X140901958Y-79330151D01*
X140886472Y-79121759D01*
X140830428Y-78874082D01*
X140738391Y-78637409D01*
X140717866Y-78601498D01*
X140614702Y-78420997D01*
X140614700Y-78420995D01*
X140612383Y-78416940D01*
X140455171Y-78217517D01*
X140270209Y-78043523D01*
X140065397Y-77901440D01*
X140065393Y-77901437D01*
X140065390Y-77901435D01*
X140061561Y-77898779D01*
X140057384Y-77896719D01*
X140057377Y-77896715D01*
X139837996Y-77788528D01*
X139837992Y-77788527D01*
X139833810Y-77786464D01*
X139831777Y-77785813D01*
X139776632Y-77742163D01*
X139753500Y-77669402D01*
X139753500Y-73076752D01*
X139773502Y-73008631D01*
X139824068Y-72963601D01*
X139834276Y-72958600D01*
X139839043Y-72956265D01*
X139839047Y-72956263D01*
X139843684Y-72953991D01*
X139847888Y-72950993D01*
X139847892Y-72950990D01*
X140018223Y-72829494D01*
X140032243Y-72819494D01*
X140196303Y-72656005D01*
X140331458Y-72467917D01*
X140371333Y-72387237D01*
X140431784Y-72264922D01*
X140431785Y-72264920D01*
X140434078Y-72260280D01*
X140501408Y-72038671D01*
X140531640Y-71809041D01*
X140531844Y-71800691D01*
X140533245Y-71743365D01*
X140533245Y-71743361D01*
X140533327Y-71740000D01*
X140515595Y-71524318D01*
X140514773Y-71514318D01*
X140514772Y-71514312D01*
X140514349Y-71509167D01*
X140486137Y-71396850D01*
X140459184Y-71289544D01*
X140459183Y-71289540D01*
X140457925Y-71284533D01*
X140453692Y-71274797D01*
X140367630Y-71076868D01*
X140367628Y-71076865D01*
X140365570Y-71072131D01*
X140239764Y-70877665D01*
X140235215Y-70872665D01*
X140160630Y-70790698D01*
X140149486Y-70778450D01*
X140118434Y-70714605D01*
X140126829Y-70644106D01*
X140172005Y-70589338D01*
X140198449Y-70575669D01*
X140258054Y-70553324D01*
X140273649Y-70544786D01*
X140375724Y-70468285D01*
X140388285Y-70455724D01*
X140464786Y-70353649D01*
X140473324Y-70338054D01*
X140518478Y-70217606D01*
X140522105Y-70202351D01*
X140527631Y-70151486D01*
X140528000Y-70144672D01*
X140528000Y-69472115D01*
X140523525Y-69456876D01*
X140522135Y-69455671D01*
X140514452Y-69454000D01*
X137730116Y-69454000D01*
X137714877Y-69458475D01*
X137713672Y-69459865D01*
X137712001Y-69467548D01*
X137712001Y-70144669D01*
X137712371Y-70151490D01*
X137717895Y-70202352D01*
X137721521Y-70217604D01*
X137766676Y-70338054D01*
X137775214Y-70353649D01*
X137851715Y-70455724D01*
X137864276Y-70468285D01*
X137966351Y-70544786D01*
X137981946Y-70553324D01*
X138041540Y-70575665D01*
X138098304Y-70618307D01*
X138123004Y-70684868D01*
X138107796Y-70754217D01*
X138088404Y-70780698D01*
X138078848Y-70790698D01*
X138021639Y-70850564D01*
X138018725Y-70854836D01*
X138018724Y-70854837D01*
X138003599Y-70877009D01*
X137891119Y-71041899D01*
X137793602Y-71251981D01*
X137731707Y-71475169D01*
X137707095Y-71705469D01*
X137707392Y-71710622D01*
X137707392Y-71710625D01*
X137719841Y-71926529D01*
X137720427Y-71936697D01*
X137721564Y-71941743D01*
X137721565Y-71941749D01*
X137745661Y-72048671D01*
X137771346Y-72162642D01*
X137773288Y-72167424D01*
X137773289Y-72167428D01*
X137813043Y-72265329D01*
X137858484Y-72377237D01*
X137979501Y-72574719D01*
X138131147Y-72749784D01*
X138283785Y-72876507D01*
X138299346Y-72889425D01*
X138309349Y-72897730D01*
X138413516Y-72958600D01*
X138424070Y-72964767D01*
X138472794Y-73016405D01*
X138486500Y-73073555D01*
X138486500Y-77738183D01*
X138466498Y-77806304D01*
X138413251Y-77852609D01*
X138361380Y-77876522D01*
X138357471Y-77879085D01*
X138152928Y-78013189D01*
X138152923Y-78013193D01*
X138149015Y-78015755D01*
X137959562Y-78184848D01*
X137797183Y-78380087D01*
X137665447Y-78597182D01*
X137567246Y-78831365D01*
X137504738Y-79077490D01*
X137479296Y-79330151D01*
X134297958Y-79330151D01*
X134282472Y-79121759D01*
X134226428Y-78874082D01*
X134134391Y-78637409D01*
X134113866Y-78601498D01*
X134010702Y-78420997D01*
X134010700Y-78420995D01*
X134008383Y-78416940D01*
X133851171Y-78217517D01*
X133666209Y-78043523D01*
X133457561Y-77898779D01*
X133323771Y-77832801D01*
X133271522Y-77784732D01*
X133253500Y-77719795D01*
X133253500Y-73076752D01*
X133273502Y-73008631D01*
X133324068Y-72963601D01*
X133334276Y-72958600D01*
X133339043Y-72956265D01*
X133339047Y-72956263D01*
X133343684Y-72953991D01*
X133347888Y-72950993D01*
X133347892Y-72950990D01*
X133518223Y-72829494D01*
X133532243Y-72819494D01*
X133696303Y-72656005D01*
X133831458Y-72467917D01*
X133871333Y-72387237D01*
X133931784Y-72264922D01*
X133931785Y-72264920D01*
X133934078Y-72260280D01*
X134001408Y-72038671D01*
X134031640Y-71809041D01*
X134031844Y-71800691D01*
X134033245Y-71743365D01*
X134033245Y-71743361D01*
X134033327Y-71740000D01*
X134015595Y-71524318D01*
X134014773Y-71514318D01*
X134014772Y-71514312D01*
X134014349Y-71509167D01*
X133986137Y-71396850D01*
X133959184Y-71289544D01*
X133959183Y-71289540D01*
X133957925Y-71284533D01*
X133953692Y-71274797D01*
X133867630Y-71076868D01*
X133867628Y-71076865D01*
X133865570Y-71072131D01*
X133739764Y-70877665D01*
X133735215Y-70872665D01*
X133660630Y-70790698D01*
X133649486Y-70778450D01*
X133618434Y-70714605D01*
X133626829Y-70644106D01*
X133672005Y-70589338D01*
X133698449Y-70575669D01*
X133758054Y-70553324D01*
X133773649Y-70544786D01*
X133875724Y-70468285D01*
X133888285Y-70455724D01*
X133964786Y-70353649D01*
X133973324Y-70338054D01*
X134018478Y-70217606D01*
X134022105Y-70202351D01*
X134027631Y-70151486D01*
X134028000Y-70144672D01*
X134028000Y-69472115D01*
X134023525Y-69456876D01*
X134022135Y-69455671D01*
X134014452Y-69454000D01*
X131230116Y-69454000D01*
X131214877Y-69458475D01*
X131213672Y-69459865D01*
X131212001Y-69467548D01*
X131212001Y-70144669D01*
X131212371Y-70151490D01*
X131217895Y-70202352D01*
X131221521Y-70217604D01*
X131266676Y-70338054D01*
X131275214Y-70353649D01*
X131351715Y-70455724D01*
X131364276Y-70468285D01*
X131466351Y-70544786D01*
X131481946Y-70553324D01*
X131541540Y-70575665D01*
X131598304Y-70618307D01*
X131623004Y-70684868D01*
X131607796Y-70754217D01*
X131588404Y-70780698D01*
X131578848Y-70790698D01*
X131521639Y-70850564D01*
X131518725Y-70854836D01*
X131518724Y-70854837D01*
X131503599Y-70877009D01*
X131391119Y-71041899D01*
X131293602Y-71251981D01*
X131231707Y-71475169D01*
X131207095Y-71705469D01*
X131207392Y-71710622D01*
X131207392Y-71710625D01*
X131219841Y-71926529D01*
X131220427Y-71936697D01*
X131221564Y-71941743D01*
X131221565Y-71941749D01*
X131245661Y-72048671D01*
X131271346Y-72162642D01*
X131273288Y-72167424D01*
X131273289Y-72167428D01*
X131313043Y-72265329D01*
X131358484Y-72377237D01*
X131479501Y-72574719D01*
X131631147Y-72749784D01*
X131783785Y-72876507D01*
X131799346Y-72889425D01*
X131809349Y-72897730D01*
X131913516Y-72958600D01*
X131924070Y-72964767D01*
X131972794Y-73016405D01*
X131986500Y-73073555D01*
X131986500Y-77690238D01*
X131966498Y-77758359D01*
X131913251Y-77804664D01*
X131865250Y-77826793D01*
X131757380Y-77876522D01*
X131753471Y-77879085D01*
X131548928Y-78013189D01*
X131548923Y-78013193D01*
X131545015Y-78015755D01*
X131355562Y-78184848D01*
X131193183Y-78380087D01*
X131061447Y-78597182D01*
X130963246Y-78831365D01*
X130900738Y-79077490D01*
X130875296Y-79330151D01*
X127947958Y-79330151D01*
X127932472Y-79121759D01*
X127876428Y-78874082D01*
X127784391Y-78637409D01*
X127763866Y-78601498D01*
X127660702Y-78420997D01*
X127660700Y-78420995D01*
X127658383Y-78416940D01*
X127501171Y-78217517D01*
X127316209Y-78043523D01*
X127111397Y-77901440D01*
X127111393Y-77901437D01*
X127111390Y-77901435D01*
X127107561Y-77898779D01*
X127103384Y-77896719D01*
X127103377Y-77896715D01*
X126883996Y-77788528D01*
X126883992Y-77788527D01*
X126879810Y-77786464D01*
X126836087Y-77772468D01*
X126777307Y-77732650D01*
X126749385Y-77667375D01*
X126748500Y-77652466D01*
X126748500Y-73071752D01*
X126768502Y-73003631D01*
X126819068Y-72958601D01*
X126828478Y-72953991D01*
X126834043Y-72951265D01*
X126834047Y-72951263D01*
X126838684Y-72948991D01*
X126842888Y-72945993D01*
X126842892Y-72945990D01*
X126922193Y-72889425D01*
X127027243Y-72814494D01*
X127191303Y-72651005D01*
X127326458Y-72462917D01*
X127368804Y-72377237D01*
X127426784Y-72259922D01*
X127426785Y-72259920D01*
X127429078Y-72255280D01*
X127496408Y-72033671D01*
X127526640Y-71804041D01*
X127527878Y-71753365D01*
X127528245Y-71738365D01*
X127528245Y-71738361D01*
X127528327Y-71735000D01*
X127511006Y-71524318D01*
X127509773Y-71509318D01*
X127509772Y-71509312D01*
X127509349Y-71504167D01*
X127481137Y-71391850D01*
X127454184Y-71284544D01*
X127454183Y-71284540D01*
X127452925Y-71279533D01*
X127450866Y-71274797D01*
X127362630Y-71071868D01*
X127362628Y-71071865D01*
X127360570Y-71067131D01*
X127234764Y-70872665D01*
X127144486Y-70773450D01*
X127113434Y-70709605D01*
X127121829Y-70639106D01*
X127167005Y-70584338D01*
X127193449Y-70570669D01*
X127253054Y-70548324D01*
X127268649Y-70539786D01*
X127370724Y-70463285D01*
X127383285Y-70450724D01*
X127459786Y-70348649D01*
X127468324Y-70333054D01*
X127513478Y-70212606D01*
X127517105Y-70197351D01*
X127522631Y-70146486D01*
X127523000Y-70139672D01*
X127523000Y-69467115D01*
X127518525Y-69451876D01*
X127517135Y-69450671D01*
X127509452Y-69449000D01*
X124725116Y-69449000D01*
X124709877Y-69453475D01*
X124708672Y-69454865D01*
X124707001Y-69462548D01*
X124707001Y-70139669D01*
X124707371Y-70146490D01*
X124712895Y-70197352D01*
X124716521Y-70212604D01*
X124761676Y-70333054D01*
X124770214Y-70348649D01*
X124846715Y-70450724D01*
X124859276Y-70463285D01*
X124961351Y-70539786D01*
X124976946Y-70548324D01*
X125036540Y-70570665D01*
X125093304Y-70613307D01*
X125118004Y-70679868D01*
X125102796Y-70749217D01*
X125083404Y-70775698D01*
X125078626Y-70780698D01*
X125016639Y-70845564D01*
X125013725Y-70849836D01*
X125013724Y-70849837D01*
X124998152Y-70872665D01*
X124886119Y-71036899D01*
X124788602Y-71246981D01*
X124726707Y-71470169D01*
X124702095Y-71700469D01*
X124702392Y-71705622D01*
X124702392Y-71705625D01*
X124709123Y-71822359D01*
X124715427Y-71931697D01*
X124716564Y-71936743D01*
X124716565Y-71936749D01*
X124739535Y-72038671D01*
X124766346Y-72157642D01*
X124768288Y-72162424D01*
X124768289Y-72162428D01*
X124813968Y-72274922D01*
X124853484Y-72372237D01*
X124974501Y-72569719D01*
X125126147Y-72744784D01*
X125304349Y-72892730D01*
X125413077Y-72956265D01*
X125419070Y-72959767D01*
X125467794Y-73011405D01*
X125481500Y-73068555D01*
X125481500Y-77761694D01*
X125461498Y-77829815D01*
X125414724Y-77870509D01*
X125415715Y-77872298D01*
X125411626Y-77874564D01*
X125407380Y-77876522D01*
X125403471Y-77879085D01*
X125198928Y-78013189D01*
X125198923Y-78013193D01*
X125195015Y-78015755D01*
X125005562Y-78184848D01*
X124843183Y-78380087D01*
X124711447Y-78597182D01*
X124613246Y-78831365D01*
X124550738Y-79077490D01*
X124525296Y-79330151D01*
X121343958Y-79330151D01*
X121328472Y-79121759D01*
X121272428Y-78874082D01*
X121180391Y-78637409D01*
X121159866Y-78601498D01*
X121056702Y-78420997D01*
X121056700Y-78420995D01*
X121054383Y-78416940D01*
X120897171Y-78217517D01*
X120712209Y-78043523D01*
X120507397Y-77901440D01*
X120507393Y-77901437D01*
X120507390Y-77901435D01*
X120503561Y-77898779D01*
X120458429Y-77876522D01*
X120313771Y-77805184D01*
X120261522Y-77757115D01*
X120243500Y-77692178D01*
X120243500Y-73076752D01*
X120263502Y-73008631D01*
X120314068Y-72963601D01*
X120324276Y-72958600D01*
X120329043Y-72956265D01*
X120329047Y-72956263D01*
X120333684Y-72953991D01*
X120337888Y-72950993D01*
X120337892Y-72950990D01*
X120508223Y-72829494D01*
X120522243Y-72819494D01*
X120686303Y-72656005D01*
X120821458Y-72467917D01*
X120861333Y-72387237D01*
X120921784Y-72264922D01*
X120921785Y-72264920D01*
X120924078Y-72260280D01*
X120991408Y-72038671D01*
X121021640Y-71809041D01*
X121021844Y-71800691D01*
X121023245Y-71743365D01*
X121023245Y-71743361D01*
X121023327Y-71740000D01*
X121005595Y-71524318D01*
X121004773Y-71514318D01*
X121004772Y-71514312D01*
X121004349Y-71509167D01*
X120976137Y-71396850D01*
X120949184Y-71289544D01*
X120949183Y-71289540D01*
X120947925Y-71284533D01*
X120943692Y-71274797D01*
X120857630Y-71076868D01*
X120857628Y-71076865D01*
X120855570Y-71072131D01*
X120729764Y-70877665D01*
X120725215Y-70872665D01*
X120650630Y-70790698D01*
X120639486Y-70778450D01*
X120608434Y-70714605D01*
X120616829Y-70644106D01*
X120662005Y-70589338D01*
X120688449Y-70575669D01*
X120748054Y-70553324D01*
X120763649Y-70544786D01*
X120865724Y-70468285D01*
X120878285Y-70455724D01*
X120954786Y-70353649D01*
X120963324Y-70338054D01*
X121008478Y-70217606D01*
X121012105Y-70202351D01*
X121017631Y-70151486D01*
X121018000Y-70144672D01*
X121018000Y-69472115D01*
X121013525Y-69456876D01*
X121012135Y-69455671D01*
X121004452Y-69454000D01*
X118220116Y-69454000D01*
X118204877Y-69458475D01*
X118203672Y-69459865D01*
X118202001Y-69467548D01*
X118202001Y-70144669D01*
X118202371Y-70151490D01*
X118207895Y-70202352D01*
X118211521Y-70217604D01*
X118256676Y-70338054D01*
X118265214Y-70353649D01*
X118341715Y-70455724D01*
X118354276Y-70468285D01*
X118456351Y-70544786D01*
X118471946Y-70553324D01*
X118531540Y-70575665D01*
X118588304Y-70618307D01*
X118613004Y-70684868D01*
X118597796Y-70754217D01*
X118578404Y-70780698D01*
X118568848Y-70790698D01*
X118511639Y-70850564D01*
X118508725Y-70854836D01*
X118508724Y-70854837D01*
X118493599Y-70877009D01*
X118381119Y-71041899D01*
X118283602Y-71251981D01*
X118221707Y-71475169D01*
X118197095Y-71705469D01*
X118197392Y-71710622D01*
X118197392Y-71710625D01*
X118209841Y-71926529D01*
X118210427Y-71936697D01*
X118211564Y-71941743D01*
X118211565Y-71941749D01*
X118235661Y-72048671D01*
X118261346Y-72162642D01*
X118263288Y-72167424D01*
X118263289Y-72167428D01*
X118303043Y-72265329D01*
X118348484Y-72377237D01*
X118469501Y-72574719D01*
X118621147Y-72749784D01*
X118773785Y-72876507D01*
X118789346Y-72889425D01*
X118799349Y-72897730D01*
X118903516Y-72958600D01*
X118914070Y-72964767D01*
X118962794Y-73016405D01*
X118976500Y-73073555D01*
X118976500Y-77716055D01*
X118956498Y-77784176D01*
X118903251Y-77830481D01*
X118803380Y-77876522D01*
X118799471Y-77879085D01*
X118594928Y-78013189D01*
X118594923Y-78013193D01*
X118591015Y-78015755D01*
X118401562Y-78184848D01*
X118239183Y-78380087D01*
X118107447Y-78597182D01*
X118009246Y-78831365D01*
X117946738Y-79077490D01*
X117921296Y-79330151D01*
X114739958Y-79330151D01*
X114724472Y-79121759D01*
X114668428Y-78874082D01*
X114576391Y-78637409D01*
X114555866Y-78601498D01*
X114452702Y-78420997D01*
X114452700Y-78420995D01*
X114450383Y-78416940D01*
X114293171Y-78217517D01*
X114108209Y-78043523D01*
X113903397Y-77901440D01*
X113903393Y-77901437D01*
X113903390Y-77901435D01*
X113899561Y-77898779D01*
X113850465Y-77874567D01*
X113803771Y-77851540D01*
X113751522Y-77803471D01*
X113733500Y-77738534D01*
X113733500Y-73076752D01*
X113753502Y-73008631D01*
X113804068Y-72963601D01*
X113814276Y-72958600D01*
X113819043Y-72956265D01*
X113819047Y-72956263D01*
X113823684Y-72953991D01*
X113827888Y-72950993D01*
X113827892Y-72950990D01*
X113998223Y-72829494D01*
X114012243Y-72819494D01*
X114176303Y-72656005D01*
X114311458Y-72467917D01*
X114351333Y-72387237D01*
X114411784Y-72264922D01*
X114411785Y-72264920D01*
X114414078Y-72260280D01*
X114481408Y-72038671D01*
X114511640Y-71809041D01*
X114511844Y-71800691D01*
X114513245Y-71743365D01*
X114513245Y-71743361D01*
X114513327Y-71740000D01*
X114495595Y-71524318D01*
X114494773Y-71514318D01*
X114494772Y-71514312D01*
X114494349Y-71509167D01*
X114466137Y-71396850D01*
X114439184Y-71289544D01*
X114439183Y-71289540D01*
X114437925Y-71284533D01*
X114433692Y-71274797D01*
X114347630Y-71076868D01*
X114347628Y-71076865D01*
X114345570Y-71072131D01*
X114219764Y-70877665D01*
X114215215Y-70872665D01*
X114140630Y-70790698D01*
X114129486Y-70778450D01*
X114098434Y-70714605D01*
X114106829Y-70644106D01*
X114152005Y-70589338D01*
X114178449Y-70575669D01*
X114238054Y-70553324D01*
X114253649Y-70544786D01*
X114355724Y-70468285D01*
X114368285Y-70455724D01*
X114444786Y-70353649D01*
X114453324Y-70338054D01*
X114498478Y-70217606D01*
X114502105Y-70202351D01*
X114507631Y-70151486D01*
X114508000Y-70144672D01*
X114508000Y-69472115D01*
X114503525Y-69456876D01*
X114502135Y-69455671D01*
X114494452Y-69454000D01*
X111710116Y-69454000D01*
X111694877Y-69458475D01*
X111693672Y-69459865D01*
X111692001Y-69467548D01*
X111692001Y-70144669D01*
X111692371Y-70151490D01*
X111697895Y-70202352D01*
X111701521Y-70217604D01*
X111746676Y-70338054D01*
X111755214Y-70353649D01*
X111831715Y-70455724D01*
X111844276Y-70468285D01*
X111946351Y-70544786D01*
X111961946Y-70553324D01*
X112021540Y-70575665D01*
X112078304Y-70618307D01*
X112103004Y-70684868D01*
X112087796Y-70754217D01*
X112068404Y-70780698D01*
X112058848Y-70790698D01*
X112001639Y-70850564D01*
X111998725Y-70854836D01*
X111998724Y-70854837D01*
X111983599Y-70877009D01*
X111871119Y-71041899D01*
X111773602Y-71251981D01*
X111711707Y-71475169D01*
X111687095Y-71705469D01*
X111687392Y-71710622D01*
X111687392Y-71710625D01*
X111699841Y-71926529D01*
X111700427Y-71936697D01*
X111701564Y-71941743D01*
X111701565Y-71941749D01*
X111725661Y-72048671D01*
X111751346Y-72162642D01*
X111753288Y-72167424D01*
X111753289Y-72167428D01*
X111793043Y-72265329D01*
X111838484Y-72377237D01*
X111959501Y-72574719D01*
X112111147Y-72749784D01*
X112263785Y-72876507D01*
X112279346Y-72889425D01*
X112289349Y-72897730D01*
X112393516Y-72958600D01*
X112404070Y-72964767D01*
X112452794Y-73016405D01*
X112466500Y-73073555D01*
X112466500Y-77672720D01*
X112446498Y-77740841D01*
X112393251Y-77787146D01*
X112324500Y-77818841D01*
X112199380Y-77876522D01*
X112195471Y-77879085D01*
X111990928Y-78013189D01*
X111990923Y-78013193D01*
X111987015Y-78015755D01*
X111797562Y-78184848D01*
X111635183Y-78380087D01*
X111503447Y-78597182D01*
X111405246Y-78831365D01*
X111342738Y-79077490D01*
X111317296Y-79330151D01*
X107823500Y-79330151D01*
X107823500Y-68927885D01*
X111692000Y-68927885D01*
X111696475Y-68943124D01*
X111697865Y-68944329D01*
X111705548Y-68946000D01*
X112827885Y-68946000D01*
X112843124Y-68941525D01*
X112844329Y-68940135D01*
X112846000Y-68932452D01*
X112846000Y-68927885D01*
X113354000Y-68927885D01*
X113358475Y-68943124D01*
X113359865Y-68944329D01*
X113367548Y-68946000D01*
X114489884Y-68946000D01*
X114505123Y-68941525D01*
X114506328Y-68940135D01*
X114507999Y-68932452D01*
X114507999Y-68927885D01*
X118202000Y-68927885D01*
X118206475Y-68943124D01*
X118207865Y-68944329D01*
X118215548Y-68946000D01*
X119337885Y-68946000D01*
X119353124Y-68941525D01*
X119354329Y-68940135D01*
X119356000Y-68932452D01*
X119356000Y-68927885D01*
X119864000Y-68927885D01*
X119868475Y-68943124D01*
X119869865Y-68944329D01*
X119877548Y-68946000D01*
X120999884Y-68946000D01*
X121015123Y-68941525D01*
X121016328Y-68940135D01*
X121017999Y-68932452D01*
X121017999Y-68922885D01*
X124707000Y-68922885D01*
X124711475Y-68938124D01*
X124712865Y-68939329D01*
X124720548Y-68941000D01*
X125842885Y-68941000D01*
X125858124Y-68936525D01*
X125859329Y-68935135D01*
X125861000Y-68927452D01*
X125861000Y-68922885D01*
X126369000Y-68922885D01*
X126373475Y-68938124D01*
X126374865Y-68939329D01*
X126382548Y-68941000D01*
X127504884Y-68941000D01*
X127520123Y-68936525D01*
X127521328Y-68935135D01*
X127522905Y-68927885D01*
X131212000Y-68927885D01*
X131216475Y-68943124D01*
X131217865Y-68944329D01*
X131225548Y-68946000D01*
X132347885Y-68946000D01*
X132363124Y-68941525D01*
X132364329Y-68940135D01*
X132366000Y-68932452D01*
X132366000Y-68927885D01*
X132874000Y-68927885D01*
X132878475Y-68943124D01*
X132879865Y-68944329D01*
X132887548Y-68946000D01*
X134009884Y-68946000D01*
X134025123Y-68941525D01*
X134026328Y-68940135D01*
X134027999Y-68932452D01*
X134027999Y-68927885D01*
X137712000Y-68927885D01*
X137716475Y-68943124D01*
X137717865Y-68944329D01*
X137725548Y-68946000D01*
X138847885Y-68946000D01*
X138863124Y-68941525D01*
X138864329Y-68940135D01*
X138866000Y-68932452D01*
X138866000Y-68927885D01*
X139374000Y-68927885D01*
X139378475Y-68943124D01*
X139379865Y-68944329D01*
X139387548Y-68946000D01*
X140509884Y-68946000D01*
X140525123Y-68941525D01*
X140526328Y-68940135D01*
X140527999Y-68932452D01*
X140527999Y-68927885D01*
X144212000Y-68927885D01*
X144216475Y-68943124D01*
X144217865Y-68944329D01*
X144225548Y-68946000D01*
X145347885Y-68946000D01*
X145363124Y-68941525D01*
X145364329Y-68940135D01*
X145366000Y-68932452D01*
X145366000Y-68927885D01*
X145874000Y-68927885D01*
X145878475Y-68943124D01*
X145879865Y-68944329D01*
X145887548Y-68946000D01*
X147009884Y-68946000D01*
X147025123Y-68941525D01*
X147026328Y-68940135D01*
X147027999Y-68932452D01*
X147027999Y-68927885D01*
X150722000Y-68927885D01*
X150726475Y-68943124D01*
X150727865Y-68944329D01*
X150735548Y-68946000D01*
X151857885Y-68946000D01*
X151873124Y-68941525D01*
X151874329Y-68940135D01*
X151876000Y-68932452D01*
X151876000Y-68927885D01*
X152384000Y-68927885D01*
X152388475Y-68943124D01*
X152389865Y-68944329D01*
X152397548Y-68946000D01*
X153519884Y-68946000D01*
X153535123Y-68941525D01*
X153536328Y-68940135D01*
X153536817Y-68937885D01*
X157222000Y-68937885D01*
X157226475Y-68953124D01*
X157227865Y-68954329D01*
X157235548Y-68956000D01*
X158357885Y-68956000D01*
X158373124Y-68951525D01*
X158374329Y-68950135D01*
X158376000Y-68942452D01*
X158376000Y-68937885D01*
X158884000Y-68937885D01*
X158888475Y-68953124D01*
X158889865Y-68954329D01*
X158897548Y-68956000D01*
X160019884Y-68956000D01*
X160035123Y-68951525D01*
X160036328Y-68950135D01*
X160037999Y-68942452D01*
X160037999Y-68265331D01*
X160037629Y-68258510D01*
X160032105Y-68207648D01*
X160028479Y-68192396D01*
X159983324Y-68071946D01*
X159974786Y-68056351D01*
X159898285Y-67954276D01*
X159885724Y-67941715D01*
X159783649Y-67865214D01*
X159768054Y-67856676D01*
X159647606Y-67811522D01*
X159632351Y-67807895D01*
X159581486Y-67802369D01*
X159574672Y-67802000D01*
X158902115Y-67802000D01*
X158886876Y-67806475D01*
X158885671Y-67807865D01*
X158884000Y-67815548D01*
X158884000Y-68937885D01*
X158376000Y-68937885D01*
X158376000Y-67820116D01*
X158371525Y-67804877D01*
X158370135Y-67803672D01*
X158362452Y-67802001D01*
X157685331Y-67802001D01*
X157678510Y-67802371D01*
X157627648Y-67807895D01*
X157612396Y-67811521D01*
X157491946Y-67856676D01*
X157476351Y-67865214D01*
X157374276Y-67941715D01*
X157361715Y-67954276D01*
X157285214Y-68056351D01*
X157276676Y-68071946D01*
X157231522Y-68192394D01*
X157227895Y-68207649D01*
X157222369Y-68258514D01*
X157222000Y-68265328D01*
X157222000Y-68937885D01*
X153536817Y-68937885D01*
X153537999Y-68932452D01*
X153537999Y-68255331D01*
X153537629Y-68248510D01*
X153532105Y-68197648D01*
X153528479Y-68182396D01*
X153483324Y-68061946D01*
X153474786Y-68046351D01*
X153398285Y-67944276D01*
X153385724Y-67931715D01*
X153283649Y-67855214D01*
X153268054Y-67846676D01*
X153147606Y-67801522D01*
X153132351Y-67797895D01*
X153081486Y-67792369D01*
X153074672Y-67792000D01*
X152402115Y-67792000D01*
X152386876Y-67796475D01*
X152385671Y-67797865D01*
X152384000Y-67805548D01*
X152384000Y-68927885D01*
X151876000Y-68927885D01*
X151876000Y-67810116D01*
X151871525Y-67794877D01*
X151870135Y-67793672D01*
X151862452Y-67792001D01*
X151185331Y-67792001D01*
X151178510Y-67792371D01*
X151127648Y-67797895D01*
X151112396Y-67801521D01*
X150991946Y-67846676D01*
X150976351Y-67855214D01*
X150874276Y-67931715D01*
X150861715Y-67944276D01*
X150785214Y-68046351D01*
X150776676Y-68061946D01*
X150731522Y-68182394D01*
X150727895Y-68197649D01*
X150722369Y-68248514D01*
X150722000Y-68255328D01*
X150722000Y-68927885D01*
X147027999Y-68927885D01*
X147027999Y-68255331D01*
X147027629Y-68248510D01*
X147022105Y-68197648D01*
X147018479Y-68182396D01*
X146973324Y-68061946D01*
X146964786Y-68046351D01*
X146888285Y-67944276D01*
X146875724Y-67931715D01*
X146773649Y-67855214D01*
X146758054Y-67846676D01*
X146637606Y-67801522D01*
X146622351Y-67797895D01*
X146571486Y-67792369D01*
X146564672Y-67792000D01*
X145892115Y-67792000D01*
X145876876Y-67796475D01*
X145875671Y-67797865D01*
X145874000Y-67805548D01*
X145874000Y-68927885D01*
X145366000Y-68927885D01*
X145366000Y-67810116D01*
X145361525Y-67794877D01*
X145360135Y-67793672D01*
X145352452Y-67792001D01*
X144675331Y-67792001D01*
X144668510Y-67792371D01*
X144617648Y-67797895D01*
X144602396Y-67801521D01*
X144481946Y-67846676D01*
X144466351Y-67855214D01*
X144364276Y-67931715D01*
X144351715Y-67944276D01*
X144275214Y-68046351D01*
X144266676Y-68061946D01*
X144221522Y-68182394D01*
X144217895Y-68197649D01*
X144212369Y-68248514D01*
X144212000Y-68255328D01*
X144212000Y-68927885D01*
X140527999Y-68927885D01*
X140527999Y-68255331D01*
X140527629Y-68248510D01*
X140522105Y-68197648D01*
X140518479Y-68182396D01*
X140473324Y-68061946D01*
X140464786Y-68046351D01*
X140388285Y-67944276D01*
X140375724Y-67931715D01*
X140273649Y-67855214D01*
X140258054Y-67846676D01*
X140137606Y-67801522D01*
X140122351Y-67797895D01*
X140071486Y-67792369D01*
X140064672Y-67792000D01*
X139392115Y-67792000D01*
X139376876Y-67796475D01*
X139375671Y-67797865D01*
X139374000Y-67805548D01*
X139374000Y-68927885D01*
X138866000Y-68927885D01*
X138866000Y-67810116D01*
X138861525Y-67794877D01*
X138860135Y-67793672D01*
X138852452Y-67792001D01*
X138175331Y-67792001D01*
X138168510Y-67792371D01*
X138117648Y-67797895D01*
X138102396Y-67801521D01*
X137981946Y-67846676D01*
X137966351Y-67855214D01*
X137864276Y-67931715D01*
X137851715Y-67944276D01*
X137775214Y-68046351D01*
X137766676Y-68061946D01*
X137721522Y-68182394D01*
X137717895Y-68197649D01*
X137712369Y-68248514D01*
X137712000Y-68255328D01*
X137712000Y-68927885D01*
X134027999Y-68927885D01*
X134027999Y-68255331D01*
X134027629Y-68248510D01*
X134022105Y-68197648D01*
X134018479Y-68182396D01*
X133973324Y-68061946D01*
X133964786Y-68046351D01*
X133888285Y-67944276D01*
X133875724Y-67931715D01*
X133773649Y-67855214D01*
X133758054Y-67846676D01*
X133637606Y-67801522D01*
X133622351Y-67797895D01*
X133571486Y-67792369D01*
X133564672Y-67792000D01*
X132892115Y-67792000D01*
X132876876Y-67796475D01*
X132875671Y-67797865D01*
X132874000Y-67805548D01*
X132874000Y-68927885D01*
X132366000Y-68927885D01*
X132366000Y-67810116D01*
X132361525Y-67794877D01*
X132360135Y-67793672D01*
X132352452Y-67792001D01*
X131675331Y-67792001D01*
X131668510Y-67792371D01*
X131617648Y-67797895D01*
X131602396Y-67801521D01*
X131481946Y-67846676D01*
X131466351Y-67855214D01*
X131364276Y-67931715D01*
X131351715Y-67944276D01*
X131275214Y-68046351D01*
X131266676Y-68061946D01*
X131221522Y-68182394D01*
X131217895Y-68197649D01*
X131212369Y-68248514D01*
X131212000Y-68255328D01*
X131212000Y-68927885D01*
X127522905Y-68927885D01*
X127522999Y-68927452D01*
X127522999Y-68250331D01*
X127522629Y-68243510D01*
X127517105Y-68192648D01*
X127513479Y-68177396D01*
X127468324Y-68056946D01*
X127459786Y-68041351D01*
X127383285Y-67939276D01*
X127370724Y-67926715D01*
X127268649Y-67850214D01*
X127253054Y-67841676D01*
X127132606Y-67796522D01*
X127117351Y-67792895D01*
X127066486Y-67787369D01*
X127059672Y-67787000D01*
X126387115Y-67787000D01*
X126371876Y-67791475D01*
X126370671Y-67792865D01*
X126369000Y-67800548D01*
X126369000Y-68922885D01*
X125861000Y-68922885D01*
X125861000Y-67805116D01*
X125856525Y-67789877D01*
X125855135Y-67788672D01*
X125847452Y-67787001D01*
X125170331Y-67787001D01*
X125163510Y-67787371D01*
X125112648Y-67792895D01*
X125097396Y-67796521D01*
X124976946Y-67841676D01*
X124961351Y-67850214D01*
X124859276Y-67926715D01*
X124846715Y-67939276D01*
X124770214Y-68041351D01*
X124761676Y-68056946D01*
X124716522Y-68177394D01*
X124712895Y-68192649D01*
X124707369Y-68243514D01*
X124707000Y-68250328D01*
X124707000Y-68922885D01*
X121017999Y-68922885D01*
X121017999Y-68255331D01*
X121017629Y-68248510D01*
X121012105Y-68197648D01*
X121008479Y-68182396D01*
X120963324Y-68061946D01*
X120954786Y-68046351D01*
X120878285Y-67944276D01*
X120865724Y-67931715D01*
X120763649Y-67855214D01*
X120748054Y-67846676D01*
X120627606Y-67801522D01*
X120612351Y-67797895D01*
X120561486Y-67792369D01*
X120554672Y-67792000D01*
X119882115Y-67792000D01*
X119866876Y-67796475D01*
X119865671Y-67797865D01*
X119864000Y-67805548D01*
X119864000Y-68927885D01*
X119356000Y-68927885D01*
X119356000Y-67810116D01*
X119351525Y-67794877D01*
X119350135Y-67793672D01*
X119342452Y-67792001D01*
X118665331Y-67792001D01*
X118658510Y-67792371D01*
X118607648Y-67797895D01*
X118592396Y-67801521D01*
X118471946Y-67846676D01*
X118456351Y-67855214D01*
X118354276Y-67931715D01*
X118341715Y-67944276D01*
X118265214Y-68046351D01*
X118256676Y-68061946D01*
X118211522Y-68182394D01*
X118207895Y-68197649D01*
X118202369Y-68248514D01*
X118202000Y-68255328D01*
X118202000Y-68927885D01*
X114507999Y-68927885D01*
X114507999Y-68255331D01*
X114507629Y-68248510D01*
X114502105Y-68197648D01*
X114498479Y-68182396D01*
X114453324Y-68061946D01*
X114444786Y-68046351D01*
X114368285Y-67944276D01*
X114355724Y-67931715D01*
X114253649Y-67855214D01*
X114238054Y-67846676D01*
X114117606Y-67801522D01*
X114102351Y-67797895D01*
X114051486Y-67792369D01*
X114044672Y-67792000D01*
X113372115Y-67792000D01*
X113356876Y-67796475D01*
X113355671Y-67797865D01*
X113354000Y-67805548D01*
X113354000Y-68927885D01*
X112846000Y-68927885D01*
X112846000Y-67810116D01*
X112841525Y-67794877D01*
X112840135Y-67793672D01*
X112832452Y-67792001D01*
X112155331Y-67792001D01*
X112148510Y-67792371D01*
X112097648Y-67797895D01*
X112082396Y-67801521D01*
X111961946Y-67846676D01*
X111946351Y-67855214D01*
X111844276Y-67931715D01*
X111831715Y-67944276D01*
X111755214Y-68046351D01*
X111746676Y-68061946D01*
X111701522Y-68182394D01*
X111697895Y-68197649D01*
X111692369Y-68248514D01*
X111692000Y-68255328D01*
X111692000Y-68927885D01*
X107823500Y-68927885D01*
X107823500Y-64134500D01*
X107843502Y-64066379D01*
X107897158Y-64019886D01*
X107949500Y-64008500D01*
X163680500Y-64008500D01*
X163748621Y-64028502D01*
G37*
%TD.AperFunction*%
%TD*%
M02*
