M48
; DRILL file {KiCad (6.0.4)} date Sun May  1 17:36:33 2022
; FORMAT={-:-/ absolute / inch / decimal}
; #@! TF.CreationDate,2022-05-01T17:36:33-07:00
; #@! TF.GenerationSoftware,Kicad,Pcbnew,(6.0.4)
; #@! TF.FileFunction,MixedPlating,1,2
FMAT,2
INCH
; #@! TA.AperFunction,Plated,PTH,ComponentDrill
T1C0.0315
; #@! TA.AperFunction,Plated,PTH,ComponentDrill
T2C0.0354
; #@! TA.AperFunction,Plated,PTH,ComponentDrill
T3C0.0394
; #@! TA.AperFunction,Plated,PTH,ComponentDrill
T4C0.0472
%
G90
G05
T1
X4.775Y-4.0258
X4.775Y-4.1242
X4.9994Y-3.9004
X4.9994Y-4.2004
X5.0994Y-3.9004
X5.0994Y-4.2004
X5.1994Y-3.9004
X5.1994Y-4.2004
X5.2994Y-3.9004
X5.2994Y-4.2004
X5.3994Y-3.9004
X5.3994Y-4.2004
X5.4994Y-3.9004
X5.4994Y-4.2004
X5.5994Y-3.9004
X5.5994Y-4.2004
X5.6994Y-3.9004
X5.6994Y-4.2004
T2
X4.4528Y-2.7244
X4.4528Y-2.8244
X4.7091Y-2.7244
X4.7091Y-2.8244
X4.9652Y-2.7242
X4.9652Y-2.8242
X5.2213Y-2.7244
X5.2213Y-2.8244
X5.4772Y-2.7244
X5.4772Y-2.8244
X5.7331Y-2.7244
X5.7331Y-2.8244
X5.9894Y-2.7244
X5.9894Y-2.8244
X6.2453Y-2.7248
X6.2453Y-2.8248
T3
X5.1502Y-4.6
X5.2502Y-4.6
X5.3502Y-4.6
X5.4502Y-4.6
X5.5502Y-4.6
T4
X4.45Y-3.125
X4.45Y-3.625
X4.71Y-3.125
X4.71Y-3.625
X4.97Y-3.125
X4.97Y-3.625
X5.22Y-3.125
X5.22Y-3.625
X5.48Y-3.125
X5.48Y-3.625
X5.735Y-3.125
X5.735Y-3.625
X5.99Y-3.125
X5.99Y-3.625
X6.245Y-3.125
X6.245Y-3.625
T0
M30
