%TF.GenerationSoftware,KiCad,Pcbnew,(6.0.4)*%
%TF.CreationDate,2022-05-01T17:36:18-07:00*%
%TF.ProjectId,Eight LEDBar,45696768-7420-44c4-9544-4261722e6b69,rev?*%
%TF.SameCoordinates,Original*%
%TF.FileFunction,Legend,Top*%
%TF.FilePolarity,Positive*%
%FSLAX46Y46*%
G04 Gerber Fmt 4.6, Leading zero omitted, Abs format (unit mm)*
G04 Created by KiCad (PCBNEW (6.0.4)) date 2022-05-01 17:36:18*
%MOMM*%
%LPD*%
G01*
G04 APERTURE LIST*
%ADD10C,0.153000*%
%ADD11C,0.150000*%
%ADD12C,0.120000*%
G04 APERTURE END LIST*
D10*
X135121904Y-120467380D02*
X135121904Y-119467380D01*
X135360000Y-119467380D01*
X135502857Y-119515000D01*
X135598095Y-119610238D01*
X135645714Y-119705476D01*
X135693333Y-119895952D01*
X135693333Y-120038809D01*
X135645714Y-120229285D01*
X135598095Y-120324523D01*
X135502857Y-120419761D01*
X135360000Y-120467380D01*
X135121904Y-120467380D01*
X136074285Y-120419761D02*
X136217142Y-120467380D01*
X136455238Y-120467380D01*
X136550476Y-120419761D01*
X136598095Y-120372142D01*
X136645714Y-120276904D01*
X136645714Y-120181666D01*
X136598095Y-120086428D01*
X136550476Y-120038809D01*
X136455238Y-119991190D01*
X136264761Y-119943571D01*
X136169523Y-119895952D01*
X136121904Y-119848333D01*
X136074285Y-119753095D01*
X136074285Y-119657857D01*
X136121904Y-119562619D01*
X136169523Y-119515000D01*
X136264761Y-119467380D01*
X136502857Y-119467380D01*
X136645714Y-119515000D01*
D11*
X128318571Y-66042380D02*
X128318571Y-65042380D01*
X128747142Y-66042380D02*
X128747142Y-65518571D01*
X128699523Y-65423333D01*
X128604285Y-65375714D01*
X128461428Y-65375714D01*
X128366190Y-65423333D01*
X128318571Y-65470952D01*
X129080476Y-65375714D02*
X129461428Y-65375714D01*
X129223333Y-65042380D02*
X129223333Y-65899523D01*
X129270952Y-65994761D01*
X129366190Y-66042380D01*
X129461428Y-66042380D01*
X129651904Y-65375714D02*
X130032857Y-65375714D01*
X129794761Y-65042380D02*
X129794761Y-65899523D01*
X129842380Y-65994761D01*
X129937619Y-66042380D01*
X130032857Y-66042380D01*
X130366190Y-65375714D02*
X130366190Y-66375714D01*
X130366190Y-65423333D02*
X130461428Y-65375714D01*
X130651904Y-65375714D01*
X130747142Y-65423333D01*
X130794761Y-65470952D01*
X130842380Y-65566190D01*
X130842380Y-65851904D01*
X130794761Y-65947142D01*
X130747142Y-65994761D01*
X130651904Y-66042380D01*
X130461428Y-66042380D01*
X130366190Y-65994761D01*
X131223333Y-65994761D02*
X131318571Y-66042380D01*
X131509047Y-66042380D01*
X131604285Y-65994761D01*
X131651904Y-65899523D01*
X131651904Y-65851904D01*
X131604285Y-65756666D01*
X131509047Y-65709047D01*
X131366190Y-65709047D01*
X131270952Y-65661428D01*
X131223333Y-65566190D01*
X131223333Y-65518571D01*
X131270952Y-65423333D01*
X131366190Y-65375714D01*
X131509047Y-65375714D01*
X131604285Y-65423333D01*
X132080476Y-65947142D02*
X132128095Y-65994761D01*
X132080476Y-66042380D01*
X132032857Y-65994761D01*
X132080476Y-65947142D01*
X132080476Y-66042380D01*
X132080476Y-65423333D02*
X132128095Y-65470952D01*
X132080476Y-65518571D01*
X132032857Y-65470952D01*
X132080476Y-65423333D01*
X132080476Y-65518571D01*
X133270952Y-64994761D02*
X132413809Y-66280476D01*
X134318571Y-64994761D02*
X133461428Y-66280476D01*
X135080476Y-66042380D02*
X135080476Y-65518571D01*
X135032857Y-65423333D01*
X134937619Y-65375714D01*
X134747142Y-65375714D01*
X134651904Y-65423333D01*
X135080476Y-65994761D02*
X134985238Y-66042380D01*
X134747142Y-66042380D01*
X134651904Y-65994761D01*
X134604285Y-65899523D01*
X134604285Y-65804285D01*
X134651904Y-65709047D01*
X134747142Y-65661428D01*
X134985238Y-65661428D01*
X135080476Y-65613809D01*
X135556666Y-66042380D02*
X135556666Y-65042380D01*
X135651904Y-65661428D02*
X135937619Y-66042380D01*
X135937619Y-65375714D02*
X135556666Y-65756666D01*
X136794761Y-66042380D02*
X136794761Y-65518571D01*
X136747142Y-65423333D01*
X136651904Y-65375714D01*
X136461428Y-65375714D01*
X136366190Y-65423333D01*
X136794761Y-65994761D02*
X136699523Y-66042380D01*
X136461428Y-66042380D01*
X136366190Y-65994761D01*
X136318571Y-65899523D01*
X136318571Y-65804285D01*
X136366190Y-65709047D01*
X136461428Y-65661428D01*
X136699523Y-65661428D01*
X136794761Y-65613809D01*
X137270952Y-66042380D02*
X137270952Y-65042380D01*
X137366190Y-65661428D02*
X137651904Y-66042380D01*
X137651904Y-65375714D02*
X137270952Y-65756666D01*
X138509047Y-66042380D02*
X138509047Y-65518571D01*
X138461428Y-65423333D01*
X138366190Y-65375714D01*
X138175714Y-65375714D01*
X138080476Y-65423333D01*
X138509047Y-65994761D02*
X138413809Y-66042380D01*
X138175714Y-66042380D01*
X138080476Y-65994761D01*
X138032857Y-65899523D01*
X138032857Y-65804285D01*
X138080476Y-65709047D01*
X138175714Y-65661428D01*
X138413809Y-65661428D01*
X138509047Y-65613809D01*
X138985238Y-65375714D02*
X138985238Y-66042380D01*
X138985238Y-65470952D02*
X139032857Y-65423333D01*
X139128095Y-65375714D01*
X139270952Y-65375714D01*
X139366190Y-65423333D01*
X139413809Y-65518571D01*
X139413809Y-66042380D01*
X139890000Y-66042380D02*
X139890000Y-65375714D01*
X139890000Y-65042380D02*
X139842380Y-65090000D01*
X139890000Y-65137619D01*
X139937619Y-65090000D01*
X139890000Y-65042380D01*
X139890000Y-65137619D01*
X140366190Y-65947142D02*
X140413809Y-65994761D01*
X140366190Y-66042380D01*
X140318571Y-65994761D01*
X140366190Y-65947142D01*
X140366190Y-66042380D01*
X141270952Y-65994761D02*
X141175714Y-66042380D01*
X140985238Y-66042380D01*
X140890000Y-65994761D01*
X140842380Y-65947142D01*
X140794761Y-65851904D01*
X140794761Y-65566190D01*
X140842380Y-65470952D01*
X140890000Y-65423333D01*
X140985238Y-65375714D01*
X141175714Y-65375714D01*
X141270952Y-65423333D01*
X141842380Y-66042380D02*
X141747142Y-65994761D01*
X141699523Y-65947142D01*
X141651904Y-65851904D01*
X141651904Y-65566190D01*
X141699523Y-65470952D01*
X141747142Y-65423333D01*
X141842380Y-65375714D01*
X141985238Y-65375714D01*
X142080476Y-65423333D01*
X142128095Y-65470952D01*
X142175714Y-65566190D01*
X142175714Y-65851904D01*
X142128095Y-65947142D01*
X142080476Y-65994761D01*
X141985238Y-66042380D01*
X141842380Y-66042380D01*
X142604285Y-66042380D02*
X142604285Y-65375714D01*
X142604285Y-65470952D02*
X142651904Y-65423333D01*
X142747142Y-65375714D01*
X142890000Y-65375714D01*
X142985238Y-65423333D01*
X143032857Y-65518571D01*
X143032857Y-66042380D01*
X143032857Y-65518571D02*
X143080476Y-65423333D01*
X143175714Y-65375714D01*
X143318571Y-65375714D01*
X143413809Y-65423333D01*
X143461428Y-65518571D01*
X143461428Y-66042380D01*
X110190595Y-115962380D02*
X110190595Y-114962380D01*
X110428690Y-114962380D01*
X110571547Y-115010000D01*
X110666785Y-115105238D01*
X110714404Y-115200476D01*
X110762023Y-115390952D01*
X110762023Y-115533809D01*
X110714404Y-115724285D01*
X110666785Y-115819523D01*
X110571547Y-115914761D01*
X110428690Y-115962380D01*
X110190595Y-115962380D01*
X111142976Y-115914761D02*
X111285833Y-115962380D01*
X111523928Y-115962380D01*
X111619166Y-115914761D01*
X111666785Y-115867142D01*
X111714404Y-115771904D01*
X111714404Y-115676666D01*
X111666785Y-115581428D01*
X111619166Y-115533809D01*
X111523928Y-115486190D01*
X111333452Y-115438571D01*
X111238214Y-115390952D01*
X111190595Y-115343333D01*
X111142976Y-115248095D01*
X111142976Y-115152857D01*
X111190595Y-115057619D01*
X111238214Y-115010000D01*
X111333452Y-114962380D01*
X111571547Y-114962380D01*
X111714404Y-115010000D01*
X115270595Y-113821428D02*
X116032500Y-113821428D01*
X116508690Y-113535714D02*
X117270595Y-113821428D01*
X116508690Y-114107142D01*
X118984880Y-114202380D02*
X118508690Y-114202380D01*
X118508690Y-113202380D01*
X119270595Y-113916666D02*
X119746785Y-113916666D01*
X119175357Y-114202380D02*
X119508690Y-113202380D01*
X119842023Y-114202380D01*
X120175357Y-113821428D02*
X120937261Y-113821428D01*
X121937261Y-114202380D02*
X121365833Y-114202380D01*
X121651547Y-114202380D02*
X121651547Y-113202380D01*
X121556309Y-113345238D01*
X121461071Y-113440476D01*
X121365833Y-113488095D01*
X122318214Y-113297619D02*
X122365833Y-113250000D01*
X122461071Y-113202380D01*
X122699166Y-113202380D01*
X122794404Y-113250000D01*
X122842023Y-113297619D01*
X122889642Y-113392857D01*
X122889642Y-113488095D01*
X122842023Y-113630952D01*
X122270595Y-114202380D01*
X122889642Y-114202380D01*
X130684761Y-120372142D02*
X130637142Y-120419761D01*
X130494285Y-120467380D01*
X130399047Y-120467380D01*
X130256190Y-120419761D01*
X130160952Y-120324523D01*
X130113333Y-120229285D01*
X130065714Y-120038809D01*
X130065714Y-119895952D01*
X130113333Y-119705476D01*
X130160952Y-119610238D01*
X130256190Y-119515000D01*
X130399047Y-119467380D01*
X130494285Y-119467380D01*
X130637142Y-119515000D01*
X130684761Y-119562619D01*
X131589523Y-120467380D02*
X131113333Y-120467380D01*
X131113333Y-119467380D01*
X115270595Y-112041428D02*
X116032500Y-112041428D01*
X116508690Y-111755714D02*
X117270595Y-112041428D01*
X116508690Y-112327142D01*
X119080119Y-112327142D02*
X119032500Y-112374761D01*
X118889642Y-112422380D01*
X118794404Y-112422380D01*
X118651547Y-112374761D01*
X118556309Y-112279523D01*
X118508690Y-112184285D01*
X118461071Y-111993809D01*
X118461071Y-111850952D01*
X118508690Y-111660476D01*
X118556309Y-111565238D01*
X118651547Y-111470000D01*
X118794404Y-111422380D01*
X118889642Y-111422380D01*
X119032500Y-111470000D01*
X119080119Y-111517619D01*
X119984880Y-112422380D02*
X119508690Y-112422380D01*
X119508690Y-111422380D01*
X120318214Y-112041428D02*
X121080119Y-112041428D01*
X122080119Y-112422380D02*
X121508690Y-112422380D01*
X121794404Y-112422380D02*
X121794404Y-111422380D01*
X121699166Y-111565238D01*
X121603928Y-111660476D01*
X121508690Y-111708095D01*
X123032500Y-112422380D02*
X122461071Y-112422380D01*
X122746785Y-112422380D02*
X122746785Y-111422380D01*
X122651547Y-111565238D01*
X122556309Y-111660476D01*
X122461071Y-111708095D01*
X133200952Y-120467380D02*
X132724761Y-120467380D01*
X132724761Y-119467380D01*
X133486666Y-120181666D02*
X133962857Y-120181666D01*
X133391428Y-120467380D02*
X133724761Y-119467380D01*
X134058095Y-120467380D01*
X115270595Y-115641428D02*
X116032500Y-115641428D01*
X116508690Y-115355714D02*
X117270595Y-115641428D01*
X116508690Y-115927142D01*
X118508690Y-116022380D02*
X118508690Y-115022380D01*
X118746785Y-115022380D01*
X118889642Y-115070000D01*
X118984880Y-115165238D01*
X119032500Y-115260476D01*
X119080119Y-115450952D01*
X119080119Y-115593809D01*
X119032500Y-115784285D01*
X118984880Y-115879523D01*
X118889642Y-115974761D01*
X118746785Y-116022380D01*
X118508690Y-116022380D01*
X119461071Y-115974761D02*
X119603928Y-116022380D01*
X119842023Y-116022380D01*
X119937261Y-115974761D01*
X119984880Y-115927142D01*
X120032500Y-115831904D01*
X120032500Y-115736666D01*
X119984880Y-115641428D01*
X119937261Y-115593809D01*
X119842023Y-115546190D01*
X119651547Y-115498571D01*
X119556309Y-115450952D01*
X119508690Y-115403333D01*
X119461071Y-115308095D01*
X119461071Y-115212857D01*
X119508690Y-115117619D01*
X119556309Y-115070000D01*
X119651547Y-115022380D01*
X119889642Y-115022380D01*
X120032500Y-115070000D01*
X120461071Y-115641428D02*
X121222976Y-115641428D01*
X122222976Y-116022380D02*
X121651547Y-116022380D01*
X121937261Y-116022380D02*
X121937261Y-115022380D01*
X121842023Y-115165238D01*
X121746785Y-115260476D01*
X121651547Y-115308095D01*
X123080119Y-115355714D02*
X123080119Y-116022380D01*
X122842023Y-114974761D02*
X122603928Y-115689047D01*
X123222976Y-115689047D01*
X110666785Y-114262380D02*
X110190595Y-114262380D01*
X110190595Y-113262380D01*
X110952500Y-113976666D02*
X111428690Y-113976666D01*
X110857261Y-114262380D02*
X111190595Y-113262380D01*
X111523928Y-114262380D01*
X111714404Y-113262380D02*
X112285833Y-113262380D01*
X112000119Y-114262380D02*
X112000119Y-113262380D01*
X113190595Y-114167142D02*
X113142976Y-114214761D01*
X113000119Y-114262380D01*
X112904880Y-114262380D01*
X112762023Y-114214761D01*
X112666785Y-114119523D01*
X112619166Y-114024285D01*
X112571547Y-113833809D01*
X112571547Y-113690952D01*
X112619166Y-113500476D01*
X112666785Y-113405238D01*
X112762023Y-113310000D01*
X112904880Y-113262380D01*
X113000119Y-113262380D01*
X113142976Y-113310000D01*
X113190595Y-113357619D01*
X113619166Y-114262380D02*
X113619166Y-113262380D01*
X113619166Y-113738571D02*
X114190595Y-113738571D01*
X114190595Y-114262380D02*
X114190595Y-113262380D01*
X141231904Y-119515000D02*
X141136666Y-119467380D01*
X140993809Y-119467380D01*
X140850952Y-119515000D01*
X140755714Y-119610238D01*
X140708095Y-119705476D01*
X140660476Y-119895952D01*
X140660476Y-120038809D01*
X140708095Y-120229285D01*
X140755714Y-120324523D01*
X140850952Y-120419761D01*
X140993809Y-120467380D01*
X141089047Y-120467380D01*
X141231904Y-120419761D01*
X141279523Y-120372142D01*
X141279523Y-120038809D01*
X141089047Y-120038809D01*
X110762023Y-112347142D02*
X110714404Y-112394761D01*
X110571547Y-112442380D01*
X110476309Y-112442380D01*
X110333452Y-112394761D01*
X110238214Y-112299523D01*
X110190595Y-112204285D01*
X110142976Y-112013809D01*
X110142976Y-111870952D01*
X110190595Y-111680476D01*
X110238214Y-111585238D01*
X110333452Y-111490000D01*
X110476309Y-111442380D01*
X110571547Y-111442380D01*
X110714404Y-111490000D01*
X110762023Y-111537619D01*
X111666785Y-112442380D02*
X111190595Y-112442380D01*
X111190595Y-111442380D01*
X112190595Y-111442380D02*
X112381071Y-111442380D01*
X112476309Y-111490000D01*
X112571547Y-111585238D01*
X112619166Y-111775714D01*
X112619166Y-112109047D01*
X112571547Y-112299523D01*
X112476309Y-112394761D01*
X112381071Y-112442380D01*
X112190595Y-112442380D01*
X112095357Y-112394761D01*
X112000119Y-112299523D01*
X111952500Y-112109047D01*
X111952500Y-111775714D01*
X112000119Y-111585238D01*
X112095357Y-111490000D01*
X112190595Y-111442380D01*
X113619166Y-112347142D02*
X113571547Y-112394761D01*
X113428690Y-112442380D01*
X113333452Y-112442380D01*
X113190595Y-112394761D01*
X113095357Y-112299523D01*
X113047738Y-112204285D01*
X113000119Y-112013809D01*
X113000119Y-111870952D01*
X113047738Y-111680476D01*
X113095357Y-111585238D01*
X113190595Y-111490000D01*
X113333452Y-111442380D01*
X113428690Y-111442380D01*
X113571547Y-111490000D01*
X113619166Y-111537619D01*
X114047738Y-112442380D02*
X114047738Y-111442380D01*
X114619166Y-112442380D02*
X114190595Y-111870952D01*
X114619166Y-111442380D02*
X114047738Y-112013809D01*
X137542857Y-120086428D02*
X138304761Y-120086428D01*
X137923809Y-120467380D02*
X137923809Y-119705476D01*
X139257142Y-119467380D02*
X138780952Y-119467380D01*
X138733333Y-119943571D01*
X138780952Y-119895952D01*
X138876190Y-119848333D01*
X139114285Y-119848333D01*
X139209523Y-119895952D01*
X139257142Y-119943571D01*
X139304761Y-120038809D01*
X139304761Y-120276904D01*
X139257142Y-120372142D01*
X139209523Y-120419761D01*
X139114285Y-120467380D01*
X138876190Y-120467380D01*
X138780952Y-120419761D01*
X138733333Y-120372142D01*
%TO.C,C1*%
X119102142Y-103671666D02*
X119149761Y-103719285D01*
X119197380Y-103862142D01*
X119197380Y-103957380D01*
X119149761Y-104100238D01*
X119054523Y-104195476D01*
X118959285Y-104243095D01*
X118768809Y-104290714D01*
X118625952Y-104290714D01*
X118435476Y-104243095D01*
X118340238Y-104195476D01*
X118245000Y-104100238D01*
X118197380Y-103957380D01*
X118197380Y-103862142D01*
X118245000Y-103719285D01*
X118292619Y-103671666D01*
X119197380Y-102719285D02*
X119197380Y-103290714D01*
X119197380Y-103005000D02*
X118197380Y-103005000D01*
X118340238Y-103100238D01*
X118435476Y-103195476D01*
X118483095Y-103290714D01*
%TO.C,R6*%
X146121380Y-85891666D02*
X145645190Y-86225000D01*
X146121380Y-86463095D02*
X145121380Y-86463095D01*
X145121380Y-86082142D01*
X145169000Y-85986904D01*
X145216619Y-85939285D01*
X145311857Y-85891666D01*
X145454714Y-85891666D01*
X145549952Y-85939285D01*
X145597571Y-85986904D01*
X145645190Y-86082142D01*
X145645190Y-86463095D01*
X145121380Y-85034523D02*
X145121380Y-85225000D01*
X145169000Y-85320238D01*
X145216619Y-85367857D01*
X145359476Y-85463095D01*
X145549952Y-85510714D01*
X145930904Y-85510714D01*
X146026142Y-85463095D01*
X146073761Y-85415476D01*
X146121380Y-85320238D01*
X146121380Y-85129761D01*
X146073761Y-85034523D01*
X146026142Y-84986904D01*
X145930904Y-84939285D01*
X145692809Y-84939285D01*
X145597571Y-84986904D01*
X145549952Y-85034523D01*
X145502333Y-85129761D01*
X145502333Y-85320238D01*
X145549952Y-85415476D01*
X145597571Y-85463095D01*
X145692809Y-85510714D01*
%TO.C,R5*%
X139644380Y-85891666D02*
X139168190Y-86225000D01*
X139644380Y-86463095D02*
X138644380Y-86463095D01*
X138644380Y-86082142D01*
X138692000Y-85986904D01*
X138739619Y-85939285D01*
X138834857Y-85891666D01*
X138977714Y-85891666D01*
X139072952Y-85939285D01*
X139120571Y-85986904D01*
X139168190Y-86082142D01*
X139168190Y-86463095D01*
X138644380Y-84986904D02*
X138644380Y-85463095D01*
X139120571Y-85510714D01*
X139072952Y-85463095D01*
X139025333Y-85367857D01*
X139025333Y-85129761D01*
X139072952Y-85034523D01*
X139120571Y-84986904D01*
X139215809Y-84939285D01*
X139453904Y-84939285D01*
X139549142Y-84986904D01*
X139596761Y-85034523D01*
X139644380Y-85129761D01*
X139644380Y-85367857D01*
X139596761Y-85463095D01*
X139549142Y-85510714D01*
%TO.C,R3*%
X126690380Y-85891666D02*
X126214190Y-86225000D01*
X126690380Y-86463095D02*
X125690380Y-86463095D01*
X125690380Y-86082142D01*
X125738000Y-85986904D01*
X125785619Y-85939285D01*
X125880857Y-85891666D01*
X126023714Y-85891666D01*
X126118952Y-85939285D01*
X126166571Y-85986904D01*
X126214190Y-86082142D01*
X126214190Y-86463095D01*
X125690380Y-85558333D02*
X125690380Y-84939285D01*
X126071333Y-85272619D01*
X126071333Y-85129761D01*
X126118952Y-85034523D01*
X126166571Y-84986904D01*
X126261809Y-84939285D01*
X126499904Y-84939285D01*
X126595142Y-84986904D01*
X126642761Y-85034523D01*
X126690380Y-85129761D01*
X126690380Y-85415476D01*
X126642761Y-85510714D01*
X126595142Y-85558333D01*
%TO.C,R1*%
X113482380Y-85891666D02*
X113006190Y-86225000D01*
X113482380Y-86463095D02*
X112482380Y-86463095D01*
X112482380Y-86082142D01*
X112530000Y-85986904D01*
X112577619Y-85939285D01*
X112672857Y-85891666D01*
X112815714Y-85891666D01*
X112910952Y-85939285D01*
X112958571Y-85986904D01*
X113006190Y-86082142D01*
X113006190Y-86463095D01*
X113482380Y-84939285D02*
X113482380Y-85510714D01*
X113482380Y-85225000D02*
X112482380Y-85225000D01*
X112625238Y-85320238D01*
X112720476Y-85415476D01*
X112768095Y-85510714D01*
%TO.C,R7*%
X152598380Y-85891666D02*
X152122190Y-86225000D01*
X152598380Y-86463095D02*
X151598380Y-86463095D01*
X151598380Y-86082142D01*
X151646000Y-85986904D01*
X151693619Y-85939285D01*
X151788857Y-85891666D01*
X151931714Y-85891666D01*
X152026952Y-85939285D01*
X152074571Y-85986904D01*
X152122190Y-86082142D01*
X152122190Y-86463095D01*
X151598380Y-85558333D02*
X151598380Y-84891666D01*
X152598380Y-85320238D01*
%TO.C,U1*%
X135342380Y-103641904D02*
X136151904Y-103641904D01*
X136247142Y-103594285D01*
X136294761Y-103546666D01*
X136342380Y-103451428D01*
X136342380Y-103260952D01*
X136294761Y-103165714D01*
X136247142Y-103118095D01*
X136151904Y-103070476D01*
X135342380Y-103070476D01*
X136342380Y-102070476D02*
X136342380Y-102641904D01*
X136342380Y-102356190D02*
X135342380Y-102356190D01*
X135485238Y-102451428D01*
X135580476Y-102546666D01*
X135628095Y-102641904D01*
%TO.C,R4*%
X133040380Y-85891666D02*
X132564190Y-86225000D01*
X133040380Y-86463095D02*
X132040380Y-86463095D01*
X132040380Y-86082142D01*
X132088000Y-85986904D01*
X132135619Y-85939285D01*
X132230857Y-85891666D01*
X132373714Y-85891666D01*
X132468952Y-85939285D01*
X132516571Y-85986904D01*
X132564190Y-86082142D01*
X132564190Y-86463095D01*
X132373714Y-85034523D02*
X133040380Y-85034523D01*
X131992761Y-85272619D02*
X132707047Y-85510714D01*
X132707047Y-84891666D01*
%TO.C,R8*%
X159075380Y-85891666D02*
X158599190Y-86225000D01*
X159075380Y-86463095D02*
X158075380Y-86463095D01*
X158075380Y-86082142D01*
X158123000Y-85986904D01*
X158170619Y-85939285D01*
X158265857Y-85891666D01*
X158408714Y-85891666D01*
X158503952Y-85939285D01*
X158551571Y-85986904D01*
X158599190Y-86082142D01*
X158599190Y-86463095D01*
X158503952Y-85320238D02*
X158456333Y-85415476D01*
X158408714Y-85463095D01*
X158313476Y-85510714D01*
X158265857Y-85510714D01*
X158170619Y-85463095D01*
X158123000Y-85415476D01*
X158075380Y-85320238D01*
X158075380Y-85129761D01*
X158123000Y-85034523D01*
X158170619Y-84986904D01*
X158265857Y-84939285D01*
X158313476Y-84939285D01*
X158408714Y-84986904D01*
X158456333Y-85034523D01*
X158503952Y-85129761D01*
X158503952Y-85320238D01*
X158551571Y-85415476D01*
X158599190Y-85463095D01*
X158694428Y-85510714D01*
X158884904Y-85510714D01*
X158980142Y-85463095D01*
X159027761Y-85415476D01*
X159075380Y-85320238D01*
X159075380Y-85129761D01*
X159027761Y-85034523D01*
X158980142Y-84986904D01*
X158884904Y-84939285D01*
X158694428Y-84939285D01*
X158599190Y-84986904D01*
X158551571Y-85034523D01*
X158503952Y-85129761D01*
%TO.C,R2*%
X120086380Y-85891666D02*
X119610190Y-86225000D01*
X120086380Y-86463095D02*
X119086380Y-86463095D01*
X119086380Y-86082142D01*
X119134000Y-85986904D01*
X119181619Y-85939285D01*
X119276857Y-85891666D01*
X119419714Y-85891666D01*
X119514952Y-85939285D01*
X119562571Y-85986904D01*
X119610190Y-86082142D01*
X119610190Y-86463095D01*
X119181619Y-85510714D02*
X119134000Y-85463095D01*
X119086380Y-85367857D01*
X119086380Y-85129761D01*
X119134000Y-85034523D01*
X119181619Y-84986904D01*
X119276857Y-84939285D01*
X119372095Y-84939285D01*
X119514952Y-84986904D01*
X120086380Y-85558333D01*
X120086380Y-84939285D01*
D12*
%TO.C,C1*%
X119915000Y-100885000D02*
X119915000Y-106125000D01*
X122655000Y-106125000D02*
X119915000Y-106125000D01*
X122655000Y-100885000D02*
X119915000Y-100885000D01*
X122655000Y-100885000D02*
X122655000Y-106125000D01*
%TO.C,BLUE2*%
X121155000Y-67910000D02*
X118065000Y-67910000D01*
X119609538Y-73460000D02*
G75*
G03*
X121154830Y-67910000I462J2990000D01*
G01*
X118065170Y-67910000D02*
G75*
G03*
X119610462Y-73460000I1544830J-2560000D01*
G01*
X122110000Y-70470000D02*
G75*
G03*
X122110000Y-70470000I-2500000J0D01*
G01*
%TO.C,R6*%
X143749000Y-90795000D02*
X143749000Y-80655000D01*
X147589000Y-90795000D02*
X147589000Y-80655000D01*
X143749000Y-80655000D02*
X144229000Y-80655000D01*
X147109000Y-90795000D02*
X147589000Y-90795000D01*
X144229000Y-90795000D02*
X143749000Y-90795000D01*
X147589000Y-80655000D02*
X147109000Y-80655000D01*
%TO.C,GREEN2*%
X134165000Y-67910000D02*
X131075000Y-67910000D01*
X132619538Y-73460000D02*
G75*
G03*
X134164830Y-67910000I462J2990000D01*
G01*
X131075170Y-67910000D02*
G75*
G03*
X132620462Y-73460000I1544830J-2560000D01*
G01*
X135120000Y-70470000D02*
G75*
G03*
X135120000Y-70470000I-2500000J0D01*
G01*
%TO.C,R5*%
X137272000Y-90795000D02*
X137272000Y-80655000D01*
X141112000Y-90795000D02*
X141112000Y-80655000D01*
X137272000Y-80655000D02*
X137752000Y-80655000D01*
X137752000Y-90795000D02*
X137272000Y-90795000D01*
X140632000Y-90795000D02*
X141112000Y-90795000D01*
X141112000Y-80655000D02*
X140632000Y-80655000D01*
%TO.C,R3*%
X127678000Y-90795000D02*
X128158000Y-90795000D01*
X124798000Y-90795000D02*
X124318000Y-90795000D01*
X124318000Y-80655000D02*
X124798000Y-80655000D01*
X128158000Y-80655000D02*
X127678000Y-80655000D01*
X124318000Y-90795000D02*
X124318000Y-80655000D01*
X128158000Y-90795000D02*
X128158000Y-80655000D01*
%TO.C,R1*%
X111110000Y-90795000D02*
X111110000Y-80655000D01*
X114470000Y-90795000D02*
X114950000Y-90795000D01*
X111590000Y-90795000D02*
X111110000Y-90795000D01*
X114950000Y-80655000D02*
X114470000Y-80655000D01*
X114950000Y-90795000D02*
X114950000Y-80655000D01*
X111110000Y-80655000D02*
X111590000Y-80655000D01*
%TO.C,R7*%
X150226000Y-80655000D02*
X150706000Y-80655000D01*
X154066000Y-90795000D02*
X154066000Y-80655000D01*
X154066000Y-80655000D02*
X153586000Y-80655000D01*
X153586000Y-90795000D02*
X154066000Y-90795000D01*
X150226000Y-90795000D02*
X150226000Y-80655000D01*
X150706000Y-90795000D02*
X150226000Y-90795000D01*
%TO.C,U1*%
X125655000Y-105530000D02*
X146095000Y-105530000D01*
X125655000Y-100230000D02*
X125655000Y-105530000D01*
X146095000Y-105530000D02*
X146095000Y-103880000D01*
X146095000Y-100230000D02*
X125655000Y-100230000D01*
X146095000Y-101880000D02*
X146095000Y-100230000D01*
X146095000Y-101880000D02*
G75*
G03*
X146095000Y-103880000I0J-1000000D01*
G01*
%TO.C,YELOW2*%
X147165000Y-67910000D02*
X144075000Y-67910000D01*
X144075170Y-67910000D02*
G75*
G03*
X145620462Y-73460000I1544830J-2560000D01*
G01*
X145619538Y-73460000D02*
G75*
G03*
X147164830Y-67910000I462J2990000D01*
G01*
X148120000Y-70470000D02*
G75*
G03*
X148120000Y-70470000I-2500000J0D01*
G01*
%TO.C,R4*%
X130668000Y-80655000D02*
X131148000Y-80655000D01*
X134028000Y-90795000D02*
X134508000Y-90795000D01*
X134508000Y-90795000D02*
X134508000Y-80655000D01*
X130668000Y-90795000D02*
X130668000Y-80655000D01*
X131148000Y-90795000D02*
X130668000Y-90795000D01*
X134508000Y-80655000D02*
X134028000Y-80655000D01*
%TO.C,RED2*%
X160175000Y-67920000D02*
X157085000Y-67920000D01*
X158629538Y-73470000D02*
G75*
G03*
X160174830Y-67920000I462J2990000D01*
G01*
X157085170Y-67920000D02*
G75*
G03*
X158630462Y-73470000I1544830J-2560000D01*
G01*
X161130000Y-70480000D02*
G75*
G03*
X161130000Y-70480000I-2500000J0D01*
G01*
%TO.C,GREEN1*%
X127660000Y-67905000D02*
X124570000Y-67905000D01*
X124570170Y-67905000D02*
G75*
G03*
X126115462Y-73455000I1544830J-2560000D01*
G01*
X126114538Y-73455000D02*
G75*
G03*
X127659830Y-67905000I462J2990000D01*
G01*
X128615000Y-70465000D02*
G75*
G03*
X128615000Y-70465000I-2500000J0D01*
G01*
%TO.C,R8*%
X156703000Y-80655000D02*
X157183000Y-80655000D01*
X160063000Y-90795000D02*
X160543000Y-90795000D01*
X160543000Y-90795000D02*
X160543000Y-80655000D01*
X156703000Y-90795000D02*
X156703000Y-80655000D01*
X157183000Y-90795000D02*
X156703000Y-90795000D01*
X160543000Y-80655000D02*
X160063000Y-80655000D01*
%TO.C,R2*%
X117714000Y-90795000D02*
X117714000Y-80655000D01*
X121554000Y-80655000D02*
X121074000Y-80655000D01*
X121554000Y-90795000D02*
X121554000Y-80655000D01*
X121074000Y-90795000D02*
X121554000Y-90795000D01*
X118194000Y-90795000D02*
X117714000Y-90795000D01*
X117714000Y-80655000D02*
X118194000Y-80655000D01*
%TO.C,YELOW1*%
X140665000Y-67910000D02*
X137575000Y-67910000D01*
X137575170Y-67910000D02*
G75*
G03*
X139120462Y-73460000I1544830J-2560000D01*
G01*
X139119538Y-73460000D02*
G75*
G03*
X140664830Y-67910000I462J2990000D01*
G01*
X141620000Y-70470000D02*
G75*
G03*
X141620000Y-70470000I-2500000J0D01*
G01*
%TO.C,RED1*%
X153675000Y-67910000D02*
X150585000Y-67910000D01*
X152129538Y-73460000D02*
G75*
G03*
X153674830Y-67910000I462J2990000D01*
G01*
X150585170Y-67910000D02*
G75*
G03*
X152130462Y-73460000I1544830J-2560000D01*
G01*
X154630000Y-70470000D02*
G75*
G03*
X154630000Y-70470000I-2500000J0D01*
G01*
%TO.C,J1*%
X129485000Y-118170000D02*
X129485000Y-116840000D01*
X132085000Y-115510000D02*
X142305000Y-115510000D01*
X132085000Y-118170000D02*
X132085000Y-115510000D01*
X132085000Y-118170000D02*
X142305000Y-118170000D01*
X130815000Y-118170000D02*
X129485000Y-118170000D01*
X142305000Y-118170000D02*
X142305000Y-115510000D01*
%TO.C,BLUE1*%
X114645000Y-67910000D02*
X111555000Y-67910000D01*
X111555170Y-67910000D02*
G75*
G03*
X113100462Y-73460000I1544830J-2560000D01*
G01*
X113099538Y-73460000D02*
G75*
G03*
X114644830Y-67910000I462J2990000D01*
G01*
X115600000Y-70470000D02*
G75*
G03*
X115600000Y-70470000I-2500000J0D01*
G01*
%TD*%
M02*
