%TF.GenerationSoftware,KiCad,Pcbnew,(6.0.4)*%
%TF.CreationDate,2022-05-01T17:36:18-07:00*%
%TF.ProjectId,Eight LEDBar,45696768-7420-44c4-9544-4261722e6b69,rev?*%
%TF.SameCoordinates,Original*%
%TF.FileFunction,Soldermask,Bot*%
%TF.FilePolarity,Negative*%
%FSLAX46Y46*%
G04 Gerber Fmt 4.6, Leading zero omitted, Abs format (unit mm)*
G04 Created by KiCad (PCBNEW (6.0.4)) date 2022-05-01 17:36:18*
%MOMM*%
%LPD*%
G01*
G04 APERTURE LIST*
%ADD10C,1.600000*%
%ADD11R,1.800000X1.800000*%
%ADD12C,1.800000*%
%ADD13C,2.400000*%
%ADD14O,2.400000X2.400000*%
%ADD15R,1.600000X1.600000*%
%ADD16O,1.600000X1.600000*%
%ADD17R,1.700000X1.700000*%
%ADD18O,1.700000X1.700000*%
G04 APERTURE END LIST*
D10*
%TO.C,C1*%
X121285000Y-102255000D03*
X121285000Y-104755000D03*
%TD*%
D11*
%TO.C,BLUE2*%
X119610000Y-69200000D03*
D12*
X119610000Y-71740000D03*
%TD*%
D13*
%TO.C,R6*%
X145669000Y-92075000D03*
D14*
X145669000Y-79375000D03*
%TD*%
D11*
%TO.C,GREEN2*%
X132620000Y-69200000D03*
D12*
X132620000Y-71740000D03*
%TD*%
D13*
%TO.C,R5*%
X139192000Y-92075000D03*
D14*
X139192000Y-79375000D03*
%TD*%
D13*
%TO.C,R3*%
X126238000Y-92075000D03*
D14*
X126238000Y-79375000D03*
%TD*%
D13*
%TO.C,R1*%
X113030000Y-92075000D03*
D14*
X113030000Y-79375000D03*
%TD*%
D13*
%TO.C,R7*%
X152146000Y-92075000D03*
D14*
X152146000Y-79375000D03*
%TD*%
D15*
%TO.C,U1*%
X144765000Y-99070000D03*
D16*
X142225000Y-99070000D03*
X139685000Y-99070000D03*
X137145000Y-99070000D03*
X134605000Y-99070000D03*
X132065000Y-99070000D03*
X129525000Y-99070000D03*
X126985000Y-99070000D03*
X126985000Y-106690000D03*
X129525000Y-106690000D03*
X132065000Y-106690000D03*
X134605000Y-106690000D03*
X137145000Y-106690000D03*
X139685000Y-106690000D03*
X142225000Y-106690000D03*
X144765000Y-106690000D03*
%TD*%
D11*
%TO.C,YELOW2*%
X145620000Y-69200000D03*
D12*
X145620000Y-71740000D03*
%TD*%
D13*
%TO.C,R4*%
X132588000Y-92075000D03*
D14*
X132588000Y-79375000D03*
%TD*%
D11*
%TO.C,RED2*%
X158630000Y-69210000D03*
D12*
X158630000Y-71750000D03*
%TD*%
D11*
%TO.C,GREEN1*%
X126115000Y-69195000D03*
D12*
X126115000Y-71735000D03*
%TD*%
D13*
%TO.C,R8*%
X158623000Y-92075000D03*
D14*
X158623000Y-79375000D03*
%TD*%
D13*
%TO.C,R2*%
X119634000Y-92075000D03*
D14*
X119634000Y-79375000D03*
%TD*%
D11*
%TO.C,YELOW1*%
X139120000Y-69200000D03*
D12*
X139120000Y-71740000D03*
%TD*%
D11*
%TO.C,RED1*%
X152130000Y-69200000D03*
D12*
X152130000Y-71740000D03*
%TD*%
D17*
%TO.C,J1*%
X130815000Y-116840000D03*
D18*
X133355000Y-116840000D03*
X135895000Y-116840000D03*
X138435000Y-116840000D03*
X140975000Y-116840000D03*
%TD*%
D11*
%TO.C,BLUE1*%
X113100000Y-69200000D03*
D12*
X113100000Y-71740000D03*
%TD*%
M02*
