%TF.GenerationSoftware,KiCad,Pcbnew,(6.0.4)*%
%TF.CreationDate,2022-05-01T17:36:18-07:00*%
%TF.ProjectId,Eight LEDBar,45696768-7420-44c4-9544-4261722e6b69,rev?*%
%TF.SameCoordinates,Original*%
%TF.FileFunction,Copper,L1,Top*%
%TF.FilePolarity,Positive*%
%FSLAX46Y46*%
G04 Gerber Fmt 4.6, Leading zero omitted, Abs format (unit mm)*
G04 Created by KiCad (PCBNEW (6.0.4)) date 2022-05-01 17:36:18*
%MOMM*%
%LPD*%
G01*
G04 APERTURE LIST*
%TA.AperFunction,ComponentPad*%
%ADD10C,1.600000*%
%TD*%
%TA.AperFunction,ComponentPad*%
%ADD11R,1.800000X1.800000*%
%TD*%
%TA.AperFunction,ComponentPad*%
%ADD12C,1.800000*%
%TD*%
%TA.AperFunction,ComponentPad*%
%ADD13C,2.400000*%
%TD*%
%TA.AperFunction,ComponentPad*%
%ADD14O,2.400000X2.400000*%
%TD*%
%TA.AperFunction,ComponentPad*%
%ADD15R,1.600000X1.600000*%
%TD*%
%TA.AperFunction,ComponentPad*%
%ADD16O,1.600000X1.600000*%
%TD*%
%TA.AperFunction,ComponentPad*%
%ADD17R,1.700000X1.700000*%
%TD*%
%TA.AperFunction,ComponentPad*%
%ADD18O,1.700000X1.700000*%
%TD*%
%TA.AperFunction,Conductor*%
%ADD19C,0.250000*%
%TD*%
G04 APERTURE END LIST*
D10*
%TO.P,C1,1*%
%TO.N,Net-(C1-Pad1)*%
X121285000Y-102255000D03*
%TO.P,C1,2*%
%TO.N,GND*%
X121285000Y-104755000D03*
%TD*%
D11*
%TO.P,BLUE2,1,K*%
%TO.N,GND*%
X119610000Y-69200000D03*
D12*
%TO.P,BLUE2,2,A*%
%TO.N,Net-(BLUE2-Pad2)*%
X119610000Y-71740000D03*
%TD*%
D13*
%TO.P,R6,1*%
%TO.N,Net-(R6-Pad1)*%
X145669000Y-92075000D03*
D14*
%TO.P,R6,2*%
%TO.N,Net-(R6-Pad2)*%
X145669000Y-79375000D03*
%TD*%
D11*
%TO.P,GREEN2,1,K*%
%TO.N,GND*%
X132620000Y-69200000D03*
D12*
%TO.P,GREEN2,2,A*%
%TO.N,Net-(GREEN2-Pad2)*%
X132620000Y-71740000D03*
%TD*%
D13*
%TO.P,R5,1*%
%TO.N,Net-(R5-Pad1)*%
X139192000Y-92075000D03*
D14*
%TO.P,R5,2*%
%TO.N,Net-(R5-Pad2)*%
X139192000Y-79375000D03*
%TD*%
D13*
%TO.P,R3,1*%
%TO.N,Net-(R3-Pad1)*%
X126238000Y-92075000D03*
D14*
%TO.P,R3,2*%
%TO.N,Net-(GREEN1-Pad2)*%
X126238000Y-79375000D03*
%TD*%
D13*
%TO.P,R1,1*%
%TO.N,Net-(R1-Pad1)*%
X113030000Y-92075000D03*
D14*
%TO.P,R1,2*%
%TO.N,Net-(BLUE1-Pad2)*%
X113030000Y-79375000D03*
%TD*%
D13*
%TO.P,R7,1*%
%TO.N,Net-(R7-Pad1)*%
X152146000Y-92075000D03*
D14*
%TO.P,R7,2*%
%TO.N,Net-(R7-Pad2)*%
X152146000Y-79375000D03*
%TD*%
D15*
%TO.P,U1,1,QB*%
%TO.N,Net-(R7-Pad1)*%
X144765000Y-99070000D03*
D16*
%TO.P,U1,2,QC*%
%TO.N,Net-(R6-Pad1)*%
X142225000Y-99070000D03*
%TO.P,U1,3,QD*%
%TO.N,Net-(R5-Pad1)*%
X139685000Y-99070000D03*
%TO.P,U1,4,QE*%
%TO.N,Net-(R4-Pad1)*%
X137145000Y-99070000D03*
%TO.P,U1,5,QF*%
%TO.N,Net-(R3-Pad1)*%
X134605000Y-99070000D03*
%TO.P,U1,6,QG*%
%TO.N,Net-(R2-Pad1)*%
X132065000Y-99070000D03*
%TO.P,U1,7,QH*%
%TO.N,Net-(R1-Pad1)*%
X129525000Y-99070000D03*
%TO.P,U1,8,GND*%
%TO.N,GND*%
X126985000Y-99070000D03*
%TO.P,U1,9,QH'*%
%TO.N,unconnected-(U1-Pad9)*%
X126985000Y-106690000D03*
%TO.P,U1,10,~{SRCLR}*%
%TO.N,Net-(C1-Pad1)*%
X129525000Y-106690000D03*
%TO.P,U1,11,SRCLK*%
%TO.N,Net-(J1-Pad1)*%
X132065000Y-106690000D03*
%TO.P,U1,12,RCLK*%
%TO.N,Net-(J1-Pad2)*%
X134605000Y-106690000D03*
%TO.P,U1,13,~{OE}*%
%TO.N,GND*%
X137145000Y-106690000D03*
%TO.P,U1,14,SER*%
%TO.N,Net-(J1-Pad3)*%
X139685000Y-106690000D03*
%TO.P,U1,15,QA*%
%TO.N,Net-(R8-Pad1)*%
X142225000Y-106690000D03*
%TO.P,U1,16,VCC*%
%TO.N,Net-(C1-Pad1)*%
X144765000Y-106690000D03*
%TD*%
D11*
%TO.P,YELOW2,1,K*%
%TO.N,GND*%
X145620000Y-69200000D03*
D12*
%TO.P,YELOW2,2,A*%
%TO.N,Net-(R6-Pad2)*%
X145620000Y-71740000D03*
%TD*%
D13*
%TO.P,R4,1*%
%TO.N,Net-(R4-Pad1)*%
X132588000Y-92075000D03*
D14*
%TO.P,R4,2*%
%TO.N,Net-(GREEN2-Pad2)*%
X132588000Y-79375000D03*
%TD*%
D11*
%TO.P,RED2,1,K*%
%TO.N,GND*%
X158630000Y-69210000D03*
D12*
%TO.P,RED2,2,A*%
%TO.N,Net-(R8-Pad2)*%
X158630000Y-71750000D03*
%TD*%
D11*
%TO.P,GREEN1,1,K*%
%TO.N,GND*%
X126115000Y-69195000D03*
D12*
%TO.P,GREEN1,2,A*%
%TO.N,Net-(GREEN1-Pad2)*%
X126115000Y-71735000D03*
%TD*%
D13*
%TO.P,R8,1*%
%TO.N,Net-(R8-Pad1)*%
X158623000Y-92075000D03*
D14*
%TO.P,R8,2*%
%TO.N,Net-(R8-Pad2)*%
X158623000Y-79375000D03*
%TD*%
D13*
%TO.P,R2,1*%
%TO.N,Net-(R2-Pad1)*%
X119634000Y-92075000D03*
D14*
%TO.P,R2,2*%
%TO.N,Net-(BLUE2-Pad2)*%
X119634000Y-79375000D03*
%TD*%
D11*
%TO.P,YELOW1,1,K*%
%TO.N,GND*%
X139120000Y-69200000D03*
D12*
%TO.P,YELOW1,2,A*%
%TO.N,Net-(R5-Pad2)*%
X139120000Y-71740000D03*
%TD*%
D11*
%TO.P,RED1,1,K*%
%TO.N,GND*%
X152130000Y-69200000D03*
D12*
%TO.P,RED1,2,A*%
%TO.N,Net-(R7-Pad2)*%
X152130000Y-71740000D03*
%TD*%
D17*
%TO.P,J1,1,Pin_1*%
%TO.N,Net-(J1-Pad1)*%
X130815000Y-116840000D03*
D18*
%TO.P,J1,2,Pin_2*%
%TO.N,Net-(J1-Pad2)*%
X133355000Y-116840000D03*
%TO.P,J1,3,Pin_3*%
%TO.N,Net-(J1-Pad3)*%
X135895000Y-116840000D03*
%TO.P,J1,4,Pin_4*%
%TO.N,Net-(C1-Pad1)*%
X138435000Y-116840000D03*
%TO.P,J1,5,Pin_5*%
%TO.N,GND*%
X140975000Y-116840000D03*
%TD*%
D11*
%TO.P,BLUE1,1,K*%
%TO.N,GND*%
X113100000Y-69200000D03*
D12*
%TO.P,BLUE1,2,A*%
%TO.N,Net-(BLUE1-Pad2)*%
X113100000Y-71740000D03*
%TD*%
D19*
%TO.N,Net-(C1-Pad1)*%
X138430000Y-116835000D02*
X138430000Y-113640000D01*
X144765000Y-107305000D02*
X144765000Y-106690000D01*
X129525000Y-106690000D02*
X129525000Y-104790000D01*
X138435000Y-116840000D02*
X138430000Y-116835000D01*
X127020000Y-102255000D02*
X121285000Y-102255000D01*
X129525000Y-104760000D02*
X127020000Y-102255000D01*
X144765000Y-106690000D02*
X144765000Y-105395000D01*
X138430000Y-113640000D02*
X144765000Y-107305000D01*
X130175000Y-104140000D02*
X129525000Y-104790000D01*
X144765000Y-105395000D02*
X143510000Y-104140000D01*
X143510000Y-104140000D02*
X130175000Y-104140000D01*
X129525000Y-104790000D02*
X129525000Y-104760000D01*
%TO.N,Net-(J1-Pad1)*%
X130815000Y-114825000D02*
X130815000Y-116840000D01*
X132065000Y-106690000D02*
X132065000Y-113575000D01*
X132065000Y-113575000D02*
X130815000Y-114825000D01*
%TD*%
M02*
