%TF.GenerationSoftware,KiCad,Pcbnew,(6.0.4)*%
%TF.CreationDate,2022-04-30T17:38:09-07:00*%
%TF.ProjectId,SingleSevenSegments,53696e67-6c65-4536-9576-656e5365676d,rev?*%
%TF.SameCoordinates,Original*%
%TF.FileFunction,Copper,L1,Top*%
%TF.FilePolarity,Positive*%
%FSLAX46Y46*%
G04 Gerber Fmt 4.6, Leading zero omitted, Abs format (unit mm)*
G04 Created by KiCad (PCBNEW (6.0.4)) date 2022-04-30 17:38:09*
%MOMM*%
%LPD*%
G01*
G04 APERTURE LIST*
%TA.AperFunction,ComponentPad*%
%ADD10C,1.600000*%
%TD*%
%TA.AperFunction,ComponentPad*%
%ADD11C,2.400000*%
%TD*%
%TA.AperFunction,ComponentPad*%
%ADD12O,2.400000X2.400000*%
%TD*%
%TA.AperFunction,ComponentPad*%
%ADD13R,1.524000X2.524000*%
%TD*%
%TA.AperFunction,ComponentPad*%
%ADD14O,1.524000X2.524000*%
%TD*%
%TA.AperFunction,ComponentPad*%
%ADD15R,1.600000X1.600000*%
%TD*%
%TA.AperFunction,ComponentPad*%
%ADD16O,1.600000X1.600000*%
%TD*%
%TA.AperFunction,ComponentPad*%
%ADD17R,1.700000X1.700000*%
%TD*%
%TA.AperFunction,ComponentPad*%
%ADD18O,1.700000X1.700000*%
%TD*%
%TA.AperFunction,Conductor*%
%ADD19C,0.250000*%
%TD*%
G04 APERTURE END LIST*
D10*
%TO.P,C1,1*%
%TO.N,Net-(C1-Pad1)*%
X157480000Y-74285000D03*
%TO.P,C1,2*%
%TO.N,GND*%
X157480000Y-71785000D03*
%TD*%
D11*
%TO.P,R2,1*%
%TO.N,Net-(R2-Pad1)*%
X160655000Y-34290000D03*
D12*
%TO.P,R2,2*%
%TO.N,Net-(R2-Pad2)*%
X160655000Y-46990000D03*
%TD*%
D11*
%TO.P,R6,1*%
%TO.N,Net-(R6-Pad1)*%
X129540000Y-34290000D03*
D12*
%TO.P,R6,2*%
%TO.N,Net-(R6-Pad2)*%
X129540000Y-46990000D03*
%TD*%
D13*
%TO.P,U2,1,E*%
%TO.N,Net-(R5-Pad1)*%
X137160000Y-48260000D03*
D14*
%TO.P,U2,2,D*%
%TO.N,Net-(R4-Pad1)*%
X139700000Y-48260000D03*
%TO.P,U2,3,CC*%
%TO.N,GND*%
X142240000Y-48260000D03*
%TO.P,U2,4,C*%
%TO.N,Net-(R3-Pad1)*%
X144780000Y-48260000D03*
%TO.P,U2,5,DP*%
%TO.N,Net-(R8-Pad1)*%
X147320000Y-48260000D03*
%TO.P,U2,6,B*%
%TO.N,Net-(R2-Pad1)*%
X147320000Y-33020000D03*
%TO.P,U2,7,A*%
%TO.N,Net-(R1-Pad1)*%
X144780000Y-33020000D03*
%TO.P,U2,8,CC*%
%TO.N,GND*%
X142240000Y-33020000D03*
%TO.P,U2,9,F*%
%TO.N,Net-(R6-Pad1)*%
X139700000Y-33020000D03*
%TO.P,U2,10,G*%
%TO.N,Net-(R7-Pad1)*%
X137160000Y-33020000D03*
%TD*%
D11*
%TO.P,R4,1*%
%TO.N,Net-(R4-Pad1)*%
X138430000Y-55880000D03*
D12*
%TO.P,R4,2*%
%TO.N,Net-(R4-Pad2)*%
X125730000Y-55880000D03*
%TD*%
D15*
%TO.P,U1,1,QB*%
%TO.N,Net-(R2-Pad2)*%
X152385000Y-69225000D03*
D16*
%TO.P,U1,2,QC*%
%TO.N,Net-(R3-Pad2)*%
X149845000Y-69225000D03*
%TO.P,U1,3,QD*%
%TO.N,Net-(R4-Pad2)*%
X147305000Y-69225000D03*
%TO.P,U1,4,QE*%
%TO.N,Net-(R5-Pad2)*%
X144765000Y-69225000D03*
%TO.P,U1,5,QF*%
%TO.N,Net-(R6-Pad2)*%
X142225000Y-69225000D03*
%TO.P,U1,6,QG*%
%TO.N,Net-(R7-Pad2)*%
X139685000Y-69225000D03*
%TO.P,U1,7,QH*%
%TO.N,Net-(R8-Pad2)*%
X137145000Y-69225000D03*
%TO.P,U1,8,GND*%
%TO.N,GND*%
X134605000Y-69225000D03*
%TO.P,U1,9,QH'*%
%TO.N,unconnected-(U1-Pad9)*%
X134605000Y-76845000D03*
%TO.P,U1,10,~{SRCLR}*%
%TO.N,Net-(C1-Pad1)*%
X137145000Y-76845000D03*
%TO.P,U1,11,SRCLK*%
%TO.N,Net-(J1-Pad1)*%
X139685000Y-76845000D03*
%TO.P,U1,12,RCLK*%
%TO.N,Net-(J1-Pad2)*%
X142225000Y-76845000D03*
%TO.P,U1,13,~{OE}*%
%TO.N,GND*%
X144765000Y-76845000D03*
%TO.P,U1,14,SER*%
%TO.N,Net-(J1-Pad3)*%
X147305000Y-76845000D03*
%TO.P,U1,15,QA*%
%TO.N,Net-(R1-Pad2)*%
X149845000Y-76845000D03*
%TO.P,U1,16,VCC*%
%TO.N,Net-(C1-Pad1)*%
X152385000Y-76845000D03*
%TD*%
D11*
%TO.P,R3,1*%
%TO.N,Net-(R3-Pad1)*%
X146050000Y-55880000D03*
D12*
%TO.P,R3,2*%
%TO.N,Net-(R3-Pad2)*%
X158750000Y-55880000D03*
%TD*%
D17*
%TO.P,J1,1,Pin_1*%
%TO.N,Net-(J1-Pad1)*%
X138435000Y-85090000D03*
D18*
%TO.P,J1,2,Pin_2*%
%TO.N,Net-(J1-Pad2)*%
X140975000Y-85090000D03*
%TO.P,J1,3,Pin_3*%
%TO.N,Net-(J1-Pad3)*%
X143515000Y-85090000D03*
%TO.P,J1,4,Pin_4*%
%TO.N,Net-(C1-Pad1)*%
X146055000Y-85090000D03*
%TO.P,J1,5,Pin_5*%
%TO.N,GND*%
X148595000Y-85090000D03*
%TD*%
D11*
%TO.P,R1,1*%
%TO.N,Net-(R1-Pad1)*%
X154940000Y-34290000D03*
D12*
%TO.P,R1,2*%
%TO.N,Net-(R1-Pad2)*%
X154940000Y-46990000D03*
%TD*%
D11*
%TO.P,R8,1*%
%TO.N,Net-(R8-Pad1)*%
X146050000Y-61595000D03*
D12*
%TO.P,R8,2*%
%TO.N,Net-(R8-Pad2)*%
X158750000Y-61595000D03*
%TD*%
D11*
%TO.P,R7,1*%
%TO.N,Net-(R7-Pad1)*%
X123825000Y-34290000D03*
D12*
%TO.P,R7,2*%
%TO.N,Net-(R7-Pad2)*%
X123825000Y-46990000D03*
%TD*%
D11*
%TO.P,R5,1*%
%TO.N,Net-(R5-Pad1)*%
X138430000Y-61595000D03*
D12*
%TO.P,R5,2*%
%TO.N,Net-(R5-Pad2)*%
X125730000Y-61595000D03*
%TD*%
D19*
%TO.N,Net-(R4-Pad2)*%
X122555000Y-72390000D02*
X122555000Y-56515000D01*
X147305000Y-71770000D02*
X146050000Y-73025000D01*
X146050000Y-73025000D02*
X123190000Y-73025000D01*
X147305000Y-69225000D02*
X147305000Y-71770000D01*
X122555000Y-56515000D02*
X123190000Y-55880000D01*
X123190000Y-55880000D02*
X125730000Y-55880000D01*
X123190000Y-73025000D02*
X122555000Y-72390000D01*
%TO.N,Net-(R5-Pad2)*%
X124460000Y-61595000D02*
X123825000Y-62230000D01*
X142235000Y-71755000D02*
X144765000Y-69225000D01*
X125730000Y-61595000D02*
X124460000Y-61595000D01*
X123825000Y-62230000D02*
X123825000Y-71120000D01*
X124460000Y-71755000D02*
X142235000Y-71755000D01*
X123825000Y-71120000D02*
X124460000Y-71755000D01*
%TO.N,Net-(R6-Pad2)*%
X132080000Y-65405000D02*
X138430000Y-65405000D01*
X129540000Y-62865000D02*
X132080000Y-65405000D01*
X142225000Y-69200000D02*
X142225000Y-69225000D01*
X138430000Y-65405000D02*
X142225000Y-69200000D01*
X129540000Y-46990000D02*
X129540000Y-62865000D01*
%TO.N,Net-(R7-Pad2)*%
X137135000Y-66675000D02*
X139685000Y-69225000D01*
X124790000Y-46990000D02*
X128330000Y-50530000D01*
X131444283Y-66675000D02*
X137135000Y-66675000D01*
X128330000Y-63560717D02*
X131444283Y-66675000D01*
X123825000Y-46990000D02*
X124790000Y-46990000D01*
X128330000Y-50530000D02*
X128330000Y-63560717D01*
%TO.N,Net-(R1-Pad2)*%
X153035000Y-73660000D02*
X154940000Y-71755000D01*
X149845000Y-76845000D02*
X149845000Y-74310000D01*
X149845000Y-74310000D02*
X150495000Y-73660000D01*
X150495000Y-73660000D02*
X153035000Y-73660000D01*
X154940000Y-71755000D02*
X154940000Y-46990000D01*
%TO.N,Net-(J1-Pad1)*%
X139180000Y-77350000D02*
X139685000Y-76845000D01*
X138435000Y-85090000D02*
X139180000Y-84345000D01*
X139180000Y-84345000D02*
X139180000Y-77350000D01*
%TO.N,Net-(J1-Pad2)*%
X141570000Y-77500000D02*
X142225000Y-76845000D01*
X141570000Y-84495000D02*
X141570000Y-77500000D01*
X140975000Y-85090000D02*
X141570000Y-84495000D01*
%TO.N,Net-(J1-Pad3)*%
X143515000Y-82575000D02*
X147305000Y-78785000D01*
X143515000Y-85090000D02*
X143515000Y-82575000D01*
X147305000Y-78785000D02*
X147305000Y-76845000D01*
%TD*%
M02*
