M48
; DRILL file {KiCad (6.0.4)} date Sat Apr 30 17:39:27 2022
; FORMAT={-:-/ absolute / inch / decimal}
; #@! TF.CreationDate,2022-04-30T17:39:27-07:00
; #@! TF.GenerationSoftware,Kicad,Pcbnew,(6.0.4)
; #@! TF.FileFunction,MixedPlating,1,2
FMAT,2
INCH
; #@! TA.AperFunction,Plated,PTH,ComponentDrill
T1C0.0315
; #@! TA.AperFunction,Plated,PTH,ComponentDrill
T2C0.0394
; #@! TA.AperFunction,Plated,PTH,ComponentDrill
T3C0.0472
%
G90
G05
T1
X5.2994Y-2.7254
X5.2994Y-3.0254
X5.3994Y-2.7254
X5.3994Y-3.0254
X5.4Y-1.3
X5.4Y-1.9
X5.4994Y-2.7254
X5.4994Y-3.0254
X5.5Y-1.3
X5.5Y-1.9
X5.5994Y-2.7254
X5.5994Y-3.0254
X5.6Y-1.3
X5.6Y-1.9
X5.6994Y-2.7254
X5.6994Y-3.0254
X5.7Y-1.3
X5.7Y-1.9
X5.7994Y-2.7254
X5.7994Y-3.0254
X5.8Y-1.3
X5.8Y-1.9
X5.8994Y-2.7254
X5.8994Y-3.0254
X5.9994Y-2.7254
X5.9994Y-3.0254
X6.2Y-2.8262
X6.2Y-2.9246
T2
X5.4502Y-3.35
X5.5502Y-3.35
X5.6502Y-3.35
X5.7502Y-3.35
X5.8502Y-3.35
T3
X4.875Y-1.35
X4.875Y-1.85
X4.95Y-2.2
X4.95Y-2.425
X5.1Y-1.35
X5.1Y-1.85
X5.45Y-2.2
X5.45Y-2.425
X5.75Y-2.2
X5.75Y-2.425
X6.1Y-1.35
X6.1Y-1.85
X6.25Y-2.2
X6.25Y-2.425
X6.325Y-1.35
X6.325Y-1.85
T0
M30
