%TF.GenerationSoftware,KiCad,Pcbnew,(6.0.4)*%
%TF.CreationDate,2022-04-30T17:38:09-07:00*%
%TF.ProjectId,SingleSevenSegments,53696e67-6c65-4536-9576-656e5365676d,rev?*%
%TF.SameCoordinates,Original*%
%TF.FileFunction,Soldermask,Bot*%
%TF.FilePolarity,Negative*%
%FSLAX46Y46*%
G04 Gerber Fmt 4.6, Leading zero omitted, Abs format (unit mm)*
G04 Created by KiCad (PCBNEW (6.0.4)) date 2022-04-30 17:38:09*
%MOMM*%
%LPD*%
G01*
G04 APERTURE LIST*
%ADD10C,1.600000*%
%ADD11C,2.400000*%
%ADD12O,2.400000X2.400000*%
%ADD13R,1.524000X2.524000*%
%ADD14O,1.524000X2.524000*%
%ADD15R,1.600000X1.600000*%
%ADD16O,1.600000X1.600000*%
%ADD17R,1.700000X1.700000*%
%ADD18O,1.700000X1.700000*%
G04 APERTURE END LIST*
D10*
%TO.C,C1*%
X157480000Y-74285000D03*
X157480000Y-71785000D03*
%TD*%
D11*
%TO.C,R2*%
X160655000Y-34290000D03*
D12*
X160655000Y-46990000D03*
%TD*%
D11*
%TO.C,R6*%
X129540000Y-34290000D03*
D12*
X129540000Y-46990000D03*
%TD*%
D13*
%TO.C,U2*%
X137160000Y-48260000D03*
D14*
X139700000Y-48260000D03*
X142240000Y-48260000D03*
X144780000Y-48260000D03*
X147320000Y-48260000D03*
X147320000Y-33020000D03*
X144780000Y-33020000D03*
X142240000Y-33020000D03*
X139700000Y-33020000D03*
X137160000Y-33020000D03*
%TD*%
D11*
%TO.C,R4*%
X138430000Y-55880000D03*
D12*
X125730000Y-55880000D03*
%TD*%
D15*
%TO.C,U1*%
X152385000Y-69225000D03*
D16*
X149845000Y-69225000D03*
X147305000Y-69225000D03*
X144765000Y-69225000D03*
X142225000Y-69225000D03*
X139685000Y-69225000D03*
X137145000Y-69225000D03*
X134605000Y-69225000D03*
X134605000Y-76845000D03*
X137145000Y-76845000D03*
X139685000Y-76845000D03*
X142225000Y-76845000D03*
X144765000Y-76845000D03*
X147305000Y-76845000D03*
X149845000Y-76845000D03*
X152385000Y-76845000D03*
%TD*%
D11*
%TO.C,R3*%
X146050000Y-55880000D03*
D12*
X158750000Y-55880000D03*
%TD*%
D17*
%TO.C,J1*%
X138435000Y-85090000D03*
D18*
X140975000Y-85090000D03*
X143515000Y-85090000D03*
X146055000Y-85090000D03*
X148595000Y-85090000D03*
%TD*%
D11*
%TO.C,R1*%
X154940000Y-34290000D03*
D12*
X154940000Y-46990000D03*
%TD*%
D11*
%TO.C,R8*%
X146050000Y-61595000D03*
D12*
X158750000Y-61595000D03*
%TD*%
D11*
%TO.C,R7*%
X123825000Y-34290000D03*
D12*
X123825000Y-46990000D03*
%TD*%
D11*
%TO.C,R5*%
X138430000Y-61595000D03*
D12*
X125730000Y-61595000D03*
%TD*%
M02*
