%TF.GenerationSoftware,KiCad,Pcbnew,(6.0.4)*%
%TF.CreationDate,2022-04-30T17:38:09-07:00*%
%TF.ProjectId,SingleSevenSegments,53696e67-6c65-4536-9576-656e5365676d,rev?*%
%TF.SameCoordinates,Original*%
%TF.FileFunction,Legend,Top*%
%TF.FilePolarity,Positive*%
%FSLAX46Y46*%
G04 Gerber Fmt 4.6, Leading zero omitted, Abs format (unit mm)*
G04 Created by KiCad (PCBNEW (6.0.4)) date 2022-04-30 17:38:09*
%MOMM*%
%LPD*%
G01*
G04 APERTURE LIST*
%ADD10C,0.150000*%
%ADD11C,0.153000*%
%ADD12C,0.120000*%
G04 APERTURE END LIST*
D10*
X125430595Y-84991428D02*
X126192500Y-84991428D01*
X126668690Y-84705714D02*
X127430595Y-84991428D01*
X126668690Y-85277142D01*
X128668690Y-85372380D02*
X128668690Y-84372380D01*
X128906785Y-84372380D01*
X129049642Y-84420000D01*
X129144880Y-84515238D01*
X129192500Y-84610476D01*
X129240119Y-84800952D01*
X129240119Y-84943809D01*
X129192500Y-85134285D01*
X129144880Y-85229523D01*
X129049642Y-85324761D01*
X128906785Y-85372380D01*
X128668690Y-85372380D01*
X129621071Y-85324761D02*
X129763928Y-85372380D01*
X130002023Y-85372380D01*
X130097261Y-85324761D01*
X130144880Y-85277142D01*
X130192500Y-85181904D01*
X130192500Y-85086666D01*
X130144880Y-84991428D01*
X130097261Y-84943809D01*
X130002023Y-84896190D01*
X129811547Y-84848571D01*
X129716309Y-84800952D01*
X129668690Y-84753333D01*
X129621071Y-84658095D01*
X129621071Y-84562857D01*
X129668690Y-84467619D01*
X129716309Y-84420000D01*
X129811547Y-84372380D01*
X130049642Y-84372380D01*
X130192500Y-84420000D01*
X130621071Y-84991428D02*
X131382976Y-84991428D01*
X132382976Y-85372380D02*
X131811547Y-85372380D01*
X132097261Y-85372380D02*
X132097261Y-84372380D01*
X132002023Y-84515238D01*
X131906785Y-84610476D01*
X131811547Y-84658095D01*
X133240119Y-84705714D02*
X133240119Y-85372380D01*
X133002023Y-84324761D02*
X132763928Y-85039047D01*
X133382976Y-85039047D01*
X125430595Y-81391428D02*
X126192500Y-81391428D01*
X126668690Y-81105714D02*
X127430595Y-81391428D01*
X126668690Y-81677142D01*
X129240119Y-81677142D02*
X129192500Y-81724761D01*
X129049642Y-81772380D01*
X128954404Y-81772380D01*
X128811547Y-81724761D01*
X128716309Y-81629523D01*
X128668690Y-81534285D01*
X128621071Y-81343809D01*
X128621071Y-81200952D01*
X128668690Y-81010476D01*
X128716309Y-80915238D01*
X128811547Y-80820000D01*
X128954404Y-80772380D01*
X129049642Y-80772380D01*
X129192500Y-80820000D01*
X129240119Y-80867619D01*
X130144880Y-81772380D02*
X129668690Y-81772380D01*
X129668690Y-80772380D01*
X130478214Y-81391428D02*
X131240119Y-81391428D01*
X132240119Y-81772380D02*
X131668690Y-81772380D01*
X131954404Y-81772380D02*
X131954404Y-80772380D01*
X131859166Y-80915238D01*
X131763928Y-81010476D01*
X131668690Y-81058095D01*
X133192500Y-81772380D02*
X132621071Y-81772380D01*
X132906785Y-81772380D02*
X132906785Y-80772380D01*
X132811547Y-80915238D01*
X132716309Y-81010476D01*
X132621071Y-81058095D01*
X138334761Y-87987142D02*
X138287142Y-88034761D01*
X138144285Y-88082380D01*
X138049047Y-88082380D01*
X137906190Y-88034761D01*
X137810952Y-87939523D01*
X137763333Y-87844285D01*
X137715714Y-87653809D01*
X137715714Y-87510952D01*
X137763333Y-87320476D01*
X137810952Y-87225238D01*
X137906190Y-87130000D01*
X138049047Y-87082380D01*
X138144285Y-87082380D01*
X138287142Y-87130000D01*
X138334761Y-87177619D01*
X139239523Y-88082380D02*
X138763333Y-88082380D01*
X138763333Y-87082380D01*
X140850952Y-88082380D02*
X140374761Y-88082380D01*
X140374761Y-87082380D01*
X141136666Y-87796666D02*
X141612857Y-87796666D01*
X141041428Y-88082380D02*
X141374761Y-87082380D01*
X141708095Y-88082380D01*
X125430595Y-83171428D02*
X126192500Y-83171428D01*
X126668690Y-82885714D02*
X127430595Y-83171428D01*
X126668690Y-83457142D01*
X129144880Y-83552380D02*
X128668690Y-83552380D01*
X128668690Y-82552380D01*
X129430595Y-83266666D02*
X129906785Y-83266666D01*
X129335357Y-83552380D02*
X129668690Y-82552380D01*
X130002023Y-83552380D01*
X130335357Y-83171428D02*
X131097261Y-83171428D01*
X132097261Y-83552380D02*
X131525833Y-83552380D01*
X131811547Y-83552380D02*
X131811547Y-82552380D01*
X131716309Y-82695238D01*
X131621071Y-82790476D01*
X131525833Y-82838095D01*
X132478214Y-82647619D02*
X132525833Y-82600000D01*
X132621071Y-82552380D01*
X132859166Y-82552380D01*
X132954404Y-82600000D01*
X133002023Y-82647619D01*
X133049642Y-82742857D01*
X133049642Y-82838095D01*
X133002023Y-82980952D01*
X132430595Y-83552380D01*
X133049642Y-83552380D01*
D11*
X142771904Y-88082380D02*
X142771904Y-87082380D01*
X143010000Y-87082380D01*
X143152857Y-87130000D01*
X143248095Y-87225238D01*
X143295714Y-87320476D01*
X143343333Y-87510952D01*
X143343333Y-87653809D01*
X143295714Y-87844285D01*
X143248095Y-87939523D01*
X143152857Y-88034761D01*
X143010000Y-88082380D01*
X142771904Y-88082380D01*
X143724285Y-88034761D02*
X143867142Y-88082380D01*
X144105238Y-88082380D01*
X144200476Y-88034761D01*
X144248095Y-87987142D01*
X144295714Y-87891904D01*
X144295714Y-87796666D01*
X144248095Y-87701428D01*
X144200476Y-87653809D01*
X144105238Y-87606190D01*
X143914761Y-87558571D01*
X143819523Y-87510952D01*
X143771904Y-87463333D01*
X143724285Y-87368095D01*
X143724285Y-87272857D01*
X143771904Y-87177619D01*
X143819523Y-87130000D01*
X143914761Y-87082380D01*
X144152857Y-87082380D01*
X144295714Y-87130000D01*
D10*
X148881904Y-87130000D02*
X148786666Y-87082380D01*
X148643809Y-87082380D01*
X148500952Y-87130000D01*
X148405714Y-87225238D01*
X148358095Y-87320476D01*
X148310476Y-87510952D01*
X148310476Y-87653809D01*
X148358095Y-87844285D01*
X148405714Y-87939523D01*
X148500952Y-88034761D01*
X148643809Y-88082380D01*
X148739047Y-88082380D01*
X148881904Y-88034761D01*
X148929523Y-87987142D01*
X148929523Y-87653809D01*
X148739047Y-87653809D01*
X145192857Y-87701428D02*
X145954761Y-87701428D01*
X145573809Y-88082380D02*
X145573809Y-87320476D01*
X146907142Y-87082380D02*
X146430952Y-87082380D01*
X146383333Y-87558571D01*
X146430952Y-87510952D01*
X146526190Y-87463333D01*
X146764285Y-87463333D01*
X146859523Y-87510952D01*
X146907142Y-87558571D01*
X146954761Y-87653809D01*
X146954761Y-87891904D01*
X146907142Y-87987142D01*
X146859523Y-88034761D01*
X146764285Y-88082380D01*
X146526190Y-88082380D01*
X146430952Y-88034761D01*
X146383333Y-87987142D01*
X120826785Y-83612380D02*
X120350595Y-83612380D01*
X120350595Y-82612380D01*
X121112500Y-83326666D02*
X121588690Y-83326666D01*
X121017261Y-83612380D02*
X121350595Y-82612380D01*
X121683928Y-83612380D01*
X121874404Y-82612380D02*
X122445833Y-82612380D01*
X122160119Y-83612380D02*
X122160119Y-82612380D01*
X123350595Y-83517142D02*
X123302976Y-83564761D01*
X123160119Y-83612380D01*
X123064880Y-83612380D01*
X122922023Y-83564761D01*
X122826785Y-83469523D01*
X122779166Y-83374285D01*
X122731547Y-83183809D01*
X122731547Y-83040952D01*
X122779166Y-82850476D01*
X122826785Y-82755238D01*
X122922023Y-82660000D01*
X123064880Y-82612380D01*
X123160119Y-82612380D01*
X123302976Y-82660000D01*
X123350595Y-82707619D01*
X123779166Y-83612380D02*
X123779166Y-82612380D01*
X123779166Y-83088571D02*
X124350595Y-83088571D01*
X124350595Y-83612380D02*
X124350595Y-82612380D01*
X120922023Y-81697142D02*
X120874404Y-81744761D01*
X120731547Y-81792380D01*
X120636309Y-81792380D01*
X120493452Y-81744761D01*
X120398214Y-81649523D01*
X120350595Y-81554285D01*
X120302976Y-81363809D01*
X120302976Y-81220952D01*
X120350595Y-81030476D01*
X120398214Y-80935238D01*
X120493452Y-80840000D01*
X120636309Y-80792380D01*
X120731547Y-80792380D01*
X120874404Y-80840000D01*
X120922023Y-80887619D01*
X121826785Y-81792380D02*
X121350595Y-81792380D01*
X121350595Y-80792380D01*
X122350595Y-80792380D02*
X122541071Y-80792380D01*
X122636309Y-80840000D01*
X122731547Y-80935238D01*
X122779166Y-81125714D01*
X122779166Y-81459047D01*
X122731547Y-81649523D01*
X122636309Y-81744761D01*
X122541071Y-81792380D01*
X122350595Y-81792380D01*
X122255357Y-81744761D01*
X122160119Y-81649523D01*
X122112500Y-81459047D01*
X122112500Y-81125714D01*
X122160119Y-80935238D01*
X122255357Y-80840000D01*
X122350595Y-80792380D01*
X123779166Y-81697142D02*
X123731547Y-81744761D01*
X123588690Y-81792380D01*
X123493452Y-81792380D01*
X123350595Y-81744761D01*
X123255357Y-81649523D01*
X123207738Y-81554285D01*
X123160119Y-81363809D01*
X123160119Y-81220952D01*
X123207738Y-81030476D01*
X123255357Y-80935238D01*
X123350595Y-80840000D01*
X123493452Y-80792380D01*
X123588690Y-80792380D01*
X123731547Y-80840000D01*
X123779166Y-80887619D01*
X124207738Y-81792380D02*
X124207738Y-80792380D01*
X124779166Y-81792380D02*
X124350595Y-81220952D01*
X124779166Y-80792380D02*
X124207738Y-81363809D01*
X134828571Y-28652380D02*
X134828571Y-27652380D01*
X135257142Y-28652380D02*
X135257142Y-28128571D01*
X135209523Y-28033333D01*
X135114285Y-27985714D01*
X134971428Y-27985714D01*
X134876190Y-28033333D01*
X134828571Y-28080952D01*
X135590476Y-27985714D02*
X135971428Y-27985714D01*
X135733333Y-27652380D02*
X135733333Y-28509523D01*
X135780952Y-28604761D01*
X135876190Y-28652380D01*
X135971428Y-28652380D01*
X136161904Y-27985714D02*
X136542857Y-27985714D01*
X136304761Y-27652380D02*
X136304761Y-28509523D01*
X136352380Y-28604761D01*
X136447619Y-28652380D01*
X136542857Y-28652380D01*
X136876190Y-27985714D02*
X136876190Y-28985714D01*
X136876190Y-28033333D02*
X136971428Y-27985714D01*
X137161904Y-27985714D01*
X137257142Y-28033333D01*
X137304761Y-28080952D01*
X137352380Y-28176190D01*
X137352380Y-28461904D01*
X137304761Y-28557142D01*
X137257142Y-28604761D01*
X137161904Y-28652380D01*
X136971428Y-28652380D01*
X136876190Y-28604761D01*
X137733333Y-28604761D02*
X137828571Y-28652380D01*
X138019047Y-28652380D01*
X138114285Y-28604761D01*
X138161904Y-28509523D01*
X138161904Y-28461904D01*
X138114285Y-28366666D01*
X138019047Y-28319047D01*
X137876190Y-28319047D01*
X137780952Y-28271428D01*
X137733333Y-28176190D01*
X137733333Y-28128571D01*
X137780952Y-28033333D01*
X137876190Y-27985714D01*
X138019047Y-27985714D01*
X138114285Y-28033333D01*
X138590476Y-28557142D02*
X138638095Y-28604761D01*
X138590476Y-28652380D01*
X138542857Y-28604761D01*
X138590476Y-28557142D01*
X138590476Y-28652380D01*
X138590476Y-28033333D02*
X138638095Y-28080952D01*
X138590476Y-28128571D01*
X138542857Y-28080952D01*
X138590476Y-28033333D01*
X138590476Y-28128571D01*
X139780952Y-27604761D02*
X138923809Y-28890476D01*
X140828571Y-27604761D02*
X139971428Y-28890476D01*
X141590476Y-28652380D02*
X141590476Y-28128571D01*
X141542857Y-28033333D01*
X141447619Y-27985714D01*
X141257142Y-27985714D01*
X141161904Y-28033333D01*
X141590476Y-28604761D02*
X141495238Y-28652380D01*
X141257142Y-28652380D01*
X141161904Y-28604761D01*
X141114285Y-28509523D01*
X141114285Y-28414285D01*
X141161904Y-28319047D01*
X141257142Y-28271428D01*
X141495238Y-28271428D01*
X141590476Y-28223809D01*
X142066666Y-28652380D02*
X142066666Y-27652380D01*
X142161904Y-28271428D02*
X142447619Y-28652380D01*
X142447619Y-27985714D02*
X142066666Y-28366666D01*
X143304761Y-28652380D02*
X143304761Y-28128571D01*
X143257142Y-28033333D01*
X143161904Y-27985714D01*
X142971428Y-27985714D01*
X142876190Y-28033333D01*
X143304761Y-28604761D02*
X143209523Y-28652380D01*
X142971428Y-28652380D01*
X142876190Y-28604761D01*
X142828571Y-28509523D01*
X142828571Y-28414285D01*
X142876190Y-28319047D01*
X142971428Y-28271428D01*
X143209523Y-28271428D01*
X143304761Y-28223809D01*
X143780952Y-28652380D02*
X143780952Y-27652380D01*
X143876190Y-28271428D02*
X144161904Y-28652380D01*
X144161904Y-27985714D02*
X143780952Y-28366666D01*
X145019047Y-28652380D02*
X145019047Y-28128571D01*
X144971428Y-28033333D01*
X144876190Y-27985714D01*
X144685714Y-27985714D01*
X144590476Y-28033333D01*
X145019047Y-28604761D02*
X144923809Y-28652380D01*
X144685714Y-28652380D01*
X144590476Y-28604761D01*
X144542857Y-28509523D01*
X144542857Y-28414285D01*
X144590476Y-28319047D01*
X144685714Y-28271428D01*
X144923809Y-28271428D01*
X145019047Y-28223809D01*
X145495238Y-27985714D02*
X145495238Y-28652380D01*
X145495238Y-28080952D02*
X145542857Y-28033333D01*
X145638095Y-27985714D01*
X145780952Y-27985714D01*
X145876190Y-28033333D01*
X145923809Y-28128571D01*
X145923809Y-28652380D01*
X146400000Y-28652380D02*
X146400000Y-27985714D01*
X146400000Y-27652380D02*
X146352380Y-27700000D01*
X146400000Y-27747619D01*
X146447619Y-27700000D01*
X146400000Y-27652380D01*
X146400000Y-27747619D01*
X146876190Y-28557142D02*
X146923809Y-28604761D01*
X146876190Y-28652380D01*
X146828571Y-28604761D01*
X146876190Y-28557142D01*
X146876190Y-28652380D01*
X147780952Y-28604761D02*
X147685714Y-28652380D01*
X147495238Y-28652380D01*
X147400000Y-28604761D01*
X147352380Y-28557142D01*
X147304761Y-28461904D01*
X147304761Y-28176190D01*
X147352380Y-28080952D01*
X147400000Y-28033333D01*
X147495238Y-27985714D01*
X147685714Y-27985714D01*
X147780952Y-28033333D01*
X148352380Y-28652380D02*
X148257142Y-28604761D01*
X148209523Y-28557142D01*
X148161904Y-28461904D01*
X148161904Y-28176190D01*
X148209523Y-28080952D01*
X148257142Y-28033333D01*
X148352380Y-27985714D01*
X148495238Y-27985714D01*
X148590476Y-28033333D01*
X148638095Y-28080952D01*
X148685714Y-28176190D01*
X148685714Y-28461904D01*
X148638095Y-28557142D01*
X148590476Y-28604761D01*
X148495238Y-28652380D01*
X148352380Y-28652380D01*
X149114285Y-28652380D02*
X149114285Y-27985714D01*
X149114285Y-28080952D02*
X149161904Y-28033333D01*
X149257142Y-27985714D01*
X149400000Y-27985714D01*
X149495238Y-28033333D01*
X149542857Y-28128571D01*
X149542857Y-28652380D01*
X149542857Y-28128571D02*
X149590476Y-28033333D01*
X149685714Y-27985714D01*
X149828571Y-27985714D01*
X149923809Y-28033333D01*
X149971428Y-28128571D01*
X149971428Y-28652380D01*
X120350595Y-85312380D02*
X120350595Y-84312380D01*
X120588690Y-84312380D01*
X120731547Y-84360000D01*
X120826785Y-84455238D01*
X120874404Y-84550476D01*
X120922023Y-84740952D01*
X120922023Y-84883809D01*
X120874404Y-85074285D01*
X120826785Y-85169523D01*
X120731547Y-85264761D01*
X120588690Y-85312380D01*
X120350595Y-85312380D01*
X121302976Y-85264761D02*
X121445833Y-85312380D01*
X121683928Y-85312380D01*
X121779166Y-85264761D01*
X121826785Y-85217142D01*
X121874404Y-85121904D01*
X121874404Y-85026666D01*
X121826785Y-84931428D01*
X121779166Y-84883809D01*
X121683928Y-84836190D01*
X121493452Y-84788571D01*
X121398214Y-84740952D01*
X121350595Y-84693333D01*
X121302976Y-84598095D01*
X121302976Y-84502857D01*
X121350595Y-84407619D01*
X121398214Y-84360000D01*
X121493452Y-84312380D01*
X121731547Y-84312380D01*
X121874404Y-84360000D01*
D12*
%TO.C,C1*%
X156110000Y-75655000D02*
X158850000Y-75655000D01*
X158850000Y-75655000D02*
X158850000Y-70415000D01*
X156110000Y-70415000D02*
X158850000Y-70415000D01*
X156110000Y-75655000D02*
X156110000Y-70415000D01*
%TO.C,R2*%
X162095000Y-35570000D02*
X162575000Y-35570000D01*
X162575000Y-45710000D02*
X162095000Y-45710000D01*
X158735000Y-45710000D02*
X159215000Y-45710000D01*
X159215000Y-35570000D02*
X158735000Y-35570000D01*
X162575000Y-35570000D02*
X162575000Y-45710000D01*
X158735000Y-35570000D02*
X158735000Y-45710000D01*
%TO.C,R6*%
X128100000Y-35570000D02*
X127620000Y-35570000D01*
X131460000Y-45710000D02*
X130980000Y-45710000D01*
X127620000Y-35570000D02*
X127620000Y-45710000D01*
X127620000Y-45710000D02*
X128100000Y-45710000D01*
X131460000Y-35570000D02*
X131460000Y-45710000D01*
X130980000Y-35570000D02*
X131460000Y-35570000D01*
%TO.C,U2*%
X137240000Y-45640000D02*
X144240000Y-45640000D01*
X148540000Y-31005000D02*
X135940000Y-31005000D01*
X138240000Y-40640000D02*
X137240000Y-45640000D01*
X139240000Y-35640000D02*
X138240000Y-40640000D01*
X136940000Y-50275000D02*
X148540000Y-50275000D01*
X135830000Y-46355000D02*
X135830000Y-34925000D01*
X148650000Y-46355000D02*
X148650000Y-34925000D01*
X145240000Y-40640000D02*
X138240000Y-40640000D01*
X139240000Y-35640000D02*
X146240000Y-35640000D01*
X146240000Y-35640000D02*
X145240000Y-40640000D01*
X144240000Y-45640000D02*
X145240000Y-40640000D01*
X146687214Y-45640000D02*
G75*
G03*
X146687214Y-45640000I-447214J0D01*
G01*
%TO.C,R4*%
X137150000Y-57800000D02*
X127010000Y-57800000D01*
X127010000Y-53960000D02*
X127010000Y-54440000D01*
X137150000Y-53960000D02*
X127010000Y-53960000D01*
X127010000Y-57800000D02*
X127010000Y-57320000D01*
X137150000Y-54440000D02*
X137150000Y-53960000D01*
X137150000Y-57320000D02*
X137150000Y-57800000D01*
%TO.C,U1*%
X153715000Y-75685000D02*
X153715000Y-74035000D01*
X133275000Y-70385000D02*
X133275000Y-75685000D01*
X133275000Y-75685000D02*
X153715000Y-75685000D01*
X153715000Y-72035000D02*
X153715000Y-70385000D01*
X153715000Y-70385000D02*
X133275000Y-70385000D01*
X153715000Y-72035000D02*
G75*
G03*
X153715000Y-74035000I0J-1000000D01*
G01*
%TO.C,R3*%
X157470000Y-57800000D02*
X157470000Y-57320000D01*
X147330000Y-53960000D02*
X157470000Y-53960000D01*
X147330000Y-54440000D02*
X147330000Y-53960000D01*
X147330000Y-57800000D02*
X157470000Y-57800000D01*
X147330000Y-57320000D02*
X147330000Y-57800000D01*
X157470000Y-53960000D02*
X157470000Y-54440000D01*
%TO.C,J1*%
X138435000Y-86420000D02*
X137105000Y-86420000D01*
X137105000Y-86420000D02*
X137105000Y-85090000D01*
X139705000Y-86420000D02*
X149925000Y-86420000D01*
X149925000Y-86420000D02*
X149925000Y-83760000D01*
X139705000Y-86420000D02*
X139705000Y-83760000D01*
X139705000Y-83760000D02*
X149925000Y-83760000D01*
%TO.C,R1*%
X153500000Y-35570000D02*
X153020000Y-35570000D01*
X156860000Y-45710000D02*
X156380000Y-45710000D01*
X156860000Y-35570000D02*
X156860000Y-45710000D01*
X153020000Y-35570000D02*
X153020000Y-45710000D01*
X156380000Y-35570000D02*
X156860000Y-35570000D01*
X153020000Y-45710000D02*
X153500000Y-45710000D01*
%TO.C,R8*%
X147330000Y-63035000D02*
X147330000Y-63515000D01*
X157470000Y-63515000D02*
X157470000Y-63035000D01*
X157470000Y-59675000D02*
X157470000Y-60155000D01*
X147330000Y-60155000D02*
X147330000Y-59675000D01*
X147330000Y-63515000D02*
X157470000Y-63515000D01*
X147330000Y-59675000D02*
X157470000Y-59675000D01*
%TO.C,R7*%
X122385000Y-35570000D02*
X121905000Y-35570000D01*
X125745000Y-45710000D02*
X125265000Y-45710000D01*
X121905000Y-45710000D02*
X122385000Y-45710000D01*
X125265000Y-35570000D02*
X125745000Y-35570000D01*
X125745000Y-35570000D02*
X125745000Y-45710000D01*
X121905000Y-35570000D02*
X121905000Y-45710000D01*
%TO.C,R5*%
X127010000Y-59675000D02*
X127010000Y-60155000D01*
X127010000Y-63515000D02*
X127010000Y-63035000D01*
X137150000Y-63515000D02*
X127010000Y-63515000D01*
X137150000Y-59675000D02*
X127010000Y-59675000D01*
X137150000Y-60155000D02*
X137150000Y-59675000D01*
X137150000Y-63035000D02*
X137150000Y-63515000D01*
%TD*%
M02*
