%TF.GenerationSoftware,KiCad,Pcbnew,(6.0.4)*%
%TF.CreationDate,2022-04-30T17:38:09-07:00*%
%TF.ProjectId,SingleSevenSegments,53696e67-6c65-4536-9576-656e5365676d,rev?*%
%TF.SameCoordinates,Original*%
%TF.FileFunction,Copper,L2,Bot*%
%TF.FilePolarity,Positive*%
%FSLAX46Y46*%
G04 Gerber Fmt 4.6, Leading zero omitted, Abs format (unit mm)*
G04 Created by KiCad (PCBNEW (6.0.4)) date 2022-04-30 17:38:09*
%MOMM*%
%LPD*%
G01*
G04 APERTURE LIST*
%TA.AperFunction,ComponentPad*%
%ADD10C,1.600000*%
%TD*%
%TA.AperFunction,ComponentPad*%
%ADD11C,2.400000*%
%TD*%
%TA.AperFunction,ComponentPad*%
%ADD12O,2.400000X2.400000*%
%TD*%
%TA.AperFunction,ComponentPad*%
%ADD13R,1.524000X2.524000*%
%TD*%
%TA.AperFunction,ComponentPad*%
%ADD14O,1.524000X2.524000*%
%TD*%
%TA.AperFunction,ComponentPad*%
%ADD15R,1.600000X1.600000*%
%TD*%
%TA.AperFunction,ComponentPad*%
%ADD16O,1.600000X1.600000*%
%TD*%
%TA.AperFunction,ComponentPad*%
%ADD17R,1.700000X1.700000*%
%TD*%
%TA.AperFunction,ComponentPad*%
%ADD18O,1.700000X1.700000*%
%TD*%
%TA.AperFunction,Conductor*%
%ADD19C,0.250000*%
%TD*%
G04 APERTURE END LIST*
D10*
%TO.P,C1,1*%
%TO.N,Net-(C1-Pad1)*%
X157480000Y-74285000D03*
%TO.P,C1,2*%
%TO.N,GND*%
X157480000Y-71785000D03*
%TD*%
D11*
%TO.P,R2,1*%
%TO.N,Net-(R2-Pad1)*%
X160655000Y-34290000D03*
D12*
%TO.P,R2,2*%
%TO.N,Net-(R2-Pad2)*%
X160655000Y-46990000D03*
%TD*%
D11*
%TO.P,R6,1*%
%TO.N,Net-(R6-Pad1)*%
X129540000Y-34290000D03*
D12*
%TO.P,R6,2*%
%TO.N,Net-(R6-Pad2)*%
X129540000Y-46990000D03*
%TD*%
D13*
%TO.P,U2,1,E*%
%TO.N,Net-(R5-Pad1)*%
X137160000Y-48260000D03*
D14*
%TO.P,U2,2,D*%
%TO.N,Net-(R4-Pad1)*%
X139700000Y-48260000D03*
%TO.P,U2,3,CC*%
%TO.N,GND*%
X142240000Y-48260000D03*
%TO.P,U2,4,C*%
%TO.N,Net-(R3-Pad1)*%
X144780000Y-48260000D03*
%TO.P,U2,5,DP*%
%TO.N,Net-(R8-Pad1)*%
X147320000Y-48260000D03*
%TO.P,U2,6,B*%
%TO.N,Net-(R2-Pad1)*%
X147320000Y-33020000D03*
%TO.P,U2,7,A*%
%TO.N,Net-(R1-Pad1)*%
X144780000Y-33020000D03*
%TO.P,U2,8,CC*%
%TO.N,GND*%
X142240000Y-33020000D03*
%TO.P,U2,9,F*%
%TO.N,Net-(R6-Pad1)*%
X139700000Y-33020000D03*
%TO.P,U2,10,G*%
%TO.N,Net-(R7-Pad1)*%
X137160000Y-33020000D03*
%TD*%
D11*
%TO.P,R4,1*%
%TO.N,Net-(R4-Pad1)*%
X138430000Y-55880000D03*
D12*
%TO.P,R4,2*%
%TO.N,Net-(R4-Pad2)*%
X125730000Y-55880000D03*
%TD*%
D15*
%TO.P,U1,1,QB*%
%TO.N,Net-(R2-Pad2)*%
X152385000Y-69225000D03*
D16*
%TO.P,U1,2,QC*%
%TO.N,Net-(R3-Pad2)*%
X149845000Y-69225000D03*
%TO.P,U1,3,QD*%
%TO.N,Net-(R4-Pad2)*%
X147305000Y-69225000D03*
%TO.P,U1,4,QE*%
%TO.N,Net-(R5-Pad2)*%
X144765000Y-69225000D03*
%TO.P,U1,5,QF*%
%TO.N,Net-(R6-Pad2)*%
X142225000Y-69225000D03*
%TO.P,U1,6,QG*%
%TO.N,Net-(R7-Pad2)*%
X139685000Y-69225000D03*
%TO.P,U1,7,QH*%
%TO.N,Net-(R8-Pad2)*%
X137145000Y-69225000D03*
%TO.P,U1,8,GND*%
%TO.N,GND*%
X134605000Y-69225000D03*
%TO.P,U1,9,QH'*%
%TO.N,unconnected-(U1-Pad9)*%
X134605000Y-76845000D03*
%TO.P,U1,10,~{SRCLR}*%
%TO.N,Net-(C1-Pad1)*%
X137145000Y-76845000D03*
%TO.P,U1,11,SRCLK*%
%TO.N,Net-(J1-Pad1)*%
X139685000Y-76845000D03*
%TO.P,U1,12,RCLK*%
%TO.N,Net-(J1-Pad2)*%
X142225000Y-76845000D03*
%TO.P,U1,13,~{OE}*%
%TO.N,GND*%
X144765000Y-76845000D03*
%TO.P,U1,14,SER*%
%TO.N,Net-(J1-Pad3)*%
X147305000Y-76845000D03*
%TO.P,U1,15,QA*%
%TO.N,Net-(R1-Pad2)*%
X149845000Y-76845000D03*
%TO.P,U1,16,VCC*%
%TO.N,Net-(C1-Pad1)*%
X152385000Y-76845000D03*
%TD*%
D11*
%TO.P,R3,1*%
%TO.N,Net-(R3-Pad1)*%
X146050000Y-55880000D03*
D12*
%TO.P,R3,2*%
%TO.N,Net-(R3-Pad2)*%
X158750000Y-55880000D03*
%TD*%
D17*
%TO.P,J1,1,Pin_1*%
%TO.N,Net-(J1-Pad1)*%
X138435000Y-85090000D03*
D18*
%TO.P,J1,2,Pin_2*%
%TO.N,Net-(J1-Pad2)*%
X140975000Y-85090000D03*
%TO.P,J1,3,Pin_3*%
%TO.N,Net-(J1-Pad3)*%
X143515000Y-85090000D03*
%TO.P,J1,4,Pin_4*%
%TO.N,Net-(C1-Pad1)*%
X146055000Y-85090000D03*
%TO.P,J1,5,Pin_5*%
%TO.N,GND*%
X148595000Y-85090000D03*
%TD*%
D11*
%TO.P,R1,1*%
%TO.N,Net-(R1-Pad1)*%
X154940000Y-34290000D03*
D12*
%TO.P,R1,2*%
%TO.N,Net-(R1-Pad2)*%
X154940000Y-46990000D03*
%TD*%
D11*
%TO.P,R8,1*%
%TO.N,Net-(R8-Pad1)*%
X146050000Y-61595000D03*
D12*
%TO.P,R8,2*%
%TO.N,Net-(R8-Pad2)*%
X158750000Y-61595000D03*
%TD*%
D11*
%TO.P,R7,1*%
%TO.N,Net-(R7-Pad1)*%
X123825000Y-34290000D03*
D12*
%TO.P,R7,2*%
%TO.N,Net-(R7-Pad2)*%
X123825000Y-46990000D03*
%TD*%
D11*
%TO.P,R5,1*%
%TO.N,Net-(R5-Pad1)*%
X138430000Y-61595000D03*
D12*
%TO.P,R5,2*%
%TO.N,Net-(R5-Pad2)*%
X125730000Y-61595000D03*
%TD*%
D19*
%TO.N,Net-(R2-Pad2)*%
X164465000Y-67945000D02*
X163185000Y-69225000D01*
X164465000Y-50800000D02*
X164465000Y-67945000D01*
X163185000Y-69225000D02*
X152385000Y-69225000D01*
X160655000Y-46990000D02*
X164465000Y-50800000D01*
%TO.N,Net-(R3-Pad2)*%
X150495000Y-67310000D02*
X149845000Y-67960000D01*
X160655000Y-55880000D02*
X161925000Y-57150000D01*
X158750000Y-55880000D02*
X160655000Y-55880000D01*
X149845000Y-67960000D02*
X149845000Y-69225000D01*
X161925000Y-57150000D02*
X161925000Y-66040000D01*
X160655000Y-67310000D02*
X150495000Y-67310000D01*
X161925000Y-66040000D02*
X160655000Y-67310000D01*
%TO.N,Net-(R8-Pad2)*%
X137145000Y-69225000D02*
X137145000Y-66690000D01*
X154940000Y-65405000D02*
X158750000Y-61595000D01*
X138430000Y-65405000D02*
X154940000Y-65405000D01*
X137145000Y-66690000D02*
X138430000Y-65405000D01*
%TO.N,Net-(C1-Pad1)*%
X151128750Y-80010000D02*
X147955000Y-80010000D01*
X152385000Y-78753750D02*
X151128750Y-80010000D01*
X146055000Y-81920000D02*
X146055000Y-85090000D01*
X144145000Y-80010000D02*
X146055000Y-81920000D01*
X154945000Y-74285000D02*
X157480000Y-74285000D01*
X146055000Y-81910000D02*
X146055000Y-85090000D01*
X140310000Y-80010000D02*
X144145000Y-80010000D01*
X152385000Y-76845000D02*
X154945000Y-74285000D01*
X147955000Y-80010000D02*
X146055000Y-81910000D01*
X152385000Y-76845000D02*
X152385000Y-78753750D01*
X137145000Y-76845000D02*
X140310000Y-80010000D01*
%TO.N,Net-(R5-Pad1)*%
X137160000Y-50165000D02*
X135255000Y-52070000D01*
X137160000Y-48260000D02*
X137160000Y-50165000D01*
X135255000Y-58420000D02*
X138430000Y-61595000D01*
X135255000Y-52070000D02*
X135255000Y-58420000D01*
%TO.N,Net-(R4-Pad1)*%
X139700000Y-54610000D02*
X139700000Y-48260000D01*
X138430000Y-55880000D02*
X139700000Y-54610000D01*
%TO.N,Net-(R3-Pad1)*%
X146050000Y-55880000D02*
X144780000Y-54610000D01*
X144780000Y-54610000D02*
X144780000Y-48260000D01*
%TO.N,Net-(R8-Pad1)*%
X149225000Y-52070000D02*
X149225000Y-58420000D01*
X149225000Y-58420000D02*
X146050000Y-61595000D01*
X147320000Y-48260000D02*
X147320000Y-50165000D01*
X147320000Y-50165000D02*
X149225000Y-52070000D01*
%TO.N,Net-(R2-Pad1)*%
X156845000Y-30480000D02*
X148590000Y-30480000D01*
X148590000Y-30480000D02*
X147320000Y-31750000D01*
X147320000Y-31750000D02*
X147320000Y-33020000D01*
X160655000Y-34290000D02*
X156845000Y-30480000D01*
%TO.N,Net-(R1-Pad1)*%
X153035000Y-36195000D02*
X146685000Y-36195000D01*
X146685000Y-36195000D02*
X144780000Y-34290000D01*
X154940000Y-34290000D02*
X153035000Y-36195000D01*
X144780000Y-34290000D02*
X144780000Y-33020000D01*
%TO.N,Net-(R6-Pad1)*%
X131445000Y-36195000D02*
X137795000Y-36195000D01*
X137795000Y-36195000D02*
X139700000Y-34290000D01*
X129540000Y-34290000D02*
X131445000Y-36195000D01*
X139700000Y-34290000D02*
X139700000Y-33020000D01*
%TO.N,Net-(R7-Pad1)*%
X123825000Y-34290000D02*
X127635000Y-30480000D01*
X137160000Y-31750000D02*
X137160000Y-33020000D01*
X127635000Y-30480000D02*
X135890000Y-30480000D01*
X135890000Y-30480000D02*
X137160000Y-31750000D01*
%TD*%
%TA.AperFunction,Conductor*%
%TO.N,GND*%
G36*
X166233621Y-26528502D02*
G01*
X166280114Y-26582158D01*
X166291500Y-26634500D01*
X166291500Y-89365500D01*
X166271498Y-89433621D01*
X166217842Y-89480114D01*
X166165500Y-89491500D01*
X118434500Y-89491500D01*
X118366379Y-89471498D01*
X118319886Y-89417842D01*
X118308500Y-89365500D01*
X118308500Y-76845000D01*
X133291502Y-76845000D01*
X133311457Y-77073087D01*
X133370716Y-77294243D01*
X133373039Y-77299224D01*
X133373039Y-77299225D01*
X133465151Y-77496762D01*
X133465154Y-77496767D01*
X133467477Y-77501749D01*
X133598802Y-77689300D01*
X133760700Y-77851198D01*
X133765208Y-77854355D01*
X133765211Y-77854357D01*
X133843389Y-77909098D01*
X133948251Y-77982523D01*
X133953233Y-77984846D01*
X133953238Y-77984849D01*
X134123825Y-78064394D01*
X134155757Y-78079284D01*
X134161065Y-78080706D01*
X134161067Y-78080707D01*
X134371598Y-78137119D01*
X134371600Y-78137119D01*
X134376913Y-78138543D01*
X134605000Y-78158498D01*
X134833087Y-78138543D01*
X134838400Y-78137119D01*
X134838402Y-78137119D01*
X135048933Y-78080707D01*
X135048935Y-78080706D01*
X135054243Y-78079284D01*
X135086175Y-78064394D01*
X135256762Y-77984849D01*
X135256767Y-77984846D01*
X135261749Y-77982523D01*
X135366611Y-77909098D01*
X135444789Y-77854357D01*
X135444792Y-77854355D01*
X135449300Y-77851198D01*
X135611198Y-77689300D01*
X135742523Y-77501749D01*
X135744846Y-77496767D01*
X135744849Y-77496762D01*
X135760805Y-77462543D01*
X135807722Y-77409258D01*
X135875999Y-77389797D01*
X135943959Y-77410339D01*
X135989195Y-77462543D01*
X136005151Y-77496762D01*
X136005154Y-77496767D01*
X136007477Y-77501749D01*
X136138802Y-77689300D01*
X136300700Y-77851198D01*
X136305208Y-77854355D01*
X136305211Y-77854357D01*
X136383389Y-77909098D01*
X136488251Y-77982523D01*
X136493233Y-77984846D01*
X136493238Y-77984849D01*
X136663825Y-78064394D01*
X136695757Y-78079284D01*
X136701065Y-78080706D01*
X136701067Y-78080707D01*
X136911598Y-78137119D01*
X136911600Y-78137119D01*
X136916913Y-78138543D01*
X137145000Y-78158498D01*
X137373087Y-78138543D01*
X137378398Y-78137120D01*
X137378409Y-78137118D01*
X137436541Y-78121541D01*
X137507517Y-78123230D01*
X137558248Y-78154152D01*
X138743690Y-79339595D01*
X139806348Y-80402253D01*
X139813888Y-80410539D01*
X139818000Y-80417018D01*
X139823777Y-80422443D01*
X139867651Y-80463643D01*
X139870493Y-80466398D01*
X139890230Y-80486135D01*
X139893427Y-80488615D01*
X139902447Y-80496318D01*
X139934679Y-80526586D01*
X139941625Y-80530405D01*
X139941628Y-80530407D01*
X139952434Y-80536348D01*
X139968953Y-80547199D01*
X139984959Y-80559614D01*
X139992228Y-80562759D01*
X139992232Y-80562762D01*
X140025537Y-80577174D01*
X140036187Y-80582391D01*
X140074940Y-80603695D01*
X140082615Y-80605666D01*
X140082616Y-80605666D01*
X140094562Y-80608733D01*
X140113267Y-80615137D01*
X140131855Y-80623181D01*
X140139678Y-80624420D01*
X140139688Y-80624423D01*
X140175524Y-80630099D01*
X140187144Y-80632505D01*
X140218959Y-80640673D01*
X140229970Y-80643500D01*
X140250224Y-80643500D01*
X140269934Y-80645051D01*
X140289943Y-80648220D01*
X140297835Y-80647474D01*
X140316580Y-80645702D01*
X140333962Y-80644059D01*
X140345819Y-80643500D01*
X143830406Y-80643500D01*
X143898527Y-80663502D01*
X143919501Y-80680405D01*
X145384595Y-82145500D01*
X145418621Y-82207812D01*
X145421500Y-82234595D01*
X145421500Y-83811692D01*
X145401498Y-83879813D01*
X145353683Y-83923453D01*
X145328607Y-83936507D01*
X145324474Y-83939610D01*
X145324471Y-83939612D01*
X145154100Y-84067530D01*
X145149965Y-84070635D01*
X145146393Y-84074373D01*
X145038729Y-84187037D01*
X144995629Y-84232138D01*
X144888201Y-84389621D01*
X144833293Y-84434621D01*
X144762768Y-84442792D01*
X144699021Y-84411538D01*
X144678324Y-84387054D01*
X144597822Y-84262617D01*
X144597820Y-84262614D01*
X144595014Y-84258277D01*
X144444670Y-84093051D01*
X144440619Y-84089852D01*
X144440615Y-84089848D01*
X144273414Y-83957800D01*
X144273410Y-83957798D01*
X144269359Y-83954598D01*
X144264831Y-83952098D01*
X144148988Y-83888150D01*
X144073789Y-83846638D01*
X144068920Y-83844914D01*
X144068916Y-83844912D01*
X143868087Y-83773795D01*
X143868083Y-83773794D01*
X143863212Y-83772069D01*
X143858119Y-83771162D01*
X143858116Y-83771161D01*
X143648373Y-83733800D01*
X143648367Y-83733799D01*
X143643284Y-83732894D01*
X143569452Y-83731992D01*
X143425081Y-83730228D01*
X143425079Y-83730228D01*
X143419911Y-83730165D01*
X143199091Y-83763955D01*
X142986756Y-83833357D01*
X142913757Y-83871358D01*
X142812975Y-83923822D01*
X142788607Y-83936507D01*
X142784474Y-83939610D01*
X142784471Y-83939612D01*
X142614100Y-84067530D01*
X142609965Y-84070635D01*
X142606393Y-84074373D01*
X142498729Y-84187037D01*
X142455629Y-84232138D01*
X142348201Y-84389621D01*
X142293293Y-84434621D01*
X142222768Y-84442792D01*
X142159021Y-84411538D01*
X142138324Y-84387054D01*
X142057822Y-84262617D01*
X142057820Y-84262614D01*
X142055014Y-84258277D01*
X141904670Y-84093051D01*
X141900619Y-84089852D01*
X141900615Y-84089848D01*
X141733414Y-83957800D01*
X141733410Y-83957798D01*
X141729359Y-83954598D01*
X141724831Y-83952098D01*
X141608988Y-83888150D01*
X141533789Y-83846638D01*
X141528920Y-83844914D01*
X141528916Y-83844912D01*
X141328087Y-83773795D01*
X141328083Y-83773794D01*
X141323212Y-83772069D01*
X141318119Y-83771162D01*
X141318116Y-83771161D01*
X141108373Y-83733800D01*
X141108367Y-83733799D01*
X141103284Y-83732894D01*
X141029452Y-83731992D01*
X140885081Y-83730228D01*
X140885079Y-83730228D01*
X140879911Y-83730165D01*
X140659091Y-83763955D01*
X140446756Y-83833357D01*
X140373757Y-83871358D01*
X140272975Y-83923822D01*
X140248607Y-83936507D01*
X140244474Y-83939610D01*
X140244471Y-83939612D01*
X140074100Y-84067530D01*
X140069965Y-84070635D01*
X140013537Y-84129684D01*
X139989283Y-84155064D01*
X139927759Y-84190494D01*
X139856846Y-84187037D01*
X139799060Y-84145791D01*
X139780207Y-84112243D01*
X139738767Y-84001703D01*
X139735615Y-83993295D01*
X139648261Y-83876739D01*
X139531705Y-83789385D01*
X139395316Y-83738255D01*
X139333134Y-83731500D01*
X137536866Y-83731500D01*
X137474684Y-83738255D01*
X137338295Y-83789385D01*
X137221739Y-83876739D01*
X137134385Y-83993295D01*
X137083255Y-84129684D01*
X137076500Y-84191866D01*
X137076500Y-85988134D01*
X137083255Y-86050316D01*
X137134385Y-86186705D01*
X137221739Y-86303261D01*
X137338295Y-86390615D01*
X137474684Y-86441745D01*
X137536866Y-86448500D01*
X139333134Y-86448500D01*
X139395316Y-86441745D01*
X139531705Y-86390615D01*
X139648261Y-86303261D01*
X139735615Y-86186705D01*
X139757799Y-86127529D01*
X139779598Y-86069382D01*
X139822240Y-86012618D01*
X139888802Y-85987918D01*
X139958150Y-86003126D01*
X139992817Y-86031114D01*
X140021250Y-86063938D01*
X140193126Y-86206632D01*
X140386000Y-86319338D01*
X140594692Y-86399030D01*
X140599760Y-86400061D01*
X140599763Y-86400062D01*
X140694862Y-86419410D01*
X140813597Y-86443567D01*
X140818772Y-86443757D01*
X140818774Y-86443757D01*
X141031673Y-86451564D01*
X141031677Y-86451564D01*
X141036837Y-86451753D01*
X141041957Y-86451097D01*
X141041959Y-86451097D01*
X141253288Y-86424025D01*
X141253289Y-86424025D01*
X141258416Y-86423368D01*
X141263366Y-86421883D01*
X141467429Y-86360661D01*
X141467434Y-86360659D01*
X141472384Y-86359174D01*
X141672994Y-86260896D01*
X141854860Y-86131173D01*
X142013096Y-85973489D01*
X142143453Y-85792077D01*
X142144776Y-85793028D01*
X142191645Y-85749857D01*
X142261580Y-85737625D01*
X142327026Y-85765144D01*
X142354875Y-85796994D01*
X142414987Y-85895088D01*
X142561250Y-86063938D01*
X142733126Y-86206632D01*
X142926000Y-86319338D01*
X143134692Y-86399030D01*
X143139760Y-86400061D01*
X143139763Y-86400062D01*
X143234862Y-86419410D01*
X143353597Y-86443567D01*
X143358772Y-86443757D01*
X143358774Y-86443757D01*
X143571673Y-86451564D01*
X143571677Y-86451564D01*
X143576837Y-86451753D01*
X143581957Y-86451097D01*
X143581959Y-86451097D01*
X143793288Y-86424025D01*
X143793289Y-86424025D01*
X143798416Y-86423368D01*
X143803366Y-86421883D01*
X144007429Y-86360661D01*
X144007434Y-86360659D01*
X144012384Y-86359174D01*
X144212994Y-86260896D01*
X144394860Y-86131173D01*
X144553096Y-85973489D01*
X144683453Y-85792077D01*
X144684776Y-85793028D01*
X144731645Y-85749857D01*
X144801580Y-85737625D01*
X144867026Y-85765144D01*
X144894875Y-85796994D01*
X144954987Y-85895088D01*
X145101250Y-86063938D01*
X145273126Y-86206632D01*
X145466000Y-86319338D01*
X145674692Y-86399030D01*
X145679760Y-86400061D01*
X145679763Y-86400062D01*
X145774862Y-86419410D01*
X145893597Y-86443567D01*
X145898772Y-86443757D01*
X145898774Y-86443757D01*
X146111673Y-86451564D01*
X146111677Y-86451564D01*
X146116837Y-86451753D01*
X146121957Y-86451097D01*
X146121959Y-86451097D01*
X146333288Y-86424025D01*
X146333289Y-86424025D01*
X146338416Y-86423368D01*
X146343366Y-86421883D01*
X146547429Y-86360661D01*
X146547434Y-86360659D01*
X146552384Y-86359174D01*
X146752994Y-86260896D01*
X146934860Y-86131173D01*
X147093096Y-85973489D01*
X147223453Y-85792077D01*
X147224640Y-85792930D01*
X147271960Y-85749362D01*
X147341897Y-85737145D01*
X147407338Y-85764678D01*
X147435166Y-85796511D01*
X147492694Y-85890388D01*
X147498777Y-85898699D01*
X147638213Y-86059667D01*
X147645580Y-86066883D01*
X147809434Y-86202916D01*
X147817881Y-86208831D01*
X148001756Y-86316279D01*
X148011042Y-86320729D01*
X148210001Y-86396703D01*
X148219899Y-86399579D01*
X148323250Y-86420606D01*
X148337299Y-86419410D01*
X148341000Y-86409065D01*
X148341000Y-86408517D01*
X148849000Y-86408517D01*
X148853064Y-86422359D01*
X148866478Y-86424393D01*
X148873184Y-86423534D01*
X148883262Y-86421392D01*
X149087255Y-86360191D01*
X149096842Y-86356433D01*
X149288095Y-86262739D01*
X149296945Y-86257464D01*
X149470328Y-86133792D01*
X149478200Y-86127139D01*
X149629052Y-85976812D01*
X149635730Y-85968965D01*
X149760003Y-85796020D01*
X149765313Y-85787183D01*
X149859670Y-85596267D01*
X149863469Y-85586672D01*
X149925377Y-85382910D01*
X149927555Y-85372837D01*
X149928986Y-85361962D01*
X149926775Y-85347778D01*
X149913617Y-85344000D01*
X148867115Y-85344000D01*
X148851876Y-85348475D01*
X148850671Y-85349865D01*
X148849000Y-85357548D01*
X148849000Y-86408517D01*
X148341000Y-86408517D01*
X148341000Y-84817885D01*
X148849000Y-84817885D01*
X148853475Y-84833124D01*
X148854865Y-84834329D01*
X148862548Y-84836000D01*
X149913344Y-84836000D01*
X149926875Y-84832027D01*
X149928180Y-84822947D01*
X149886214Y-84655875D01*
X149882894Y-84646124D01*
X149797972Y-84450814D01*
X149793105Y-84441739D01*
X149677426Y-84262926D01*
X149671136Y-84254757D01*
X149527806Y-84097240D01*
X149520273Y-84090215D01*
X149353139Y-83958222D01*
X149344552Y-83952517D01*
X149158117Y-83849599D01*
X149148705Y-83845369D01*
X148947959Y-83774280D01*
X148937988Y-83771646D01*
X148866837Y-83758972D01*
X148853540Y-83760432D01*
X148849000Y-83774989D01*
X148849000Y-84817885D01*
X148341000Y-84817885D01*
X148341000Y-83773102D01*
X148337082Y-83759758D01*
X148322806Y-83757771D01*
X148284324Y-83763660D01*
X148274288Y-83766051D01*
X148071868Y-83832212D01*
X148062359Y-83836209D01*
X147873463Y-83934542D01*
X147864738Y-83940036D01*
X147694433Y-84067905D01*
X147686726Y-84074748D01*
X147539590Y-84228717D01*
X147533109Y-84236722D01*
X147428498Y-84390074D01*
X147373587Y-84435076D01*
X147303062Y-84443247D01*
X147239315Y-84411993D01*
X147218618Y-84387509D01*
X147137822Y-84262617D01*
X147137820Y-84262614D01*
X147135014Y-84258277D01*
X146984670Y-84093051D01*
X146980619Y-84089852D01*
X146980615Y-84089848D01*
X146813414Y-83957800D01*
X146813410Y-83957798D01*
X146809359Y-83954598D01*
X146804835Y-83952101D01*
X146804831Y-83952098D01*
X146753608Y-83923822D01*
X146703636Y-83873390D01*
X146688500Y-83813513D01*
X146688500Y-82224594D01*
X146708502Y-82156473D01*
X146725405Y-82135499D01*
X148180500Y-80680405D01*
X148242812Y-80646379D01*
X148269595Y-80643500D01*
X151049983Y-80643500D01*
X151061166Y-80644027D01*
X151068659Y-80645702D01*
X151076585Y-80645453D01*
X151076586Y-80645453D01*
X151136736Y-80643562D01*
X151140695Y-80643500D01*
X151168606Y-80643500D01*
X151172541Y-80643003D01*
X151172606Y-80642995D01*
X151184443Y-80642062D01*
X151216701Y-80641048D01*
X151220720Y-80640922D01*
X151228639Y-80640673D01*
X151248093Y-80635021D01*
X151267450Y-80631013D01*
X151279680Y-80629468D01*
X151279681Y-80629468D01*
X151287547Y-80628474D01*
X151294918Y-80625555D01*
X151294920Y-80625555D01*
X151328662Y-80612196D01*
X151339892Y-80608351D01*
X151374733Y-80598229D01*
X151374734Y-80598229D01*
X151382343Y-80596018D01*
X151389162Y-80591985D01*
X151389167Y-80591983D01*
X151399778Y-80585707D01*
X151417526Y-80577012D01*
X151436367Y-80569552D01*
X151472137Y-80543564D01*
X151482057Y-80537048D01*
X151513285Y-80518580D01*
X151513288Y-80518578D01*
X151520112Y-80514542D01*
X151534433Y-80500221D01*
X151549467Y-80487380D01*
X151559444Y-80480131D01*
X151565857Y-80475472D01*
X151594048Y-80441395D01*
X151602038Y-80432616D01*
X152777253Y-79257402D01*
X152785539Y-79249862D01*
X152792018Y-79245750D01*
X152838644Y-79196098D01*
X152841398Y-79193257D01*
X152861135Y-79173520D01*
X152863615Y-79170323D01*
X152871320Y-79161301D01*
X152896159Y-79134850D01*
X152901586Y-79129071D01*
X152905405Y-79122125D01*
X152905407Y-79122122D01*
X152911348Y-79111316D01*
X152922199Y-79094797D01*
X152929758Y-79085051D01*
X152934614Y-79078791D01*
X152937759Y-79071522D01*
X152937762Y-79071518D01*
X152952174Y-79038213D01*
X152957391Y-79027563D01*
X152978695Y-78988810D01*
X152983733Y-78969187D01*
X152990137Y-78950484D01*
X152995033Y-78939170D01*
X152995033Y-78939169D01*
X152998181Y-78931895D01*
X152999420Y-78924072D01*
X152999423Y-78924062D01*
X153005099Y-78888226D01*
X153007505Y-78876606D01*
X153016528Y-78841461D01*
X153016528Y-78841460D01*
X153018500Y-78833780D01*
X153018500Y-78813526D01*
X153020051Y-78793815D01*
X153021980Y-78781636D01*
X153023220Y-78773807D01*
X153019059Y-78729788D01*
X153018500Y-78717931D01*
X153018500Y-78064394D01*
X153038502Y-77996273D01*
X153072229Y-77961181D01*
X153224789Y-77854357D01*
X153224792Y-77854355D01*
X153229300Y-77851198D01*
X153391198Y-77689300D01*
X153522523Y-77501749D01*
X153524846Y-77496767D01*
X153524849Y-77496762D01*
X153616961Y-77299225D01*
X153616961Y-77299224D01*
X153619284Y-77294243D01*
X153678543Y-77073087D01*
X153698498Y-76845000D01*
X153678543Y-76616913D01*
X153677119Y-76611598D01*
X153677118Y-76611591D01*
X153661541Y-76553459D01*
X153663230Y-76482483D01*
X153694152Y-76431752D01*
X155170499Y-74955405D01*
X155232811Y-74921379D01*
X155259594Y-74918500D01*
X156260606Y-74918500D01*
X156328727Y-74938502D01*
X156363819Y-74972229D01*
X156473802Y-75129300D01*
X156635700Y-75291198D01*
X156640208Y-75294355D01*
X156640211Y-75294357D01*
X156718389Y-75349098D01*
X156823251Y-75422523D01*
X156828233Y-75424846D01*
X156828238Y-75424849D01*
X157025775Y-75516961D01*
X157030757Y-75519284D01*
X157036065Y-75520706D01*
X157036067Y-75520707D01*
X157246598Y-75577119D01*
X157246600Y-75577119D01*
X157251913Y-75578543D01*
X157480000Y-75598498D01*
X157708087Y-75578543D01*
X157713400Y-75577119D01*
X157713402Y-75577119D01*
X157923933Y-75520707D01*
X157923935Y-75520706D01*
X157929243Y-75519284D01*
X157934225Y-75516961D01*
X158131762Y-75424849D01*
X158131767Y-75424846D01*
X158136749Y-75422523D01*
X158241611Y-75349098D01*
X158319789Y-75294357D01*
X158319792Y-75294355D01*
X158324300Y-75291198D01*
X158486198Y-75129300D01*
X158617523Y-74941749D01*
X158619846Y-74936767D01*
X158619849Y-74936762D01*
X158711961Y-74739225D01*
X158711961Y-74739224D01*
X158714284Y-74734243D01*
X158773543Y-74513087D01*
X158793498Y-74285000D01*
X158773543Y-74056913D01*
X158721419Y-73862384D01*
X158715707Y-73841067D01*
X158715706Y-73841065D01*
X158714284Y-73835757D01*
X158701164Y-73807620D01*
X158619849Y-73633238D01*
X158619846Y-73633233D01*
X158617523Y-73628251D01*
X158486198Y-73440700D01*
X158324300Y-73278802D01*
X158319792Y-73275645D01*
X158319789Y-73275643D01*
X158141253Y-73150631D01*
X158136749Y-73147477D01*
X158131765Y-73145153D01*
X158129472Y-73143829D01*
X158080479Y-73092447D01*
X158067043Y-73022733D01*
X158093429Y-72956822D01*
X158129472Y-72925591D01*
X158141002Y-72918934D01*
X158193048Y-72882491D01*
X158201424Y-72872012D01*
X158194356Y-72858566D01*
X157492812Y-72157022D01*
X157478868Y-72149408D01*
X157477035Y-72149539D01*
X157470420Y-72153790D01*
X156764923Y-72859287D01*
X156758493Y-72871062D01*
X156767789Y-72883077D01*
X156818998Y-72918934D01*
X156830528Y-72925591D01*
X156879521Y-72976973D01*
X156892958Y-73046687D01*
X156866571Y-73112598D01*
X156830528Y-73143829D01*
X156828235Y-73145153D01*
X156823251Y-73147477D01*
X156818747Y-73150631D01*
X156640211Y-73275643D01*
X156640208Y-73275645D01*
X156635700Y-73278802D01*
X156473802Y-73440700D01*
X156470645Y-73445208D01*
X156470643Y-73445211D01*
X156363819Y-73597771D01*
X156308362Y-73642099D01*
X156260606Y-73651500D01*
X155023768Y-73651500D01*
X155012585Y-73650973D01*
X155005092Y-73649298D01*
X154997166Y-73649547D01*
X154997165Y-73649547D01*
X154937002Y-73651438D01*
X154933044Y-73651500D01*
X154905144Y-73651500D01*
X154901154Y-73652004D01*
X154889320Y-73652936D01*
X154845111Y-73654326D01*
X154837497Y-73656538D01*
X154837492Y-73656539D01*
X154825659Y-73659977D01*
X154806296Y-73663988D01*
X154786203Y-73666526D01*
X154778836Y-73669443D01*
X154778831Y-73669444D01*
X154745092Y-73682802D01*
X154733865Y-73686646D01*
X154691407Y-73698982D01*
X154684581Y-73703019D01*
X154673972Y-73709293D01*
X154656224Y-73717988D01*
X154637383Y-73725448D01*
X154630967Y-73730110D01*
X154630966Y-73730110D01*
X154601613Y-73751436D01*
X154591693Y-73757952D01*
X154560465Y-73776420D01*
X154560462Y-73776422D01*
X154553638Y-73780458D01*
X154539317Y-73794779D01*
X154524284Y-73807619D01*
X154507893Y-73819528D01*
X154479702Y-73853605D01*
X154471712Y-73862384D01*
X152798248Y-75535848D01*
X152735936Y-75569874D01*
X152676541Y-75568459D01*
X152618409Y-75552882D01*
X152618398Y-75552880D01*
X152613087Y-75551457D01*
X152385000Y-75531502D01*
X152156913Y-75551457D01*
X152151600Y-75552881D01*
X152151598Y-75552881D01*
X151941067Y-75609293D01*
X151941065Y-75609294D01*
X151935757Y-75610716D01*
X151930776Y-75613039D01*
X151930775Y-75613039D01*
X151733238Y-75705151D01*
X151733233Y-75705154D01*
X151728251Y-75707477D01*
X151623389Y-75780902D01*
X151545211Y-75835643D01*
X151545208Y-75835645D01*
X151540700Y-75838802D01*
X151378802Y-76000700D01*
X151247477Y-76188251D01*
X151245154Y-76193233D01*
X151245151Y-76193238D01*
X151229195Y-76227457D01*
X151182278Y-76280742D01*
X151114001Y-76300203D01*
X151046041Y-76279661D01*
X151000805Y-76227457D01*
X150984849Y-76193238D01*
X150984846Y-76193233D01*
X150982523Y-76188251D01*
X150851198Y-76000700D01*
X150689300Y-75838802D01*
X150684792Y-75835645D01*
X150684789Y-75835643D01*
X150606611Y-75780902D01*
X150501749Y-75707477D01*
X150496767Y-75705154D01*
X150496762Y-75705151D01*
X150299225Y-75613039D01*
X150299224Y-75613039D01*
X150294243Y-75610716D01*
X150288935Y-75609294D01*
X150288933Y-75609293D01*
X150078402Y-75552881D01*
X150078400Y-75552881D01*
X150073087Y-75551457D01*
X149845000Y-75531502D01*
X149616913Y-75551457D01*
X149611600Y-75552881D01*
X149611598Y-75552881D01*
X149401067Y-75609293D01*
X149401065Y-75609294D01*
X149395757Y-75610716D01*
X149390776Y-75613039D01*
X149390775Y-75613039D01*
X149193238Y-75705151D01*
X149193233Y-75705154D01*
X149188251Y-75707477D01*
X149083389Y-75780902D01*
X149005211Y-75835643D01*
X149005208Y-75835645D01*
X149000700Y-75838802D01*
X148838802Y-76000700D01*
X148707477Y-76188251D01*
X148705154Y-76193233D01*
X148705151Y-76193238D01*
X148689195Y-76227457D01*
X148642278Y-76280742D01*
X148574001Y-76300203D01*
X148506041Y-76279661D01*
X148460805Y-76227457D01*
X148444849Y-76193238D01*
X148444846Y-76193233D01*
X148442523Y-76188251D01*
X148311198Y-76000700D01*
X148149300Y-75838802D01*
X148144792Y-75835645D01*
X148144789Y-75835643D01*
X148066611Y-75780902D01*
X147961749Y-75707477D01*
X147956767Y-75705154D01*
X147956762Y-75705151D01*
X147759225Y-75613039D01*
X147759224Y-75613039D01*
X147754243Y-75610716D01*
X147748935Y-75609294D01*
X147748933Y-75609293D01*
X147538402Y-75552881D01*
X147538400Y-75552881D01*
X147533087Y-75551457D01*
X147305000Y-75531502D01*
X147076913Y-75551457D01*
X147071600Y-75552881D01*
X147071598Y-75552881D01*
X146861067Y-75609293D01*
X146861065Y-75609294D01*
X146855757Y-75610716D01*
X146850776Y-75613039D01*
X146850775Y-75613039D01*
X146653238Y-75705151D01*
X146653233Y-75705154D01*
X146648251Y-75707477D01*
X146543389Y-75780902D01*
X146465211Y-75835643D01*
X146465208Y-75835645D01*
X146460700Y-75838802D01*
X146298802Y-76000700D01*
X146167477Y-76188251D01*
X146165154Y-76193233D01*
X146165151Y-76193238D01*
X146148919Y-76228049D01*
X146102002Y-76281334D01*
X146033725Y-76300795D01*
X145965765Y-76280253D01*
X145920529Y-76228049D01*
X145904414Y-76193489D01*
X145898931Y-76183993D01*
X145773972Y-76005533D01*
X145766916Y-75997125D01*
X145612875Y-75843084D01*
X145604467Y-75836028D01*
X145426007Y-75711069D01*
X145416511Y-75705586D01*
X145219053Y-75613510D01*
X145208761Y-75609764D01*
X145036497Y-75563606D01*
X145022401Y-75563942D01*
X145019000Y-75571884D01*
X145019000Y-78112967D01*
X145022973Y-78126498D01*
X145031522Y-78127727D01*
X145208761Y-78080236D01*
X145219053Y-78076490D01*
X145416511Y-77984414D01*
X145426007Y-77978931D01*
X145604467Y-77853972D01*
X145612875Y-77846916D01*
X145766916Y-77692875D01*
X145773972Y-77684467D01*
X145898931Y-77506007D01*
X145904414Y-77496511D01*
X145920529Y-77461951D01*
X145967446Y-77408666D01*
X146035723Y-77389205D01*
X146103683Y-77409747D01*
X146148919Y-77461951D01*
X146165151Y-77496762D01*
X146165154Y-77496767D01*
X146167477Y-77501749D01*
X146298802Y-77689300D01*
X146460700Y-77851198D01*
X146465208Y-77854355D01*
X146465211Y-77854357D01*
X146543389Y-77909098D01*
X146648251Y-77982523D01*
X146653233Y-77984846D01*
X146653238Y-77984849D01*
X146823825Y-78064394D01*
X146855757Y-78079284D01*
X146861065Y-78080706D01*
X146861067Y-78080707D01*
X147071598Y-78137119D01*
X147071600Y-78137119D01*
X147076913Y-78138543D01*
X147305000Y-78158498D01*
X147533087Y-78138543D01*
X147538400Y-78137119D01*
X147538402Y-78137119D01*
X147748933Y-78080707D01*
X147748935Y-78080706D01*
X147754243Y-78079284D01*
X147786175Y-78064394D01*
X147956762Y-77984849D01*
X147956767Y-77984846D01*
X147961749Y-77982523D01*
X148066611Y-77909098D01*
X148144789Y-77854357D01*
X148144792Y-77854355D01*
X148149300Y-77851198D01*
X148311198Y-77689300D01*
X148442523Y-77501749D01*
X148444846Y-77496767D01*
X148444849Y-77496762D01*
X148460805Y-77462543D01*
X148507722Y-77409258D01*
X148575999Y-77389797D01*
X148643959Y-77410339D01*
X148689195Y-77462543D01*
X148705151Y-77496762D01*
X148705154Y-77496767D01*
X148707477Y-77501749D01*
X148838802Y-77689300D01*
X149000700Y-77851198D01*
X149005208Y-77854355D01*
X149005211Y-77854357D01*
X149083389Y-77909098D01*
X149188251Y-77982523D01*
X149193233Y-77984846D01*
X149193238Y-77984849D01*
X149363825Y-78064394D01*
X149395757Y-78079284D01*
X149401065Y-78080706D01*
X149401067Y-78080707D01*
X149611598Y-78137119D01*
X149611600Y-78137119D01*
X149616913Y-78138543D01*
X149845000Y-78158498D01*
X150073087Y-78138543D01*
X150078400Y-78137119D01*
X150078402Y-78137119D01*
X150288933Y-78080707D01*
X150288935Y-78080706D01*
X150294243Y-78079284D01*
X150326175Y-78064394D01*
X150496762Y-77984849D01*
X150496767Y-77984846D01*
X150501749Y-77982523D01*
X150606611Y-77909098D01*
X150684789Y-77854357D01*
X150684792Y-77854355D01*
X150689300Y-77851198D01*
X150851198Y-77689300D01*
X150982523Y-77501749D01*
X150984846Y-77496767D01*
X150984849Y-77496762D01*
X151000805Y-77462543D01*
X151047722Y-77409258D01*
X151115999Y-77389797D01*
X151183959Y-77410339D01*
X151229195Y-77462543D01*
X151245151Y-77496762D01*
X151245154Y-77496767D01*
X151247477Y-77501749D01*
X151378802Y-77689300D01*
X151540700Y-77851198D01*
X151545208Y-77854355D01*
X151545211Y-77854357D01*
X151697771Y-77961181D01*
X151742099Y-78016638D01*
X151751500Y-78064394D01*
X151751500Y-78439155D01*
X151731498Y-78507276D01*
X151714595Y-78528251D01*
X150903249Y-79339596D01*
X150840937Y-79373621D01*
X150814154Y-79376500D01*
X148033768Y-79376500D01*
X148022585Y-79375973D01*
X148015092Y-79374298D01*
X148007166Y-79374547D01*
X148007165Y-79374547D01*
X147947002Y-79376438D01*
X147943044Y-79376500D01*
X147915144Y-79376500D01*
X147911154Y-79377004D01*
X147899320Y-79377936D01*
X147855111Y-79379326D01*
X147847497Y-79381538D01*
X147847492Y-79381539D01*
X147835659Y-79384977D01*
X147816296Y-79388988D01*
X147796203Y-79391526D01*
X147788836Y-79394443D01*
X147788831Y-79394444D01*
X147755092Y-79407802D01*
X147743865Y-79411646D01*
X147701407Y-79423982D01*
X147694581Y-79428019D01*
X147683972Y-79434293D01*
X147666224Y-79442988D01*
X147647383Y-79450448D01*
X147640967Y-79455110D01*
X147640966Y-79455110D01*
X147611613Y-79476436D01*
X147601693Y-79482952D01*
X147570465Y-79501420D01*
X147570462Y-79501422D01*
X147563638Y-79505458D01*
X147549317Y-79519779D01*
X147534284Y-79532619D01*
X147517893Y-79544528D01*
X147509217Y-79555016D01*
X147489702Y-79578605D01*
X147481712Y-79587384D01*
X146139095Y-80930000D01*
X146076783Y-80964026D01*
X146005967Y-80958961D01*
X145960905Y-80930000D01*
X144648652Y-79617747D01*
X144641112Y-79609461D01*
X144637000Y-79602982D01*
X144587348Y-79556356D01*
X144584507Y-79553602D01*
X144564770Y-79533865D01*
X144561573Y-79531385D01*
X144552551Y-79523680D01*
X144539122Y-79511069D01*
X144520321Y-79493414D01*
X144513375Y-79489595D01*
X144513372Y-79489593D01*
X144502566Y-79483652D01*
X144486047Y-79472801D01*
X144485583Y-79472441D01*
X144470041Y-79460386D01*
X144462772Y-79457241D01*
X144462768Y-79457238D01*
X144429463Y-79442826D01*
X144418813Y-79437609D01*
X144380060Y-79416305D01*
X144360437Y-79411267D01*
X144341734Y-79404863D01*
X144330420Y-79399967D01*
X144330419Y-79399967D01*
X144323145Y-79396819D01*
X144315322Y-79395580D01*
X144315312Y-79395577D01*
X144279476Y-79389901D01*
X144267856Y-79387495D01*
X144232711Y-79378472D01*
X144232710Y-79378472D01*
X144225030Y-79376500D01*
X144204776Y-79376500D01*
X144185065Y-79374949D01*
X144176681Y-79373621D01*
X144165057Y-79371780D01*
X144135786Y-79374547D01*
X144121039Y-79375941D01*
X144109181Y-79376500D01*
X140624594Y-79376500D01*
X140556473Y-79356498D01*
X140535503Y-79339599D01*
X139567492Y-78371587D01*
X139533468Y-78309277D01*
X139538533Y-78238461D01*
X139581080Y-78181626D01*
X139647600Y-78156815D01*
X139667572Y-78156974D01*
X139679515Y-78158019D01*
X139679525Y-78158019D01*
X139685000Y-78158498D01*
X139913087Y-78138543D01*
X139918400Y-78137119D01*
X139918402Y-78137119D01*
X140128933Y-78080707D01*
X140128935Y-78080706D01*
X140134243Y-78079284D01*
X140166175Y-78064394D01*
X140336762Y-77984849D01*
X140336767Y-77984846D01*
X140341749Y-77982523D01*
X140446611Y-77909098D01*
X140524789Y-77854357D01*
X140524792Y-77854355D01*
X140529300Y-77851198D01*
X140691198Y-77689300D01*
X140822523Y-77501749D01*
X140824846Y-77496767D01*
X140824849Y-77496762D01*
X140840805Y-77462543D01*
X140887722Y-77409258D01*
X140955999Y-77389797D01*
X141023959Y-77410339D01*
X141069195Y-77462543D01*
X141085151Y-77496762D01*
X141085154Y-77496767D01*
X141087477Y-77501749D01*
X141218802Y-77689300D01*
X141380700Y-77851198D01*
X141385208Y-77854355D01*
X141385211Y-77854357D01*
X141463389Y-77909098D01*
X141568251Y-77982523D01*
X141573233Y-77984846D01*
X141573238Y-77984849D01*
X141743825Y-78064394D01*
X141775757Y-78079284D01*
X141781065Y-78080706D01*
X141781067Y-78080707D01*
X141991598Y-78137119D01*
X141991600Y-78137119D01*
X141996913Y-78138543D01*
X142225000Y-78158498D01*
X142453087Y-78138543D01*
X142458400Y-78137119D01*
X142458402Y-78137119D01*
X142668933Y-78080707D01*
X142668935Y-78080706D01*
X142674243Y-78079284D01*
X142706175Y-78064394D01*
X142876762Y-77984849D01*
X142876767Y-77984846D01*
X142881749Y-77982523D01*
X142986611Y-77909098D01*
X143064789Y-77854357D01*
X143064792Y-77854355D01*
X143069300Y-77851198D01*
X143231198Y-77689300D01*
X143362523Y-77501749D01*
X143364846Y-77496767D01*
X143364849Y-77496762D01*
X143381081Y-77461951D01*
X143427998Y-77408666D01*
X143496275Y-77389205D01*
X143564235Y-77409747D01*
X143609471Y-77461951D01*
X143625586Y-77496511D01*
X143631069Y-77506007D01*
X143756028Y-77684467D01*
X143763084Y-77692875D01*
X143917125Y-77846916D01*
X143925533Y-77853972D01*
X144103993Y-77978931D01*
X144113489Y-77984414D01*
X144310947Y-78076490D01*
X144321239Y-78080236D01*
X144493503Y-78126394D01*
X144507599Y-78126058D01*
X144511000Y-78118116D01*
X144511000Y-75577033D01*
X144507027Y-75563502D01*
X144498478Y-75562273D01*
X144321239Y-75609764D01*
X144310947Y-75613510D01*
X144113489Y-75705586D01*
X144103993Y-75711069D01*
X143925533Y-75836028D01*
X143917125Y-75843084D01*
X143763084Y-75997125D01*
X143756028Y-76005533D01*
X143631069Y-76183993D01*
X143625586Y-76193489D01*
X143609471Y-76228049D01*
X143562554Y-76281334D01*
X143494277Y-76300795D01*
X143426317Y-76280253D01*
X143381081Y-76228049D01*
X143364849Y-76193238D01*
X143364846Y-76193233D01*
X143362523Y-76188251D01*
X143231198Y-76000700D01*
X143069300Y-75838802D01*
X143064792Y-75835645D01*
X143064789Y-75835643D01*
X142986611Y-75780902D01*
X142881749Y-75707477D01*
X142876767Y-75705154D01*
X142876762Y-75705151D01*
X142679225Y-75613039D01*
X142679224Y-75613039D01*
X142674243Y-75610716D01*
X142668935Y-75609294D01*
X142668933Y-75609293D01*
X142458402Y-75552881D01*
X142458400Y-75552881D01*
X142453087Y-75551457D01*
X142225000Y-75531502D01*
X141996913Y-75551457D01*
X141991600Y-75552881D01*
X141991598Y-75552881D01*
X141781067Y-75609293D01*
X141781065Y-75609294D01*
X141775757Y-75610716D01*
X141770776Y-75613039D01*
X141770775Y-75613039D01*
X141573238Y-75705151D01*
X141573233Y-75705154D01*
X141568251Y-75707477D01*
X141463389Y-75780902D01*
X141385211Y-75835643D01*
X141385208Y-75835645D01*
X141380700Y-75838802D01*
X141218802Y-76000700D01*
X141087477Y-76188251D01*
X141085154Y-76193233D01*
X141085151Y-76193238D01*
X141069195Y-76227457D01*
X141022278Y-76280742D01*
X140954001Y-76300203D01*
X140886041Y-76279661D01*
X140840805Y-76227457D01*
X140824849Y-76193238D01*
X140824846Y-76193233D01*
X140822523Y-76188251D01*
X140691198Y-76000700D01*
X140529300Y-75838802D01*
X140524792Y-75835645D01*
X140524789Y-75835643D01*
X140446611Y-75780902D01*
X140341749Y-75707477D01*
X140336767Y-75705154D01*
X140336762Y-75705151D01*
X140139225Y-75613039D01*
X140139224Y-75613039D01*
X140134243Y-75610716D01*
X140128935Y-75609294D01*
X140128933Y-75609293D01*
X139918402Y-75552881D01*
X139918400Y-75552881D01*
X139913087Y-75551457D01*
X139685000Y-75531502D01*
X139456913Y-75551457D01*
X139451600Y-75552881D01*
X139451598Y-75552881D01*
X139241067Y-75609293D01*
X139241065Y-75609294D01*
X139235757Y-75610716D01*
X139230776Y-75613039D01*
X139230775Y-75613039D01*
X139033238Y-75705151D01*
X139033233Y-75705154D01*
X139028251Y-75707477D01*
X138923389Y-75780902D01*
X138845211Y-75835643D01*
X138845208Y-75835645D01*
X138840700Y-75838802D01*
X138678802Y-76000700D01*
X138547477Y-76188251D01*
X138545154Y-76193233D01*
X138545151Y-76193238D01*
X138529195Y-76227457D01*
X138482278Y-76280742D01*
X138414001Y-76300203D01*
X138346041Y-76279661D01*
X138300805Y-76227457D01*
X138284849Y-76193238D01*
X138284846Y-76193233D01*
X138282523Y-76188251D01*
X138151198Y-76000700D01*
X137989300Y-75838802D01*
X137984792Y-75835645D01*
X137984789Y-75835643D01*
X137906611Y-75780902D01*
X137801749Y-75707477D01*
X137796767Y-75705154D01*
X137796762Y-75705151D01*
X137599225Y-75613039D01*
X137599224Y-75613039D01*
X137594243Y-75610716D01*
X137588935Y-75609294D01*
X137588933Y-75609293D01*
X137378402Y-75552881D01*
X137378400Y-75552881D01*
X137373087Y-75551457D01*
X137145000Y-75531502D01*
X136916913Y-75551457D01*
X136911600Y-75552881D01*
X136911598Y-75552881D01*
X136701067Y-75609293D01*
X136701065Y-75609294D01*
X136695757Y-75610716D01*
X136690776Y-75613039D01*
X136690775Y-75613039D01*
X136493238Y-75705151D01*
X136493233Y-75705154D01*
X136488251Y-75707477D01*
X136383389Y-75780902D01*
X136305211Y-75835643D01*
X136305208Y-75835645D01*
X136300700Y-75838802D01*
X136138802Y-76000700D01*
X136007477Y-76188251D01*
X136005154Y-76193233D01*
X136005151Y-76193238D01*
X135989195Y-76227457D01*
X135942278Y-76280742D01*
X135874001Y-76300203D01*
X135806041Y-76279661D01*
X135760805Y-76227457D01*
X135744849Y-76193238D01*
X135744846Y-76193233D01*
X135742523Y-76188251D01*
X135611198Y-76000700D01*
X135449300Y-75838802D01*
X135444792Y-75835645D01*
X135444789Y-75835643D01*
X135366611Y-75780902D01*
X135261749Y-75707477D01*
X135256767Y-75705154D01*
X135256762Y-75705151D01*
X135059225Y-75613039D01*
X135059224Y-75613039D01*
X135054243Y-75610716D01*
X135048935Y-75609294D01*
X135048933Y-75609293D01*
X134838402Y-75552881D01*
X134838400Y-75552881D01*
X134833087Y-75551457D01*
X134605000Y-75531502D01*
X134376913Y-75551457D01*
X134371600Y-75552881D01*
X134371598Y-75552881D01*
X134161067Y-75609293D01*
X134161065Y-75609294D01*
X134155757Y-75610716D01*
X134150776Y-75613039D01*
X134150775Y-75613039D01*
X133953238Y-75705151D01*
X133953233Y-75705154D01*
X133948251Y-75707477D01*
X133843389Y-75780902D01*
X133765211Y-75835643D01*
X133765208Y-75835645D01*
X133760700Y-75838802D01*
X133598802Y-76000700D01*
X133467477Y-76188251D01*
X133465154Y-76193233D01*
X133465151Y-76193238D01*
X133465034Y-76193489D01*
X133370716Y-76395757D01*
X133369294Y-76401065D01*
X133369293Y-76401067D01*
X133312883Y-76611591D01*
X133311457Y-76616913D01*
X133291502Y-76845000D01*
X118308500Y-76845000D01*
X118308500Y-71790475D01*
X156167483Y-71790475D01*
X156186472Y-72007519D01*
X156188375Y-72018312D01*
X156244764Y-72228761D01*
X156248510Y-72239053D01*
X156340586Y-72436511D01*
X156346069Y-72446006D01*
X156382509Y-72498048D01*
X156392988Y-72506424D01*
X156406434Y-72499356D01*
X157107978Y-71797812D01*
X157114356Y-71786132D01*
X157844408Y-71786132D01*
X157844539Y-71787965D01*
X157848790Y-71794580D01*
X158554287Y-72500077D01*
X158566062Y-72506507D01*
X158578077Y-72497211D01*
X158613931Y-72446006D01*
X158619414Y-72436511D01*
X158711490Y-72239053D01*
X158715236Y-72228761D01*
X158771625Y-72018312D01*
X158773528Y-72007519D01*
X158792517Y-71790475D01*
X158792517Y-71779525D01*
X158773528Y-71562481D01*
X158771625Y-71551688D01*
X158715236Y-71341239D01*
X158711490Y-71330947D01*
X158619414Y-71133489D01*
X158613931Y-71123994D01*
X158577491Y-71071952D01*
X158567012Y-71063576D01*
X158553566Y-71070644D01*
X157852022Y-71772188D01*
X157844408Y-71786132D01*
X157114356Y-71786132D01*
X157115592Y-71783868D01*
X157115461Y-71782035D01*
X157111210Y-71775420D01*
X156405713Y-71069923D01*
X156393938Y-71063493D01*
X156381923Y-71072789D01*
X156346069Y-71123994D01*
X156340586Y-71133489D01*
X156248510Y-71330947D01*
X156244764Y-71341239D01*
X156188375Y-71551688D01*
X156186472Y-71562481D01*
X156167483Y-71779525D01*
X156167483Y-71790475D01*
X118308500Y-71790475D01*
X118308500Y-70697988D01*
X156758576Y-70697988D01*
X156765644Y-70711434D01*
X157467188Y-71412978D01*
X157481132Y-71420592D01*
X157482965Y-71420461D01*
X157489580Y-71416210D01*
X158195077Y-70710713D01*
X158201507Y-70698938D01*
X158192211Y-70686923D01*
X158141006Y-70651069D01*
X158131511Y-70645586D01*
X157934053Y-70553510D01*
X157923761Y-70549764D01*
X157713312Y-70493375D01*
X157702519Y-70491472D01*
X157485475Y-70472483D01*
X157474525Y-70472483D01*
X157257481Y-70491472D01*
X157246688Y-70493375D01*
X157036239Y-70549764D01*
X157025947Y-70553510D01*
X156828489Y-70645586D01*
X156818994Y-70651069D01*
X156766952Y-70687509D01*
X156758576Y-70697988D01*
X118308500Y-70697988D01*
X118308500Y-69491522D01*
X133322273Y-69491522D01*
X133369764Y-69668761D01*
X133373510Y-69679053D01*
X133465586Y-69876511D01*
X133471069Y-69886007D01*
X133596028Y-70064467D01*
X133603084Y-70072875D01*
X133757125Y-70226916D01*
X133765533Y-70233972D01*
X133943993Y-70358931D01*
X133953489Y-70364414D01*
X134150947Y-70456490D01*
X134161239Y-70460236D01*
X134333503Y-70506394D01*
X134347599Y-70506058D01*
X134351000Y-70498116D01*
X134351000Y-70492967D01*
X134859000Y-70492967D01*
X134862973Y-70506498D01*
X134871522Y-70507727D01*
X135048761Y-70460236D01*
X135059053Y-70456490D01*
X135256511Y-70364414D01*
X135266007Y-70358931D01*
X135444467Y-70233972D01*
X135452875Y-70226916D01*
X135606916Y-70072875D01*
X135613972Y-70064467D01*
X135738931Y-69886007D01*
X135744414Y-69876511D01*
X135760529Y-69841951D01*
X135807446Y-69788666D01*
X135875723Y-69769205D01*
X135943683Y-69789747D01*
X135988919Y-69841951D01*
X136005151Y-69876762D01*
X136005154Y-69876767D01*
X136007477Y-69881749D01*
X136138802Y-70069300D01*
X136300700Y-70231198D01*
X136305208Y-70234355D01*
X136305211Y-70234357D01*
X136346542Y-70263297D01*
X136488251Y-70362523D01*
X136493233Y-70364846D01*
X136493238Y-70364849D01*
X136689765Y-70456490D01*
X136695757Y-70459284D01*
X136701065Y-70460706D01*
X136701067Y-70460707D01*
X136911598Y-70517119D01*
X136911600Y-70517119D01*
X136916913Y-70518543D01*
X137145000Y-70538498D01*
X137373087Y-70518543D01*
X137378400Y-70517119D01*
X137378402Y-70517119D01*
X137588933Y-70460707D01*
X137588935Y-70460706D01*
X137594243Y-70459284D01*
X137600235Y-70456490D01*
X137796762Y-70364849D01*
X137796767Y-70364846D01*
X137801749Y-70362523D01*
X137943458Y-70263297D01*
X137984789Y-70234357D01*
X137984792Y-70234355D01*
X137989300Y-70231198D01*
X138151198Y-70069300D01*
X138282523Y-69881749D01*
X138284846Y-69876767D01*
X138284849Y-69876762D01*
X138300805Y-69842543D01*
X138347722Y-69789258D01*
X138415999Y-69769797D01*
X138483959Y-69790339D01*
X138529195Y-69842543D01*
X138545151Y-69876762D01*
X138545154Y-69876767D01*
X138547477Y-69881749D01*
X138678802Y-70069300D01*
X138840700Y-70231198D01*
X138845208Y-70234355D01*
X138845211Y-70234357D01*
X138886542Y-70263297D01*
X139028251Y-70362523D01*
X139033233Y-70364846D01*
X139033238Y-70364849D01*
X139229765Y-70456490D01*
X139235757Y-70459284D01*
X139241065Y-70460706D01*
X139241067Y-70460707D01*
X139451598Y-70517119D01*
X139451600Y-70517119D01*
X139456913Y-70518543D01*
X139685000Y-70538498D01*
X139913087Y-70518543D01*
X139918400Y-70517119D01*
X139918402Y-70517119D01*
X140128933Y-70460707D01*
X140128935Y-70460706D01*
X140134243Y-70459284D01*
X140140235Y-70456490D01*
X140336762Y-70364849D01*
X140336767Y-70364846D01*
X140341749Y-70362523D01*
X140483458Y-70263297D01*
X140524789Y-70234357D01*
X140524792Y-70234355D01*
X140529300Y-70231198D01*
X140691198Y-70069300D01*
X140822523Y-69881749D01*
X140824846Y-69876767D01*
X140824849Y-69876762D01*
X140840805Y-69842543D01*
X140887722Y-69789258D01*
X140955999Y-69769797D01*
X141023959Y-69790339D01*
X141069195Y-69842543D01*
X141085151Y-69876762D01*
X141085154Y-69876767D01*
X141087477Y-69881749D01*
X141218802Y-70069300D01*
X141380700Y-70231198D01*
X141385208Y-70234355D01*
X141385211Y-70234357D01*
X141426542Y-70263297D01*
X141568251Y-70362523D01*
X141573233Y-70364846D01*
X141573238Y-70364849D01*
X141769765Y-70456490D01*
X141775757Y-70459284D01*
X141781065Y-70460706D01*
X141781067Y-70460707D01*
X141991598Y-70517119D01*
X141991600Y-70517119D01*
X141996913Y-70518543D01*
X142225000Y-70538498D01*
X142453087Y-70518543D01*
X142458400Y-70517119D01*
X142458402Y-70517119D01*
X142668933Y-70460707D01*
X142668935Y-70460706D01*
X142674243Y-70459284D01*
X142680235Y-70456490D01*
X142876762Y-70364849D01*
X142876767Y-70364846D01*
X142881749Y-70362523D01*
X143023458Y-70263297D01*
X143064789Y-70234357D01*
X143064792Y-70234355D01*
X143069300Y-70231198D01*
X143231198Y-70069300D01*
X143362523Y-69881749D01*
X143364846Y-69876767D01*
X143364849Y-69876762D01*
X143380805Y-69842543D01*
X143427722Y-69789258D01*
X143495999Y-69769797D01*
X143563959Y-69790339D01*
X143609195Y-69842543D01*
X143625151Y-69876762D01*
X143625154Y-69876767D01*
X143627477Y-69881749D01*
X143758802Y-70069300D01*
X143920700Y-70231198D01*
X143925208Y-70234355D01*
X143925211Y-70234357D01*
X143966542Y-70263297D01*
X144108251Y-70362523D01*
X144113233Y-70364846D01*
X144113238Y-70364849D01*
X144309765Y-70456490D01*
X144315757Y-70459284D01*
X144321065Y-70460706D01*
X144321067Y-70460707D01*
X144531598Y-70517119D01*
X144531600Y-70517119D01*
X144536913Y-70518543D01*
X144765000Y-70538498D01*
X144993087Y-70518543D01*
X144998400Y-70517119D01*
X144998402Y-70517119D01*
X145208933Y-70460707D01*
X145208935Y-70460706D01*
X145214243Y-70459284D01*
X145220235Y-70456490D01*
X145416762Y-70364849D01*
X145416767Y-70364846D01*
X145421749Y-70362523D01*
X145563458Y-70263297D01*
X145604789Y-70234357D01*
X145604792Y-70234355D01*
X145609300Y-70231198D01*
X145771198Y-70069300D01*
X145902523Y-69881749D01*
X145904846Y-69876767D01*
X145904849Y-69876762D01*
X145920805Y-69842543D01*
X145967722Y-69789258D01*
X146035999Y-69769797D01*
X146103959Y-69790339D01*
X146149195Y-69842543D01*
X146165151Y-69876762D01*
X146165154Y-69876767D01*
X146167477Y-69881749D01*
X146298802Y-70069300D01*
X146460700Y-70231198D01*
X146465208Y-70234355D01*
X146465211Y-70234357D01*
X146506542Y-70263297D01*
X146648251Y-70362523D01*
X146653233Y-70364846D01*
X146653238Y-70364849D01*
X146849765Y-70456490D01*
X146855757Y-70459284D01*
X146861065Y-70460706D01*
X146861067Y-70460707D01*
X147071598Y-70517119D01*
X147071600Y-70517119D01*
X147076913Y-70518543D01*
X147305000Y-70538498D01*
X147533087Y-70518543D01*
X147538400Y-70517119D01*
X147538402Y-70517119D01*
X147748933Y-70460707D01*
X147748935Y-70460706D01*
X147754243Y-70459284D01*
X147760235Y-70456490D01*
X147956762Y-70364849D01*
X147956767Y-70364846D01*
X147961749Y-70362523D01*
X148103458Y-70263297D01*
X148144789Y-70234357D01*
X148144792Y-70234355D01*
X148149300Y-70231198D01*
X148311198Y-70069300D01*
X148442523Y-69881749D01*
X148444846Y-69876767D01*
X148444849Y-69876762D01*
X148460805Y-69842543D01*
X148507722Y-69789258D01*
X148575999Y-69769797D01*
X148643959Y-69790339D01*
X148689195Y-69842543D01*
X148705151Y-69876762D01*
X148705154Y-69876767D01*
X148707477Y-69881749D01*
X148838802Y-70069300D01*
X149000700Y-70231198D01*
X149005208Y-70234355D01*
X149005211Y-70234357D01*
X149046542Y-70263297D01*
X149188251Y-70362523D01*
X149193233Y-70364846D01*
X149193238Y-70364849D01*
X149389765Y-70456490D01*
X149395757Y-70459284D01*
X149401065Y-70460706D01*
X149401067Y-70460707D01*
X149611598Y-70517119D01*
X149611600Y-70517119D01*
X149616913Y-70518543D01*
X149845000Y-70538498D01*
X150073087Y-70518543D01*
X150078400Y-70517119D01*
X150078402Y-70517119D01*
X150288933Y-70460707D01*
X150288935Y-70460706D01*
X150294243Y-70459284D01*
X150300235Y-70456490D01*
X150496762Y-70364849D01*
X150496767Y-70364846D01*
X150501749Y-70362523D01*
X150643458Y-70263297D01*
X150684789Y-70234357D01*
X150684792Y-70234355D01*
X150689300Y-70231198D01*
X150851198Y-70069300D01*
X150854357Y-70064789D01*
X150857892Y-70060576D01*
X150859026Y-70061527D01*
X150909071Y-70021529D01*
X150979690Y-70014224D01*
X151043049Y-70046258D01*
X151079030Y-70107462D01*
X151082082Y-70124517D01*
X151083255Y-70135316D01*
X151134385Y-70271705D01*
X151221739Y-70388261D01*
X151338295Y-70475615D01*
X151474684Y-70526745D01*
X151536866Y-70533500D01*
X153233134Y-70533500D01*
X153295316Y-70526745D01*
X153431705Y-70475615D01*
X153548261Y-70388261D01*
X153635615Y-70271705D01*
X153686745Y-70135316D01*
X153693500Y-70073134D01*
X153693500Y-69984500D01*
X153713502Y-69916379D01*
X153767158Y-69869886D01*
X153819500Y-69858500D01*
X163106233Y-69858500D01*
X163117416Y-69859027D01*
X163124909Y-69860702D01*
X163132835Y-69860453D01*
X163132836Y-69860453D01*
X163192986Y-69858562D01*
X163196945Y-69858500D01*
X163224856Y-69858500D01*
X163228791Y-69858003D01*
X163228856Y-69857995D01*
X163240693Y-69857062D01*
X163272951Y-69856048D01*
X163276970Y-69855922D01*
X163284889Y-69855673D01*
X163304343Y-69850021D01*
X163323700Y-69846013D01*
X163335930Y-69844468D01*
X163335931Y-69844468D01*
X163343797Y-69843474D01*
X163351168Y-69840555D01*
X163351170Y-69840555D01*
X163384912Y-69827196D01*
X163396142Y-69823351D01*
X163430983Y-69813229D01*
X163430984Y-69813229D01*
X163438593Y-69811018D01*
X163445412Y-69806985D01*
X163445417Y-69806983D01*
X163456028Y-69800707D01*
X163473776Y-69792012D01*
X163492617Y-69784552D01*
X163528387Y-69758564D01*
X163538307Y-69752048D01*
X163569535Y-69733580D01*
X163569538Y-69733578D01*
X163576362Y-69729542D01*
X163590683Y-69715221D01*
X163605717Y-69702380D01*
X163615694Y-69695131D01*
X163622107Y-69690472D01*
X163650298Y-69656395D01*
X163658288Y-69647616D01*
X164857247Y-68448657D01*
X164865537Y-68441113D01*
X164872018Y-68437000D01*
X164918659Y-68387332D01*
X164921413Y-68384491D01*
X164941134Y-68364770D01*
X164943612Y-68361575D01*
X164951318Y-68352553D01*
X164976158Y-68326101D01*
X164981586Y-68320321D01*
X164991346Y-68302568D01*
X165002199Y-68286045D01*
X165009753Y-68276306D01*
X165014613Y-68270041D01*
X165032176Y-68229457D01*
X165037383Y-68218827D01*
X165058695Y-68180060D01*
X165060666Y-68172383D01*
X165060668Y-68172378D01*
X165063732Y-68160442D01*
X165070138Y-68141730D01*
X165075034Y-68130417D01*
X165078181Y-68123145D01*
X165083262Y-68091069D01*
X165085097Y-68079481D01*
X165087504Y-68067860D01*
X165096528Y-68032711D01*
X165096528Y-68032710D01*
X165098500Y-68025030D01*
X165098500Y-68004769D01*
X165100051Y-67985058D01*
X165101742Y-67974385D01*
X165103219Y-67965057D01*
X165099059Y-67921046D01*
X165098500Y-67909189D01*
X165098500Y-50878768D01*
X165099027Y-50867585D01*
X165100702Y-50860092D01*
X165098562Y-50792001D01*
X165098500Y-50788044D01*
X165098500Y-50760144D01*
X165097996Y-50756153D01*
X165097063Y-50744311D01*
X165095923Y-50708036D01*
X165095674Y-50700111D01*
X165090021Y-50680652D01*
X165086012Y-50661293D01*
X165085846Y-50659983D01*
X165083474Y-50641203D01*
X165080558Y-50633837D01*
X165080556Y-50633831D01*
X165067200Y-50600098D01*
X165063355Y-50588868D01*
X165053230Y-50554017D01*
X165053230Y-50554016D01*
X165051019Y-50546407D01*
X165045927Y-50537797D01*
X165040705Y-50528966D01*
X165032008Y-50511213D01*
X165027472Y-50499758D01*
X165024552Y-50492383D01*
X164998563Y-50456612D01*
X164992047Y-50446692D01*
X164990788Y-50444563D01*
X164969542Y-50408638D01*
X164955221Y-50394317D01*
X164942380Y-50379283D01*
X164940098Y-50376142D01*
X164930472Y-50362893D01*
X164896395Y-50334702D01*
X164887616Y-50326712D01*
X163684102Y-49123198D01*
X162286708Y-47725803D01*
X162252683Y-47663493D01*
X162257748Y-47592678D01*
X162260923Y-47584957D01*
X162263044Y-47580248D01*
X162264967Y-47575980D01*
X162333896Y-47331575D01*
X162347516Y-47224517D01*
X162365545Y-47082798D01*
X162365545Y-47082792D01*
X162365943Y-47079667D01*
X162368291Y-46990000D01*
X162365673Y-46954766D01*
X162349818Y-46741411D01*
X162349817Y-46741407D01*
X162349472Y-46736759D01*
X162337296Y-46682946D01*
X162299153Y-46514381D01*
X162293428Y-46489082D01*
X162201391Y-46252409D01*
X162180866Y-46216498D01*
X162077702Y-46035997D01*
X162077700Y-46035995D01*
X162075383Y-46031940D01*
X161918171Y-45832517D01*
X161733209Y-45658523D01*
X161689483Y-45628189D01*
X161528393Y-45516437D01*
X161528390Y-45516435D01*
X161524561Y-45513779D01*
X161520384Y-45511719D01*
X161520377Y-45511715D01*
X161300996Y-45403528D01*
X161300992Y-45403527D01*
X161296810Y-45401464D01*
X161054960Y-45324047D01*
X161050355Y-45323297D01*
X160808935Y-45283980D01*
X160808934Y-45283980D01*
X160804323Y-45283229D01*
X160677364Y-45281567D01*
X160555083Y-45279966D01*
X160555080Y-45279966D01*
X160550406Y-45279905D01*
X160298787Y-45314149D01*
X160054993Y-45385208D01*
X159824380Y-45491522D01*
X159820471Y-45494085D01*
X159615928Y-45628189D01*
X159615923Y-45628193D01*
X159612015Y-45630755D01*
X159422562Y-45799848D01*
X159260183Y-45995087D01*
X159128447Y-46212182D01*
X159030246Y-46446365D01*
X159029095Y-46450897D01*
X159029094Y-46450900D01*
X159012972Y-46514381D01*
X158967738Y-46692490D01*
X158942296Y-46945151D01*
X158942520Y-46949817D01*
X158942520Y-46949822D01*
X158944633Y-46993810D01*
X158954480Y-47198798D01*
X159004021Y-47447857D01*
X159005600Y-47452255D01*
X159005602Y-47452262D01*
X159081442Y-47663493D01*
X159089831Y-47686858D01*
X159210025Y-47910551D01*
X159212820Y-47914294D01*
X159212822Y-47914297D01*
X159359171Y-48110282D01*
X159359176Y-48110288D01*
X159361963Y-48114020D01*
X159365272Y-48117300D01*
X159365277Y-48117306D01*
X159463859Y-48215031D01*
X159542307Y-48292797D01*
X159546069Y-48295555D01*
X159546072Y-48295558D01*
X159651764Y-48373054D01*
X159747094Y-48442953D01*
X159751229Y-48445129D01*
X159751233Y-48445131D01*
X159869289Y-48507243D01*
X159971827Y-48561191D01*
X160211568Y-48644912D01*
X160461050Y-48692278D01*
X160581532Y-48697011D01*
X160710125Y-48702064D01*
X160710130Y-48702064D01*
X160714793Y-48702247D01*
X160813774Y-48691407D01*
X160962569Y-48675112D01*
X160962575Y-48675111D01*
X160967222Y-48674602D01*
X161076680Y-48645784D01*
X161208273Y-48611138D01*
X161212793Y-48609948D01*
X161229761Y-48602658D01*
X161250632Y-48593692D01*
X161321117Y-48585181D01*
X161389462Y-48620366D01*
X163794595Y-51025499D01*
X163828621Y-51087811D01*
X163831500Y-51114594D01*
X163831500Y-67630405D01*
X163811498Y-67698526D01*
X163794595Y-67719500D01*
X162959500Y-68554595D01*
X162897188Y-68588621D01*
X162870405Y-68591500D01*
X153819500Y-68591500D01*
X153751379Y-68571498D01*
X153704886Y-68517842D01*
X153693500Y-68465500D01*
X153693500Y-68376866D01*
X153686745Y-68314684D01*
X153635615Y-68178295D01*
X153610711Y-68145065D01*
X153585862Y-68078560D01*
X153600914Y-68009177D01*
X153651088Y-67958947D01*
X153711536Y-67943500D01*
X160576233Y-67943500D01*
X160587416Y-67944027D01*
X160594909Y-67945702D01*
X160602835Y-67945453D01*
X160602836Y-67945453D01*
X160662986Y-67943562D01*
X160666945Y-67943500D01*
X160694856Y-67943500D01*
X160698791Y-67943003D01*
X160698856Y-67942995D01*
X160710693Y-67942062D01*
X160742951Y-67941048D01*
X160746970Y-67940922D01*
X160754889Y-67940673D01*
X160774343Y-67935021D01*
X160793700Y-67931013D01*
X160805930Y-67929468D01*
X160805931Y-67929468D01*
X160813797Y-67928474D01*
X160821168Y-67925555D01*
X160821170Y-67925555D01*
X160854912Y-67912196D01*
X160866142Y-67908351D01*
X160900983Y-67898229D01*
X160900984Y-67898229D01*
X160908593Y-67896018D01*
X160915412Y-67891985D01*
X160915417Y-67891983D01*
X160926028Y-67885707D01*
X160943776Y-67877012D01*
X160962617Y-67869552D01*
X160998387Y-67843564D01*
X161008307Y-67837048D01*
X161039535Y-67818580D01*
X161039538Y-67818578D01*
X161046362Y-67814542D01*
X161060683Y-67800221D01*
X161075717Y-67787380D01*
X161092107Y-67775472D01*
X161120298Y-67741395D01*
X161128288Y-67732616D01*
X162317247Y-66543657D01*
X162325537Y-66536113D01*
X162332018Y-66532000D01*
X162378659Y-66482332D01*
X162381413Y-66479491D01*
X162401134Y-66459770D01*
X162403612Y-66456575D01*
X162411318Y-66447553D01*
X162436158Y-66421101D01*
X162441586Y-66415321D01*
X162451346Y-66397568D01*
X162462199Y-66381045D01*
X162469753Y-66371306D01*
X162474613Y-66365041D01*
X162492176Y-66324457D01*
X162497383Y-66313827D01*
X162518695Y-66275060D01*
X162520666Y-66267383D01*
X162520668Y-66267378D01*
X162523732Y-66255442D01*
X162530138Y-66236730D01*
X162535033Y-66225419D01*
X162538181Y-66218145D01*
X162539421Y-66210317D01*
X162539423Y-66210310D01*
X162545099Y-66174476D01*
X162547505Y-66162856D01*
X162556528Y-66127711D01*
X162556528Y-66127710D01*
X162558500Y-66120030D01*
X162558500Y-66099776D01*
X162560051Y-66080065D01*
X162561980Y-66067886D01*
X162563220Y-66060057D01*
X162559059Y-66016038D01*
X162558500Y-66004181D01*
X162558500Y-57228767D01*
X162559027Y-57217584D01*
X162560702Y-57210091D01*
X162558562Y-57142014D01*
X162558500Y-57138055D01*
X162558500Y-57110144D01*
X162557995Y-57106144D01*
X162557062Y-57094301D01*
X162555922Y-57058029D01*
X162555673Y-57050110D01*
X162550022Y-57030658D01*
X162546014Y-57011306D01*
X162544467Y-56999063D01*
X162543474Y-56991203D01*
X162540556Y-56983832D01*
X162527200Y-56950097D01*
X162523355Y-56938870D01*
X162522721Y-56936687D01*
X162511018Y-56896407D01*
X162506984Y-56889585D01*
X162506981Y-56889579D01*
X162500706Y-56878968D01*
X162492010Y-56861218D01*
X162487472Y-56849756D01*
X162487469Y-56849751D01*
X162484552Y-56842383D01*
X162458573Y-56806625D01*
X162452057Y-56796707D01*
X162433575Y-56765457D01*
X162429542Y-56758637D01*
X162415218Y-56744313D01*
X162402376Y-56729278D01*
X162390472Y-56712893D01*
X162356406Y-56684711D01*
X162347627Y-56676722D01*
X161158652Y-55487747D01*
X161151112Y-55479461D01*
X161147000Y-55472982D01*
X161097348Y-55426356D01*
X161094507Y-55423602D01*
X161074770Y-55403865D01*
X161071573Y-55401385D01*
X161062551Y-55393680D01*
X161030321Y-55363414D01*
X161023375Y-55359595D01*
X161023372Y-55359593D01*
X161012566Y-55353652D01*
X160996047Y-55342801D01*
X160987749Y-55336365D01*
X160980041Y-55330386D01*
X160972772Y-55327241D01*
X160972768Y-55327238D01*
X160939463Y-55312826D01*
X160928813Y-55307609D01*
X160890060Y-55286305D01*
X160880616Y-55283880D01*
X160875654Y-55282606D01*
X160870437Y-55281267D01*
X160851734Y-55274863D01*
X160840420Y-55269967D01*
X160840419Y-55269967D01*
X160833145Y-55266819D01*
X160825322Y-55265580D01*
X160825312Y-55265577D01*
X160789476Y-55259901D01*
X160777856Y-55257495D01*
X160742711Y-55248472D01*
X160742710Y-55248472D01*
X160735030Y-55246500D01*
X160714776Y-55246500D01*
X160695065Y-55244949D01*
X160682886Y-55243020D01*
X160675057Y-55241780D01*
X160667165Y-55242526D01*
X160631039Y-55245941D01*
X160619181Y-55246500D01*
X160423063Y-55246500D01*
X160354942Y-55226498D01*
X160308449Y-55172842D01*
X160305630Y-55166167D01*
X160298084Y-55146762D01*
X160298083Y-55146760D01*
X160296391Y-55142409D01*
X160275392Y-55105668D01*
X160172702Y-54925997D01*
X160172700Y-54925995D01*
X160170383Y-54921940D01*
X160013171Y-54722517D01*
X159861803Y-54580125D01*
X159831610Y-54551722D01*
X159831608Y-54551720D01*
X159828209Y-54548523D01*
X159784483Y-54518189D01*
X159623393Y-54406437D01*
X159623390Y-54406435D01*
X159619561Y-54403779D01*
X159615384Y-54401719D01*
X159615377Y-54401715D01*
X159395996Y-54293528D01*
X159395992Y-54293527D01*
X159391810Y-54291464D01*
X159149960Y-54214047D01*
X159145355Y-54213297D01*
X158903935Y-54173980D01*
X158903934Y-54173980D01*
X158899323Y-54173229D01*
X158772364Y-54171567D01*
X158650083Y-54169966D01*
X158650080Y-54169966D01*
X158645406Y-54169905D01*
X158393787Y-54204149D01*
X158149993Y-54275208D01*
X158145740Y-54277168D01*
X158145739Y-54277169D01*
X158117818Y-54290041D01*
X157919380Y-54381522D01*
X157915471Y-54384085D01*
X157710928Y-54518189D01*
X157710923Y-54518193D01*
X157707015Y-54520755D01*
X157633870Y-54586039D01*
X157544619Y-54665699D01*
X157517562Y-54689848D01*
X157355183Y-54885087D01*
X157223447Y-55102182D01*
X157221638Y-55106496D01*
X157221637Y-55106498D01*
X157135117Y-55312826D01*
X157125246Y-55336365D01*
X157124095Y-55340897D01*
X157124094Y-55340900D01*
X157102731Y-55425016D01*
X157062738Y-55582490D01*
X157037296Y-55835151D01*
X157049480Y-56088798D01*
X157099021Y-56337857D01*
X157100600Y-56342255D01*
X157100602Y-56342262D01*
X157145022Y-56465980D01*
X157184831Y-56576858D01*
X157187048Y-56580984D01*
X157271039Y-56737299D01*
X157305025Y-56800551D01*
X157307820Y-56804294D01*
X157307822Y-56804297D01*
X157454171Y-57000282D01*
X157454176Y-57000288D01*
X157456963Y-57004020D01*
X157460272Y-57007300D01*
X157460277Y-57007306D01*
X157633990Y-57179509D01*
X157637307Y-57182797D01*
X157641069Y-57185555D01*
X157641072Y-57185558D01*
X157663720Y-57202164D01*
X157842094Y-57332953D01*
X157846229Y-57335129D01*
X157846233Y-57335131D01*
X157922960Y-57375499D01*
X158066827Y-57451191D01*
X158306568Y-57534912D01*
X158556050Y-57582278D01*
X158676532Y-57587011D01*
X158805125Y-57592064D01*
X158805130Y-57592064D01*
X158809793Y-57592247D01*
X158908774Y-57581407D01*
X159057569Y-57565112D01*
X159057575Y-57565111D01*
X159062222Y-57564602D01*
X159171680Y-57535784D01*
X159303273Y-57501138D01*
X159307793Y-57499948D01*
X159452422Y-57437811D01*
X159536807Y-57401557D01*
X159536810Y-57401555D01*
X159541110Y-57399708D01*
X159545090Y-57397245D01*
X159545094Y-57397243D01*
X159753064Y-57268547D01*
X159753066Y-57268545D01*
X159757047Y-57266082D01*
X159760624Y-57263054D01*
X159947289Y-57105031D01*
X159947291Y-57105029D01*
X159950862Y-57102006D01*
X160118295Y-56911084D01*
X160122842Y-56904016D01*
X160253141Y-56701442D01*
X160255669Y-56697512D01*
X160257586Y-56693257D01*
X160257589Y-56693251D01*
X160280396Y-56642621D01*
X160326612Y-56588726D01*
X160394629Y-56568374D01*
X160462852Y-56588025D01*
X160484373Y-56605277D01*
X161254595Y-57375499D01*
X161288621Y-57437811D01*
X161291500Y-57464594D01*
X161291500Y-65725405D01*
X161271498Y-65793526D01*
X161254595Y-65814500D01*
X160429500Y-66639595D01*
X160367188Y-66673621D01*
X160340405Y-66676500D01*
X150573767Y-66676500D01*
X150562584Y-66675973D01*
X150555091Y-66674298D01*
X150547165Y-66674547D01*
X150547164Y-66674547D01*
X150487001Y-66676438D01*
X150483043Y-66676500D01*
X150455144Y-66676500D01*
X150451154Y-66677004D01*
X150439320Y-66677936D01*
X150395111Y-66679326D01*
X150387497Y-66681538D01*
X150387492Y-66681539D01*
X150375659Y-66684977D01*
X150356296Y-66688988D01*
X150336203Y-66691526D01*
X150328836Y-66694443D01*
X150328831Y-66694444D01*
X150295092Y-66707802D01*
X150283865Y-66711646D01*
X150241407Y-66723982D01*
X150234581Y-66728019D01*
X150223972Y-66734293D01*
X150206224Y-66742988D01*
X150187383Y-66750448D01*
X150180967Y-66755110D01*
X150180966Y-66755110D01*
X150151613Y-66776436D01*
X150141693Y-66782952D01*
X150110465Y-66801420D01*
X150110462Y-66801422D01*
X150103638Y-66805458D01*
X150089317Y-66819779D01*
X150074284Y-66832619D01*
X150057893Y-66844528D01*
X150031516Y-66876413D01*
X150029712Y-66878593D01*
X150021722Y-66887374D01*
X149452742Y-67456353D01*
X149444463Y-67463887D01*
X149437982Y-67468000D01*
X149391357Y-67517651D01*
X149388602Y-67520493D01*
X149368865Y-67540230D01*
X149366385Y-67543427D01*
X149358682Y-67552447D01*
X149328414Y-67584679D01*
X149324595Y-67591625D01*
X149324593Y-67591628D01*
X149318652Y-67602434D01*
X149307801Y-67618953D01*
X149295386Y-67634959D01*
X149292241Y-67642228D01*
X149292238Y-67642232D01*
X149277826Y-67675537D01*
X149272609Y-67686187D01*
X149251305Y-67724940D01*
X149249334Y-67732615D01*
X149249334Y-67732616D01*
X149246267Y-67744562D01*
X149239863Y-67763266D01*
X149231819Y-67781855D01*
X149230580Y-67789678D01*
X149230577Y-67789688D01*
X149224901Y-67825524D01*
X149222495Y-67837144D01*
X149211500Y-67879970D01*
X149211500Y-67900224D01*
X149209949Y-67919934D01*
X149206780Y-67939943D01*
X149207526Y-67947835D01*
X149210941Y-67983961D01*
X149211500Y-67995819D01*
X149211500Y-68005606D01*
X149191498Y-68073727D01*
X149157771Y-68108819D01*
X149005211Y-68215643D01*
X149005208Y-68215645D01*
X149000700Y-68218802D01*
X148838802Y-68380700D01*
X148835645Y-68385208D01*
X148835643Y-68385211D01*
X148833012Y-68388969D01*
X148707477Y-68568251D01*
X148705154Y-68573233D01*
X148705151Y-68573238D01*
X148689195Y-68607457D01*
X148642278Y-68660742D01*
X148574001Y-68680203D01*
X148506041Y-68659661D01*
X148460805Y-68607457D01*
X148444849Y-68573238D01*
X148444846Y-68573233D01*
X148442523Y-68568251D01*
X148316988Y-68388969D01*
X148314357Y-68385211D01*
X148314355Y-68385208D01*
X148311198Y-68380700D01*
X148149300Y-68218802D01*
X148144792Y-68215645D01*
X148144789Y-68215643D01*
X148039230Y-68141730D01*
X147961749Y-68087477D01*
X147956767Y-68085154D01*
X147956762Y-68085151D01*
X147759225Y-67993039D01*
X147759224Y-67993039D01*
X147754243Y-67990716D01*
X147748935Y-67989294D01*
X147748933Y-67989293D01*
X147538402Y-67932881D01*
X147538400Y-67932881D01*
X147533087Y-67931457D01*
X147305000Y-67911502D01*
X147076913Y-67931457D01*
X147071600Y-67932881D01*
X147071598Y-67932881D01*
X146861067Y-67989293D01*
X146861065Y-67989294D01*
X146855757Y-67990716D01*
X146850776Y-67993039D01*
X146850775Y-67993039D01*
X146653238Y-68085151D01*
X146653233Y-68085154D01*
X146648251Y-68087477D01*
X146570770Y-68141730D01*
X146465211Y-68215643D01*
X146465208Y-68215645D01*
X146460700Y-68218802D01*
X146298802Y-68380700D01*
X146295645Y-68385208D01*
X146295643Y-68385211D01*
X146293012Y-68388969D01*
X146167477Y-68568251D01*
X146165154Y-68573233D01*
X146165151Y-68573238D01*
X146149195Y-68607457D01*
X146102278Y-68660742D01*
X146034001Y-68680203D01*
X145966041Y-68659661D01*
X145920805Y-68607457D01*
X145904849Y-68573238D01*
X145904846Y-68573233D01*
X145902523Y-68568251D01*
X145776988Y-68388969D01*
X145774357Y-68385211D01*
X145774355Y-68385208D01*
X145771198Y-68380700D01*
X145609300Y-68218802D01*
X145604792Y-68215645D01*
X145604789Y-68215643D01*
X145499230Y-68141730D01*
X145421749Y-68087477D01*
X145416767Y-68085154D01*
X145416762Y-68085151D01*
X145219225Y-67993039D01*
X145219224Y-67993039D01*
X145214243Y-67990716D01*
X145208935Y-67989294D01*
X145208933Y-67989293D01*
X144998402Y-67932881D01*
X144998400Y-67932881D01*
X144993087Y-67931457D01*
X144765000Y-67911502D01*
X144536913Y-67931457D01*
X144531600Y-67932881D01*
X144531598Y-67932881D01*
X144321067Y-67989293D01*
X144321065Y-67989294D01*
X144315757Y-67990716D01*
X144310776Y-67993039D01*
X144310775Y-67993039D01*
X144113238Y-68085151D01*
X144113233Y-68085154D01*
X144108251Y-68087477D01*
X144030770Y-68141730D01*
X143925211Y-68215643D01*
X143925208Y-68215645D01*
X143920700Y-68218802D01*
X143758802Y-68380700D01*
X143755645Y-68385208D01*
X143755643Y-68385211D01*
X143753012Y-68388969D01*
X143627477Y-68568251D01*
X143625154Y-68573233D01*
X143625151Y-68573238D01*
X143609195Y-68607457D01*
X143562278Y-68660742D01*
X143494001Y-68680203D01*
X143426041Y-68659661D01*
X143380805Y-68607457D01*
X143364849Y-68573238D01*
X143364846Y-68573233D01*
X143362523Y-68568251D01*
X143236988Y-68388969D01*
X143234357Y-68385211D01*
X143234355Y-68385208D01*
X143231198Y-68380700D01*
X143069300Y-68218802D01*
X143064792Y-68215645D01*
X143064789Y-68215643D01*
X142959230Y-68141730D01*
X142881749Y-68087477D01*
X142876767Y-68085154D01*
X142876762Y-68085151D01*
X142679225Y-67993039D01*
X142679224Y-67993039D01*
X142674243Y-67990716D01*
X142668935Y-67989294D01*
X142668933Y-67989293D01*
X142458402Y-67932881D01*
X142458400Y-67932881D01*
X142453087Y-67931457D01*
X142225000Y-67911502D01*
X141996913Y-67931457D01*
X141991600Y-67932881D01*
X141991598Y-67932881D01*
X141781067Y-67989293D01*
X141781065Y-67989294D01*
X141775757Y-67990716D01*
X141770776Y-67993039D01*
X141770775Y-67993039D01*
X141573238Y-68085151D01*
X141573233Y-68085154D01*
X141568251Y-68087477D01*
X141490770Y-68141730D01*
X141385211Y-68215643D01*
X141385208Y-68215645D01*
X141380700Y-68218802D01*
X141218802Y-68380700D01*
X141215645Y-68385208D01*
X141215643Y-68385211D01*
X141213012Y-68388969D01*
X141087477Y-68568251D01*
X141085154Y-68573233D01*
X141085151Y-68573238D01*
X141069195Y-68607457D01*
X141022278Y-68660742D01*
X140954001Y-68680203D01*
X140886041Y-68659661D01*
X140840805Y-68607457D01*
X140824849Y-68573238D01*
X140824846Y-68573233D01*
X140822523Y-68568251D01*
X140696988Y-68388969D01*
X140694357Y-68385211D01*
X140694355Y-68385208D01*
X140691198Y-68380700D01*
X140529300Y-68218802D01*
X140524792Y-68215645D01*
X140524789Y-68215643D01*
X140419230Y-68141730D01*
X140341749Y-68087477D01*
X140336767Y-68085154D01*
X140336762Y-68085151D01*
X140139225Y-67993039D01*
X140139224Y-67993039D01*
X140134243Y-67990716D01*
X140128935Y-67989294D01*
X140128933Y-67989293D01*
X139918402Y-67932881D01*
X139918400Y-67932881D01*
X139913087Y-67931457D01*
X139685000Y-67911502D01*
X139456913Y-67931457D01*
X139451600Y-67932881D01*
X139451598Y-67932881D01*
X139241067Y-67989293D01*
X139241065Y-67989294D01*
X139235757Y-67990716D01*
X139230776Y-67993039D01*
X139230775Y-67993039D01*
X139033238Y-68085151D01*
X139033233Y-68085154D01*
X139028251Y-68087477D01*
X138950770Y-68141730D01*
X138845211Y-68215643D01*
X138845208Y-68215645D01*
X138840700Y-68218802D01*
X138678802Y-68380700D01*
X138675645Y-68385208D01*
X138675643Y-68385211D01*
X138673012Y-68388969D01*
X138547477Y-68568251D01*
X138545154Y-68573233D01*
X138545151Y-68573238D01*
X138529195Y-68607457D01*
X138482278Y-68660742D01*
X138414001Y-68680203D01*
X138346041Y-68659661D01*
X138300805Y-68607457D01*
X138284849Y-68573238D01*
X138284846Y-68573233D01*
X138282523Y-68568251D01*
X138156988Y-68388969D01*
X138154357Y-68385211D01*
X138154355Y-68385208D01*
X138151198Y-68380700D01*
X137989300Y-68218802D01*
X137984792Y-68215645D01*
X137984789Y-68215643D01*
X137832229Y-68108819D01*
X137787901Y-68053362D01*
X137778500Y-68005606D01*
X137778500Y-67004594D01*
X137798502Y-66936473D01*
X137815405Y-66915499D01*
X138655499Y-66075405D01*
X138717811Y-66041379D01*
X138744594Y-66038500D01*
X154861233Y-66038500D01*
X154872416Y-66039027D01*
X154879909Y-66040702D01*
X154887835Y-66040453D01*
X154887836Y-66040453D01*
X154947986Y-66038562D01*
X154951945Y-66038500D01*
X154979856Y-66038500D01*
X154983791Y-66038003D01*
X154983856Y-66037995D01*
X154995693Y-66037062D01*
X155027951Y-66036048D01*
X155031970Y-66035922D01*
X155039889Y-66035673D01*
X155059343Y-66030021D01*
X155078700Y-66026013D01*
X155090930Y-66024468D01*
X155090931Y-66024468D01*
X155098797Y-66023474D01*
X155106168Y-66020555D01*
X155106170Y-66020555D01*
X155139912Y-66007196D01*
X155151142Y-66003351D01*
X155185983Y-65993229D01*
X155185984Y-65993229D01*
X155193593Y-65991018D01*
X155200412Y-65986985D01*
X155200417Y-65986983D01*
X155211028Y-65980707D01*
X155228776Y-65972012D01*
X155247617Y-65964552D01*
X155283387Y-65938564D01*
X155293307Y-65932048D01*
X155324535Y-65913580D01*
X155324538Y-65913578D01*
X155331362Y-65909542D01*
X155345683Y-65895221D01*
X155360717Y-65882380D01*
X155370694Y-65875131D01*
X155377107Y-65870472D01*
X155405298Y-65836395D01*
X155413288Y-65827616D01*
X158016728Y-63224176D01*
X158079040Y-63190150D01*
X158147364Y-63194316D01*
X158302151Y-63248370D01*
X158302157Y-63248372D01*
X158306568Y-63249912D01*
X158556050Y-63297278D01*
X158676532Y-63302011D01*
X158805125Y-63307064D01*
X158805130Y-63307064D01*
X158809793Y-63307247D01*
X158908774Y-63296407D01*
X159057569Y-63280112D01*
X159057575Y-63280111D01*
X159062222Y-63279602D01*
X159171680Y-63250784D01*
X159303273Y-63216138D01*
X159307793Y-63214948D01*
X159426353Y-63164011D01*
X159536807Y-63116557D01*
X159536810Y-63116555D01*
X159541110Y-63114708D01*
X159545090Y-63112245D01*
X159545094Y-63112243D01*
X159753064Y-62983547D01*
X159753066Y-62983545D01*
X159757047Y-62981082D01*
X159855428Y-62897797D01*
X159947289Y-62820031D01*
X159947291Y-62820029D01*
X159950862Y-62817006D01*
X160118295Y-62626084D01*
X160255669Y-62412512D01*
X160359967Y-62180980D01*
X160428896Y-61936575D01*
X160460943Y-61684667D01*
X160463291Y-61595000D01*
X160444472Y-61341759D01*
X160388428Y-61094082D01*
X160296391Y-60857409D01*
X160275866Y-60821498D01*
X160172702Y-60640997D01*
X160172700Y-60640995D01*
X160170383Y-60636940D01*
X160013171Y-60437517D01*
X159828209Y-60263523D01*
X159784483Y-60233189D01*
X159623393Y-60121437D01*
X159623390Y-60121435D01*
X159619561Y-60118779D01*
X159615384Y-60116719D01*
X159615377Y-60116715D01*
X159395996Y-60008528D01*
X159395992Y-60008527D01*
X159391810Y-60006464D01*
X159149960Y-59929047D01*
X159145355Y-59928297D01*
X158903935Y-59888980D01*
X158903934Y-59888980D01*
X158899323Y-59888229D01*
X158772364Y-59886567D01*
X158650083Y-59884966D01*
X158650080Y-59884966D01*
X158645406Y-59884905D01*
X158393787Y-59919149D01*
X158149993Y-59990208D01*
X157919380Y-60096522D01*
X157915471Y-60099085D01*
X157710928Y-60233189D01*
X157710923Y-60233193D01*
X157707015Y-60235755D01*
X157517562Y-60404848D01*
X157355183Y-60600087D01*
X157223447Y-60817182D01*
X157221638Y-60821496D01*
X157221637Y-60821498D01*
X157147255Y-60998880D01*
X157125246Y-61051365D01*
X157062738Y-61297490D01*
X157037296Y-61550151D01*
X157049480Y-61803798D01*
X157099021Y-62052857D01*
X157100600Y-62057255D01*
X157100602Y-62057262D01*
X157150547Y-62196369D01*
X157154741Y-62267241D01*
X157121054Y-62328041D01*
X154714500Y-64734595D01*
X154652188Y-64768621D01*
X154625405Y-64771500D01*
X138508763Y-64771500D01*
X138497579Y-64770973D01*
X138490091Y-64769299D01*
X138482168Y-64769548D01*
X138422033Y-64771438D01*
X138418075Y-64771500D01*
X138390144Y-64771500D01*
X138386229Y-64771995D01*
X138386225Y-64771995D01*
X138386167Y-64772003D01*
X138386138Y-64772006D01*
X138374296Y-64772939D01*
X138330110Y-64774327D01*
X138312744Y-64779372D01*
X138310658Y-64779978D01*
X138291306Y-64783986D01*
X138279068Y-64785532D01*
X138279066Y-64785533D01*
X138271203Y-64786526D01*
X138230086Y-64802806D01*
X138218885Y-64806641D01*
X138176406Y-64818982D01*
X138169587Y-64823015D01*
X138169582Y-64823017D01*
X138158971Y-64829293D01*
X138141221Y-64837990D01*
X138122383Y-64845448D01*
X138115967Y-64850109D01*
X138115966Y-64850110D01*
X138086625Y-64871428D01*
X138076701Y-64877947D01*
X138045460Y-64896422D01*
X138045455Y-64896426D01*
X138038637Y-64900458D01*
X138024313Y-64914782D01*
X138009281Y-64927621D01*
X137992893Y-64939528D01*
X137964712Y-64973593D01*
X137956722Y-64982373D01*
X136752747Y-66186348D01*
X136744461Y-66193888D01*
X136737982Y-66198000D01*
X136732557Y-66203777D01*
X136691357Y-66247651D01*
X136688602Y-66250493D01*
X136668865Y-66270230D01*
X136666385Y-66273427D01*
X136658682Y-66282447D01*
X136628414Y-66314679D01*
X136624595Y-66321625D01*
X136624593Y-66321628D01*
X136618652Y-66332434D01*
X136607801Y-66348953D01*
X136595386Y-66364959D01*
X136592241Y-66372228D01*
X136592238Y-66372232D01*
X136577826Y-66405537D01*
X136572609Y-66416187D01*
X136551305Y-66454940D01*
X136549334Y-66462615D01*
X136549334Y-66462616D01*
X136546267Y-66474562D01*
X136539863Y-66493266D01*
X136531819Y-66511855D01*
X136530580Y-66519678D01*
X136530577Y-66519688D01*
X136524901Y-66555524D01*
X136522495Y-66567144D01*
X136511500Y-66609970D01*
X136511500Y-66630224D01*
X136509949Y-66649934D01*
X136506780Y-66669943D01*
X136507526Y-66677835D01*
X136510941Y-66713961D01*
X136511500Y-66725819D01*
X136511500Y-68005606D01*
X136491498Y-68073727D01*
X136457771Y-68108819D01*
X136305211Y-68215643D01*
X136305208Y-68215645D01*
X136300700Y-68218802D01*
X136138802Y-68380700D01*
X136135645Y-68385208D01*
X136135643Y-68385211D01*
X136133012Y-68388969D01*
X136007477Y-68568251D01*
X136005154Y-68573233D01*
X136005151Y-68573238D01*
X135988919Y-68608049D01*
X135942002Y-68661334D01*
X135873725Y-68680795D01*
X135805765Y-68660253D01*
X135760529Y-68608049D01*
X135744414Y-68573489D01*
X135738931Y-68563993D01*
X135613972Y-68385533D01*
X135606916Y-68377125D01*
X135452875Y-68223084D01*
X135444467Y-68216028D01*
X135266007Y-68091069D01*
X135256511Y-68085586D01*
X135059053Y-67993510D01*
X135048761Y-67989764D01*
X134876497Y-67943606D01*
X134862401Y-67943942D01*
X134859000Y-67951884D01*
X134859000Y-70492967D01*
X134351000Y-70492967D01*
X134351000Y-69497115D01*
X134346525Y-69481876D01*
X134345135Y-69480671D01*
X134337452Y-69479000D01*
X133337033Y-69479000D01*
X133323502Y-69482973D01*
X133322273Y-69491522D01*
X118308500Y-69491522D01*
X118308500Y-68953503D01*
X133323606Y-68953503D01*
X133323942Y-68967599D01*
X133331884Y-68971000D01*
X134332885Y-68971000D01*
X134348124Y-68966525D01*
X134349329Y-68965135D01*
X134351000Y-68957452D01*
X134351000Y-67957033D01*
X134347027Y-67943502D01*
X134338478Y-67942273D01*
X134161239Y-67989764D01*
X134150947Y-67993510D01*
X133953489Y-68085586D01*
X133943993Y-68091069D01*
X133765533Y-68216028D01*
X133757125Y-68223084D01*
X133603084Y-68377125D01*
X133596028Y-68385533D01*
X133471069Y-68563993D01*
X133465586Y-68573489D01*
X133373510Y-68770947D01*
X133369764Y-68781239D01*
X133323606Y-68953503D01*
X118308500Y-68953503D01*
X118308500Y-61550151D01*
X124017296Y-61550151D01*
X124029480Y-61803798D01*
X124079021Y-62052857D01*
X124080600Y-62057255D01*
X124080602Y-62057262D01*
X124125022Y-62180980D01*
X124164831Y-62291858D01*
X124285025Y-62515551D01*
X124287820Y-62519294D01*
X124287822Y-62519297D01*
X124434171Y-62715282D01*
X124434176Y-62715288D01*
X124436963Y-62719020D01*
X124440272Y-62722300D01*
X124440277Y-62722306D01*
X124538859Y-62820031D01*
X124617307Y-62897797D01*
X124621069Y-62900555D01*
X124621072Y-62900558D01*
X124726764Y-62978054D01*
X124822094Y-63047953D01*
X124826229Y-63050129D01*
X124826233Y-63050131D01*
X124944289Y-63112243D01*
X125046827Y-63166191D01*
X125286568Y-63249912D01*
X125536050Y-63297278D01*
X125656532Y-63302011D01*
X125785125Y-63307064D01*
X125785130Y-63307064D01*
X125789793Y-63307247D01*
X125888774Y-63296407D01*
X126037569Y-63280112D01*
X126037575Y-63280111D01*
X126042222Y-63279602D01*
X126151680Y-63250784D01*
X126283273Y-63216138D01*
X126287793Y-63214948D01*
X126406353Y-63164011D01*
X126516807Y-63116557D01*
X126516810Y-63116555D01*
X126521110Y-63114708D01*
X126525090Y-63112245D01*
X126525094Y-63112243D01*
X126733064Y-62983547D01*
X126733066Y-62983545D01*
X126737047Y-62981082D01*
X126835428Y-62897797D01*
X126927289Y-62820031D01*
X126927291Y-62820029D01*
X126930862Y-62817006D01*
X127098295Y-62626084D01*
X127235669Y-62412512D01*
X127339967Y-62180980D01*
X127408896Y-61936575D01*
X127440943Y-61684667D01*
X127443291Y-61595000D01*
X127424472Y-61341759D01*
X127368428Y-61094082D01*
X127276391Y-60857409D01*
X127255866Y-60821498D01*
X127152702Y-60640997D01*
X127152700Y-60640995D01*
X127150383Y-60636940D01*
X126993171Y-60437517D01*
X126808209Y-60263523D01*
X126764483Y-60233189D01*
X126603393Y-60121437D01*
X126603390Y-60121435D01*
X126599561Y-60118779D01*
X126595384Y-60116719D01*
X126595377Y-60116715D01*
X126375996Y-60008528D01*
X126375992Y-60008527D01*
X126371810Y-60006464D01*
X126129960Y-59929047D01*
X126125355Y-59928297D01*
X125883935Y-59888980D01*
X125883934Y-59888980D01*
X125879323Y-59888229D01*
X125752364Y-59886567D01*
X125630083Y-59884966D01*
X125630080Y-59884966D01*
X125625406Y-59884905D01*
X125373787Y-59919149D01*
X125129993Y-59990208D01*
X124899380Y-60096522D01*
X124895471Y-60099085D01*
X124690928Y-60233189D01*
X124690923Y-60233193D01*
X124687015Y-60235755D01*
X124497562Y-60404848D01*
X124335183Y-60600087D01*
X124203447Y-60817182D01*
X124201638Y-60821496D01*
X124201637Y-60821498D01*
X124127255Y-60998880D01*
X124105246Y-61051365D01*
X124042738Y-61297490D01*
X124017296Y-61550151D01*
X118308500Y-61550151D01*
X118308500Y-55835151D01*
X124017296Y-55835151D01*
X124029480Y-56088798D01*
X124079021Y-56337857D01*
X124080600Y-56342255D01*
X124080602Y-56342262D01*
X124125022Y-56465980D01*
X124164831Y-56576858D01*
X124167048Y-56580984D01*
X124251039Y-56737299D01*
X124285025Y-56800551D01*
X124287820Y-56804294D01*
X124287822Y-56804297D01*
X124434171Y-57000282D01*
X124434176Y-57000288D01*
X124436963Y-57004020D01*
X124440272Y-57007300D01*
X124440277Y-57007306D01*
X124613990Y-57179509D01*
X124617307Y-57182797D01*
X124621069Y-57185555D01*
X124621072Y-57185558D01*
X124643720Y-57202164D01*
X124822094Y-57332953D01*
X124826229Y-57335129D01*
X124826233Y-57335131D01*
X124902960Y-57375499D01*
X125046827Y-57451191D01*
X125286568Y-57534912D01*
X125536050Y-57582278D01*
X125656532Y-57587011D01*
X125785125Y-57592064D01*
X125785130Y-57592064D01*
X125789793Y-57592247D01*
X125888774Y-57581407D01*
X126037569Y-57565112D01*
X126037575Y-57565111D01*
X126042222Y-57564602D01*
X126151680Y-57535784D01*
X126283273Y-57501138D01*
X126287793Y-57499948D01*
X126432422Y-57437811D01*
X126516807Y-57401557D01*
X126516810Y-57401555D01*
X126521110Y-57399708D01*
X126525090Y-57397245D01*
X126525094Y-57397243D01*
X126733064Y-57268547D01*
X126733066Y-57268545D01*
X126737047Y-57266082D01*
X126740624Y-57263054D01*
X126927289Y-57105031D01*
X126927291Y-57105029D01*
X126930862Y-57102006D01*
X127098295Y-56911084D01*
X127102842Y-56904016D01*
X127233141Y-56701442D01*
X127235669Y-56697512D01*
X127339967Y-56465980D01*
X127408896Y-56221575D01*
X127440943Y-55969667D01*
X127443291Y-55880000D01*
X127424472Y-55626759D01*
X127391604Y-55481502D01*
X127369459Y-55383639D01*
X127368428Y-55379082D01*
X127366735Y-55374728D01*
X127278084Y-55146762D01*
X127278083Y-55146760D01*
X127276391Y-55142409D01*
X127255392Y-55105668D01*
X127152702Y-54925997D01*
X127152700Y-54925995D01*
X127150383Y-54921940D01*
X126993171Y-54722517D01*
X126841803Y-54580125D01*
X126811610Y-54551722D01*
X126811608Y-54551720D01*
X126808209Y-54548523D01*
X126764483Y-54518189D01*
X126603393Y-54406437D01*
X126603390Y-54406435D01*
X126599561Y-54403779D01*
X126595384Y-54401719D01*
X126595377Y-54401715D01*
X126375996Y-54293528D01*
X126375992Y-54293527D01*
X126371810Y-54291464D01*
X126129960Y-54214047D01*
X126125355Y-54213297D01*
X125883935Y-54173980D01*
X125883934Y-54173980D01*
X125879323Y-54173229D01*
X125752364Y-54171567D01*
X125630083Y-54169966D01*
X125630080Y-54169966D01*
X125625406Y-54169905D01*
X125373787Y-54204149D01*
X125129993Y-54275208D01*
X125125740Y-54277168D01*
X125125739Y-54277169D01*
X125097818Y-54290041D01*
X124899380Y-54381522D01*
X124895471Y-54384085D01*
X124690928Y-54518189D01*
X124690923Y-54518193D01*
X124687015Y-54520755D01*
X124613870Y-54586039D01*
X124524619Y-54665699D01*
X124497562Y-54689848D01*
X124335183Y-54885087D01*
X124203447Y-55102182D01*
X124201638Y-55106496D01*
X124201637Y-55106498D01*
X124115117Y-55312826D01*
X124105246Y-55336365D01*
X124104095Y-55340897D01*
X124104094Y-55340900D01*
X124082731Y-55425016D01*
X124042738Y-55582490D01*
X124017296Y-55835151D01*
X118308500Y-55835151D01*
X118308500Y-52049943D01*
X134616780Y-52049943D01*
X134617526Y-52057835D01*
X134620941Y-52093961D01*
X134621500Y-52105819D01*
X134621500Y-58341233D01*
X134620973Y-58352416D01*
X134619298Y-58359909D01*
X134619547Y-58367835D01*
X134619547Y-58367836D01*
X134621438Y-58427986D01*
X134621500Y-58431945D01*
X134621500Y-58459856D01*
X134621997Y-58463790D01*
X134621997Y-58463791D01*
X134622005Y-58463856D01*
X134622938Y-58475693D01*
X134624327Y-58519889D01*
X134629978Y-58539339D01*
X134633987Y-58558700D01*
X134636526Y-58578797D01*
X134639445Y-58586168D01*
X134639445Y-58586170D01*
X134652804Y-58619912D01*
X134656649Y-58631142D01*
X134668982Y-58673593D01*
X134673015Y-58680412D01*
X134673017Y-58680417D01*
X134679293Y-58691028D01*
X134687988Y-58708776D01*
X134695448Y-58727617D01*
X134700110Y-58734033D01*
X134700110Y-58734034D01*
X134721436Y-58763387D01*
X134727952Y-58773307D01*
X134736862Y-58788372D01*
X134750458Y-58811362D01*
X134764779Y-58825683D01*
X134777619Y-58840716D01*
X134789528Y-58857107D01*
X134823605Y-58885298D01*
X134832384Y-58893288D01*
X136800154Y-60861058D01*
X136834180Y-60923370D01*
X136827256Y-60998877D01*
X136805246Y-61051365D01*
X136742738Y-61297490D01*
X136717296Y-61550151D01*
X136729480Y-61803798D01*
X136779021Y-62052857D01*
X136780600Y-62057255D01*
X136780602Y-62057262D01*
X136825022Y-62180980D01*
X136864831Y-62291858D01*
X136985025Y-62515551D01*
X136987820Y-62519294D01*
X136987822Y-62519297D01*
X137134171Y-62715282D01*
X137134176Y-62715288D01*
X137136963Y-62719020D01*
X137140272Y-62722300D01*
X137140277Y-62722306D01*
X137238859Y-62820031D01*
X137317307Y-62897797D01*
X137321069Y-62900555D01*
X137321072Y-62900558D01*
X137426764Y-62978054D01*
X137522094Y-63047953D01*
X137526229Y-63050129D01*
X137526233Y-63050131D01*
X137644289Y-63112243D01*
X137746827Y-63166191D01*
X137986568Y-63249912D01*
X138236050Y-63297278D01*
X138356532Y-63302011D01*
X138485125Y-63307064D01*
X138485130Y-63307064D01*
X138489793Y-63307247D01*
X138588774Y-63296407D01*
X138737569Y-63280112D01*
X138737575Y-63280111D01*
X138742222Y-63279602D01*
X138851680Y-63250784D01*
X138983273Y-63216138D01*
X138987793Y-63214948D01*
X139106353Y-63164011D01*
X139216807Y-63116557D01*
X139216810Y-63116555D01*
X139221110Y-63114708D01*
X139225090Y-63112245D01*
X139225094Y-63112243D01*
X139433064Y-62983547D01*
X139433066Y-62983545D01*
X139437047Y-62981082D01*
X139535428Y-62897797D01*
X139627289Y-62820031D01*
X139627291Y-62820029D01*
X139630862Y-62817006D01*
X139798295Y-62626084D01*
X139935669Y-62412512D01*
X140039967Y-62180980D01*
X140108896Y-61936575D01*
X140140943Y-61684667D01*
X140143291Y-61595000D01*
X140124472Y-61341759D01*
X140068428Y-61094082D01*
X139976391Y-60857409D01*
X139955866Y-60821498D01*
X139852702Y-60640997D01*
X139852700Y-60640995D01*
X139850383Y-60636940D01*
X139693171Y-60437517D01*
X139508209Y-60263523D01*
X139464483Y-60233189D01*
X139303393Y-60121437D01*
X139303390Y-60121435D01*
X139299561Y-60118779D01*
X139295384Y-60116719D01*
X139295377Y-60116715D01*
X139075996Y-60008528D01*
X139075992Y-60008527D01*
X139071810Y-60006464D01*
X138829960Y-59929047D01*
X138825355Y-59928297D01*
X138583935Y-59888980D01*
X138583934Y-59888980D01*
X138579323Y-59888229D01*
X138452364Y-59886567D01*
X138330083Y-59884966D01*
X138330080Y-59884966D01*
X138325406Y-59884905D01*
X138073787Y-59919149D01*
X138069301Y-59920457D01*
X138069299Y-59920457D01*
X137918345Y-59964456D01*
X137829993Y-59990208D01*
X137826657Y-59991746D01*
X137756107Y-59996844D01*
X137693704Y-59962799D01*
X135925405Y-58194500D01*
X135891379Y-58132188D01*
X135888500Y-58105405D01*
X135888500Y-52384594D01*
X135908502Y-52316473D01*
X135925405Y-52295499D01*
X137552253Y-50668652D01*
X137560539Y-50661112D01*
X137567018Y-50657000D01*
X137613644Y-50607348D01*
X137616398Y-50604507D01*
X137636135Y-50584770D01*
X137638615Y-50581573D01*
X137646320Y-50572551D01*
X137648074Y-50570683D01*
X137676586Y-50540321D01*
X137680405Y-50533375D01*
X137680407Y-50533372D01*
X137686348Y-50522566D01*
X137697199Y-50506047D01*
X137704758Y-50496301D01*
X137709614Y-50490041D01*
X137712759Y-50482772D01*
X137712762Y-50482768D01*
X137727174Y-50449463D01*
X137732391Y-50438813D01*
X137753695Y-50400060D01*
X137758733Y-50380437D01*
X137765137Y-50361734D01*
X137770033Y-50350420D01*
X137770033Y-50350419D01*
X137773181Y-50343145D01*
X137774420Y-50335322D01*
X137774423Y-50335312D01*
X137780099Y-50299476D01*
X137782505Y-50287856D01*
X137791528Y-50252711D01*
X137791528Y-50252710D01*
X137793500Y-50245030D01*
X137793500Y-50224776D01*
X137795051Y-50205065D01*
X137796980Y-50192886D01*
X137798220Y-50185057D01*
X137797454Y-50176945D01*
X137796642Y-50168361D01*
X137810142Y-50098660D01*
X137859183Y-50047323D01*
X137922082Y-50030500D01*
X137970134Y-50030500D01*
X138032316Y-50023745D01*
X138168705Y-49972615D01*
X138285261Y-49885261D01*
X138372615Y-49768705D01*
X138423745Y-49632316D01*
X138430500Y-49570134D01*
X138430500Y-49561943D01*
X138450502Y-49493822D01*
X138504158Y-49447329D01*
X138574432Y-49437225D01*
X138639012Y-49466719D01*
X138658819Y-49488413D01*
X138734351Y-49593526D01*
X138738381Y-49597431D01*
X138892781Y-49747056D01*
X138897217Y-49751355D01*
X138923037Y-49768705D01*
X139010776Y-49827663D01*
X139056161Y-49882259D01*
X139066500Y-49932245D01*
X139066500Y-54117133D01*
X139046498Y-54185254D01*
X138992842Y-54231747D01*
X138922568Y-54241851D01*
X138902087Y-54237135D01*
X138834405Y-54215470D01*
X138834407Y-54215470D01*
X138829960Y-54214047D01*
X138825355Y-54213297D01*
X138583935Y-54173980D01*
X138583934Y-54173980D01*
X138579323Y-54173229D01*
X138452364Y-54171567D01*
X138330083Y-54169966D01*
X138330080Y-54169966D01*
X138325406Y-54169905D01*
X138073787Y-54204149D01*
X137829993Y-54275208D01*
X137825740Y-54277168D01*
X137825739Y-54277169D01*
X137797818Y-54290041D01*
X137599380Y-54381522D01*
X137595471Y-54384085D01*
X137390928Y-54518189D01*
X137390923Y-54518193D01*
X137387015Y-54520755D01*
X137313870Y-54586039D01*
X137224619Y-54665699D01*
X137197562Y-54689848D01*
X137035183Y-54885087D01*
X136903447Y-55102182D01*
X136901638Y-55106496D01*
X136901637Y-55106498D01*
X136815117Y-55312826D01*
X136805246Y-55336365D01*
X136804095Y-55340897D01*
X136804094Y-55340900D01*
X136782731Y-55425016D01*
X136742738Y-55582490D01*
X136717296Y-55835151D01*
X136729480Y-56088798D01*
X136779021Y-56337857D01*
X136780600Y-56342255D01*
X136780602Y-56342262D01*
X136825022Y-56465980D01*
X136864831Y-56576858D01*
X136867048Y-56580984D01*
X136951039Y-56737299D01*
X136985025Y-56800551D01*
X136987820Y-56804294D01*
X136987822Y-56804297D01*
X137134171Y-57000282D01*
X137134176Y-57000288D01*
X137136963Y-57004020D01*
X137140272Y-57007300D01*
X137140277Y-57007306D01*
X137313990Y-57179509D01*
X137317307Y-57182797D01*
X137321069Y-57185555D01*
X137321072Y-57185558D01*
X137343720Y-57202164D01*
X137522094Y-57332953D01*
X137526229Y-57335129D01*
X137526233Y-57335131D01*
X137602960Y-57375499D01*
X137746827Y-57451191D01*
X137986568Y-57534912D01*
X138236050Y-57582278D01*
X138356532Y-57587011D01*
X138485125Y-57592064D01*
X138485130Y-57592064D01*
X138489793Y-57592247D01*
X138588774Y-57581407D01*
X138737569Y-57565112D01*
X138737575Y-57565111D01*
X138742222Y-57564602D01*
X138851680Y-57535784D01*
X138983273Y-57501138D01*
X138987793Y-57499948D01*
X139132422Y-57437811D01*
X139216807Y-57401557D01*
X139216810Y-57401555D01*
X139221110Y-57399708D01*
X139225090Y-57397245D01*
X139225094Y-57397243D01*
X139433064Y-57268547D01*
X139433066Y-57268545D01*
X139437047Y-57266082D01*
X139440624Y-57263054D01*
X139627289Y-57105031D01*
X139627291Y-57105029D01*
X139630862Y-57102006D01*
X139798295Y-56911084D01*
X139802842Y-56904016D01*
X139933141Y-56701442D01*
X139935669Y-56697512D01*
X140039967Y-56465980D01*
X140108896Y-56221575D01*
X140140943Y-55969667D01*
X140143291Y-55880000D01*
X140124472Y-55626759D01*
X140091604Y-55481502D01*
X140069459Y-55383639D01*
X140068428Y-55379082D01*
X140051817Y-55336365D01*
X140030578Y-55281750D01*
X140024531Y-55211011D01*
X140058916Y-55146988D01*
X140092247Y-55113657D01*
X140100537Y-55106113D01*
X140107018Y-55102000D01*
X140153659Y-55052332D01*
X140156413Y-55049491D01*
X140176134Y-55029770D01*
X140178612Y-55026575D01*
X140186318Y-55017553D01*
X140211158Y-54991101D01*
X140216586Y-54985321D01*
X140226346Y-54967568D01*
X140237199Y-54951045D01*
X140244753Y-54941306D01*
X140249613Y-54935041D01*
X140267176Y-54894457D01*
X140272383Y-54883827D01*
X140293695Y-54845060D01*
X140295666Y-54837383D01*
X140295668Y-54837378D01*
X140298732Y-54825442D01*
X140305138Y-54806730D01*
X140310033Y-54795419D01*
X140313181Y-54788145D01*
X140314421Y-54780317D01*
X140314423Y-54780310D01*
X140320099Y-54744476D01*
X140322505Y-54732856D01*
X140331528Y-54697711D01*
X140331528Y-54697710D01*
X140333500Y-54690030D01*
X140333500Y-54669776D01*
X140335051Y-54650065D01*
X140336980Y-54637886D01*
X140338220Y-54630057D01*
X140334059Y-54586038D01*
X140333500Y-54574181D01*
X140333500Y-49937476D01*
X140353502Y-49869355D01*
X140384585Y-49838444D01*
X140383519Y-49837054D01*
X140432118Y-49799763D01*
X140563447Y-49698991D01*
X140655859Y-49597431D01*
X140712308Y-49535395D01*
X140712310Y-49535392D01*
X140716081Y-49531248D01*
X140739558Y-49493822D01*
X140833616Y-49343882D01*
X140833618Y-49343878D01*
X140836599Y-49339126D01*
X140854151Y-49295463D01*
X140898116Y-49239721D01*
X140965241Y-49216596D01*
X141034212Y-49233433D01*
X141084783Y-49288217D01*
X141140028Y-49404041D01*
X141145710Y-49413648D01*
X141271459Y-49588644D01*
X141278758Y-49597100D01*
X141433500Y-49747056D01*
X141442197Y-49754098D01*
X141621040Y-49874276D01*
X141630843Y-49879665D01*
X141828143Y-49966274D01*
X141838738Y-49969840D01*
X141968385Y-50000966D01*
X141982470Y-50000261D01*
X141986000Y-49991382D01*
X141986000Y-49990498D01*
X142494000Y-49990498D01*
X142498106Y-50004480D01*
X142508352Y-50006070D01*
X142510475Y-50005619D01*
X142716435Y-49942257D01*
X142726780Y-49938036D01*
X142918267Y-49839202D01*
X142927698Y-49833217D01*
X143098663Y-49702032D01*
X143106876Y-49694479D01*
X143251909Y-49535090D01*
X143258664Y-49526190D01*
X143373166Y-49343657D01*
X143378247Y-49333687D01*
X143393605Y-49295483D01*
X143437572Y-49239739D01*
X143504697Y-49216614D01*
X143573668Y-49233451D01*
X143624238Y-49288236D01*
X143650673Y-49343657D01*
X143682007Y-49409351D01*
X143685284Y-49413912D01*
X143685285Y-49413913D01*
X143795087Y-49566717D01*
X143814351Y-49593526D01*
X143818381Y-49597431D01*
X143972781Y-49747056D01*
X143977217Y-49751355D01*
X144003037Y-49768705D01*
X144090776Y-49827663D01*
X144136161Y-49882259D01*
X144146500Y-49932245D01*
X144146500Y-54531233D01*
X144145973Y-54542416D01*
X144144298Y-54549909D01*
X144144547Y-54557835D01*
X144144547Y-54557836D01*
X144146438Y-54617986D01*
X144146500Y-54621945D01*
X144146500Y-54649856D01*
X144146997Y-54653790D01*
X144146997Y-54653791D01*
X144147005Y-54653856D01*
X144147938Y-54665693D01*
X144149327Y-54709889D01*
X144154978Y-54729339D01*
X144158987Y-54748700D01*
X144161526Y-54768797D01*
X144164445Y-54776168D01*
X144164445Y-54776170D01*
X144177804Y-54809912D01*
X144181649Y-54821142D01*
X144193982Y-54863593D01*
X144198015Y-54870412D01*
X144198017Y-54870417D01*
X144204293Y-54881028D01*
X144212988Y-54898776D01*
X144220448Y-54917617D01*
X144225110Y-54924033D01*
X144225110Y-54924034D01*
X144246436Y-54953387D01*
X144252952Y-54963307D01*
X144269390Y-54991101D01*
X144275458Y-55001362D01*
X144289779Y-55015683D01*
X144302619Y-55030716D01*
X144314528Y-55047107D01*
X144348605Y-55075298D01*
X144357384Y-55083288D01*
X144420154Y-55146058D01*
X144454180Y-55208370D01*
X144447256Y-55283877D01*
X144425246Y-55336365D01*
X144424095Y-55340897D01*
X144424094Y-55340900D01*
X144402731Y-55425016D01*
X144362738Y-55582490D01*
X144337296Y-55835151D01*
X144349480Y-56088798D01*
X144399021Y-56337857D01*
X144400600Y-56342255D01*
X144400602Y-56342262D01*
X144445022Y-56465980D01*
X144484831Y-56576858D01*
X144487048Y-56580984D01*
X144571039Y-56737299D01*
X144605025Y-56800551D01*
X144607820Y-56804294D01*
X144607822Y-56804297D01*
X144754171Y-57000282D01*
X144754176Y-57000288D01*
X144756963Y-57004020D01*
X144760272Y-57007300D01*
X144760277Y-57007306D01*
X144933990Y-57179509D01*
X144937307Y-57182797D01*
X144941069Y-57185555D01*
X144941072Y-57185558D01*
X144963720Y-57202164D01*
X145142094Y-57332953D01*
X145146229Y-57335129D01*
X145146233Y-57335131D01*
X145222960Y-57375499D01*
X145366827Y-57451191D01*
X145606568Y-57534912D01*
X145856050Y-57582278D01*
X145976532Y-57587011D01*
X146105125Y-57592064D01*
X146105130Y-57592064D01*
X146109793Y-57592247D01*
X146208774Y-57581407D01*
X146357569Y-57565112D01*
X146357575Y-57565111D01*
X146362222Y-57564602D01*
X146471680Y-57535784D01*
X146603273Y-57501138D01*
X146607793Y-57499948D01*
X146752422Y-57437811D01*
X146836807Y-57401557D01*
X146836810Y-57401555D01*
X146841110Y-57399708D01*
X146845090Y-57397245D01*
X146845094Y-57397243D01*
X147053064Y-57268547D01*
X147053066Y-57268545D01*
X147057047Y-57266082D01*
X147060624Y-57263054D01*
X147247289Y-57105031D01*
X147247291Y-57105029D01*
X147250862Y-57102006D01*
X147418295Y-56911084D01*
X147422842Y-56904016D01*
X147553141Y-56701442D01*
X147555669Y-56697512D01*
X147659967Y-56465980D01*
X147728896Y-56221575D01*
X147760943Y-55969667D01*
X147763291Y-55880000D01*
X147744472Y-55626759D01*
X147711604Y-55481502D01*
X147689459Y-55383639D01*
X147688428Y-55379082D01*
X147686735Y-55374728D01*
X147598084Y-55146762D01*
X147598083Y-55146760D01*
X147596391Y-55142409D01*
X147575392Y-55105668D01*
X147472702Y-54925997D01*
X147472700Y-54925995D01*
X147470383Y-54921940D01*
X147313171Y-54722517D01*
X147161803Y-54580125D01*
X147131610Y-54551722D01*
X147131608Y-54551720D01*
X147128209Y-54548523D01*
X147084483Y-54518189D01*
X146923393Y-54406437D01*
X146923390Y-54406435D01*
X146919561Y-54403779D01*
X146915384Y-54401719D01*
X146915377Y-54401715D01*
X146695996Y-54293528D01*
X146695992Y-54293527D01*
X146691810Y-54291464D01*
X146449960Y-54214047D01*
X146445355Y-54213297D01*
X146203935Y-54173980D01*
X146203934Y-54173980D01*
X146199323Y-54173229D01*
X146072364Y-54171567D01*
X145950083Y-54169966D01*
X145950080Y-54169966D01*
X145945406Y-54169905D01*
X145693787Y-54204149D01*
X145574757Y-54238843D01*
X145503762Y-54238703D01*
X145444112Y-54200201D01*
X145414747Y-54135561D01*
X145413500Y-54117877D01*
X145413500Y-49937476D01*
X145433502Y-49869355D01*
X145464585Y-49838444D01*
X145463519Y-49837054D01*
X145512118Y-49799763D01*
X145643447Y-49698991D01*
X145735859Y-49597431D01*
X145792308Y-49535395D01*
X145792310Y-49535392D01*
X145796081Y-49531248D01*
X145819558Y-49493822D01*
X145913616Y-49343882D01*
X145913618Y-49343878D01*
X145916599Y-49339126D01*
X145933898Y-49296094D01*
X145977864Y-49240351D01*
X146044989Y-49217226D01*
X146113960Y-49234063D01*
X146164530Y-49288848D01*
X146190673Y-49343657D01*
X146222007Y-49409351D01*
X146225284Y-49413912D01*
X146225285Y-49413913D01*
X146335087Y-49566717D01*
X146354351Y-49593526D01*
X146358381Y-49597431D01*
X146512781Y-49747056D01*
X146517217Y-49751355D01*
X146543037Y-49768705D01*
X146630776Y-49827663D01*
X146676161Y-49882259D01*
X146686500Y-49932245D01*
X146686500Y-50086233D01*
X146685973Y-50097416D01*
X146684298Y-50104909D01*
X146684547Y-50112835D01*
X146684547Y-50112836D01*
X146686438Y-50172986D01*
X146686500Y-50176945D01*
X146686500Y-50204856D01*
X146686997Y-50208790D01*
X146686997Y-50208791D01*
X146687005Y-50208856D01*
X146687938Y-50220693D01*
X146689327Y-50264889D01*
X146694978Y-50284339D01*
X146698987Y-50303700D01*
X146701526Y-50323797D01*
X146704445Y-50331168D01*
X146704445Y-50331170D01*
X146717804Y-50364912D01*
X146721649Y-50376142D01*
X146726368Y-50392384D01*
X146733982Y-50418593D01*
X146738015Y-50425412D01*
X146738017Y-50425417D01*
X146744293Y-50436028D01*
X146752988Y-50453776D01*
X146760448Y-50472617D01*
X146765110Y-50479033D01*
X146765110Y-50479034D01*
X146786436Y-50508387D01*
X146792952Y-50518307D01*
X146809571Y-50546407D01*
X146815458Y-50556362D01*
X146829779Y-50570683D01*
X146842619Y-50585716D01*
X146854528Y-50602107D01*
X146888605Y-50630298D01*
X146897384Y-50638288D01*
X148554595Y-52295500D01*
X148588621Y-52357812D01*
X148591500Y-52384595D01*
X148591500Y-58105406D01*
X148571498Y-58173527D01*
X148554595Y-58194501D01*
X146784639Y-59964456D01*
X146722327Y-59998482D01*
X146657131Y-59995363D01*
X146454405Y-59930470D01*
X146454407Y-59930470D01*
X146449960Y-59929047D01*
X146445355Y-59928297D01*
X146203935Y-59888980D01*
X146203934Y-59888980D01*
X146199323Y-59888229D01*
X146072364Y-59886567D01*
X145950083Y-59884966D01*
X145950080Y-59884966D01*
X145945406Y-59884905D01*
X145693787Y-59919149D01*
X145449993Y-59990208D01*
X145219380Y-60096522D01*
X145215471Y-60099085D01*
X145010928Y-60233189D01*
X145010923Y-60233193D01*
X145007015Y-60235755D01*
X144817562Y-60404848D01*
X144655183Y-60600087D01*
X144523447Y-60817182D01*
X144521638Y-60821496D01*
X144521637Y-60821498D01*
X144447255Y-60998880D01*
X144425246Y-61051365D01*
X144362738Y-61297490D01*
X144337296Y-61550151D01*
X144349480Y-61803798D01*
X144399021Y-62052857D01*
X144400600Y-62057255D01*
X144400602Y-62057262D01*
X144445022Y-62180980D01*
X144484831Y-62291858D01*
X144605025Y-62515551D01*
X144607820Y-62519294D01*
X144607822Y-62519297D01*
X144754171Y-62715282D01*
X144754176Y-62715288D01*
X144756963Y-62719020D01*
X144760272Y-62722300D01*
X144760277Y-62722306D01*
X144858859Y-62820031D01*
X144937307Y-62897797D01*
X144941069Y-62900555D01*
X144941072Y-62900558D01*
X145046764Y-62978054D01*
X145142094Y-63047953D01*
X145146229Y-63050129D01*
X145146233Y-63050131D01*
X145264289Y-63112243D01*
X145366827Y-63166191D01*
X145606568Y-63249912D01*
X145856050Y-63297278D01*
X145976532Y-63302011D01*
X146105125Y-63307064D01*
X146105130Y-63307064D01*
X146109793Y-63307247D01*
X146208774Y-63296407D01*
X146357569Y-63280112D01*
X146357575Y-63280111D01*
X146362222Y-63279602D01*
X146471680Y-63250784D01*
X146603273Y-63216138D01*
X146607793Y-63214948D01*
X146726353Y-63164011D01*
X146836807Y-63116557D01*
X146836810Y-63116555D01*
X146841110Y-63114708D01*
X146845090Y-63112245D01*
X146845094Y-63112243D01*
X147053064Y-62983547D01*
X147053066Y-62983545D01*
X147057047Y-62981082D01*
X147155428Y-62897797D01*
X147247289Y-62820031D01*
X147247291Y-62820029D01*
X147250862Y-62817006D01*
X147418295Y-62626084D01*
X147555669Y-62412512D01*
X147659967Y-62180980D01*
X147728896Y-61936575D01*
X147760943Y-61684667D01*
X147763291Y-61595000D01*
X147744472Y-61341759D01*
X147688428Y-61094082D01*
X147650578Y-60996751D01*
X147644531Y-60926013D01*
X147678916Y-60861989D01*
X149617253Y-58923652D01*
X149625539Y-58916112D01*
X149632018Y-58912000D01*
X149678644Y-58862348D01*
X149681398Y-58859507D01*
X149701135Y-58839770D01*
X149703615Y-58836573D01*
X149711320Y-58827551D01*
X149713074Y-58825683D01*
X149741586Y-58795321D01*
X149745405Y-58788375D01*
X149745407Y-58788372D01*
X149751348Y-58777566D01*
X149762199Y-58761047D01*
X149769758Y-58751301D01*
X149774614Y-58745041D01*
X149777759Y-58737772D01*
X149777762Y-58737768D01*
X149792174Y-58704463D01*
X149797391Y-58693813D01*
X149818695Y-58655060D01*
X149823733Y-58635437D01*
X149830137Y-58616734D01*
X149835033Y-58605420D01*
X149835033Y-58605419D01*
X149838181Y-58598145D01*
X149839420Y-58590322D01*
X149839423Y-58590312D01*
X149845099Y-58554476D01*
X149847505Y-58542856D01*
X149856528Y-58507711D01*
X149856528Y-58507710D01*
X149858500Y-58500030D01*
X149858500Y-58479776D01*
X149860051Y-58460065D01*
X149861980Y-58447886D01*
X149863220Y-58440057D01*
X149859059Y-58396038D01*
X149858500Y-58384181D01*
X149858500Y-52148767D01*
X149859027Y-52137584D01*
X149860702Y-52130091D01*
X149859567Y-52093961D01*
X149858562Y-52062001D01*
X149858500Y-52058043D01*
X149858500Y-52030144D01*
X149857996Y-52026153D01*
X149857063Y-52014311D01*
X149856548Y-51997899D01*
X149855674Y-51970111D01*
X149853462Y-51962497D01*
X149853461Y-51962492D01*
X149850023Y-51950659D01*
X149846012Y-51931295D01*
X149844467Y-51919064D01*
X149843474Y-51911203D01*
X149840557Y-51903836D01*
X149840556Y-51903831D01*
X149827198Y-51870092D01*
X149823354Y-51858865D01*
X149818633Y-51842616D01*
X149811018Y-51816407D01*
X149800707Y-51798972D01*
X149792012Y-51781224D01*
X149784552Y-51762383D01*
X149758564Y-51726613D01*
X149752048Y-51716693D01*
X149733580Y-51685465D01*
X149733578Y-51685462D01*
X149729542Y-51678638D01*
X149715221Y-51664317D01*
X149702380Y-51649283D01*
X149695131Y-51639306D01*
X149690472Y-51632893D01*
X149656395Y-51604702D01*
X149647616Y-51596712D01*
X148039726Y-49988821D01*
X148005700Y-49926509D01*
X148010765Y-49855693D01*
X148052118Y-49799763D01*
X148178998Y-49702406D01*
X148179006Y-49702399D01*
X148183447Y-49698991D01*
X148275859Y-49597431D01*
X148332308Y-49535395D01*
X148332310Y-49535392D01*
X148336081Y-49531248D01*
X148359558Y-49493822D01*
X148453616Y-49343882D01*
X148453618Y-49343878D01*
X148456599Y-49339126D01*
X148541190Y-49128699D01*
X148587181Y-48906618D01*
X148590500Y-48849056D01*
X148590500Y-47702465D01*
X148589476Y-47690984D01*
X148582549Y-47613382D01*
X148575474Y-47534105D01*
X148515630Y-47315349D01*
X148501894Y-47286549D01*
X148420410Y-47115716D01*
X148420409Y-47115715D01*
X148417993Y-47110649D01*
X148395730Y-47079667D01*
X148299070Y-46945151D01*
X153227296Y-46945151D01*
X153227520Y-46949817D01*
X153227520Y-46949822D01*
X153229633Y-46993810D01*
X153239480Y-47198798D01*
X153289021Y-47447857D01*
X153290600Y-47452255D01*
X153290602Y-47452262D01*
X153366442Y-47663493D01*
X153374831Y-47686858D01*
X153495025Y-47910551D01*
X153497820Y-47914294D01*
X153497822Y-47914297D01*
X153644171Y-48110282D01*
X153644176Y-48110288D01*
X153646963Y-48114020D01*
X153650272Y-48117300D01*
X153650277Y-48117306D01*
X153748859Y-48215031D01*
X153827307Y-48292797D01*
X153831069Y-48295555D01*
X153831072Y-48295558D01*
X153936764Y-48373054D01*
X154032094Y-48442953D01*
X154036229Y-48445129D01*
X154036233Y-48445131D01*
X154154289Y-48507243D01*
X154256827Y-48561191D01*
X154496568Y-48644912D01*
X154746050Y-48692278D01*
X154866532Y-48697011D01*
X154995125Y-48702064D01*
X154995130Y-48702064D01*
X154999793Y-48702247D01*
X155098774Y-48691407D01*
X155247569Y-48675112D01*
X155247575Y-48675111D01*
X155252222Y-48674602D01*
X155361680Y-48645784D01*
X155493273Y-48611138D01*
X155497793Y-48609948D01*
X155616353Y-48559011D01*
X155726807Y-48511557D01*
X155726810Y-48511555D01*
X155731110Y-48509708D01*
X155735090Y-48507245D01*
X155735094Y-48507243D01*
X155943064Y-48378547D01*
X155943066Y-48378545D01*
X155947047Y-48376082D01*
X156045428Y-48292797D01*
X156137289Y-48215031D01*
X156137291Y-48215029D01*
X156140862Y-48212006D01*
X156308295Y-48021084D01*
X156445669Y-47807512D01*
X156549967Y-47575980D01*
X156618896Y-47331575D01*
X156632516Y-47224517D01*
X156650545Y-47082798D01*
X156650545Y-47082792D01*
X156650943Y-47079667D01*
X156653291Y-46990000D01*
X156650673Y-46954766D01*
X156634818Y-46741411D01*
X156634817Y-46741407D01*
X156634472Y-46736759D01*
X156622296Y-46682946D01*
X156584153Y-46514381D01*
X156578428Y-46489082D01*
X156486391Y-46252409D01*
X156465866Y-46216498D01*
X156362702Y-46035997D01*
X156362700Y-46035995D01*
X156360383Y-46031940D01*
X156203171Y-45832517D01*
X156018209Y-45658523D01*
X155974483Y-45628189D01*
X155813393Y-45516437D01*
X155813390Y-45516435D01*
X155809561Y-45513779D01*
X155805384Y-45511719D01*
X155805377Y-45511715D01*
X155585996Y-45403528D01*
X155585992Y-45403527D01*
X155581810Y-45401464D01*
X155339960Y-45324047D01*
X155335355Y-45323297D01*
X155093935Y-45283980D01*
X155093934Y-45283980D01*
X155089323Y-45283229D01*
X154962364Y-45281567D01*
X154840083Y-45279966D01*
X154840080Y-45279966D01*
X154835406Y-45279905D01*
X154583787Y-45314149D01*
X154339993Y-45385208D01*
X154109380Y-45491522D01*
X154105471Y-45494085D01*
X153900928Y-45628189D01*
X153900923Y-45628193D01*
X153897015Y-45630755D01*
X153707562Y-45799848D01*
X153545183Y-45995087D01*
X153413447Y-46212182D01*
X153315246Y-46446365D01*
X153314095Y-46450897D01*
X153314094Y-46450900D01*
X153297972Y-46514381D01*
X153252738Y-46692490D01*
X153227296Y-46945151D01*
X148299070Y-46945151D01*
X148288926Y-46931034D01*
X148288924Y-46931032D01*
X148285649Y-46926474D01*
X148181474Y-46825521D01*
X148126811Y-46772548D01*
X148126808Y-46772546D01*
X148122783Y-46768645D01*
X147995249Y-46682946D01*
X147939195Y-46645279D01*
X147939190Y-46645276D01*
X147934542Y-46642153D01*
X147929410Y-46639900D01*
X147929406Y-46639898D01*
X147790511Y-46578927D01*
X147726876Y-46550993D01*
X147693122Y-46542890D01*
X147511808Y-46499360D01*
X147511802Y-46499359D01*
X147506349Y-46498050D01*
X147393140Y-46491522D01*
X147285537Y-46485317D01*
X147285534Y-46485317D01*
X147279931Y-46484994D01*
X147054781Y-46512241D01*
X147049419Y-46513891D01*
X147049417Y-46513891D01*
X147030408Y-46519739D01*
X146838013Y-46578927D01*
X146833029Y-46581499D01*
X146833030Y-46581499D01*
X146719885Y-46639898D01*
X146636481Y-46682946D01*
X146632033Y-46686359D01*
X146629958Y-46687951D01*
X146456553Y-46821009D01*
X146402616Y-46880285D01*
X146333107Y-46956675D01*
X146303919Y-46988752D01*
X146300938Y-46993503D01*
X146300938Y-46993504D01*
X146224275Y-47115716D01*
X146183401Y-47180874D01*
X146166103Y-47223905D01*
X146122136Y-47279649D01*
X146055011Y-47302774D01*
X145986040Y-47285937D01*
X145935470Y-47231152D01*
X145880410Y-47115716D01*
X145880409Y-47115715D01*
X145877993Y-47110649D01*
X145855730Y-47079667D01*
X145748926Y-46931034D01*
X145748924Y-46931032D01*
X145745649Y-46926474D01*
X145641474Y-46825521D01*
X145586811Y-46772548D01*
X145586808Y-46772546D01*
X145582783Y-46768645D01*
X145455249Y-46682946D01*
X145399195Y-46645279D01*
X145399190Y-46645276D01*
X145394542Y-46642153D01*
X145389410Y-46639900D01*
X145389406Y-46639898D01*
X145250511Y-46578927D01*
X145186876Y-46550993D01*
X145153122Y-46542890D01*
X144971808Y-46499360D01*
X144971802Y-46499359D01*
X144966349Y-46498050D01*
X144853140Y-46491522D01*
X144745537Y-46485317D01*
X144745534Y-46485317D01*
X144739931Y-46484994D01*
X144514781Y-46512241D01*
X144509419Y-46513891D01*
X144509417Y-46513891D01*
X144490408Y-46519739D01*
X144298013Y-46578927D01*
X144293029Y-46581499D01*
X144293030Y-46581499D01*
X144179885Y-46639898D01*
X144096481Y-46682946D01*
X144092033Y-46686359D01*
X144089958Y-46687951D01*
X143916553Y-46821009D01*
X143862616Y-46880285D01*
X143793107Y-46956675D01*
X143763919Y-46988752D01*
X143760938Y-46993503D01*
X143760938Y-46993504D01*
X143684275Y-47115716D01*
X143643401Y-47180874D01*
X143625849Y-47224537D01*
X143581884Y-47280279D01*
X143514759Y-47303404D01*
X143445788Y-47286567D01*
X143395217Y-47231783D01*
X143339972Y-47115959D01*
X143334290Y-47106352D01*
X143208541Y-46931356D01*
X143201242Y-46922900D01*
X143046500Y-46772944D01*
X143037803Y-46765902D01*
X142858960Y-46645724D01*
X142849157Y-46640335D01*
X142651857Y-46553726D01*
X142641262Y-46550160D01*
X142511615Y-46519034D01*
X142497530Y-46519739D01*
X142494000Y-46528618D01*
X142494000Y-49990498D01*
X141986000Y-49990498D01*
X141986000Y-46529502D01*
X141981894Y-46515520D01*
X141971648Y-46513930D01*
X141969525Y-46514381D01*
X141763565Y-46577743D01*
X141753220Y-46581964D01*
X141561733Y-46680798D01*
X141552302Y-46686783D01*
X141381337Y-46817968D01*
X141373124Y-46825521D01*
X141228091Y-46984910D01*
X141221336Y-46993810D01*
X141106834Y-47176343D01*
X141101753Y-47186313D01*
X141086395Y-47224517D01*
X141042428Y-47280261D01*
X140975303Y-47303386D01*
X140906332Y-47286549D01*
X140855762Y-47231764D01*
X140800410Y-47115716D01*
X140800409Y-47115715D01*
X140797993Y-47110649D01*
X140775730Y-47079667D01*
X140668926Y-46931034D01*
X140668924Y-46931032D01*
X140665649Y-46926474D01*
X140561474Y-46825521D01*
X140506811Y-46772548D01*
X140506808Y-46772546D01*
X140502783Y-46768645D01*
X140375249Y-46682946D01*
X140319195Y-46645279D01*
X140319190Y-46645276D01*
X140314542Y-46642153D01*
X140309410Y-46639900D01*
X140309406Y-46639898D01*
X140170511Y-46578927D01*
X140106876Y-46550993D01*
X140073122Y-46542890D01*
X139891808Y-46499360D01*
X139891802Y-46499359D01*
X139886349Y-46498050D01*
X139773140Y-46491522D01*
X139665537Y-46485317D01*
X139665534Y-46485317D01*
X139659931Y-46484994D01*
X139434781Y-46512241D01*
X139429419Y-46513891D01*
X139429417Y-46513891D01*
X139410408Y-46519739D01*
X139218013Y-46578927D01*
X139213029Y-46581499D01*
X139213030Y-46581499D01*
X139099885Y-46639898D01*
X139016481Y-46682946D01*
X139012033Y-46686359D01*
X139009958Y-46687951D01*
X138836553Y-46821009D01*
X138782616Y-46880285D01*
X138713107Y-46956675D01*
X138683919Y-46988752D01*
X138680942Y-46993498D01*
X138680938Y-46993503D01*
X138663237Y-47021722D01*
X138610094Y-47068800D01*
X138539935Y-47079672D01*
X138475035Y-47050888D01*
X138436000Y-46991586D01*
X138430785Y-46956675D01*
X138430684Y-46956680D01*
X138430626Y-46955610D01*
X138430500Y-46954766D01*
X138430500Y-46949866D01*
X138423745Y-46887684D01*
X138372615Y-46751295D01*
X138285261Y-46634739D01*
X138168705Y-46547385D01*
X138032316Y-46496255D01*
X137970134Y-46489500D01*
X136349866Y-46489500D01*
X136287684Y-46496255D01*
X136151295Y-46547385D01*
X136034739Y-46634739D01*
X135947385Y-46751295D01*
X135896255Y-46887684D01*
X135889500Y-46949866D01*
X135889500Y-49570134D01*
X135896255Y-49632316D01*
X135947385Y-49768705D01*
X136034739Y-49885261D01*
X136151295Y-49972615D01*
X136159703Y-49975767D01*
X136190021Y-49987133D01*
X136246786Y-50029775D01*
X136271485Y-50096337D01*
X136256277Y-50165686D01*
X136234886Y-50194210D01*
X135403596Y-51025499D01*
X134862747Y-51566348D01*
X134854461Y-51573888D01*
X134847982Y-51578000D01*
X134842557Y-51583777D01*
X134801357Y-51627651D01*
X134798602Y-51630493D01*
X134778865Y-51650230D01*
X134776385Y-51653427D01*
X134768682Y-51662447D01*
X134738414Y-51694679D01*
X134734595Y-51701625D01*
X134734593Y-51701628D01*
X134728652Y-51712434D01*
X134717801Y-51728953D01*
X134705386Y-51744959D01*
X134702241Y-51752228D01*
X134702238Y-51752232D01*
X134687826Y-51785537D01*
X134682609Y-51796187D01*
X134661305Y-51834940D01*
X134659334Y-51842615D01*
X134659334Y-51842616D01*
X134656267Y-51854562D01*
X134649863Y-51873266D01*
X134641819Y-51891855D01*
X134640580Y-51899678D01*
X134640577Y-51899688D01*
X134634901Y-51935524D01*
X134632495Y-51947144D01*
X134621500Y-51989970D01*
X134621500Y-52010224D01*
X134619949Y-52029934D01*
X134616780Y-52049943D01*
X118308500Y-52049943D01*
X118308500Y-46945151D01*
X122112296Y-46945151D01*
X122112520Y-46949817D01*
X122112520Y-46949822D01*
X122114633Y-46993810D01*
X122124480Y-47198798D01*
X122174021Y-47447857D01*
X122175600Y-47452255D01*
X122175602Y-47452262D01*
X122251442Y-47663493D01*
X122259831Y-47686858D01*
X122380025Y-47910551D01*
X122382820Y-47914294D01*
X122382822Y-47914297D01*
X122529171Y-48110282D01*
X122529176Y-48110288D01*
X122531963Y-48114020D01*
X122535272Y-48117300D01*
X122535277Y-48117306D01*
X122633859Y-48215031D01*
X122712307Y-48292797D01*
X122716069Y-48295555D01*
X122716072Y-48295558D01*
X122821764Y-48373054D01*
X122917094Y-48442953D01*
X122921229Y-48445129D01*
X122921233Y-48445131D01*
X123039289Y-48507243D01*
X123141827Y-48561191D01*
X123381568Y-48644912D01*
X123631050Y-48692278D01*
X123751532Y-48697011D01*
X123880125Y-48702064D01*
X123880130Y-48702064D01*
X123884793Y-48702247D01*
X123983774Y-48691407D01*
X124132569Y-48675112D01*
X124132575Y-48675111D01*
X124137222Y-48674602D01*
X124246680Y-48645784D01*
X124378273Y-48611138D01*
X124382793Y-48609948D01*
X124501353Y-48559011D01*
X124611807Y-48511557D01*
X124611810Y-48511555D01*
X124616110Y-48509708D01*
X124620090Y-48507245D01*
X124620094Y-48507243D01*
X124828064Y-48378547D01*
X124828066Y-48378545D01*
X124832047Y-48376082D01*
X124930428Y-48292797D01*
X125022289Y-48215031D01*
X125022291Y-48215029D01*
X125025862Y-48212006D01*
X125193295Y-48021084D01*
X125330669Y-47807512D01*
X125434967Y-47575980D01*
X125503896Y-47331575D01*
X125517516Y-47224517D01*
X125535545Y-47082798D01*
X125535545Y-47082792D01*
X125535943Y-47079667D01*
X125538291Y-46990000D01*
X125535673Y-46954766D01*
X125534958Y-46945151D01*
X127827296Y-46945151D01*
X127827520Y-46949817D01*
X127827520Y-46949822D01*
X127829633Y-46993810D01*
X127839480Y-47198798D01*
X127889021Y-47447857D01*
X127890600Y-47452255D01*
X127890602Y-47452262D01*
X127966442Y-47663493D01*
X127974831Y-47686858D01*
X128095025Y-47910551D01*
X128097820Y-47914294D01*
X128097822Y-47914297D01*
X128244171Y-48110282D01*
X128244176Y-48110288D01*
X128246963Y-48114020D01*
X128250272Y-48117300D01*
X128250277Y-48117306D01*
X128348859Y-48215031D01*
X128427307Y-48292797D01*
X128431069Y-48295555D01*
X128431072Y-48295558D01*
X128536764Y-48373054D01*
X128632094Y-48442953D01*
X128636229Y-48445129D01*
X128636233Y-48445131D01*
X128754289Y-48507243D01*
X128856827Y-48561191D01*
X129096568Y-48644912D01*
X129346050Y-48692278D01*
X129466532Y-48697011D01*
X129595125Y-48702064D01*
X129595130Y-48702064D01*
X129599793Y-48702247D01*
X129698774Y-48691407D01*
X129847569Y-48675112D01*
X129847575Y-48675111D01*
X129852222Y-48674602D01*
X129961680Y-48645784D01*
X130093273Y-48611138D01*
X130097793Y-48609948D01*
X130216353Y-48559011D01*
X130326807Y-48511557D01*
X130326810Y-48511555D01*
X130331110Y-48509708D01*
X130335090Y-48507245D01*
X130335094Y-48507243D01*
X130543064Y-48378547D01*
X130543066Y-48378545D01*
X130547047Y-48376082D01*
X130645428Y-48292797D01*
X130737289Y-48215031D01*
X130737291Y-48215029D01*
X130740862Y-48212006D01*
X130908295Y-48021084D01*
X131045669Y-47807512D01*
X131149967Y-47575980D01*
X131218896Y-47331575D01*
X131232516Y-47224517D01*
X131250545Y-47082798D01*
X131250545Y-47082792D01*
X131250943Y-47079667D01*
X131253291Y-46990000D01*
X131250673Y-46954766D01*
X131234818Y-46741411D01*
X131234817Y-46741407D01*
X131234472Y-46736759D01*
X131222296Y-46682946D01*
X131184153Y-46514381D01*
X131178428Y-46489082D01*
X131086391Y-46252409D01*
X131065866Y-46216498D01*
X130962702Y-46035997D01*
X130962700Y-46035995D01*
X130960383Y-46031940D01*
X130803171Y-45832517D01*
X130618209Y-45658523D01*
X130574483Y-45628189D01*
X130413393Y-45516437D01*
X130413390Y-45516435D01*
X130409561Y-45513779D01*
X130405384Y-45511719D01*
X130405377Y-45511715D01*
X130185996Y-45403528D01*
X130185992Y-45403527D01*
X130181810Y-45401464D01*
X129939960Y-45324047D01*
X129935355Y-45323297D01*
X129693935Y-45283980D01*
X129693934Y-45283980D01*
X129689323Y-45283229D01*
X129562364Y-45281567D01*
X129440083Y-45279966D01*
X129440080Y-45279966D01*
X129435406Y-45279905D01*
X129183787Y-45314149D01*
X128939993Y-45385208D01*
X128709380Y-45491522D01*
X128705471Y-45494085D01*
X128500928Y-45628189D01*
X128500923Y-45628193D01*
X128497015Y-45630755D01*
X128307562Y-45799848D01*
X128145183Y-45995087D01*
X128013447Y-46212182D01*
X127915246Y-46446365D01*
X127914095Y-46450897D01*
X127914094Y-46450900D01*
X127897972Y-46514381D01*
X127852738Y-46692490D01*
X127827296Y-46945151D01*
X125534958Y-46945151D01*
X125519818Y-46741411D01*
X125519817Y-46741407D01*
X125519472Y-46736759D01*
X125507296Y-46682946D01*
X125469153Y-46514381D01*
X125463428Y-46489082D01*
X125371391Y-46252409D01*
X125350866Y-46216498D01*
X125247702Y-46035997D01*
X125247700Y-46035995D01*
X125245383Y-46031940D01*
X125088171Y-45832517D01*
X124903209Y-45658523D01*
X124859483Y-45628189D01*
X124698393Y-45516437D01*
X124698390Y-45516435D01*
X124694561Y-45513779D01*
X124690384Y-45511719D01*
X124690377Y-45511715D01*
X124470996Y-45403528D01*
X124470992Y-45403527D01*
X124466810Y-45401464D01*
X124224960Y-45324047D01*
X124220355Y-45323297D01*
X123978935Y-45283980D01*
X123978934Y-45283980D01*
X123974323Y-45283229D01*
X123847364Y-45281567D01*
X123725083Y-45279966D01*
X123725080Y-45279966D01*
X123720406Y-45279905D01*
X123468787Y-45314149D01*
X123224993Y-45385208D01*
X122994380Y-45491522D01*
X122990471Y-45494085D01*
X122785928Y-45628189D01*
X122785923Y-45628193D01*
X122782015Y-45630755D01*
X122592562Y-45799848D01*
X122430183Y-45995087D01*
X122298447Y-46212182D01*
X122200246Y-46446365D01*
X122199095Y-46450897D01*
X122199094Y-46450900D01*
X122182972Y-46514381D01*
X122137738Y-46692490D01*
X122112296Y-46945151D01*
X118308500Y-46945151D01*
X118308500Y-34245151D01*
X122112296Y-34245151D01*
X122124480Y-34498798D01*
X122144024Y-34597054D01*
X122169894Y-34727107D01*
X122174021Y-34747857D01*
X122175600Y-34752255D01*
X122175602Y-34752262D01*
X122225547Y-34891369D01*
X122259831Y-34986858D01*
X122380025Y-35210551D01*
X122382820Y-35214294D01*
X122382822Y-35214297D01*
X122529171Y-35410282D01*
X122529176Y-35410288D01*
X122531963Y-35414020D01*
X122535272Y-35417300D01*
X122535277Y-35417306D01*
X122708990Y-35589509D01*
X122712307Y-35592797D01*
X122716069Y-35595555D01*
X122716072Y-35595558D01*
X122821764Y-35673054D01*
X122917094Y-35742953D01*
X122921229Y-35745129D01*
X122921233Y-35745131D01*
X123039289Y-35807243D01*
X123141827Y-35861191D01*
X123381568Y-35944912D01*
X123631050Y-35992278D01*
X123751532Y-35997011D01*
X123880125Y-36002064D01*
X123880130Y-36002064D01*
X123884793Y-36002247D01*
X123983774Y-35991407D01*
X124132569Y-35975112D01*
X124132575Y-35975111D01*
X124137222Y-35974602D01*
X124246680Y-35945784D01*
X124378273Y-35911138D01*
X124382793Y-35909948D01*
X124501353Y-35859011D01*
X124611807Y-35811557D01*
X124611810Y-35811555D01*
X124616110Y-35809708D01*
X124620090Y-35807245D01*
X124620094Y-35807243D01*
X124828064Y-35678547D01*
X124828066Y-35678545D01*
X124832047Y-35676082D01*
X124930428Y-35592797D01*
X125022289Y-35515031D01*
X125022291Y-35515029D01*
X125025862Y-35512006D01*
X125193295Y-35321084D01*
X125330669Y-35107512D01*
X125434967Y-34875980D01*
X125503896Y-34631575D01*
X125535943Y-34379667D01*
X125536548Y-34356587D01*
X125537264Y-34329233D01*
X125538291Y-34290000D01*
X125524460Y-34103882D01*
X125519818Y-34041411D01*
X125519817Y-34041407D01*
X125519472Y-34036759D01*
X125511096Y-33999739D01*
X125464459Y-33793639D01*
X125463428Y-33789082D01*
X125446817Y-33746365D01*
X125425578Y-33691750D01*
X125419531Y-33621011D01*
X125453916Y-33556988D01*
X127860499Y-31150405D01*
X127922811Y-31116379D01*
X127949594Y-31113500D01*
X135575406Y-31113500D01*
X135643527Y-31133502D01*
X135664501Y-31150405D01*
X136118768Y-31604672D01*
X136152794Y-31666984D01*
X136147729Y-31737799D01*
X136136410Y-31760723D01*
X136064275Y-31875716D01*
X136023401Y-31940874D01*
X135938810Y-32151301D01*
X135892819Y-32373382D01*
X135889500Y-32430944D01*
X135889500Y-33577535D01*
X135904526Y-33745895D01*
X135964370Y-33964651D01*
X135966782Y-33969709D01*
X135966784Y-33969713D01*
X136030780Y-34103882D01*
X136062007Y-34169351D01*
X136065284Y-34173912D01*
X136065285Y-34173913D01*
X136182625Y-34337207D01*
X136194351Y-34353526D01*
X136269710Y-34426554D01*
X136352781Y-34507056D01*
X136357217Y-34511355D01*
X136422273Y-34555070D01*
X136540805Y-34634721D01*
X136540810Y-34634724D01*
X136545458Y-34637847D01*
X136550590Y-34640100D01*
X136550594Y-34640102D01*
X136637878Y-34678417D01*
X136753124Y-34729007D01*
X136758582Y-34730317D01*
X136758581Y-34730317D01*
X136968192Y-34780640D01*
X136968198Y-34780641D01*
X136973651Y-34781950D01*
X137068287Y-34787407D01*
X137194463Y-34794683D01*
X137194466Y-34794683D01*
X137200069Y-34795006D01*
X137425219Y-34767759D01*
X137430581Y-34766109D01*
X137430583Y-34766109D01*
X137546927Y-34730317D01*
X137641987Y-34701073D01*
X137742753Y-34649063D01*
X137838536Y-34599626D01*
X137838537Y-34599626D01*
X137843519Y-34597054D01*
X137848520Y-34593217D01*
X137951129Y-34514482D01*
X138023447Y-34458991D01*
X138115859Y-34357431D01*
X138172308Y-34295395D01*
X138172310Y-34295392D01*
X138176081Y-34291248D01*
X138249685Y-34173913D01*
X138293616Y-34103882D01*
X138293618Y-34103878D01*
X138296599Y-34099126D01*
X138313898Y-34056094D01*
X138357864Y-34000351D01*
X138424989Y-33977226D01*
X138493960Y-33994063D01*
X138544530Y-34048848D01*
X138570673Y-34103657D01*
X138602007Y-34169351D01*
X138605284Y-34173912D01*
X138605285Y-34173913D01*
X138674486Y-34270216D01*
X138697994Y-34337207D01*
X138681552Y-34406274D01*
X138661259Y-34432837D01*
X138111646Y-34982449D01*
X137569500Y-35524595D01*
X137507188Y-35558621D01*
X137480405Y-35561500D01*
X131759595Y-35561500D01*
X131691474Y-35541498D01*
X131670499Y-35524595D01*
X131171709Y-35025804D01*
X131137684Y-34963492D01*
X131142749Y-34892676D01*
X131145922Y-34884962D01*
X131148040Y-34880259D01*
X131148044Y-34880248D01*
X131149967Y-34875980D01*
X131218896Y-34631575D01*
X131250943Y-34379667D01*
X131251548Y-34356587D01*
X131252264Y-34329233D01*
X131253291Y-34290000D01*
X131239460Y-34103882D01*
X131234818Y-34041411D01*
X131234817Y-34041407D01*
X131234472Y-34036759D01*
X131226096Y-33999739D01*
X131179459Y-33793639D01*
X131178428Y-33789082D01*
X131132564Y-33671142D01*
X131088084Y-33556762D01*
X131088083Y-33556760D01*
X131086391Y-33552409D01*
X131065866Y-33516498D01*
X130962702Y-33335997D01*
X130962700Y-33335995D01*
X130960383Y-33331940D01*
X130803171Y-33132517D01*
X130618209Y-32958523D01*
X130574483Y-32928189D01*
X130413393Y-32816437D01*
X130413390Y-32816435D01*
X130409561Y-32813779D01*
X130405384Y-32811719D01*
X130405377Y-32811715D01*
X130185996Y-32703528D01*
X130185992Y-32703527D01*
X130181810Y-32701464D01*
X129939960Y-32624047D01*
X129935355Y-32623297D01*
X129693935Y-32583980D01*
X129693934Y-32583980D01*
X129689323Y-32583229D01*
X129562364Y-32581567D01*
X129440083Y-32579966D01*
X129440080Y-32579966D01*
X129435406Y-32579905D01*
X129183787Y-32614149D01*
X128939993Y-32685208D01*
X128709380Y-32791522D01*
X128705471Y-32794085D01*
X128500928Y-32928189D01*
X128500923Y-32928193D01*
X128497015Y-32930755D01*
X128307562Y-33099848D01*
X128145183Y-33295087D01*
X128013447Y-33512182D01*
X128011638Y-33516496D01*
X128011637Y-33516498D01*
X127937255Y-33693880D01*
X127915246Y-33746365D01*
X127852738Y-33992490D01*
X127827296Y-34245151D01*
X127839480Y-34498798D01*
X127859024Y-34597054D01*
X127884894Y-34727107D01*
X127889021Y-34747857D01*
X127890600Y-34752255D01*
X127890602Y-34752262D01*
X127940547Y-34891369D01*
X127974831Y-34986858D01*
X128095025Y-35210551D01*
X128097820Y-35214294D01*
X128097822Y-35214297D01*
X128244171Y-35410282D01*
X128244176Y-35410288D01*
X128246963Y-35414020D01*
X128250272Y-35417300D01*
X128250277Y-35417306D01*
X128423990Y-35589509D01*
X128427307Y-35592797D01*
X128431069Y-35595555D01*
X128431072Y-35595558D01*
X128536764Y-35673054D01*
X128632094Y-35742953D01*
X128636229Y-35745129D01*
X128636233Y-35745131D01*
X128754289Y-35807243D01*
X128856827Y-35861191D01*
X129096568Y-35944912D01*
X129346050Y-35992278D01*
X129466532Y-35997011D01*
X129595125Y-36002064D01*
X129595130Y-36002064D01*
X129599793Y-36002247D01*
X129698774Y-35991407D01*
X129847569Y-35975112D01*
X129847575Y-35975111D01*
X129852222Y-35974602D01*
X129961680Y-35945784D01*
X130093273Y-35911138D01*
X130097793Y-35909948D01*
X130102092Y-35908101D01*
X130102095Y-35908100D01*
X130135630Y-35893693D01*
X130206114Y-35885181D01*
X130274461Y-35920366D01*
X130941348Y-36587253D01*
X130948888Y-36595539D01*
X130953000Y-36602018D01*
X130958777Y-36607443D01*
X131002651Y-36648643D01*
X131005493Y-36651398D01*
X131025230Y-36671135D01*
X131028427Y-36673615D01*
X131037447Y-36681318D01*
X131069679Y-36711586D01*
X131076625Y-36715405D01*
X131076628Y-36715407D01*
X131087434Y-36721348D01*
X131103953Y-36732199D01*
X131119959Y-36744614D01*
X131127228Y-36747759D01*
X131127232Y-36747762D01*
X131160537Y-36762174D01*
X131171187Y-36767391D01*
X131209940Y-36788695D01*
X131217615Y-36790666D01*
X131217616Y-36790666D01*
X131229562Y-36793733D01*
X131248267Y-36800137D01*
X131266855Y-36808181D01*
X131274678Y-36809420D01*
X131274688Y-36809423D01*
X131310524Y-36815099D01*
X131322144Y-36817505D01*
X131353959Y-36825673D01*
X131364970Y-36828500D01*
X131385224Y-36828500D01*
X131404934Y-36830051D01*
X131424943Y-36833220D01*
X131432835Y-36832474D01*
X131451580Y-36830702D01*
X131468962Y-36829059D01*
X131480819Y-36828500D01*
X137716233Y-36828500D01*
X137727416Y-36829027D01*
X137734909Y-36830702D01*
X137742835Y-36830453D01*
X137742836Y-36830453D01*
X137802986Y-36828562D01*
X137806945Y-36828500D01*
X137834856Y-36828500D01*
X137838791Y-36828003D01*
X137838856Y-36827995D01*
X137850693Y-36827062D01*
X137882951Y-36826048D01*
X137886970Y-36825922D01*
X137894889Y-36825673D01*
X137914343Y-36820021D01*
X137933700Y-36816013D01*
X137945930Y-36814468D01*
X137945931Y-36814468D01*
X137953797Y-36813474D01*
X137961168Y-36810555D01*
X137961170Y-36810555D01*
X137994912Y-36797196D01*
X138006142Y-36793351D01*
X138040983Y-36783229D01*
X138040984Y-36783229D01*
X138048593Y-36781018D01*
X138055412Y-36776985D01*
X138055417Y-36776983D01*
X138066028Y-36770707D01*
X138083776Y-36762012D01*
X138102617Y-36754552D01*
X138138387Y-36728564D01*
X138148307Y-36722048D01*
X138179535Y-36703580D01*
X138179538Y-36703578D01*
X138186362Y-36699542D01*
X138200683Y-36685221D01*
X138215717Y-36672380D01*
X138225694Y-36665131D01*
X138232107Y-36660472D01*
X138260298Y-36626395D01*
X138268288Y-36617616D01*
X140092253Y-34793652D01*
X140100539Y-34786112D01*
X140107018Y-34782000D01*
X140153644Y-34732348D01*
X140156398Y-34729507D01*
X140173993Y-34711912D01*
X140205298Y-34689041D01*
X140378536Y-34599626D01*
X140378537Y-34599626D01*
X140383519Y-34597054D01*
X140388520Y-34593217D01*
X140491129Y-34514482D01*
X140563447Y-34458991D01*
X140655859Y-34357431D01*
X140712308Y-34295395D01*
X140712310Y-34295392D01*
X140716081Y-34291248D01*
X140789685Y-34173913D01*
X140833616Y-34103882D01*
X140833618Y-34103878D01*
X140836599Y-34099126D01*
X140854151Y-34055463D01*
X140898116Y-33999721D01*
X140965241Y-33976596D01*
X141034212Y-33993433D01*
X141084783Y-34048217D01*
X141140028Y-34164041D01*
X141145710Y-34173648D01*
X141271459Y-34348644D01*
X141278758Y-34357100D01*
X141433500Y-34507056D01*
X141442197Y-34514098D01*
X141621040Y-34634276D01*
X141630843Y-34639665D01*
X141828143Y-34726274D01*
X141838738Y-34729840D01*
X141968385Y-34760966D01*
X141982470Y-34760261D01*
X141986000Y-34751382D01*
X141986000Y-34750498D01*
X142494000Y-34750498D01*
X142498106Y-34764480D01*
X142508352Y-34766070D01*
X142510475Y-34765619D01*
X142716435Y-34702257D01*
X142726780Y-34698036D01*
X142918267Y-34599202D01*
X142927698Y-34593217D01*
X143098663Y-34462032D01*
X143106876Y-34454479D01*
X143251909Y-34295090D01*
X143258664Y-34286190D01*
X143373166Y-34103657D01*
X143378247Y-34093687D01*
X143393605Y-34055483D01*
X143437572Y-33999739D01*
X143504697Y-33976614D01*
X143573668Y-33993451D01*
X143624238Y-34048236D01*
X143650673Y-34103657D01*
X143682007Y-34169351D01*
X143685284Y-34173912D01*
X143685285Y-34173913D01*
X143802625Y-34337207D01*
X143814351Y-34353526D01*
X143889710Y-34426554D01*
X143972781Y-34507056D01*
X143977217Y-34511355D01*
X144042273Y-34555070D01*
X144160805Y-34634721D01*
X144160810Y-34634724D01*
X144165458Y-34637847D01*
X144170590Y-34640100D01*
X144170594Y-34640102D01*
X144257877Y-34678417D01*
X144303867Y-34715459D01*
X144304444Y-34714917D01*
X144308321Y-34719046D01*
X144309163Y-34719724D01*
X144309865Y-34720690D01*
X144309868Y-34720694D01*
X144314528Y-34727107D01*
X144342803Y-34750498D01*
X144348605Y-34755298D01*
X144357384Y-34763288D01*
X146181348Y-36587253D01*
X146188888Y-36595539D01*
X146193000Y-36602018D01*
X146198777Y-36607443D01*
X146242651Y-36648643D01*
X146245493Y-36651398D01*
X146265230Y-36671135D01*
X146268427Y-36673615D01*
X146277447Y-36681318D01*
X146309679Y-36711586D01*
X146316625Y-36715405D01*
X146316628Y-36715407D01*
X146327434Y-36721348D01*
X146343953Y-36732199D01*
X146359959Y-36744614D01*
X146367228Y-36747759D01*
X146367232Y-36747762D01*
X146400537Y-36762174D01*
X146411187Y-36767391D01*
X146449940Y-36788695D01*
X146457615Y-36790666D01*
X146457616Y-36790666D01*
X146469562Y-36793733D01*
X146488267Y-36800137D01*
X146506855Y-36808181D01*
X146514678Y-36809420D01*
X146514688Y-36809423D01*
X146550524Y-36815099D01*
X146562144Y-36817505D01*
X146593959Y-36825673D01*
X146604970Y-36828500D01*
X146625224Y-36828500D01*
X146644934Y-36830051D01*
X146664943Y-36833220D01*
X146672835Y-36832474D01*
X146691580Y-36830702D01*
X146708962Y-36829059D01*
X146720819Y-36828500D01*
X152956233Y-36828500D01*
X152967416Y-36829027D01*
X152974909Y-36830702D01*
X152982835Y-36830453D01*
X152982836Y-36830453D01*
X153042986Y-36828562D01*
X153046945Y-36828500D01*
X153074856Y-36828500D01*
X153078791Y-36828003D01*
X153078856Y-36827995D01*
X153090693Y-36827062D01*
X153122951Y-36826048D01*
X153126970Y-36825922D01*
X153134889Y-36825673D01*
X153154343Y-36820021D01*
X153173700Y-36816013D01*
X153185930Y-36814468D01*
X153185931Y-36814468D01*
X153193797Y-36813474D01*
X153201168Y-36810555D01*
X153201170Y-36810555D01*
X153234912Y-36797196D01*
X153246142Y-36793351D01*
X153280983Y-36783229D01*
X153280984Y-36783229D01*
X153288593Y-36781018D01*
X153295412Y-36776985D01*
X153295417Y-36776983D01*
X153306028Y-36770707D01*
X153323776Y-36762012D01*
X153342617Y-36754552D01*
X153378387Y-36728564D01*
X153388307Y-36722048D01*
X153419535Y-36703580D01*
X153419538Y-36703578D01*
X153426362Y-36699542D01*
X153440683Y-36685221D01*
X153455717Y-36672380D01*
X153465694Y-36665131D01*
X153472107Y-36660472D01*
X153500298Y-36626395D01*
X153508288Y-36617616D01*
X154206728Y-35919176D01*
X154269040Y-35885150D01*
X154337364Y-35889316D01*
X154492151Y-35943370D01*
X154492157Y-35943372D01*
X154496568Y-35944912D01*
X154746050Y-35992278D01*
X154866532Y-35997011D01*
X154995125Y-36002064D01*
X154995130Y-36002064D01*
X154999793Y-36002247D01*
X155098774Y-35991407D01*
X155247569Y-35975112D01*
X155247575Y-35975111D01*
X155252222Y-35974602D01*
X155361680Y-35945784D01*
X155493273Y-35911138D01*
X155497793Y-35909948D01*
X155616353Y-35859011D01*
X155726807Y-35811557D01*
X155726810Y-35811555D01*
X155731110Y-35809708D01*
X155735090Y-35807245D01*
X155735094Y-35807243D01*
X155943064Y-35678547D01*
X155943066Y-35678545D01*
X155947047Y-35676082D01*
X156045428Y-35592797D01*
X156137289Y-35515031D01*
X156137291Y-35515029D01*
X156140862Y-35512006D01*
X156308295Y-35321084D01*
X156445669Y-35107512D01*
X156549967Y-34875980D01*
X156618896Y-34631575D01*
X156650943Y-34379667D01*
X156651548Y-34356587D01*
X156652264Y-34329233D01*
X156653291Y-34290000D01*
X156639460Y-34103882D01*
X156634818Y-34041411D01*
X156634817Y-34041407D01*
X156634472Y-34036759D01*
X156626096Y-33999739D01*
X156579459Y-33793639D01*
X156578428Y-33789082D01*
X156532564Y-33671142D01*
X156488084Y-33556762D01*
X156488083Y-33556760D01*
X156486391Y-33552409D01*
X156465866Y-33516498D01*
X156362702Y-33335997D01*
X156362700Y-33335995D01*
X156360383Y-33331940D01*
X156203171Y-33132517D01*
X156018209Y-32958523D01*
X155974483Y-32928189D01*
X155813393Y-32816437D01*
X155813390Y-32816435D01*
X155809561Y-32813779D01*
X155805384Y-32811719D01*
X155805377Y-32811715D01*
X155585996Y-32703528D01*
X155585992Y-32703527D01*
X155581810Y-32701464D01*
X155339960Y-32624047D01*
X155335355Y-32623297D01*
X155093935Y-32583980D01*
X155093934Y-32583980D01*
X155089323Y-32583229D01*
X154962364Y-32581567D01*
X154840083Y-32579966D01*
X154840080Y-32579966D01*
X154835406Y-32579905D01*
X154583787Y-32614149D01*
X154339993Y-32685208D01*
X154109380Y-32791522D01*
X154105471Y-32794085D01*
X153900928Y-32928189D01*
X153900923Y-32928193D01*
X153897015Y-32930755D01*
X153707562Y-33099848D01*
X153545183Y-33295087D01*
X153413447Y-33512182D01*
X153411638Y-33516496D01*
X153411637Y-33516498D01*
X153337255Y-33693880D01*
X153315246Y-33746365D01*
X153252738Y-33992490D01*
X153227296Y-34245151D01*
X153239480Y-34498798D01*
X153259024Y-34597054D01*
X153284894Y-34727107D01*
X153289021Y-34747857D01*
X153290600Y-34752255D01*
X153290602Y-34752262D01*
X153340547Y-34891369D01*
X153344741Y-34962241D01*
X153311054Y-35023041D01*
X152809500Y-35524595D01*
X152747188Y-35558621D01*
X152720405Y-35561500D01*
X146999594Y-35561500D01*
X146931473Y-35541498D01*
X146910499Y-35524595D01*
X145821233Y-34435328D01*
X145787207Y-34373016D01*
X145792272Y-34302200D01*
X145803591Y-34279277D01*
X145913616Y-34103882D01*
X145913618Y-34103878D01*
X145916599Y-34099126D01*
X145933898Y-34056094D01*
X145977864Y-34000351D01*
X146044989Y-33977226D01*
X146113960Y-33994063D01*
X146164530Y-34048848D01*
X146190673Y-34103657D01*
X146222007Y-34169351D01*
X146225284Y-34173912D01*
X146225285Y-34173913D01*
X146342625Y-34337207D01*
X146354351Y-34353526D01*
X146429710Y-34426554D01*
X146512781Y-34507056D01*
X146517217Y-34511355D01*
X146582273Y-34555070D01*
X146700805Y-34634721D01*
X146700810Y-34634724D01*
X146705458Y-34637847D01*
X146710590Y-34640100D01*
X146710594Y-34640102D01*
X146797878Y-34678417D01*
X146913124Y-34729007D01*
X146918582Y-34730317D01*
X146918581Y-34730317D01*
X147128192Y-34780640D01*
X147128198Y-34780641D01*
X147133651Y-34781950D01*
X147228287Y-34787407D01*
X147354463Y-34794683D01*
X147354466Y-34794683D01*
X147360069Y-34795006D01*
X147585219Y-34767759D01*
X147590581Y-34766109D01*
X147590583Y-34766109D01*
X147706927Y-34730317D01*
X147801987Y-34701073D01*
X147902753Y-34649063D01*
X147998536Y-34599626D01*
X147998537Y-34599626D01*
X148003519Y-34597054D01*
X148008520Y-34593217D01*
X148111129Y-34514482D01*
X148183447Y-34458991D01*
X148275859Y-34357431D01*
X148332308Y-34295395D01*
X148332310Y-34295392D01*
X148336081Y-34291248D01*
X148409685Y-34173913D01*
X148453616Y-34103882D01*
X148453618Y-34103878D01*
X148456599Y-34099126D01*
X148541190Y-33888699D01*
X148587181Y-33666618D01*
X148590500Y-33609056D01*
X148590500Y-32462465D01*
X148575474Y-32294105D01*
X148515630Y-32075349D01*
X148501894Y-32046549D01*
X148420410Y-31875716D01*
X148420409Y-31875715D01*
X148417993Y-31870649D01*
X148345514Y-31769784D01*
X148322006Y-31702793D01*
X148338448Y-31633726D01*
X148358741Y-31607163D01*
X148815499Y-31150405D01*
X148877811Y-31116379D01*
X148904594Y-31113500D01*
X156530406Y-31113500D01*
X156598527Y-31133502D01*
X156619501Y-31150405D01*
X159025154Y-33556058D01*
X159059180Y-33618370D01*
X159052256Y-33693877D01*
X159030246Y-33746365D01*
X158967738Y-33992490D01*
X158942296Y-34245151D01*
X158954480Y-34498798D01*
X158974024Y-34597054D01*
X158999894Y-34727107D01*
X159004021Y-34747857D01*
X159005600Y-34752255D01*
X159005602Y-34752262D01*
X159055547Y-34891369D01*
X159089831Y-34986858D01*
X159210025Y-35210551D01*
X159212820Y-35214294D01*
X159212822Y-35214297D01*
X159359171Y-35410282D01*
X159359176Y-35410288D01*
X159361963Y-35414020D01*
X159365272Y-35417300D01*
X159365277Y-35417306D01*
X159538990Y-35589509D01*
X159542307Y-35592797D01*
X159546069Y-35595555D01*
X159546072Y-35595558D01*
X159651764Y-35673054D01*
X159747094Y-35742953D01*
X159751229Y-35745129D01*
X159751233Y-35745131D01*
X159869289Y-35807243D01*
X159971827Y-35861191D01*
X160211568Y-35944912D01*
X160461050Y-35992278D01*
X160581532Y-35997011D01*
X160710125Y-36002064D01*
X160710130Y-36002064D01*
X160714793Y-36002247D01*
X160813774Y-35991407D01*
X160962569Y-35975112D01*
X160962575Y-35975111D01*
X160967222Y-35974602D01*
X161076680Y-35945784D01*
X161208273Y-35911138D01*
X161212793Y-35909948D01*
X161331353Y-35859011D01*
X161441807Y-35811557D01*
X161441810Y-35811555D01*
X161446110Y-35809708D01*
X161450090Y-35807245D01*
X161450094Y-35807243D01*
X161658064Y-35678547D01*
X161658066Y-35678545D01*
X161662047Y-35676082D01*
X161760428Y-35592797D01*
X161852289Y-35515031D01*
X161852291Y-35515029D01*
X161855862Y-35512006D01*
X162023295Y-35321084D01*
X162160669Y-35107512D01*
X162264967Y-34875980D01*
X162333896Y-34631575D01*
X162365943Y-34379667D01*
X162366548Y-34356587D01*
X162367264Y-34329233D01*
X162368291Y-34290000D01*
X162354460Y-34103882D01*
X162349818Y-34041411D01*
X162349817Y-34041407D01*
X162349472Y-34036759D01*
X162341096Y-33999739D01*
X162294459Y-33793639D01*
X162293428Y-33789082D01*
X162247564Y-33671142D01*
X162203084Y-33556762D01*
X162203083Y-33556760D01*
X162201391Y-33552409D01*
X162180866Y-33516498D01*
X162077702Y-33335997D01*
X162077700Y-33335995D01*
X162075383Y-33331940D01*
X161918171Y-33132517D01*
X161733209Y-32958523D01*
X161689483Y-32928189D01*
X161528393Y-32816437D01*
X161528390Y-32816435D01*
X161524561Y-32813779D01*
X161520384Y-32811719D01*
X161520377Y-32811715D01*
X161300996Y-32703528D01*
X161300992Y-32703527D01*
X161296810Y-32701464D01*
X161054960Y-32624047D01*
X161050355Y-32623297D01*
X160808935Y-32583980D01*
X160808934Y-32583980D01*
X160804323Y-32583229D01*
X160677364Y-32581567D01*
X160555083Y-32579966D01*
X160555080Y-32579966D01*
X160550406Y-32579905D01*
X160298787Y-32614149D01*
X160294301Y-32615457D01*
X160294299Y-32615457D01*
X160143345Y-32659456D01*
X160054993Y-32685208D01*
X160051657Y-32686746D01*
X159981107Y-32691844D01*
X159918704Y-32657799D01*
X157348652Y-30087747D01*
X157341112Y-30079461D01*
X157337000Y-30072982D01*
X157287348Y-30026356D01*
X157284507Y-30023602D01*
X157264770Y-30003865D01*
X157261573Y-30001385D01*
X157252551Y-29993680D01*
X157248397Y-29989779D01*
X157220321Y-29963414D01*
X157213375Y-29959595D01*
X157213372Y-29959593D01*
X157202566Y-29953652D01*
X157186047Y-29942801D01*
X157185583Y-29942441D01*
X157170041Y-29930386D01*
X157162772Y-29927241D01*
X157162768Y-29927238D01*
X157129463Y-29912826D01*
X157118813Y-29907609D01*
X157080060Y-29886305D01*
X157060437Y-29881267D01*
X157041734Y-29874863D01*
X157030420Y-29869967D01*
X157030419Y-29869967D01*
X157023145Y-29866819D01*
X157015322Y-29865580D01*
X157015312Y-29865577D01*
X156979476Y-29859901D01*
X156967856Y-29857495D01*
X156932711Y-29848472D01*
X156932710Y-29848472D01*
X156925030Y-29846500D01*
X156904776Y-29846500D01*
X156885065Y-29844949D01*
X156872886Y-29843020D01*
X156865057Y-29841780D01*
X156835786Y-29844547D01*
X156821039Y-29845941D01*
X156809181Y-29846500D01*
X148668767Y-29846500D01*
X148657584Y-29845973D01*
X148650091Y-29844298D01*
X148642165Y-29844547D01*
X148642164Y-29844547D01*
X148582014Y-29846438D01*
X148578055Y-29846500D01*
X148550144Y-29846500D01*
X148546210Y-29846997D01*
X148546209Y-29846997D01*
X148546144Y-29847005D01*
X148534307Y-29847938D01*
X148502490Y-29848938D01*
X148498029Y-29849078D01*
X148490110Y-29849327D01*
X148472454Y-29854456D01*
X148470658Y-29854978D01*
X148451306Y-29858986D01*
X148444235Y-29859880D01*
X148431203Y-29861526D01*
X148423834Y-29864443D01*
X148423832Y-29864444D01*
X148390097Y-29877800D01*
X148378869Y-29881645D01*
X148336407Y-29893982D01*
X148329585Y-29898016D01*
X148329579Y-29898019D01*
X148318968Y-29904294D01*
X148301218Y-29912990D01*
X148289756Y-29917528D01*
X148289751Y-29917531D01*
X148282383Y-29920448D01*
X148264970Y-29933099D01*
X148246625Y-29946427D01*
X148236707Y-29952943D01*
X148225463Y-29959593D01*
X148198637Y-29975458D01*
X148184313Y-29989782D01*
X148169283Y-30002620D01*
X148152893Y-30014528D01*
X148124712Y-30048593D01*
X148116722Y-30057373D01*
X146927747Y-31246348D01*
X146919461Y-31253888D01*
X146912982Y-31258000D01*
X146907557Y-31263777D01*
X146866357Y-31307651D01*
X146863602Y-31310493D01*
X146846007Y-31328088D01*
X146814702Y-31350959D01*
X146636481Y-31442946D01*
X146632033Y-31446359D01*
X146620326Y-31455342D01*
X146456553Y-31581009D01*
X146378322Y-31666984D01*
X146363840Y-31682900D01*
X146303919Y-31748752D01*
X146300938Y-31753503D01*
X146300938Y-31753504D01*
X146224275Y-31875716D01*
X146183401Y-31940874D01*
X146181307Y-31946084D01*
X146166103Y-31983905D01*
X146122136Y-32039649D01*
X146055011Y-32062774D01*
X145986040Y-32045937D01*
X145935470Y-31991152D01*
X145880410Y-31875716D01*
X145880409Y-31875715D01*
X145877993Y-31870649D01*
X145782530Y-31737799D01*
X145748926Y-31691034D01*
X145748924Y-31691032D01*
X145745649Y-31686474D01*
X145641474Y-31585521D01*
X145586811Y-31532548D01*
X145586808Y-31532546D01*
X145582783Y-31528645D01*
X145455249Y-31442946D01*
X145399195Y-31405279D01*
X145399190Y-31405276D01*
X145394542Y-31402153D01*
X145389410Y-31399900D01*
X145389406Y-31399898D01*
X145256370Y-31341499D01*
X145186876Y-31310993D01*
X145153122Y-31302890D01*
X144971808Y-31259360D01*
X144971802Y-31259359D01*
X144966349Y-31258050D01*
X144853140Y-31251522D01*
X144745537Y-31245317D01*
X144745534Y-31245317D01*
X144739931Y-31244994D01*
X144514781Y-31272241D01*
X144509419Y-31273891D01*
X144509417Y-31273891D01*
X144490408Y-31279739D01*
X144298013Y-31338927D01*
X144293029Y-31341499D01*
X144293030Y-31341499D01*
X144179885Y-31399898D01*
X144096481Y-31442946D01*
X144092033Y-31446359D01*
X144080326Y-31455342D01*
X143916553Y-31581009D01*
X143838322Y-31666984D01*
X143823840Y-31682900D01*
X143763919Y-31748752D01*
X143760938Y-31753503D01*
X143760938Y-31753504D01*
X143684275Y-31875716D01*
X143643401Y-31940874D01*
X143625849Y-31984537D01*
X143581884Y-32040279D01*
X143514759Y-32063404D01*
X143445788Y-32046567D01*
X143395217Y-31991783D01*
X143339972Y-31875959D01*
X143334290Y-31866352D01*
X143208541Y-31691356D01*
X143201242Y-31682900D01*
X143046500Y-31532944D01*
X143037803Y-31525902D01*
X142858960Y-31405724D01*
X142849157Y-31400335D01*
X142651857Y-31313726D01*
X142641262Y-31310160D01*
X142511615Y-31279034D01*
X142497530Y-31279739D01*
X142494000Y-31288618D01*
X142494000Y-34750498D01*
X141986000Y-34750498D01*
X141986000Y-31289502D01*
X141981894Y-31275520D01*
X141971648Y-31273930D01*
X141969525Y-31274381D01*
X141763565Y-31337743D01*
X141753220Y-31341964D01*
X141561733Y-31440798D01*
X141552302Y-31446783D01*
X141381337Y-31577968D01*
X141373124Y-31585521D01*
X141228091Y-31744910D01*
X141221336Y-31753810D01*
X141106834Y-31936343D01*
X141101753Y-31946313D01*
X141086395Y-31984517D01*
X141042428Y-32040261D01*
X140975303Y-32063386D01*
X140906332Y-32046549D01*
X140855762Y-31991764D01*
X140800410Y-31875716D01*
X140800409Y-31875715D01*
X140797993Y-31870649D01*
X140702530Y-31737799D01*
X140668926Y-31691034D01*
X140668924Y-31691032D01*
X140665649Y-31686474D01*
X140561474Y-31585521D01*
X140506811Y-31532548D01*
X140506808Y-31532546D01*
X140502783Y-31528645D01*
X140375249Y-31442946D01*
X140319195Y-31405279D01*
X140319190Y-31405276D01*
X140314542Y-31402153D01*
X140309410Y-31399900D01*
X140309406Y-31399898D01*
X140176370Y-31341499D01*
X140106876Y-31310993D01*
X140073122Y-31302890D01*
X139891808Y-31259360D01*
X139891802Y-31259359D01*
X139886349Y-31258050D01*
X139773140Y-31251522D01*
X139665537Y-31245317D01*
X139665534Y-31245317D01*
X139659931Y-31244994D01*
X139434781Y-31272241D01*
X139429419Y-31273891D01*
X139429417Y-31273891D01*
X139410408Y-31279739D01*
X139218013Y-31338927D01*
X139213029Y-31341499D01*
X139213030Y-31341499D01*
X139099885Y-31399898D01*
X139016481Y-31442946D01*
X139012033Y-31446359D01*
X139000326Y-31455342D01*
X138836553Y-31581009D01*
X138758322Y-31666984D01*
X138743840Y-31682900D01*
X138683919Y-31748752D01*
X138680938Y-31753503D01*
X138680938Y-31753504D01*
X138604275Y-31875716D01*
X138563401Y-31940874D01*
X138561307Y-31946084D01*
X138546103Y-31983905D01*
X138502136Y-32039649D01*
X138435011Y-32062774D01*
X138366040Y-32045937D01*
X138315470Y-31991152D01*
X138260410Y-31875716D01*
X138260409Y-31875715D01*
X138257993Y-31870649D01*
X138162530Y-31737799D01*
X138128926Y-31691034D01*
X138128924Y-31691032D01*
X138125649Y-31686474D01*
X138021474Y-31585521D01*
X137966811Y-31532548D01*
X137966808Y-31532546D01*
X137962783Y-31528645D01*
X137835249Y-31442946D01*
X137779195Y-31405279D01*
X137779190Y-31405276D01*
X137774542Y-31402153D01*
X137682121Y-31361583D01*
X137636135Y-31324543D01*
X137635558Y-31325085D01*
X137631675Y-31320950D01*
X137630832Y-31320271D01*
X137625472Y-31312893D01*
X137591406Y-31284711D01*
X137582627Y-31276722D01*
X136393652Y-30087747D01*
X136386112Y-30079461D01*
X136382000Y-30072982D01*
X136332348Y-30026356D01*
X136329507Y-30023602D01*
X136309770Y-30003865D01*
X136306573Y-30001385D01*
X136297551Y-29993680D01*
X136293397Y-29989779D01*
X136265321Y-29963414D01*
X136258375Y-29959595D01*
X136258372Y-29959593D01*
X136247566Y-29953652D01*
X136231047Y-29942801D01*
X136230583Y-29942441D01*
X136215041Y-29930386D01*
X136207772Y-29927241D01*
X136207768Y-29927238D01*
X136174463Y-29912826D01*
X136163813Y-29907609D01*
X136125060Y-29886305D01*
X136105437Y-29881267D01*
X136086734Y-29874863D01*
X136075420Y-29869967D01*
X136075419Y-29869967D01*
X136068145Y-29866819D01*
X136060322Y-29865580D01*
X136060312Y-29865577D01*
X136024476Y-29859901D01*
X136012856Y-29857495D01*
X135977711Y-29848472D01*
X135977710Y-29848472D01*
X135970030Y-29846500D01*
X135949776Y-29846500D01*
X135930065Y-29844949D01*
X135917886Y-29843020D01*
X135910057Y-29841780D01*
X135880786Y-29844547D01*
X135866039Y-29845941D01*
X135854181Y-29846500D01*
X127713768Y-29846500D01*
X127702585Y-29845973D01*
X127695092Y-29844298D01*
X127687166Y-29844547D01*
X127687165Y-29844547D01*
X127627002Y-29846438D01*
X127623044Y-29846500D01*
X127595144Y-29846500D01*
X127591154Y-29847004D01*
X127579320Y-29847936D01*
X127535111Y-29849326D01*
X127527495Y-29851539D01*
X127527493Y-29851539D01*
X127515652Y-29854979D01*
X127496293Y-29858988D01*
X127494983Y-29859154D01*
X127476203Y-29861526D01*
X127468837Y-29864442D01*
X127468831Y-29864444D01*
X127435098Y-29877800D01*
X127423868Y-29881645D01*
X127407828Y-29886305D01*
X127381407Y-29893981D01*
X127374584Y-29898016D01*
X127363966Y-29904295D01*
X127346213Y-29912992D01*
X127338568Y-29916019D01*
X127327383Y-29920448D01*
X127313705Y-29930386D01*
X127291612Y-29946437D01*
X127281695Y-29952951D01*
X127243638Y-29975458D01*
X127229317Y-29989779D01*
X127214284Y-30002619D01*
X127197893Y-30014528D01*
X127189217Y-30025016D01*
X127169702Y-30048605D01*
X127161712Y-30057384D01*
X124559639Y-32659456D01*
X124497327Y-32693482D01*
X124432131Y-32690363D01*
X124229405Y-32625470D01*
X124229407Y-32625470D01*
X124224960Y-32624047D01*
X124220355Y-32623297D01*
X123978935Y-32583980D01*
X123978934Y-32583980D01*
X123974323Y-32583229D01*
X123847364Y-32581567D01*
X123725083Y-32579966D01*
X123725080Y-32579966D01*
X123720406Y-32579905D01*
X123468787Y-32614149D01*
X123224993Y-32685208D01*
X122994380Y-32791522D01*
X122990471Y-32794085D01*
X122785928Y-32928189D01*
X122785923Y-32928193D01*
X122782015Y-32930755D01*
X122592562Y-33099848D01*
X122430183Y-33295087D01*
X122298447Y-33512182D01*
X122296638Y-33516496D01*
X122296637Y-33516498D01*
X122222255Y-33693880D01*
X122200246Y-33746365D01*
X122137738Y-33992490D01*
X122112296Y-34245151D01*
X118308500Y-34245151D01*
X118308500Y-26634500D01*
X118328502Y-26566379D01*
X118382158Y-26519886D01*
X118434500Y-26508500D01*
X166165500Y-26508500D01*
X166233621Y-26528502D01*
G37*
%TD.AperFunction*%
%TD*%
M02*
